<svg xmlns="http://www.w3.org/2000/svg" viewBox="0 0 61 61"><defs><style>.a,.b{fill:#e9eaeb;}.b,.c,.d,.e{stroke:#6a336d;stroke-miterlimit:10;stroke-width:2px;}.c{fill:#fff;}.d{fill:#9d54a0;}.e{fill:none;}</style></defs><title>email</title><circle class="a" cx="30.5" cy="30.5" r="30.5"/><path class="b" d="M54,45V26.28a3.94,3.94,0,0,0-1.45-3L33.92,6.53a5.86,5.86,0,0,0-7.84,0L7.45,23.3a3.94,3.94,0,0,0-1.45,3V45Z"/><rect class="c" x="13" y="12" width="34" height="32"/><path class="d" d="M53,28c-2.18,1.75-14.16,11.66-15.43,12.4A16.7,16.7,0,0,1,30,42a16.7,16.7,0,0,1-7.57-1.6C21.16,39.66,9.18,29.75,7,28H6V52a3,3,0,0,0,3,3H51a3,3,0,0,0,3-3V28Z"/><line class="e" x1="20.94" y1="39.3" x2="10" y2="51"/><line class="e" x1="39.03" y1="39.3" x2="49.97" y2="51"/><line class="e" x1="20" y1="22" x2="39" y2="22"/><line class="e" x1="20" y1="26" x2="39" y2="26"/><line class="e" x1="20" y1="30" x2="33" y2="30"/></svg>