<svg xmlns="http://www.w3.org/2000/svg" viewBox="0 0 60.64 58"><defs><style>.a{fill:#e9eaeb;}.b{fill:#fff;}.b,.c,.d{stroke:#6a336d;stroke-miterlimit:10;stroke-width:2px;}.c{fill:#9d54a0;}.d{fill:none;}</style></defs><title>phone</title><circle class="a" cx="28.64" cy="33" r="25"/><path class="b" d="M59.64,4V20.05A3,3,0,0,1,56.69,23H40.51L34.3,28.52a1,1,0,0,1-1.66-.75V23h-2a3,3,0,0,1-3-3V4a3,3,0,0,1,3-3h26A3,3,0,0,1,59.64,4Z"/><path class="c" d="M39.45,39.39a21.63,21.63,0,0,0-12.23-5.25,24.6,24.6,0,0,0-4.11,4.44c-2.27-.9-4.82-3.5-7.11-6.28s-4.35-5.79-4.79-8.19a24.61,24.61,0,0,0,5.15-3.17,21.63,21.63,0,0,0-2.78-13c-2.36-.52-8-.7-12,1-1.41,5-1.08,15.44,8.85,28C20.82,49,31,51.37,36.18,50.94,38.59,47.36,39.51,41.8,39.45,39.39Z"/><line class="d" x1="38.64" y1="12" x2="40.64" y2="12"/><line class="d" x1="42.64" y1="12" x2="44.64" y2="12"/><line class="d" x1="46.64" y1="12" x2="48.64" y2="12"/></svg>