<svg width="941" height="623" viewBox="0 0 941 623" xmlns="http://www.w3.org/2000/svg"><title>Outsourcing-web</title><g fill="none" fill-rule="evenodd"><path fill="#AF662F" d="M529.98 614.34h105.28V75.177H529.98z"/><path d="M535.59 340.77h94.55V217.14h-94.55v123.63zm0-134.561h94.55V82.575h-94.55v123.634zm0 269.121h94.55V351.7h-94.55v123.63zm0 134.55h94.55V486.25h-94.55v123.63zm-10.92 10.91h116.38V71.67H524.67v549.12z" fill="#D3873C"/><path fill="#A55E29" d="M535.59 82.575l94.55 123.634V82.575h-94.55M535.59 217.14l94.55 123.63V217.14h-94.55M535.59 351.7l94.55 123.63V351.7h-94.55M535.59 486.25l94.55 123.63V486.25h-94.55"/><path fill="#AF662F" d="M424.52 614.34H529.8V75.177H424.52z"/><path d="M430.12 340.77h94.55V217.14h-94.55v123.63zm0-134.561h94.55V82.575h-94.55v123.634zm0 269.121h94.55V351.7h-94.55v123.63zm0 134.55h94.55V486.25h-94.55v123.63zm-10.91 10.91h116.38V71.67H419.21v549.12z" fill="#D3873C"/><path fill="#A55E29" d="M430.12 82.575l94.55 123.634V82.575h-94.55M430.12 217.14l94.55 123.63V217.14h-94.55M430.12 351.7l94.55 123.63V351.7h-94.55M430.12 486.25l94.55 123.63V486.25h-94.55"/><path fill="#AF662F" d="M635.45 614.34h105.27V75.177H635.45z"/><path d="M641.05 340.77h94.55V217.14h-94.55v123.63zm0-134.561h94.55V82.575h-94.55v123.634zm0 269.121h94.55V351.7h-94.55v123.63zm0 134.55h94.55V486.25h-94.55v123.63zm-10.91 10.91h116.37V71.67H630.14v549.12z" fill="#D3873C"/><path fill="#A55E29" d="M641.05 82.575l94.55 123.634V82.575h-94.55M641.05 217.14l94.55 123.63V217.14h-94.55M641.05 351.7l94.55 123.63V351.7h-94.55M641.05 486.25l94.55 123.63V486.25h-94.55"/><path fill="#AF662F" d="M746.51 620.79h91.65V71.67h-91.65z"/><path fill="#D3D316" d="M436.09 206.209h25.56v-91.448h-25.56z"/><path fill="#C4BF18" d="M461.65 206.209h46.97v-91.448h-46.97z"/><path d="M457.25 192.37c.72 4.3-2.18 8.38-6.49 9.096-4.3.727-8.37-2.188-9.1-6.485-.72-4.309 2.19-8.383 6.49-9.096 4.31-.724 8.39 2.176 9.1 6.485" fill="#A8A8A8"/><path d="M455.49 192.662c.56 3.333-1.7 6.487-5.02 7.034-3.33.559-6.48-1.686-7.03-5.01-.56-3.33 1.69-6.482 5-7.034 3.34-.556 6.49 1.683 7.05 5.01" fill="#827C16"/><path fill="#FFF" d="M441.55 177.116h15.81v-55.957h-15.81z"/><path d="M455.14 170.961l-.12 2.854-6.35-.26c-1.16-.046-2.1-.396-2.82-1.04a3.564 3.564 0 0 1-.94-1.377 4.142 4.142 0 0 1-.31-1.683c.05-1.14.47-2.085 1.26-2.826.8-.747 1.76-1.099 2.86-1.051 1.09.046 2 .47 2.75 1.274.74.81 1.1 1.744 1.07 2.797-.02.175-.04.43-.09.762l-3.15-.132c.19-.22.31-.449.31-.69.01-.289-.08-.55-.28-.764-.23-.229-.48-.344-.78-.35a.99.99 0 0 0-.78.29c-.22.209-.34.472-.36.776-.02.732.46 1.122 1.49 1.156l6.24.264M445.07 159.987l3.05.126c-.12.203-.18.375-.19.535-.02.521.37.796 1.17.83l3.6.149-.11 2.863-4.16-.174c-1.11-.046-1.97-.384-2.6-1.014-.63-.63-.92-1.44-.87-2.448 0-.217.04-.509.11-.867M447.99 155.724c-.01.309.09.572.3.802.21.217.47.337.8.349.32.011.58-.08.82-.295.23-.2.36-.455.37-.75.01-.309-.09-.575-.31-.805a1.15 1.15 0 0 0-.79-.357c-.32-.015-.6.083-.83.283-.23.212-.35.466-.36.773zm-2.82-.183c.05-1.082.47-1.996 1.28-2.726a3.777 3.777 0 0 1 2.84-1.045c1.1.04 2.03.478 2.77 1.294.74.805 1.08 1.769 1.04 2.872-.05 1.099-.48 2.033-1.29 2.777-.81.761-1.76 1.108-2.86 1.065-1.11-.052-2.03-.481-2.75-1.294-.73-.81-1.08-1.795-1.03-2.943zM442.24 147.902c.02-.389.17-.71.45-.982.28-.277.62-.403.99-.392.39.023.72.166.96.447.24.275.36.624.34 1.042-.01.418-.17.75-.43 1.013-.26.255-.59.373-.98.355-.38-.011-.7-.166-.95-.458a1.486 1.486 0 0 1-.38-1.025zm3.35 1.483l.12-2.857 6.43.278c1.34.051 2.39.409 3.17 1.076.96.856 1.43 1.996 1.36 3.41-.01.435-.12.922-.32 1.46l-2.71-.114c.25-.467.38-.868.39-1.194.05-1.137-.76-1.732-2.43-1.801l-6.01-.258zM450.36 137.558l-.17 4.326c-.24.055-.44.083-.62.075a2.426 2.426 0 0 1-.75-.163l.06-1.452c-.57.077-.85.384-.88.916-.02.358.12.656.41.893.3.229.69.364 1.16.378.48.026.9-.068 1.2-.274.32-.206.49-.479.5-.828.01-.289-.12-.57-.39-.844l2.02-1.544c.56.779.82 1.638.79 2.557-.05 1.134-.46 2.073-1.26 2.8-.79.747-1.74 1.088-2.86 1.045-1.11-.049-2.05-.475-2.78-1.288-.73-.808-1.08-1.773-1.03-2.9.04-1.108.45-2.022 1.25-2.737.78-.719 1.71-1.06 2.81-1.011.11.006.29.02.54.051M450.44 131.698l.01-2.84c1.1.132 1.98.575 2.66 1.34.67.773.99 1.683.95 2.742a3.864 3.864 0 0 1-1.28 2.789c-.81.736-1.78 1.082-2.92 1.031-1.07-.035-1.98-.47-2.7-1.271-.74-.816-1.07-1.767-1.04-2.864.04-.944.37-1.769 1.01-2.476a3.854 3.854 0 0 1 2.35-1.263v2.901c-.35.235-.53.538-.54.927-.01.327.08.596.29.811.2.223.47.334.79.343.34.014.62-.086.85-.295.24-.215.36-.484.37-.813.02-.484-.24-.839-.8-1.062M443.79 124.787l2.93.123.04-1.283 3.02.129-.05 1.277c.6.031 1.02-.049 1.27-.226.23-.186.35-.53.38-1.04l3.01.121c-.01.149-.02.257-.02.332-.02.641-.2 1.248-.52 1.809-.33.561-.75 1.008-1.28 1.329-.68.412-1.55.592-2.64.544l-6.25-.258.11-2.857" fill="#A6DAE8"/><path fill="#FFF" d="M466.44 141.469h37.61v-11.727h-37.61z"/><path fill="#FC611F" d="M465.79 206.209h25.12v-89.816h-25.12z"/><path fill="#E55523" d="M490.91 206.209h33.76v-89.816h-33.76z"/><path d="M486.58 192.61c.7 4.235-2.14 8.24-6.37 8.939-4.22.715-8.23-2.148-8.94-6.371a7.746 7.746 0 0 1 6.38-8.926c4.22-.713 8.23 2.133 8.93 6.358" fill="#A8A8A8"/><path d="M484.85 192.902a6.006 6.006 0 0 1-4.93 6.915 5.993 5.993 0 0 1-6.9-4.928c-.55-3.267 1.65-6.367 4.92-6.911a6.018 6.018 0 0 1 6.91 4.924" fill="#5E1C0E"/><path fill="#FFF" d="M471.16 177.634h15.53V122.68h-15.53z"/><path d="M484.51 171.593l-.12 2.797-6.24-.251c-1.14-.052-2.07-.39-2.77-1.025-.39-.355-.7-.808-.92-1.352a4.17 4.17 0 0 1-.31-1.654c.06-1.111.47-2.042 1.25-2.766.79-.739 1.72-1.082 2.8-1.034 1.07.041 1.97.456 2.7 1.249.74.793 1.09 1.711 1.05 2.751-.01.166-.03.418-.08.744l-3.1-.132c.19-.217.31-.432.31-.666a.997.997 0 0 0-.29-.765 1.055 1.055 0 0 0-.75-.341c-.3-.014-.55.084-.78.287-.2.206-.32.461-.33.753-.03.73.44 1.105 1.44 1.145l6.14.26M474.62 160.814l3 .126c-.12.189-.17.364-.19.524-.02.513.36.779 1.14.81l3.55.158-.12 2.797-4.09-.169c-1.08-.046-1.92-.369-2.54-.993-.62-.616-.91-1.409-.87-2.405.01-.218.04-.501.12-.848M477.48 156.629c-.01.306.09.561.3.781.21.209.47.335.78.344.32.014.58-.075.81-.284.22-.2.35-.449.37-.75 0-.298-.1-.558-.31-.773-.2-.223-.47-.346-.78-.358-.31-.008-.58.078-.81.284-.22.197-.34.461-.36.756zm-2.76-.187c.04-1.056.46-1.952 1.25-2.679.8-.727 1.72-1.068 2.79-1.022 1.09.043 1.99.469 2.72 1.268.72.793 1.06 1.732 1.02 2.82-.04 1.091-.46 1.998-1.26 2.737-.79.736-1.73 1.082-2.81 1.039-1.09-.048-1.99-.463-2.71-1.268-.71-.802-1.06-1.764-1-2.895zM471.85 148.944a1.3 1.3 0 0 1 .43-.962c.28-.272.6-.4.97-.383.39.017.71.16.96.438.22.269.33.604.32 1.022-.01.412-.16.738-.42.994-.26.248-.59.366-.97.346a1.204 1.204 0 0 1-.93-.447 1.351 1.351 0 0 1-.36-1.008zm3.28 1.455l.12-2.8 6.31.257c1.31.058 2.35.416 3.11 1.071.95.842 1.41 1.958 1.34 3.344-.01.43-.11.899-.32 1.432l-2.65-.115c.24-.458.37-.847.38-1.165.04-1.125-.76-1.706-2.38-1.778l-5.91-.246zM479.81 138.781l-.17 4.251c-.23.055-.43.083-.61.075-.24-.015-.5-.066-.72-.169l.05-1.42c-.55.08-.84.372-.86.896-.02.355.12.644.4.879.29.235.67.355 1.13.378.49.02.89-.075 1.19-.275.31-.195.48-.464.49-.813.01-.281-.12-.547-.38-.83l1.97-1.518c.56.779.82 1.618.79 2.523-.06 1.11-.47 2.024-1.24 2.745-.78.73-1.71 1.065-2.81 1.025-1.1-.051-2.01-.467-2.74-1.26-.72-.798-1.05-1.746-1.01-2.854.05-1.085.45-1.984 1.22-2.688.78-.71 1.69-1.043 2.77-.999.11.005.28.031.53.054M479.89 133.026l.02-2.788c1.07.126 1.94.57 2.6 1.317.67.756.98 1.654.93 2.691-.03 1.105-.46 2.01-1.25 2.74-.8.718-1.75 1.062-2.87 1.019a3.637 3.637 0 0 1-2.65-1.257c-.72-.802-1.06-1.732-1.02-2.806.04-.933.36-1.746 1-2.433a3.666 3.666 0 0 1 2.31-1.237l-.02 2.837c-.33.235-.51.536-.52.914-.01.323.09.59.29.798.2.221.45.335.78.341.32.012.6-.08.82-.289.23-.215.35-.475.37-.799.02-.472-.24-.83-.79-1.048M473.37 126.241l2.86.12.05-1.259 2.96.123-.04 1.262c.59.017.99-.054 1.24-.24.22-.169.35-.51.37-1.008l2.96.115c0 .148-.01.255-.01.329-.03.636-.2 1.223-.51 1.778-.33.549-.74.984-1.27 1.305-.66.401-1.52.584-2.59.539l-6.14-.255.12-2.809" fill="#A6DAE8"/><path fill="#FFF" d="M495.6 142.623h28.83v-11.521H495.6z"/><path fill="#D3D316" d="M541.55 206.209h25.56v-87.102h-25.56z"/><path fill="#C4BF18" d="M567.11 206.209h46.98v-87.102h-46.98z"/><path d="M562.72 193.034c.71 4.097-2.19 7.976-6.5 8.655-4.3.687-8.37-2.082-9.09-6.176-.73-4.099 2.18-7.982 6.49-8.654 4.3-.696 8.38 2.067 9.1 6.175" fill="#A8A8A8"/><path d="M560.95 193.309c.56 3.172-1.7 6.172-5.02 6.699-3.32.536-6.47-1.609-7.03-4.77-.56-3.177 1.69-6.178 5.02-6.702 3.33-.535 6.47 1.612 7.03 4.773" fill="#827C16"/><path fill="#FFF" d="M547.02 178.507h15.8v-53.294h-15.8z"/><path d="M560.6 172.641l-.12 2.72-6.35-.255c-1.16-.043-2.1-.378-2.81-.993a3.278 3.278 0 0 1-.95-1.3 3.83 3.83 0 0 1-.31-1.612c.05-1.079.47-1.981 1.27-2.685.8-.71 1.76-1.045 2.86-1.002 1.08.043 1.99.452 2.74 1.219.75.762 1.1 1.655 1.07 2.66-.01.163-.04.409-.09.73l-3.15-.132c.2-.209.31-.423.32-.658 0-.275-.09-.527-.29-.73a1.113 1.113 0 0 0-.77-.33c-.3-.019-.57.081-.79.275-.22.198-.33.447-.34.739-.04.693.45 1.071 1.47 1.105l6.24.249M550.53 162.197l3.06.115c-.12.186-.18.36-.2.506-.02.499.38.759 1.17.791l3.61.149-.12 2.711-4.16-.161c-1.1-.043-1.97-.361-2.59-.959-.63-.598-.93-1.377-.88-2.342.01-.2.04-.481.11-.81M553.45 158.129c-.01.303.09.549.3.758.21.209.48.321.8.336.32.017.58-.075.82-.275.23-.195.36-.436.37-.719a.976.976 0 0 0-.31-.764 1.127 1.127 0 0 0-.79-.338c-.32-.012-.59.069-.83.269-.22.2-.35.441-.36.733zm-2.82-.184c.05-1.024.47-1.889 1.28-2.59a3.966 3.966 0 0 1 2.85-.991 3.89 3.89 0 0 1 2.76 1.225c.74.776 1.08 1.69 1.04 2.743-.05 1.054-.48 1.933-1.29 2.648-.81.719-1.76 1.048-2.86 1.008-1.11-.037-2.03-.449-2.75-1.231-.73-.776-1.08-1.709-1.03-2.812zM547.71 150.682c.02-.369.16-.678.44-.936.29-.263.62-.381.99-.366.39.011.72.154.96.423.24.258.36.59.35.985-.02.395-.17.719-.44.968a1.3 1.3 0 0 1-.98.335 1.276 1.276 0 0 1-.95-.438 1.32 1.32 0 0 1-.37-.971zm3.34 1.409l.13-2.711 6.42.252c1.34.057 2.4.395 3.17 1.036.97.807 1.43 1.892 1.36 3.241-.01.418-.12.876-.32 1.388l-2.7-.111c.25-.444.38-.822.38-1.137.05-1.079-.76-1.643-2.42-1.718l-6.02-.24zM555.83 140.825l-.18 4.128c-.24.052-.44.075-.62.063-.26-.005-.5-.054-.75-.154l.07-1.386c-.58.08-.86.367-.89.879-.02.335.13.616.42.848.29.226.68.346 1.15.366.49.02.9-.072 1.21-.261.32-.2.48-.458.49-.787.01-.278-.12-.55-.39-.816l2.02-1.471c.57.75.83 1.563.8 2.45-.06 1.065-.47 1.959-1.26 2.657-.8.71-1.75 1.039-2.87.994-1.11-.049-2.04-.456-2.78-1.228-.73-.765-1.07-1.687-1.03-2.758.04-1.05.45-1.926 1.25-2.608.78-.678 1.72-1.008 2.82-.962.1.006.29.017.54.046M555.9 135.248l.01-2.703c1.1.121 1.99.544 2.66 1.269.67.736 1 1.609.95 2.614-.04 1.079-.47 1.952-1.28 2.654-.81.707-1.78 1.033-2.92.996-1.07-.049-1.98-.456-2.7-1.22-.74-.775-1.07-1.683-1.03-2.722.03-.905.36-1.693 1-2.36.63-.675 1.42-1.07 2.36-1.205l-.02 2.76c-.33.226-.52.515-.53.885-.01.303.09.57.29.773.21.212.47.32.8.332.34.008.61-.086.84-.287.24-.2.36-.463.38-.772.01-.462-.25-.805-.81-1.014M549.27 128.66l2.91.124.05-1.22 3.02.114-.05 1.231c.59.018 1.02-.057 1.26-.229.23-.177.36-.504.38-.99l3.01.114c-.01.146-.01.252-.01.315-.03.616-.21 1.2-.52 1.73-.33.532-.75.959-1.29 1.265-.67.392-1.54.567-2.64.53l-6.25-.255.13-2.729" fill="#A6DAE8"/><path fill="#FFF" d="M571.9 144.558h37.62v-11.177H571.9z"/><path fill="#005F7D" d="M571.26 206.209h25.11v-89.816h-25.11z"/><path fill="#024E60" d="M596.37 206.209h33.77v-89.816h-33.77z"/><path d="M592.04 192.61c.71 4.235-2.13 8.24-6.37 8.939-4.22.715-8.22-2.148-8.93-6.371a7.738 7.738 0 0 1 6.38-8.926c4.22-.713 8.22 2.133 8.92 6.358" fill="#A8A8A8"/><path d="M590.31 192.902a6.007 6.007 0 0 1-4.92 6.915c-3.27.546-6.37-1.658-6.91-4.928-.55-3.267 1.66-6.367 4.92-6.911a6.007 6.007 0 0 1 6.91 4.924" fill="#024E60"/><path fill="#FFF" d="M576.63 177.634h15.52V122.68h-15.52z"/><path d="M589.97 171.593l-.12 2.797-6.24-.251c-1.14-.052-2.06-.39-2.76-1.025-.4-.355-.7-.808-.93-1.352a4.159 4.159 0 0 1-.3-1.654c.05-1.111.46-2.042 1.24-2.766.79-.739 1.73-1.082 2.81-1.034 1.06.041 1.96.456 2.69 1.249.74.793 1.09 1.711 1.06 2.751-.02.166-.04.418-.09.744l-3.1-.132c.19-.217.31-.432.31-.666a.962.962 0 0 0-.29-.765c-.2-.218-.46-.332-.74-.341-.31-.014-.56.084-.78.287-.21.206-.33.461-.34.753-.03.73.45 1.105 1.45 1.145l6.13.26M580.08 160.814l3 .126c-.12.189-.17.364-.19.524-.01.513.37.779 1.14.81l3.55.158-.12 2.797-4.08-.169c-1.09-.046-1.93-.369-2.55-.993-.61-.616-.91-1.409-.86-2.405.01-.218.04-.501.11-.848M582.94 156.629c0 .306.09.561.3.781.21.209.47.335.79.344.31.014.57-.075.81-.284.23-.2.35-.449.36-.75.01-.298-.09-.558-.3-.773a1.118 1.118 0 0 0-.79-.358c-.31-.008-.58.078-.81.284-.22.197-.34.461-.36.756zm-2.76-.187c.05-1.056.46-1.952 1.26-2.679a3.748 3.748 0 0 1 2.79-1.022c1.08.043 1.99.469 2.71 1.268.73.793 1.07 1.732 1.03 2.82-.05 1.091-.47 1.998-1.26 2.737-.8.736-1.74 1.082-2.81 1.039-1.1-.048-2-.463-2.71-1.268-.72-.802-1.06-1.764-1.01-2.895zM577.31 148.944c.01-.383.16-.704.44-.962.27-.272.6-.4.96-.383.39.017.71.16.96.438.22.269.34.604.32 1.022-.01.412-.16.738-.42.994-.26.248-.58.366-.97.346a1.219 1.219 0 0 1-.93-.447 1.484 1.484 0 0 1-.36-1.008zm3.28 1.455l.12-2.8 6.31.257c1.33.058 2.35.416 3.11 1.071.96.842 1.41 1.958 1.35 3.344-.02.43-.12.899-.33 1.432l-2.66-.115c.25-.458.38-.847.39-1.165.04-1.125-.75-1.706-2.38-1.778l-5.91-.246zM585.27 138.781l-.17 4.251c-.22.055-.42.083-.61.075a2.256 2.256 0 0 1-.73-.169l.07-1.42c-.56.08-.84.372-.87.896-.02.355.12.644.4.879.3.235.67.355 1.13.378.49.02.9-.075 1.2-.275.3-.195.47-.464.48-.813.01-.281-.11-.547-.38-.83l1.98-1.518c.55.779.82 1.618.78 2.523-.06 1.11-.46 2.024-1.24 2.745-.77.73-1.71 1.065-2.81 1.025-1.09-.051-2.01-.467-2.74-1.26-.71-.798-1.05-1.746-1.01-2.854.05-1.085.46-1.984 1.22-2.688.78-.71 1.7-1.043 2.79-.999.1.005.27.031.51.054M585.36 133.026l.02-2.788c1.06.126 1.93.57 2.59 1.317.67.756.98 1.654.93 2.691-.03 1.105-.46 2.01-1.25 2.74-.8.718-1.75 1.062-2.87 1.019a3.654 3.654 0 0 1-2.65-1.257c-.72-.802-1.06-1.732-1.02-2.806.04-.933.37-1.746 1-2.433a3.666 3.666 0 0 1 2.31-1.237l-.01 2.837c-.34.235-.51.536-.53.914-.01.323.09.59.29.798.2.221.45.335.78.341.32.012.6-.08.83-.289.23-.215.35-.475.36-.799.02-.472-.24-.83-.78-1.048M578.83 126.241l2.87.12.05-1.259 2.97.123-.06 1.262c.59.017 1-.054 1.24-.24.23-.169.36-.51.38-1.008l2.95.115c0 .148-.01.255-.01.329-.03.636-.2 1.223-.51 1.778-.32.549-.74.984-1.26 1.305-.67.401-1.52.584-2.59.539l-6.15-.255.12-2.809" fill="#A6DAE8"/><path fill="#FFF" d="M601.06 142.623h28.84v-11.521h-28.84z"/><path fill="#EB0C17" d="M426.03 341.3h25.11v-89.819h-25.11z"/><path fill="#CC1225" d="M451.14 341.3h46.14v-89.819h-46.14z"/><path d="M446.81 327.7c.71 4.23-2.13 8.24-6.36 8.93a7.76 7.76 0 0 1-8.94-6.37c-.71-4.22 2.14-8.22 6.38-8.93 4.22-.71 8.22 2.15 8.92 6.37" fill="#A8A8A8"/><path d="M445.08 327.99a6.003 6.003 0 0 1-4.93 6.91 5.986 5.986 0 0 1-6.9-4.92c-.55-3.27 1.66-6.37 4.92-6.91a5.996 5.996 0 0 1 6.91 4.92" fill="#721728"/><path fill="#FFF" d="M431.4 312.72h15.52v-54.952H431.4z"/><path d="M444.75 306.674l-.13 2.806-6.23-.26c-1.15-.04-2.07-.38-2.77-1.02-.4-.355-.71-.808-.93-1.346-.21-.55-.33-1.099-.3-1.658.05-1.119.47-2.038 1.24-2.768.79-.736 1.73-1.082 2.81-1.037 1.07.049 1.97.459 2.69 1.249.74.796 1.09 1.712 1.06 2.751-.02.169-.04.418-.1.747l-3.08-.132c.19-.211.3-.44.31-.675a.99.99 0 0 0-.29-.756 1.051 1.051 0 0 0-.75-.338c-.3-.02-.56.08-.78.287-.22.2-.33.46-.34.761-.02.716.45 1.1 1.45 1.134l6.14.255M434.86 295.903l2.99.123c-.11.189-.17.367-.18.524-.02.515.36.782 1.14.81l3.55.155-.12 2.8-4.09-.163c-1.08-.046-1.93-.375-2.55-.999-.62-.61-.91-1.415-.86-2.397.01-.226.04-.506.12-.853M437.72 291.714c-.01.304.08.565.29.785.21.212.47.327.79.341.31.017.57-.075.8-.284.24-.2.36-.452.37-.744.01-.304-.09-.567-.3-.784a1.132 1.132 0 0 0-.78-.35c-.32-.014-.59.08-.82.275-.22.209-.34.467-.35.761zm-2.77-.191c.05-1.057.46-1.953 1.26-2.677.79-.719 1.73-1.068 2.79-1.019 1.08.046 1.99.469 2.72 1.274.72.787 1.06 1.732 1.02 2.817-.05 1.079-.47 1.995-1.26 2.731-.8.742-1.73 1.085-2.82 1.048-1.09-.054-1.99-.472-2.7-1.274-.71-.799-1.06-1.767-1.01-2.9zM432.08 284.036c.02-.389.16-.71.44-.973.28-.269.6-.395.96-.384.39.023.71.163.95.444.24.269.35.613.34 1.016-.02.413-.17.742-.43.996-.26.252-.58.37-.97.356a1.287 1.287 0 0 1-.93-.456 1.38 1.38 0 0 1-.36-.999zm3.28 1.455l.12-2.812 6.31.264c1.32.06 2.35.415 3.12 1.073.95.839 1.39 1.956 1.34 3.341-.02.43-.12.905-.33 1.432l-2.65-.115c.24-.452.37-.847.38-1.174.05-1.105-.76-1.692-2.38-1.763l-5.91-.246zM440.05 273.867l-.18 4.252c-.23.06-.42.083-.6.071-.25-.006-.5-.063-.73-.16l.06-1.426c-.57.077-.84.372-.87.902-.02.349.12.638.41.873.28.229.67.355 1.13.384.48.011.88-.075 1.19-.278.31-.201.47-.467.48-.816.02-.278-.12-.555-.38-.83l1.99-1.512c.55.767.8 1.609.77 2.517-.05 1.107-.46 2.024-1.23 2.745-.79.733-1.72 1.068-2.81 1.025-1.1-.051-2.02-.469-2.75-1.26-.71-.795-1.04-1.749-1-2.854.04-1.088.45-1.978 1.22-2.691.77-.707 1.69-1.034 2.77-.999.11.005.28.031.53.057M440.12 268.112l.02-2.788c1.07.126 1.95.569 2.61 1.317.66.761.98 1.655.93 2.694-.05 1.099-.46 2.013-1.26 2.737-.8.719-1.75 1.062-2.86 1.025-1.05-.043-1.94-.467-2.66-1.266-.72-.798-1.05-1.732-1.01-2.802.03-.928.36-1.747.99-2.44a3.753 3.753 0 0 1 2.31-1.231l-.02 2.84c-.32.235-.51.539-.52.914 0 .32.08.586.29.798.2.215.46.332.78.344.33.006.6-.089.83-.295.23-.209.35-.472.36-.799.02-.475-.24-.821-.79-1.048M433.6 261.327l2.87.118.05-1.255 2.96.124-.05 1.259c.59.026 1-.054 1.24-.234.23-.178.36-.519.38-1.019l2.95.125c0 .141-.01.252-.01.324a3.838 3.838 0 0 1-.52 1.778c-.31.549-.73.985-1.26 1.305-.66.404-1.51.584-2.58.538l-6.15-.257.12-2.806" fill="#A6DAE8"/><path fill="#FFF" d="M455.84 277.709h36.95v-11.515h-36.95z"/><path fill="#889C29" d="M457.65 341.3h25.11v-89.819h-25.11z"/><path fill="#7B8729" d="M482.76 341.3h41.91v-89.819h-41.91z"/><path d="M478.44 327.71a7.74 7.74 0 0 1-6.37 8.92 7.76 7.76 0 0 1-8.94-6.37c-.71-4.22 2.14-8.22 6.37-8.93 4.23-.71 8.24 2.15 8.94 6.38" fill="#A8A8A8"/><path d="M476.7 327.99a5.996 5.996 0 0 1-4.93 6.91c-3.26.55-6.36-1.66-6.9-4.92-.54-3.27 1.66-6.37 4.93-6.91 3.27-.55 6.35 1.66 6.9 4.92" fill="#343810"/><path fill="#FFF" d="M463.02 312.72h15.53v-54.952h-15.53z"/><path d="M476.36 306.674l-.12 2.806-6.23-.26c-1.15-.04-2.07-.38-2.77-1.01-.39-.365-.7-.818-.92-1.356a3.879 3.879 0 0 1-.31-1.658c.05-1.119.46-2.038 1.24-2.768.79-.736 1.73-1.082 2.81-1.037 1.06.049 1.96.459 2.7 1.249.74.796 1.08 1.712 1.06 2.751-.02.169-.05.418-.1.747l-3.09-.132c.19-.217.3-.44.31-.675a.99.99 0 0 0-.29-.756 1.056 1.056 0 0 0-.76-.338.96.96 0 0 0-.76.287c-.22.2-.33.46-.35.752-.03.725.45 1.109 1.45 1.143l6.13.255M466.47 295.903l3.01.123c-.12.189-.18.367-.19.524-.02.515.36.782 1.14.81l3.55.155-.12 2.8-4.09-.163c-1.08-.046-1.93-.375-2.54-.999-.62-.61-.91-1.415-.87-2.405.01-.218.04-.498.11-.845M469.34 291.714c-.01.304.09.565.3.785.2.212.47.327.78.341.32.017.57-.075.81-.284a1 1 0 0 0 .36-.744 1.01 1.01 0 0 0-.31-.784c-.2-.224-.47-.335-.77-.35-.32-.014-.58.08-.82.275-.21.2-.33.467-.35.761zm-2.77-.191c.05-1.057.47-1.953 1.26-2.677.79-.719 1.73-1.068 2.79-1.019 1.08.046 1.99.469 2.72 1.274.72.787 1.06 1.732 1.02 2.817-.05 1.088-.46 1.995-1.27 2.731-.79.742-1.72 1.085-2.8 1.048-1.1-.049-1.99-.472-2.7-1.274-.73-.799-1.07-1.767-1.02-2.9zM463.7 284.036c.02-.389.16-.704.44-.973s.6-.395.97-.384c.39.023.7.163.95.444.23.269.34.613.32 1.016 0 .413-.15.742-.41.996a1.3 1.3 0 0 1-.98.356c-.35-.02-.67-.164-.93-.456a1.424 1.424 0 0 1-.36-.999zm3.28 1.455l.12-2.812 6.32.264c1.32.06 2.35.415 3.11 1.073.95.839 1.4 1.956 1.34 3.341-.01.43-.11.905-.33 1.432l-2.64-.115c.24-.452.36-.847.37-1.174.05-1.111-.75-1.692-2.37-1.763l-5.92-.246zM471.67 273.867l-.17 4.254c-.23.058-.43.081-.62.069a2.16 2.16 0 0 1-.73-.16l.07-1.426c-.56.077-.85.372-.86.902-.03.349.12.638.4.873.29.229.67.355 1.12.384.5.011.89-.075 1.21-.278.3-.201.46-.467.47-.81.02-.284-.11-.561-.38-.836l1.99-1.512c.55.767.81 1.609.77 2.517-.05 1.107-.45 2.024-1.23 2.745-.78.733-1.72 1.068-2.81 1.025-1.1-.051-2.01-.469-2.74-1.26-.72-.795-1.05-1.746-1-2.86.03-1.082.44-1.972 1.21-2.685.78-.707 1.69-1.034 2.78-.999.1.005.28.031.52.057M471.74 268.112l.03-2.788c1.07.126 1.94.569 2.6 1.317.67.761.97 1.655.92 2.694-.03 1.099-.45 2.013-1.25 2.737-.79.719-1.74 1.062-2.86 1.025-1.05-.043-1.94-.467-2.66-1.266-.72-.798-1.05-1.732-1.01-2.802.04-.928.36-1.747.99-2.428a3.715 3.715 0 0 1 2.31-1.248l-.02 2.845c-.32.235-.5.539-.51.914-.01.32.08.586.28.798.2.215.46.332.79.344.32.006.59-.089.83-.295.22-.209.34-.472.36-.799.01-.475-.24-.821-.8-1.048M465.23 261.327l2.87.118.04-1.255 2.97.124-.06 1.259c.59.026 1-.054 1.25-.234.22-.178.35-.519.37-1.019l2.96.125c-.01.141-.02.252-.02.324a3.95 3.95 0 0 1-.51 1.778c-.32.549-.74.985-1.26 1.3-.67.409-1.52.589-2.59.543l-6.14-.257.12-2.806" fill="#A6DAE8"/><path fill="#FFF" d="M487.46 277.72h36.95v-11.526h-36.95z"/><path fill="#4D6F38" d="M636.95 206.209h25.11v-89.816h-25.11z"/><path fill="#375622" d="M662.06 206.209h46.14v-89.816h-46.14z"/><path d="M657.74 192.61c.71 4.235-2.14 8.24-6.37 8.939-4.23.715-8.22-2.148-8.93-6.371a7.724 7.724 0 0 1 6.37-8.926c4.23-.713 8.23 2.133 8.93 6.358" fill="#A8A8A8"/><path d="M656.01 192.902a6.006 6.006 0 0 1-4.93 6.915c-3.26.546-6.37-1.658-6.9-4.928-.55-3.267 1.66-6.367 4.92-6.911a6.012 6.012 0 0 1 6.91 4.924" fill="#375622"/><path fill="#FFF" d="M642.33 177.634h15.52V122.68h-15.52z"/><path d="M655.67 171.593l-.12 2.797-6.23-.251c-1.15-.046-2.07-.39-2.77-1.025-.4-.355-.7-.808-.93-1.346a4.211 4.211 0 0 1-.31-1.655c.05-1.116.47-2.047 1.25-2.771.79-.739 1.72-1.082 2.81-1.034 1.06.043 1.95.456 2.69 1.249.74.793 1.09 1.711 1.05 2.751-.01.166-.03.418-.08.744l-3.1-.132c.19-.217.31-.432.31-.666a.997.997 0 0 0-.29-.765 1.055 1.055 0 0 0-.75-.341c-.3-.014-.55.084-.77.287-.21.206-.33.461-.34.758-.03.725.44 1.108 1.44 1.14l6.14.26M645.78 160.814l3 .126c-.11.189-.18.364-.19.524-.01.515.36.779 1.14.81l3.55.158-.12 2.797-4.09-.169c-1.08-.046-1.93-.369-2.54-.993-.62-.616-.91-1.409-.86-2.405.01-.218.04-.501.11-.848M648.64 156.629c-.01.306.09.561.3.781.21.209.47.335.78.344.32.014.58-.075.81-.284.23-.2.35-.449.37-.75.01-.298-.1-.558-.31-.773-.2-.223-.47-.346-.78-.358-.31-.008-.57.078-.81.284-.22.197-.34.461-.36.756zm-2.76-.187a3.75 3.75 0 0 1 1.25-2.679c.8-.727 1.73-1.068 2.8-1.022 1.07.043 1.99.469 2.71 1.268.73.793 1.06 1.732 1.02 2.82-.04 1.091-.46 1.998-1.26 2.737-.79.736-1.72 1.082-2.8 1.039-1.1-.04-2-.463-2.72-1.268-.71-.802-1.05-1.764-1-2.895zM643.01 148.944c.02-.383.16-.704.44-.962.27-.272.6-.4.96-.383.39.017.7.16.95.438.23.269.35.604.33 1.022 0 .412-.15.738-.42.994-.25.248-.59.366-.97.346a1.204 1.204 0 0 1-.93-.447 1.392 1.392 0 0 1-.36-1.008zm3.28 1.455l.12-2.8 6.31.257c1.32.058 2.35.416 3.11 1.071.96.842 1.41 1.958 1.35 3.344-.01.43-.12.899-.32 1.432l-2.66-.115c.24-.452.37-.847.38-1.165.05-1.125-.75-1.706-2.38-1.778l-5.91-.246zM650.98 138.781l-.18 4.251c-.23.06-.43.083-.61.075a2.198 2.198 0 0 1-.73-.169l.07-1.42c-.57.08-.85.372-.87.896-.02.355.12.644.4.879.3.235.67.355 1.13.378.49.02.89-.075 1.19-.275.31-.195.48-.464.48-.813.02-.281-.11-.547-.37-.83l1.98-1.518c.56.779.82 1.618.78 2.523-.05 1.11-.46 2.024-1.24 2.745-.78.73-1.71 1.065-2.81 1.025-1.1-.051-2.01-.467-2.73-1.26-.72-.798-1.06-1.746-1.01-2.854.04-1.085.44-1.984 1.22-2.688.77-.71 1.69-1.043 2.77-.999.1.005.29.031.53.054M651.05 133.026l.02-2.788c1.07.126 1.94.57 2.61 1.317.66.756.97 1.654.92 2.691-.04 1.105-.46 2.016-1.25 2.74-.79.718-1.75 1.062-2.87 1.019-1.04-.046-1.94-.461-2.66-1.257-.71-.802-1.05-1.732-1.01-2.806.04-.933.36-1.746 1-2.433a3.717 3.717 0 0 1 2.31-1.237l-.02 2.837c-.33.235-.5.536-.52.914-.01.323.08.59.28.798.21.221.47.335.79.341.33.012.6-.08.82-.289.24-.215.35-.475.37-.799.02-.472-.24-.83-.79-1.048M644.53 126.241l2.87.12.04-1.259 2.97.123-.05 1.262c.59.017 1-.054 1.24-.229.22-.18.36-.521.38-1.019l2.95.115c0 .148-.01.255-.01.329a3.98 3.98 0 0 1-.52 1.778c-.32.549-.73.984-1.26 1.305-.66.401-1.52.584-2.59.539l-6.14-.255.12-2.809" fill="#A6DAE8"/><path fill="#FFF" d="M666.76 142.623h36.95v-11.521h-36.95z"/><path fill="#7586A0" d="M735.16 92.656l-.01 23.665-84.67-.037.01-23.671 84.67.043"/><path d="M722.34 96.724c3.99-.659 7.76 2.021 8.42 6.004.67 3.985-2.02 7.761-6.01 8.434-3.98.664-7.75-2.03-8.42-6.018-.66-3.985 2.03-7.756 6.01-8.42" fill="#A8A8A8"/><path d="M722.62 98.359a5.665 5.665 0 0 1 6.51 4.646c.51 3.081-1.57 6.004-4.65 6.508-3.08.521-6-1.572-6.51-4.641-.52-3.092 1.57-5.995 4.65-6.513" fill="#253751"/><path fill="#FFF" d="M708.22 96.615v14.639l-51.81-.032.01-14.633 51.8.026"/><path d="M702.52 98.668l2.65.12-.25 5.872c-.05 1.079-.37 1.95-.96 2.611-.33.372-.77.664-1.28.871-.51.209-1.04.306-1.56.289-1.05-.049-1.92-.438-2.61-1.174-.69-.747-1.02-1.626-.98-2.651.05-.999.44-1.847 1.19-2.543.75-.689 1.61-1.022 2.59-.981.16.008.4.037.71.083l-.13 2.911c-.21-.177-.42-.286-.63-.292a.911.911 0 0 0-.72.272.948.948 0 0 0-.32.719c-.02.269.08.515.27.721.19.198.43.309.71.318.68.029 1.04-.415 1.07-1.363l.25-5.783M692.36 107.987l.12-2.829c.18.106.35.172.49.178.49.023.74-.341.77-1.071l.15-3.35 2.64.115-.17 3.851c-.04 1.022-.35 1.821-.93 2.402-.58.578-1.34.853-2.27.813a4.88 4.88 0 0 1-.8-.109M688.42 105.284c.28.014.52-.08.73-.275.2-.194.32-.443.33-.744.01-.295-.08-.544-.27-.759a.975.975 0 0 0-1.44-.06c-.21.201-.32.447-.33.739-.01.298.07.544.27.767.18.206.42.321.71.332zm-.19 2.611c-.99-.045-1.83-.443-2.51-1.188a3.535 3.535 0 0 1-.97-2.631c.04-1.019.44-1.87 1.2-2.559.75-.682 1.64-1.002 2.66-.962 1.02.04 1.88.438 2.58 1.191.7.75 1.02 1.632.98 2.645-.04 1.031-.45 1.884-1.2 2.551-.76.673-1.66.999-2.74.953zM681.17 110.598c-.36-.02-.66-.155-.91-.418a1.224 1.224 0 0 1-.36-.911c.02-.36.15-.664.41-.893.26-.217.57-.326.97-.306.38.006.7.146.94.392.23.246.34.55.32.922-.01.338-.15.636-.42.876s-.58.344-.95.338zm1.37-3.086l-2.64-.121.25-5.952c.06-1.239.39-2.213 1.01-2.937.79-.896 1.85-1.314 3.15-1.263.41.018.86.115 1.35.31l-.11 2.502c-.42-.229-.8-.355-1.1-.364-1.05-.043-1.6.713-1.66 2.242l-.25 5.583zM671.59 103.08l4.01.166c.05.22.08.401.07.573-.02.231-.06.466-.16.686l-1.34-.057c.07.527.35.79.85.816.33.02.61-.114.82-.381.22-.277.34-.629.36-1.064.02-.459-.06-.837-.25-1.12-.19-.295-.44-.455-.77-.461-.26-.017-.53.109-.78.361l-1.43-1.878a3.754 3.754 0 0 1 2.37-.725c1.05.055 1.91.439 2.59 1.169.68.735 1.01 1.611.96 2.651-.05 1.033-.44 1.898-1.19 2.573-.75.676-1.64.991-2.69.948-1.02-.037-1.87-.415-2.53-1.148-.67-.724-.98-1.589-.94-2.611.01-.103.02-.269.05-.498M666.17 103.005l-2.63-.023c.12-1.002.54-1.823 1.24-2.45.72-.624 1.57-.916 2.54-.871 1.03.035 1.9.43 2.59 1.174.67.765.99 1.652.95 2.703-.04.999-.44 1.835-1.18 2.502-.76.681-1.64 1.002-2.65.962a3.487 3.487 0 0 1-2.29-.939 3.465 3.465 0 0 1-1.17-2.173l2.68.009c.22.312.5.481.86.492.29.014.55-.074.76-.266.19-.192.31-.432.31-.736a.98.98 0 0 0-.28-.784c-.19-.218-.44-.327-.75-.344-.45-.017-.77.226-.98.744M659.77 109.149l.12-2.702-1.2-.043.12-2.797 1.2.051c.01-.561-.06-.951-.23-1.171-.16-.215-.48-.341-.95-.358l.12-2.782c.13.005.23.014.29.014a3.6 3.6 0 0 1 1.68.481c.52.306.93.698 1.23 1.194.38.618.55 1.425.51 2.439l-.25 5.783-2.64-.109" fill="#A6DAE8"/><path fill="#889C29" d="M668.58 206.209h25.11v-89.816h-25.11z"/><path fill="#7B8729" d="M693.69 206.209h41.91v-89.816h-41.91z"/><path d="M689.37 192.616c.7 4.229-2.15 8.228-6.38 8.933-4.22.715-8.22-2.148-8.93-6.371-.71-4.228 2.14-8.231 6.37-8.926a7.752 7.752 0 0 1 8.94 6.364" fill="#A8A8A8"/><path d="M687.64 192.902a6.02 6.02 0 0 1-4.94 6.915 5.987 5.987 0 0 1-6.9-4.928c-.55-3.267 1.66-6.367 4.92-6.911a6.022 6.022 0 0 1 6.92 4.924" fill="#343810"/><path fill="#FFF" d="M673.95 177.634h15.52V122.68h-15.52z"/><path d="M687.3 171.593l-.13 2.806-6.23-.26c-1.15-.046-2.07-.39-2.77-1.025-.4-.355-.71-.808-.92-1.352a3.696 3.696 0 0 1-.31-1.649c.05-1.116.46-2.047 1.25-2.771.77-.739 1.72-1.082 2.8-1.034 1.07.041 1.95.456 2.7 1.249.74.793 1.08 1.711 1.05 2.751-.02.166-.04.418-.1.744l-3.08-.132c.19-.217.3-.432.31-.666a1.076 1.076 0 0 0-1.06-1.106c-.28-.014-.54.084-.76.287-.22.206-.33.461-.34.753-.03.73.45 1.113 1.45 1.145l6.14.26M677.4 160.814l3 .126c-.11.189-.18.364-.18.524-.02.513.35.782 1.13.81l3.56.158-.12 2.797-4.09-.169c-1.08-.046-1.93-.369-2.55-.993-.62-.616-.9-1.409-.86-2.405.01-.218.04-.501.11-.848M680.26 156.629c0 .306.09.561.3.781.21.209.47.335.79.344.31.014.57-.075.8-.284.23-.2.36-.449.36-.738.02-.31-.08-.57-.29-.791-.21-.217-.48-.34-.78-.352-.32-.008-.59.078-.82.284-.22.197-.34.461-.36.756zm-2.76-.187c.05-1.056.46-1.952 1.26-2.679.79-.727 1.72-1.068 2.79-1.017 1.08.038 1.98.464 2.71 1.263.73.793 1.07 1.732 1.03 2.82-.05 1.091-.47 1.998-1.27 2.737-.79.736-1.72 1.082-2.81 1.039-1.08-.04-1.99-.463-2.7-1.268-.72-.802-1.06-1.764-1.01-2.895zM674.63 148.944c.02-.375.16-.704.43-.967.29-.267.62-.395.98-.378.38.017.7.16.94.438.24.269.35.604.34 1.013-.02.421-.17.747-.43 1.003-.26.248-.58.366-.97.346-.36-.006-.67-.155-.93-.447a1.392 1.392 0 0 1-.36-1.008zm3.28 1.455l.12-2.8 6.31.257c1.32.058 2.35.416 3.12 1.071.95.842 1.39 1.958 1.34 3.344-.02.43-.12.908-.33 1.432l-2.65-.115c.24-.458.37-.842.38-1.165.04-1.125-.75-1.706-2.38-1.778l-5.91-.246zM682.6 138.781l-.18 4.257c-.23.054-.43.077-.6.069-.26-.015-.5-.066-.74-.169l.07-1.42c-.57.08-.84.372-.87.896-.02.355.12.644.4.879.29.235.67.355 1.14.384.48.014.88-.081 1.19-.281.31-.195.47-.464.48-.813.01-.281-.12-.547-.38-.83l1.99-1.518c.54.779.81 1.618.77 2.523-.05 1.11-.46 2.024-1.24 2.745-.78.73-1.71 1.065-2.8 1.025-1.1-.051-2.02-.467-2.74-1.26-.72-.798-1.06-1.746-1.01-2.86.04-1.079.44-1.978 1.22-2.682.77-.71 1.69-1.043 2.77-.999.11.005.28.031.53.054M682.67 133.026l.02-2.788c1.07.126 1.94.57 2.6 1.317.67.756.99 1.654.93 2.691-.03 1.105-.45 2.01-1.25 2.74-.8.718-1.75 1.062-2.86 1.019-1.05-.046-1.95-.461-2.66-1.257a3.917 3.917 0 0 1-1.02-2.806c.04-.933.37-1.746 1-2.433a3.666 3.666 0 0 1 2.31-1.237l-.02 2.837c-.32.235-.51.536-.52.914-.01.318.08.59.29.798.21.221.46.335.78.341a1.11 1.11 0 0 0 1.19-1.088c.02-.472-.24-.83-.79-1.048M676.16 126.241l2.86.12.05-1.259 2.96.123-.05 1.262c.59.026 1-.054 1.24-.229.23-.18.36-.521.38-1.019l2.95.115c0 .148-.01.255-.01.329-.03.636-.2 1.223-.52 1.778-.32.549-.73.984-1.26 1.305-.66.401-1.51.579-2.58.539l-6.14-.255.12-2.809" fill="#A6DAE8"/><path fill="#FFF" d="M698.39 142.623h36.94v-11.521h-36.94z"/><path fill="#4D6F38" d="M531.22 475.68h25.11v-89.82h-25.11z"/><path fill="#375622" d="M556.33 475.68h46.14v-89.82h-46.14z"/><path d="M552 462.08c.71 4.22-2.14 8.23-6.36 8.93-4.23.71-8.23-2.15-8.95-6.36a7.778 7.778 0 0 1 6.39-8.95c4.22-.7 8.22 2.15 8.92 6.38" fill="#A8A8A8"/><path d="M550.27 462.37a5.99 5.99 0 0 1-4.93 6.91c-3.26.55-6.36-1.67-6.9-4.92-.55-3.28 1.65-6.37 4.92-6.91a5.996 5.996 0 0 1 6.91 4.92" fill="#375622"/><path fill="#FFF" d="M536.59 447.1h15.52v-54.95h-15.52z"/><path d="M549.94 441.05l-.13 2.82-6.23-.27c-1.14-.05-2.07-.39-2.77-1.02-.4-.36-.71-.81-.92-1.36-.22-.54-.33-1.09-.31-1.65.05-1.11.46-2.04 1.24-2.77.79-.73 1.73-1.07 2.81-1.03 1.07.05 1.96.46 2.7 1.25.73.79 1.09 1.71 1.05 2.75-.01.18-.04.42-.09.75l-3.09-.14c.18-.22.3-.43.3-.66a1 1 0 0 0-.28-.77c-.22-.21-.46-.33-.76-.34-.29-.02-.55.09-.77.29-.21.21-.33.46-.34.76-.03.72.45 1.1 1.44 1.14l6.15.25M540.04 430.28l3 .12c-.11.19-.18.37-.19.53-.01.51.36.78 1.15.81l3.55.15-.12 2.8-4.1-.17c-1.08-.04-1.92-.37-2.54-.99-.62-.61-.9-1.41-.86-2.4.01-.22.04-.5.11-.85M542.9 426.09c0 .31.09.56.31.79.2.21.46.32.78.34.31.02.58-.08.81-.29.22-.2.35-.45.37-.74 0-.3-.11-.57-.31-.78-.21-.23-.48-.34-.79-.35-.31-.02-.58.07-.81.27-.22.21-.34.46-.36.76zm-2.76-.19c.05-1.06.46-1.94 1.26-2.67.79-.72 1.72-1.07 2.79-1.02 1.08.04 1.99.46 2.71 1.27.73.79 1.07 1.73 1.03 2.82-.04 1.08-.47 1.99-1.26 2.72-.8.75-1.73 1.09-2.81 1.05-1.09-.05-2-.47-2.71-1.27-.72-.8-1.06-1.77-1.01-2.9zM537.27 418.41c.02-.38.16-.7.44-.97.27-.26.6-.39.97-.37.38.01.7.15.94.43.23.27.35.61.34 1.02-.02.41-.16.74-.43 1-.26.24-.58.36-.97.34-.36-.01-.67-.16-.93-.45-.26-.29-.37-.62-.36-1zm3.28 1.45l.12-2.79 6.31.25c1.32.06 2.36.42 3.12 1.07.95.84 1.4 1.96 1.34 3.35-.01.42-.12.9-.33 1.43l-2.65-.12c.25-.46.37-.84.38-1.17.05-1.11-.75-1.7-2.38-1.76l-5.91-.26zM545.24 408.24l-.18 4.26c-.23.05-.42.08-.6.07-.26-.01-.5-.07-.74-.16l.07-1.42c-.56.07-.85.37-.87.89-.02.36.12.64.41.87.28.24.67.37 1.13.39.48.02.88-.08 1.19-.28.31-.2.47-.46.48-.81.02-.28-.12-.56-.38-.84l1.98-1.51c.56.77.81 1.61.78 2.52-.05 1.11-.46 2.03-1.24 2.75-.78.72-1.71 1.06-2.81 1.02-1.09-.04-2.01-.47-2.73-1.26-.71-.8-1.06-1.74-1.01-2.85.04-1.09.45-1.99 1.22-2.69.77-.71 1.69-1.04 2.77-1 .11 0 .28.02.53.05M545.32 402.49l.01-2.79c1.07.13 1.94.57 2.61 1.32.66.76.98 1.65.93 2.69-.04 1.1-.46 2.02-1.25 2.74-.8.72-1.75 1.06-2.88 1.02-1.04-.05-1.93-.47-2.65-1.26-.72-.8-1.05-1.73-1.02-2.8.04-.93.37-1.75 1-2.43.62-.7 1.38-1.11 2.31-1.25l-.02 2.84c-.32.24-.5.54-.51.92-.02.32.07.59.27.8.21.21.47.33.79.34.33.02.6-.09.83-.29.23-.21.35-.48.37-.81.01-.47-.24-.82-.79-1.04M538.79 395.7l2.87.12.04-1.26 2.97.13-.05 1.25c.59.04 1-.04 1.25-.23.22-.17.35-.51.37-1.01l2.95.12v.32c-.04.64-.21 1.23-.52 1.79-.33.55-.74.98-1.26 1.3-.67.41-1.52.58-2.59.54l-6.14-.26.11-2.81" fill="#A6DAE8"/><path fill="#FFF" d="M561.02 412.09h36.95v-11.52h-36.95z"/><path fill="#889C29" d="M562.84 475.68h25.11v-89.82h-25.11z"/><path fill="#7B8729" d="M587.95 475.68h41.92v-89.82h-41.92z"/><path d="M583.63 462.08c.7 4.22-2.14 8.23-6.38 8.93-4.22.71-8.22-2.15-8.93-6.36a7.763 7.763 0 0 1 6.38-8.95c4.22-.7 8.23 2.15 8.93 6.38" fill="#A8A8A8"/><path d="M581.9 462.37a5.997 5.997 0 0 1-4.94 6.91c-3.26.55-6.36-1.67-6.9-4.93a5.986 5.986 0 0 1 4.92-6.9 6.011 6.011 0 0 1 6.92 4.92" fill="#343810"/><path fill="#FFF" d="M568.21 447.1h15.53v-54.95h-15.53z"/><path d="M581.56 441.05l-.13 2.82-6.23-.27c-1.14-.05-2.07-.39-2.77-1.02-.4-.36-.71-.81-.92-1.36-.22-.54-.32-1.09-.31-1.64.05-1.12.46-2.05 1.24-2.78.79-.73 1.73-1.07 2.81-1.03 1.07.05 1.96.46 2.7 1.25.74.79 1.09 1.71 1.05 2.75-.01.17-.04.42-.09.75l-3.09-.14c.19-.22.31-.43.31-.66.01-.29-.08-.56-.29-.77-.21-.21-.46-.33-.76-.34-.29-.01-.55.09-.77.29-.21.21-.32.46-.34.76-.02.72.45 1.1 1.45 1.13l6.14.26M571.66 430.28l3 .12c-.11.19-.17.37-.18.53-.03.51.36.78 1.14.81l3.55.15-.12 2.8-4.09-.17c-1.08-.04-1.93-.37-2.55-.99-.61-.61-.9-1.41-.85-2.4 0-.22.04-.5.1-.85M574.53 426.09c-.01.3.08.56.29.79.21.21.48.33.79.34.31.02.58-.08.81-.29.23-.2.35-.45.36-.74.01-.31-.09-.57-.3-.78-.21-.23-.47-.34-.78-.35-.31-.02-.59.07-.82.27-.22.21-.34.46-.35.76zm-2.77-.19c.05-1.06.47-1.95 1.26-2.68.8-.71 1.73-1.06 2.8-1.01 1.07.04 1.97.46 2.71 1.27.72.79 1.06 1.73 1.02 2.82-.05 1.08-.47 1.99-1.26 2.72-.8.75-1.73 1.09-2.81 1.05-1.09-.05-2-.47-2.71-1.27-.72-.8-1.06-1.77-1.01-2.9zM568.89 418.41c.02-.38.16-.7.44-.97.28-.26.61-.39.97-.37.38.01.7.15.95.43.23.27.35.61.33 1.02-.01.41-.16.73-.42 1-.27.24-.59.36-.98.34-.36-.01-.67-.16-.93-.45-.26-.29-.37-.62-.36-1zm3.28 1.45l.12-2.79 6.32.25c1.31.06 2.34.42 3.11 1.08.95.83 1.4 1.95 1.34 3.34-.01.42-.12.9-.33 1.43l-2.64-.12c.24-.46.37-.84.38-1.17.04-1.11-.76-1.7-2.39-1.76l-5.91-.26zM576.87 408.24l-.18 4.26c-.24.05-.43.08-.61.07-.25-.01-.5-.07-.73-.16l.06-1.42c-.56.07-.84.37-.87.89-.02.36.12.64.41.87.29.24.67.37 1.13.39.48.02.88-.08 1.19-.28.31-.2.47-.46.48-.81.02-.28-.11-.56-.38-.83l1.99-1.52c.55.77.8 1.61.77 2.52-.05 1.11-.46 2.03-1.23 2.75-.77.72-1.71 1.06-2.81 1.02-1.1-.05-2.01-.47-2.73-1.26-.73-.8-1.06-1.74-1.02-2.85.05-1.09.45-1.99 1.22-2.69.77-.71 1.69-1.04 2.78-1 .1 0 .27.02.53.05M576.93 402.49l.03-2.79c1.06.13 1.94.57 2.6 1.32.67.76.98 1.65.92 2.69-.03 1.1-.45 2.02-1.24 2.74-.81.72-1.76 1.06-2.87 1.02-1.05-.05-1.94-.47-2.66-1.26-.72-.8-1.05-1.73-1.01-2.8.04-.93.36-1.75.99-2.43a3.74 3.74 0 0 1 2.3-1.25v2.84c-.33.24-.51.54-.52.92-.01.32.08.59.28.8.21.21.46.33.78.34.34.01.6-.09.83-.29.23-.21.35-.48.36-.81.02-.47-.24-.82-.79-1.04M570.41 395.7l2.87.12.05-1.26 2.97.13-.05 1.25c.59.04.99-.04 1.23-.23.23-.17.36-.51.38-1.01l2.96.12c-.01.14-.02.25-.02.32-.02.64-.2 1.23-.51 1.79-.32.55-.73.98-1.27 1.3-.65.41-1.51.58-2.58.54l-6.14-.26.11-2.81" fill="#A6DAE8"/><path fill="#FFF" d="M592.65 412.09h36.95v-11.52h-36.95z"/><path fill="#413253" d="M594.48 475.68h25.12v-89.82h-25.12z"/><path fill="#30263F" d="M619.6 475.68h10.64v-89.82H619.6z"/><path d="M615.27 462.08c.71 4.22-2.13 8.23-6.37 8.93-4.22.71-8.23-2.15-8.94-6.36a7.77 7.77 0 0 1 6.38-8.95c4.23-.7 8.23 2.15 8.93 6.38" fill="#A8A8A8"/><path d="M613.54 462.37a5.997 5.997 0 0 1-4.94 6.91c-3.25.55-6.35-1.67-6.9-4.93-.53-3.27 1.66-6.36 4.93-6.9 3.27-.55 6.35 1.66 6.91 4.92" fill="#30263F"/><path fill="#FFF" d="M599.85 447.1h15.53v-54.95h-15.53z"/><path d="M613.2 441.05l-.12 2.82-6.23-.27c-1.15-.05-2.07-.39-2.77-1.02-.4-.36-.71-.81-.93-1.36-.21-.54-.32-1.09-.31-1.64.06-1.12.47-2.05 1.25-2.78.79-.73 1.73-1.07 2.81-1.03 1.06.05 1.96.46 2.7 1.25.73.79 1.08 1.71 1.05 2.75-.02.17-.04.42-.09.75l-3.1-.14c.2-.22.3-.43.31-.66.01-.29-.08-.56-.28-.77-.21-.21-.47-.33-.76-.34-.3-.01-.55.09-.78.29-.2.21-.32.46-.33.76-.03.72.44 1.1 1.44 1.13l6.14.26M603.31 430.28l3 .12c-.11.19-.18.37-.19.53-.02.51.37.78 1.14.81l3.55.15-.12 2.8-4.08-.17c-1.09-.04-1.93-.37-2.55-.99-.61-.61-.91-1.41-.86-2.4 0-.22.04-.5.11-.85M606.17 426.09c-.01.3.09.56.3.79.2.21.47.33.79.34.31.02.57-.08.81-.29.22-.2.35-.45.36-.74 0-.31-.1-.57-.31-.78-.21-.23-.47-.34-.78-.35-.32-.02-.58.07-.81.27-.22.21-.34.46-.36.76zm-2.76-.19c.04-1.06.46-1.95 1.25-2.68.79-.71 1.73-1.06 2.79-1.01 1.09.04 2 .46 2.72 1.27.72.79 1.06 1.73 1.02 2.82a3.737 3.737 0 0 1-1.26 2.72c-.79.75-1.72 1.09-2.8 1.05-1.1-.05-2.01-.47-2.72-1.27-.71-.8-1.05-1.77-1-2.9zM600.54 418.41c.01-.38.16-.7.44-.97.27-.26.6-.39.96-.37.39.01.7.15.96.43.22.27.34.61.32 1.02-.01.41-.16.73-.42 1-.26.24-.59.36-.97.34-.36-.01-.68-.16-.93-.45-.26-.29-.37-.62-.36-1zm3.28 1.45l.12-2.79 6.31.25c1.32.06 2.35.42 3.11 1.08.96.83 1.41 1.95 1.35 3.34-.02.42-.13.9-.33 1.43l-2.65-.12c.25-.46.37-.84.38-1.17.04-1.11-.75-1.7-2.38-1.76l-5.91-.26zM608.51 408.24l-.19 4.26c-.23.05-.41.08-.6.07-.24-.01-.49-.07-.73-.16l.07-1.42c-.56.07-.84.37-.87.89-.02.36.12.64.4.87.3.24.67.37 1.13.39.49.02.88-.08 1.19-.28.31-.2.48-.46.49-.81.02-.28-.12-.56-.38-.83l1.98-1.52c.55.77.82 1.61.78 2.52-.06 1.11-.46 2.03-1.24 2.75-.78.72-1.71 1.06-2.81 1.02-1.1-.05-2.01-.47-2.73-1.26-.72-.8-1.06-1.74-1.01-2.85.04-1.09.45-1.99 1.21-2.69.77-.71 1.7-1.04 2.78-1 .1 0 .28.02.53.05M608.58 402.49l.02-2.79c1.07.13 1.94.57 2.6 1.32.67.76.98 1.65.93 2.69-.03 1.1-.46 2.02-1.25 2.74-.8.72-1.75 1.06-2.87 1.02a3.677 3.677 0 0 1-2.65-1.26c-.72-.8-1.06-1.73-1.02-2.8.04-.93.36-1.75 1-2.43.61-.7 1.38-1.11 2.31-1.25l-.02 2.84c-.33.24-.5.54-.51.92-.02.32.07.59.28.8.2.21.45.33.79.34.32.01.59-.09.81-.29.24-.21.35-.48.37-.81.02-.47-.24-.82-.79-1.04M602.06 395.7l2.87.12.04-1.26 2.97.13-.05 1.25c.59.04 1-.04 1.24-.23.22-.17.36-.51.38-1.01l2.95.12c0 .14-.01.25-.01.32-.03.64-.2 1.23-.51 1.79-.33.55-.74.98-1.27 1.3-.67.41-1.52.58-2.59.54l-6.14-.26.12-2.81" fill="#A6DAE8"/><path fill="#FFF" d="M624.29 412.09h5.95v-11.52h-5.95z"/><path fill="#4D6F38" d="M666.88 475.01l-24.73-4.31 15.41-88.48 24.73 4.3-15.41 88.49"/><path fill="#375622" d="M711.79 475.01h-44.91l15.41-88.49 45.46 7.92-15.96 80.57"/><path d="M664.96 460.87c-.03 4.29-3.52 7.75-7.81 7.72a7.77 7.77 0 0 1-7.71-7.82 7.74 7.74 0 0 1 7.81-7.7c4.29.02 7.74 3.52 7.71 7.8" fill="#A8A8A8"/><path d="M663.2 460.86c-.02 3.32-2.74 5.99-6.03 5.96-3.32-.02-5.99-2.73-5.97-6.03.03-3.32 2.74-5.99 6.04-5.97 3.32.03 5.98 2.73 5.96 6.04" fill="#375622"/><path fill="#FFF" d="M667.64 446.13l-15.3-2.66 9.43-54.13 15.29 2.66-9.42 54.13"/><path d="M666.52 439.8l-.59 2.75-6.1-1.33c-1.12-.24-1.97-.73-2.56-1.48-.33-.42-.55-.92-.68-1.48-.12-.58-.12-1.14-.01-1.69.24-1.09.8-1.94 1.7-2.52.9-.58 1.88-.76 2.94-.53 1.04.22 1.85.78 2.44 1.69.59.91.78 1.87.57 2.89-.04.16-.12.41-.22.72l-3.02-.66c.22-.18.37-.38.42-.61.06-.29.01-.55-.16-.8s-.4-.41-.68-.47c-.29-.06-.56 0-.81.16s-.4.4-.46.69c-.16.7.24 1.16 1.22 1.37l6 1.3M658.63 427.49l2.93.63c-.14.18-.23.34-.27.5-.1.5.22.82.98.99l3.48.76-.6 2.74-4-.88c-1.06-.22-1.84-.69-2.34-1.4-.5-.72-.65-1.56-.44-2.52.05-.22.13-.49.26-.82M662.17 423.86c-.06.3-.02.56.16.82.16.24.4.41.72.47.29.07.57.03.84-.14.26-.16.42-.38.48-.67.06-.3.01-.57-.16-.83-.17-.24-.42-.41-.71-.47-.3-.08-.59-.02-.85.14-.25.16-.41.39-.48.68zm-2.69-.66c.23-1.04.79-1.84 1.69-2.43.91-.57 1.89-.74 2.93-.52 1.06.23 1.87.81 2.46 1.72.57.9.74 1.89.52 2.95-.23 1.06-.8 1.89-1.71 2.47-.91.6-1.89.77-2.95.55-1.07-.23-1.88-.81-2.45-1.72-.57-.91-.73-1.92-.49-3.02zM657.93 415.32c.09-.37.28-.66.6-.88.32-.21.66-.28 1.02-.21.38.09.67.28.86.6.18.31.23.66.15 1.06-.08.41-.29.71-.58.91-.3.2-.64.27-1.02.18-.36-.07-.64-.28-.84-.61-.21-.32-.26-.68-.19-1.05zm2.99 2l.59-2.74 6.17 1.34c1.3.28 2.25.81 2.89 1.58.8 1 1.05 2.17.75 3.53-.09.42-.27.87-.57 1.35l-2.59-.56c.32-.41.51-.77.58-1.09.23-1.09-.45-1.81-2.04-2.15l-5.78-1.26zM667.53 406.67l-.91 4.17c-.24.01-.43 0-.61-.04a2.05 2.05 0 0 1-.69-.28l.31-1.4c-.57-.02-.89.23-1.01.74-.07.34.01.65.25.93.25.28.6.47 1.05.57.48.1.88.08 1.21-.07.35-.14.55-.38.62-.71.07-.28-.02-.57-.23-.89l2.22-1.15c.41.85.52 1.72.33 2.61-.24 1.09-.8 1.92-1.69 2.5-.89.58-1.87.75-2.95.52-1.07-.24-1.89-.81-2.47-1.71-.57-.91-.74-1.9-.5-2.98.22-1.07.77-1.87 1.66-2.45.88-.56 1.84-.72 2.9-.5.1.02.27.08.51.14M668.59 401.03l.5-2.76c1.03.31 1.81.89 2.34 1.75.52.86.67 1.8.45 2.81-.23 1.08-.8 1.9-1.71 2.48-.91.59-1.9.75-2.99.52-1.02-.23-1.84-.79-2.4-1.69-.58-.92-.74-1.9-.53-2.95.2-.91.66-1.65 1.41-2.22.72-.58 1.55-.85 2.48-.83l-.5 2.8c-.36.18-.59.44-.67.81-.06.31-.02.6.14.84.17.24.4.41.72.47.31.06.6.02.86-.15.27-.17.43-.41.49-.73.11-.46-.09-.84-.59-1.15M663.33 393.22l2.8.6.27-1.23 2.89.64-.26 1.23c.57.12 1 .12 1.27-.02.25-.14.43-.45.54-.94l2.89.63c-.03.14-.06.24-.07.31-.14.63-.4 1.19-.81 1.67-.41.5-.9.84-1.47 1.07-.72.29-1.6.32-2.64.09l-6.01-1.31.6-2.74" fill="#A6DAE8"/><path fill="#FFF" d="M718.82 419.51l-36.4-6.34 1.98-11.34 36.4 6.33-1.98 11.35"/><path fill="#889C29" d="M683.34 475.32h25.12v-89.81h-25.12z"/><path fill="#7B8729" d="M708.46 475.32h27.36v-89.81h-27.36z"/><path d="M704.13 461.73c.71 4.23-2.14 8.23-6.37 8.93a7.764 7.764 0 0 1-8.94-6.37 7.751 7.751 0 0 1 6.38-8.93c4.23-.71 8.23 2.15 8.93 6.37" fill="#A8A8A8"/><path d="M702.4 462.02a6.003 6.003 0 0 1-4.93 6.91 5.986 5.986 0 0 1-6.9-4.93c-.55-3.26 1.66-6.37 4.92-6.9a5.994 5.994 0 0 1 6.91 4.92" fill="#343810"/><path fill="#FFF" d="M688.71 446.75h15.53v-54.96h-15.53z"/><path d="M702.06 440.71l-.12 2.8-6.24-.26c-1.14-.04-2.06-.39-2.75-1.02-.42-.36-.72-.81-.94-1.35a4.18 4.18 0 0 1-.31-1.66c.06-1.11.47-2.04 1.25-2.77.79-.73 1.73-1.08 2.8-1.03 1.07.04 1.97.46 2.71 1.25.73.8 1.08 1.71 1.04 2.74-.01.18-.04.43-.09.75l-3.09-.13c.19-.21.31-.43.31-.67a.978.978 0 0 0-.28-.76c-.22-.21-.47-.33-.76-.34-.3-.01-.55.08-.77.28-.21.21-.33.47-.34.76-.03.73.45 1.11 1.44 1.15l6.14.26M692.17 429.92l3 .13c-.12.19-.18.37-.19.53-.02.51.36.78 1.14.81l3.55.15-.12 2.8-4.08-.16c-1.09-.05-1.93-.38-2.55-1-.62-.62-.91-1.41-.87-2.41.02-.21.05-.49.12-.85M695.04 425.74c-.02.31.08.56.29.79.2.21.47.33.78.34.31.01.58-.08.81-.28.23-.21.35-.46.37-.75 0-.31-.09-.57-.31-.78-.21-.23-.47-.34-.78-.36-.31-.01-.58.08-.81.29-.22.19-.34.45-.35.75zm-2.77-.19c.05-1.06.46-1.95 1.25-2.68.8-.72 1.73-1.07 2.8-1.02 1.08.05 1.99.47 2.71 1.27.73.8 1.06 1.74 1.02 2.83-.04 1.08-.46 1.99-1.26 2.73s-1.73 1.08-2.81 1.04c-1.09-.05-1.99-.47-2.7-1.27-.72-.8-1.07-1.76-1.01-2.9zM689.39 418.06c.02-.38.17-.7.44-.97.28-.27.61-.39.97-.38.39.02.7.16.95.44.23.27.35.61.33 1.02-.01.41-.15.74-.42 1-.26.24-.59.37-.97.35a1.27 1.27 0 0 1-.93-.46 1.43 1.43 0 0 1-.37-1zm3.29 1.46l.11-2.81 6.32.26c1.32.06 2.35.42 3.11 1.07.96.84 1.41 1.96 1.34 3.35-.01.42-.11.9-.32 1.42l-2.65-.1c.24-.47.36-.86.38-1.18.04-1.11-.76-1.7-2.38-1.77l-5.91-.24zM697.37 407.89l-.19 4.26c-.22.06-.42.08-.6.07-.25-.01-.5-.06-.73-.17l.06-1.43c-.56.09-.84.39-.86.91-.02.35.12.65.4.88.3.23.67.36 1.13.38.49.02.89-.07 1.19-.28.31-.2.48-.47.48-.81.02-.28-.12-.56-.37-.83l1.98-1.52c.55.77.81 1.61.78 2.53-.06 1.1-.46 2.01-1.24 2.74-.78.73-1.71 1.06-2.81 1.02-1.1-.05-2.01-.47-2.73-1.26-.72-.8-1.06-1.75-1.02-2.86.05-1.08.45-1.98 1.23-2.68.77-.71 1.68-1.04 2.76-.99.11 0 .29.01.54.04M697.44 402.14l.02-2.79c1.07.13 1.94.57 2.6 1.32.66.76.98 1.65.93 2.69-.04 1.1-.46 2.01-1.25 2.74-.8.73-1.75 1.06-2.86 1.01a3.651 3.651 0 0 1-2.66-1.25c-.72-.8-1.06-1.73-1.02-2.8.04-.94.37-1.75 1-2.43.61-.7 1.38-1.11 2.3-1.25l-.01 2.85c-.33.23-.51.53-.52.91-.01.31.08.58.29.8.2.21.45.33.78.34.33.01.6-.09.83-.3.23-.21.34-.47.36-.79.02-.48-.24-.83-.79-1.05M690.92 395.35l2.86.12.05-1.26 2.97.13-.06 1.27c.6.02 1.01-.07 1.25-.24.22-.18.36-.52.38-1.02l2.95.12c-.01.15-.01.25-.01.32-.03.64-.2 1.24-.52 1.79s-.74.98-1.26 1.3c-.66.41-1.52.58-2.59.54l-6.14-.26.12-2.81" fill="#A6DAE8"/><path fill="#FFF" d="M713.15 411.74h22.4v-11.52h-22.4z"/><path fill="#FAFCE6" d="M580.22 291.812v48.958h49.92v-31.01l-4.22-1.18 4.22.11v-16.117l-49.92-.761"/><path fill="#E1E2D3" d="M539.06 340.77h41.16v-48.958h-41.16v23.118h4.44l-4.44 1.36v24.48"/><path fill="#E1E2D3" d="M579.1 313.23h4.95l-4.28 1.23-.67-1.23"/><path fill="#FAFCE6" d="M582 304.083l-7.03.483 5.25.805 1.78-1.288"/><path d="M610.38 292.316s12.78-.032 6.81-8.36c0 0 9.69 4.675 3.38 8.583l-10.19-.223M603.86 328.6h17.72l-5.56 1.05-12.16-1.05M591.7 300.693H606l-7.15 1.048-7.15-1.048" fill="#E1E2D3"/><path fill="#FAFCE6" d="M544.58 334.21l32.38.48-6.76.51-25.62-.99"/><path fill="#E1E2D3" d="M495.89 565.03v44.85h29.08v-28.41l-3.87-1.08 3.87.1v-14.76l-29.08-.7"/><path fill="#FFF" d="M431.52 609.88h64.37v-44.85h-64.37v21.18l2.6.45-2.6.8v22.42"/><path fill="#E1E2D3" d="M494.88 584.65h4.51l-3.91 1.14-.6-1.14"/><path fill="#D0D1BD" d="M497.52 576.28l-6.44.44 4.81.73 1.63-1.17"/><path d="M506.87 565.49s11.71-.03 6.24-7.65c0 0 8.87 4.28 3.1 7.86l-9.34-.21" fill="#FFF"/><path fill="#E1E2D3" d="M500.89 598.73h16.24l-5.1.96-11.14-.96M506.41 573.16h-3.56l-6.55.97 10.11-.97"/><path fill="#D0D1BD" d="M436.59 603.87l56.31.45-6.19.46-50.12-.91"/><path d="M649.86 293.965l.16 1.414 4.16-.446-.15-1.42c0-.015-.44-1.896-2.25-1.701h-.01l-.05.006h-.01c-1.82.2-1.85 2.121-1.85 2.147" fill="#F094B0"/><path fill="#FFE900" d="M650.27 297.629l4.15-.449-.24-2.247-2.06.217-.04.006-2.06.223.25 2.25"/><path d="M655.14 330.21l-1.66-2.89c1.8-1.29 3.82-.53 4.08-.43l-1.01 3.17c-.1-.06-.38-.18-.74-.14-.2.02-.44.1-.67.29" fill="#FCDB9A"/><path d="M655.14 330.21c.63-.52 1.29-.22 1.41-.15l-.54 1.65-.87-1.5" fill="#83929B"/><path d="M653.48 327.32c.34-.23.74-.42 1.08-.54.28-.09.56-.15.83-.18.32-.04.62-.03.89 0 .61.05 1.13.23 1.28.29l-3.14-29.71-1.27.14-.78.089h-.05l-1 .106-1.05.114 3.21 29.691" fill="#139E45"/><path d="M670.72 297.042c.01.771-.61 1.401-1.38 1.406-.77.006-1.4-.618-1.41-1.388l-.04-5.208a1.396 1.396 0 0 1 1.39-1.406c.76-.011 1.4.607 1.4 1.386l.04 5.21" fill="#8E8A87"/><path d="M669.41 307.435a4.354 4.354 0 0 1-4.39-4.32 4.355 4.355 0 0 1 4.32-4.401c2.4-.019 4.37 1.922 4.4 4.329a4.365 4.365 0 0 1-4.33 4.392zm-.09-10.47c-3.25.026-5.88 2.697-5.84 5.952a5.892 5.892 0 0 0 5.94 5.853 5.91 5.91 0 0 0 5.86-5.947 5.908 5.908 0 0 0-5.96-5.858z" fill="#77665C"/><path d="M669.53 308.95c-.77 0-1.4-.61-1.4-1.392a1.393 1.393 0 0 1 1.38-1.42c.78-.003 1.42.622 1.42 1.395a1.42 1.42 0 0 1-1.4 1.417zm-.03-3.376a1.902 1.902 0 0 0 .04 3.806c1.05-.01 1.89-.87 1.88-1.919a1.901 1.901 0 0 0-1.92-1.887z" fill="#E30613"/><path fill="#E30613" d="M667.8 308.08l-4.31 11.63-.62 9.46 1.66 3.08-.22-3.09.55-8.99 4.68-10.77-1.74-1.32"/><path fill="#E30613" d="M671.17 308.05l4.49 11.57.77 9.44-1.61 3.11.18-3.11-.69-8.96-4.85-10.7 1.71-1.35"/><path fill="#FFE900" d="M651.29 310.17l.85 3.59-.37.08-.03.02-3.46.81-.04.01-.37.09-.85-3.59 4.27-1.01"/><path d="M648.96 300.392l2.33 9.778-4.27 1.01-2.31-9.78c-.22-1.028-.11-1.824.31-2.356.41-.55 1.05-.644 1.2-.661l.01.005v-.005h.02v-.009c.15-.054.75-.252 1.38.046.61.294 1.06.956 1.33 1.972" fill="#164056"/><path d="M654.89 327.76l1.19 5.22c-1.81-.74-2.86.44-3.08.73l-1.29-5.19.02-.02 3.14-.74h.02" fill="#83929B"/><path d="M655.18 335.97c.32-.07.53-.3.49-.51-.06-.23-.35-.34-.67-.27-.31.08-.53.32-.47.53.05.22.34.33.65.25zm.89-3l.69 3.04c-.18.09-1.15.64-.9 2.91-.8-2.13-1.91-2.21-2.11-2.2l-.75-3.03c.11-.16 1.18-1.52 3.07-.72zM651.73 328.52v-.02l3.14-.74h.02l-.3-1.33-3.21.77.33 1.32h.02" fill="#FFE900"/><path fill="#164056" d="M651.43 327.19l3.16-.75-2.85-12.58-3.46.81 3.1 12.53h.02l.03-.01"/><path fill="#FFED00" d="M662.87 290.693l-.49 48.767-6.82-.06.49-48.779 6.82.072"/><path fill="#020202" d="M657.27 338.72v.13l-1.7-.02v-.12l1.7.01M656.55 337.14v.11h-.96v-.12l.96.01M656.59 333.97v.12l-.98-.01.01-.13.97.02M656.62 330.79v.12h-.97v-.13l.97.01M656.66 327.63l-.01.11-.97-.01v-.12l.98.02M656.68 324.45v.12l-.97-.01.01-.12.96.01M656.72 321.28l-.01.12-.97-.01.01-.12.97.01M656.75 318.11v.12l-.98-.01v-.12l.98.01M656.79 314.93l-.01.13-.97-.01v-.12h.98M656.82 311.77v.12l-.98-.01v-.12l.98.01M656.85 308.59l-.01.12h-.97l.01-.13.97.01M656.88 305.425v.123l-.97-.008v-.129l.97.014M656.91 302.25v.129l-.97-.014v-.121l.97.006M656.94 299.078v.126h-.97v-.132l.97.006M656.98 295.912v.12l-.98-.006v-.129l.98.015M657.01 292.74v.125l-.98-.014.01-.12.97.009M657.3 335.56v.11h-1.7v-.14l1.7.03M657.34 332.39v.12l-1.71-.02v-.12l1.71.02M657.37 329.21v.12l-1.7-.01v-.12l1.7.01M657.41 326.04v.12l-1.72-.01.01-.13 1.71.02M657.43 322.87v.13l-1.7-.02v-.12l1.7.01M657.47 319.7v.12l-1.71-.02v-.11l1.71.01M657.5 316.53v.12l-1.71-.02v-.12l1.71.02M657.53 313.36v.12l-1.7-.02v-.11l1.7.01M657.56 310.19v.12l-1.7-.01v-.13l1.7.02M657.59 307.02v.117l-1.7-.014v-.129l1.7.026M657.63 303.842l-.01.126-1.7-.017.01-.12 1.7.011M657.66 300.676v.12l-1.7-.014v-.124l1.7.018M657.69 297.504v.125l-1.7-.022v-.121l1.7.018M657.73 294.329v.128l-1.71-.022v-.121l1.71.015M657.76 291.165v.123l-1.71-.02v-.12l1.71.017"/><path d="M659.5 293.086c.45.003.81.369.8.825l-.43 42.559c0 .46-.37.82-.83.81-.45 0-.8-.37-.8-.82l.43-42.564a.821.821 0 0 1 .83-.81" fill="#FFF48D"/><path fill="#F7A000" d="M646.37 313h23.68v-1.66h-23.68z"/><path fill="#D37E02" d="M649.01 340.79h18.39v-1.65h-18.39zM669.63 315.21H646.8l-.43-2.21h23.68l-.42 2.21"/><path fill="#D37E02" d="M649.02 339.16l-2.25-24.11.46.14 2.22 24.1-.43-.13M667.4 339.32l-.43-.05 2.25-24.1.43.04-2.25 24.11"/><path fill="#D37E02" d="M647.56 321.68l-.19-.39 4.33-6.7.36.25-4.5 6.84M647.96 325.92l-.24-.43 7.28-10.9.36.25-7.4 11.08M648.36 330.28l-.16-.53 10.32-15.16.35.25-10.51 15.44M648.84 335.39l-.22-.47 12.81-20.32.37.23-12.96 20.56M649.81 339.54l-.36-.25 15.98-24.7.37.25-15.99 24.7M653.08 339.97l-.37-.23 16.02-25.14.37.22-16.02 25.15M657.03 340.47l-.37-.23 12.39-21.03v.98l-12.02 20.28M660.02 340.53l-.38-.23 8.94-15.14.05.76-8.61 14.61M664.1 340.23l-.34-.26 3.98-6.43.15.57-3.79 6.12"/><path fill="#D37E02" d="M668.39 327.25l-18.87-12.69.23-.37 18.59 12.49.05.57M668.8 322.98l-12.65-8.42.23-.37 12.49 8.32-.07.47M669.17 318.76l-5.63-4.48.27-.35 5.57 4.2-.21.63M668.09 330.57l-21.18-14.51.06-.48 21.11 14.45.01.54M667.67 335.15l-20.39-14.61.11-.46 20.22 14.49.06.58M666.95 339.59l-19.23-14.31.11-.46 19.37 14.42-.25.35M662.48 340.16l-14.1-8.75v-.5l14.32 8.88-.22.37M654.79 340.16l-6.02-3.69.08-.55 6.18 3.87-.24.37"/><path d="M442.17 413.14s12.85 38.15 18.57 44.43l5.63-1.78s-14.3-29.88-17.5-43.57l-6.7.92" fill="#2B8E26"/><path d="M476.44 400.39c-1.53 0-3.41-.29-5.74-1.07l.17-.5c8.5 2.86 10.98-1.16 11-1.2 2.34-3.25 3.12-5.72 2.34-7.34-.83-1.76-3.29-1.92-3.29-1.92-6.44-.16-6.75-4.97-6.75-5.02-.09-2.39.59-4.2 2-5.38 2.8-2.35 7.43-1.43 7.63-1.38l-.11.5c-.04-.01-4.58-.91-7.18 1.28-1.28 1.08-1.9 2.74-1.82 4.96.01.17.3 4.38 6.23 4.53.12 0 2.78.17 3.76 2.19.87 1.82.07 4.46-2.38 7.86-.06.12-1.49 2.49-5.86 2.49" fill="#7A9B78"/><path d="M450.39 404.25s5.07 5.28-.56 9.62h-9.14v-9.62h9.7" fill="#329B2D"/><path d="M443.5 409.06c0 2.65-1.26 4.81-2.81 4.81-1.56 0-2.82-2.16-2.82-4.81 0-2.66 1.26-4.81 2.82-4.81 1.55 0 2.81 2.15 2.81 4.81" fill="#3AAA35"/><path d="M485.26 377.07c.64.81.75 1.78.27 2.16-.49.39-1.4.04-2.04-.76-.63-.81-.76-1.77-.27-2.16.5-.38 1.41-.05 2.04.76" fill="#319B2C"/><path d="M489.95 397.78l-9.57-14.59s1.84-7.2 10.25-8.51l12.12 12.9-12.8 10.2" fill="#3AAA35"/><path d="M489.95 397.78s.35 12.58 5.68 17.08c0 0 13.53-4.52 22.62-18.48 0 0-5.64-8.31-15.5-8.8 0 0-8.16 2.25-12.8 10.2" fill="#319B2C"/><path d="M495.63 414.86s7.27-11.72 22.62-18.48c0 0-7.1 12.85-22.62 18.48" fill="#288E23"/><path d="M501.04 408.3s5.65-5.51 9.67-7.86c0 0 1.46 1.23-3.33 5.15-4.81 3.92-6.34 2.71-6.34 2.71" fill="#F9F978"/><path d="M446.58 404.46s19.71-12.51 37.43-15.74l3.41 5.2s-24.78 6.07-39.59 17.35c0 0 1.58-3.75-1.25-6.81" fill="#2B8E26"/><path fill="#24841F" d="M457.9 464.72h12.11V454.4H457.9z"/><path d="M461.04 452.76s3.91 5.2-.19 9.62h-2.95v-9.62h3.14" fill="#329B2D"/><path d="M460 457.57c0 2.65-.94 4.81-2.1 4.81-1.15 0-2.09-2.16-2.09-4.81 0-2.66.94-4.81 2.09-4.81 1.16 0 2.1 2.15 2.1 4.81" fill="#3AAA35"/><path fill="#329B2D" d="M446.58 474.68h44.99v-9.96h-44.99z"/><path fill="#24841F" d="M446.58 474.68h44.99v-2.6h-44.99zM476.94 464.72h7.44v-2.34h-7.44z"/><path fill="#E30613" d="M507.17 59.878l-48.6 1.451-.04-1.179 48.6-1.457.04 1.185M507.49 70.184l-48.6 1.455-.04-1.183 48.61-1.451.03 1.179"/><path fill="#CE061A" d="M507.46 69.005l25.23-.753.04 1.177-25.24.755-.03-1.179M507.17 59.878l24.69-.739-.04-1.185-24.69.739.04 1.185"/><path d="M530.54 59.173s-3.75 4.272.29 9.133l-23.37.699-2.4-2.331.36-5.674 1.75-1.122 23.37-.705" fill="#EFDC8F"/><path fill="#C4B36A" d="M510.99 61.126l16.16-.481V61l-16.14.478-.02-.352M507.99 63.362l16.15-.481.01.361-16.16.478v-.358M510.71 66.293l16.16-.48.01.352-16.15.486-.02-.358"/><path d="M509.4 57.178a7.68 7.68 0 0 0-4.47 1.583l1.82-.057a6.865 6.865 0 0 1 2.68-.641c3.64-.109 6.68 2.656 6.79 6.166.11 3.502-2.76 6.436-6.39 6.545-1 .035-1.96-.157-2.83-.527l-1.82.029a7.77 7.77 0 0 0 4.67 1.394c4.17-.129 7.47-3.484 7.34-7.475-.13-3.999-3.62-7.146-7.79-7.017" fill="#6B6A6A"/><path d="M517.05 56.949a7.491 7.491 0 0 0-4.37 1.543l1.78-.052a6.624 6.624 0 0 1 2.62-.626c3.54-.107 6.52 2.591 6.62 6.012.11 3.421-2.7 6.29-6.25 6.396a6.59 6.59 0 0 1-2.75-.513l-1.78.023a7.537 7.537 0 0 0 4.57 1.357c4.06-.117 7.28-3.392 7.16-7.295-.13-3.899-3.53-6.968-7.6-6.845" fill="#6B6A6A"/><path d="M525.28 57.307a7.256 7.256 0 0 0-4.18 1.477l1.7-.052c.76-.343 1.6-.566 2.51-.595 3.39-.097 6.24 2.474 6.33 5.749.11 3.281-2.57 6.032-5.96 6.132-.94.023-1.83-.16-2.64-.495l-1.7.026a7.193 7.193 0 0 0 4.36 1.294c3.89-.112 6.97-3.247 6.85-6.974-.11-3.734-3.38-6.671-7.27-6.562" fill="#6B6A6A"/><path d="M459.08 61.309s2.5 4.948.29 9.133l48.09-1.437s-2.87-3.751-.29-9.127l-48.09 1.431" fill="#FFF0B0"/><path fill="#EFDC8F" d="M504.47 61.318l-23.11.69-.01-.289 23.11-.691.01.29M490.2 63.751l-25.23.753-.02-.283 25.23-.756.02.286M504.38 68.696l-25.23.758-.01-.283 25.23-.762.01.287M485.57 67.98l-22.68.67v-.43l22.68-.675v.435M505.02 65.174l-16.52.487-.01-.412L505 64.75l.02.424M484.36 66.723l-10.6.318-.01-.418 10.6-.315.01.415"/><path d="M697.8 311.16s.43-1.43-1.85-2.71c0 0 2-1.442 3.81 1.35 0 0-.96-4.841-2.34-5.981 0 0 2.2 1.191 3.39 3.671 0 0-.29-7.965-3.34-12.546 0 0 3.15 1.529 4.34 7.157 0 0 .81-5.585-1.29-8.78 0 0 3.16 1.858 4.3 7.59 0 0-.43-10.359-3.2-17.699 0 0 5.06 4.191 5.92 12.877 0 0-1.53-15.362 5.34-24.524 0 0-3.24 16.325-1.82 23.473 0 0-.37-14.881 8.26-19.983 0 0-5.44 12.68-4.53 20.702 0 0 1.9-6.058 8.68-10.736 0 0-6.73 9.21-7.4 16.27 0 0 1.49-2.676 5.87-4.008 0 0-4.15 3.868-5.16 7.246 0 0 5.12-4.861 14.38-3.91 0 0-7.64 1.958-10.36 6.017 0 0 2.76-1.961 6.01-1.105 0 0-4.01 2.199-4.25 4.109 0 0 3.44-1.15 5.11 1.14 0 0-3.58.29-4.54 1.53l-.28 1.05-26.52.28s.33-1.81-2.01-2.86c0 0 1.76-.76 3.48.38" fill="#3CE538"/><path fill="#D38C24" d="M693.66 317.7h32.25v-5.63h-32.25z"/><path fill="#DB902E" d="M719.66 340.12h-18.61l-5.72-22.42h28.91l-4.58 22.42"/><path d="M713.09 324c0 .8-.63 1.44-1.43 1.44-.79 0-1.43-.64-1.43-1.44 0-.79.64-1.43 1.43-1.43.8 0 1.43.64 1.43 1.43" fill="#FFFFFD"/><path d="M713.61 321.65c0 .79-.65 1.43-1.44 1.43-.79 0-1.43-.64-1.43-1.43 0-.8.64-1.44 1.43-1.44.79 0 1.44.64 1.44 1.44" fill="#FFFFFD"/><path d="M711.92 320.34c0 .79-.64 1.44-1.44 1.44a1.436 1.436 0 1 1 1.44-1.44" fill="#FFFFFD"/><path d="M710.12 320.75c0 .8-.64 1.44-1.43 1.44-.79 0-1.43-.64-1.43-1.44 0-.79.64-1.44 1.43-1.44.79 0 1.43.65 1.43 1.44" fill="#FFFFFD"/><path d="M709.4 322.93c0 .79-.64 1.43-1.42 1.43-.8 0-1.44-.64-1.44-1.43 0-.79.64-1.43 1.44-1.43.78 0 1.42.64 1.42 1.43" fill="#FFFFFD"/><path d="M711.05 324.72c0 .79-.64 1.44-1.44 1.44-.79 0-1.43-.65-1.43-1.44 0-.79.64-1.43 1.43-1.43.8 0 1.44.64 1.44 1.43" fill="#FFFFFD"/><path d="M711.56 322.57c0 .79-.65 1.43-1.44 1.43a1.43 1.43 0 1 1 0-2.86c.79 0 1.44.64 1.44 1.43" fill="#EBC324"/><path d="M721.85 323.6c0 .8-.63 1.44-1.44 1.44-.79 0-1.42-.64-1.42-1.44 0-.78.63-1.43 1.42-1.43.81 0 1.44.65 1.44 1.43" fill="#FFFFFD"/><path d="M722.37 321.25c0 .79-.64 1.44-1.44 1.44-.79 0-1.43-.65-1.43-1.44 0-.79.64-1.44 1.43-1.44.8 0 1.44.65 1.44 1.44" fill="#FFFFFD"/><path d="M720.68 319.95c0 .79-.65 1.43-1.45 1.43-.78 0-1.42-.64-1.42-1.43 0-.79.64-1.44 1.42-1.44.8 0 1.45.65 1.45 1.44" fill="#FFFFFD"/><path d="M718.89 320.35a1.44 1.44 0 0 1-2.88 0c0-.79.65-1.43 1.44-1.43.79 0 1.44.64 1.44 1.43" fill="#FFFFFD"/><path d="M718.16 322.53c0 .8-.64 1.43-1.43 1.43-.79 0-1.43-.63-1.43-1.43 0-.79.64-1.44 1.43-1.44.79 0 1.43.65 1.43 1.44" fill="#FFFFFD"/><path d="M719.81 324.33c0 .79-.65 1.43-1.44 1.43a1.434 1.434 0 1 1 0-2.87c.79 0 1.44.64 1.44 1.44" fill="#FFFFFD"/><path d="M720.32 322.17c0 .79-.64 1.43-1.43 1.43-.8 0-1.44-.64-1.44-1.43 0-.79.64-1.43 1.44-1.43.79 0 1.43.64 1.43 1.43" fill="#EBC324"/><path d="M705.11 324.05a1.436 1.436 0 1 1-2.872-.012 1.436 1.436 0 0 1 2.872.012" fill="#FFFFFD"/><path d="M705.62 321.69a1.43 1.43 0 1 1-2.86 0 1.43 1.43 0 0 1 2.86 0" fill="#FFFFFD"/><path d="M703.93 320.38c0 .79-.64 1.43-1.44 1.43-.78 0-1.42-.64-1.42-1.43 0-.79.64-1.43 1.42-1.43.8 0 1.44.64 1.44 1.43" fill="#FFFFFD"/><path d="M702.14 320.79c0 .79-.64 1.44-1.44 1.44-.79 0-1.43-.65-1.43-1.44 0-.8.64-1.43 1.43-1.43.8 0 1.44.63 1.44 1.43" fill="#FFFFFD"/><path d="M701.42 322.96c0 .8-.64 1.45-1.44 1.45-.78 0-1.43-.65-1.43-1.45a1.436 1.436 0 0 1 2.87 0" fill="#FFFFFD"/><path d="M703.06 324.76c0 .79-.64 1.43-1.43 1.43-.8 0-1.44-.64-1.44-1.43 0-.8.64-1.43 1.44-1.43.79 0 1.43.63 1.43 1.43" fill="#FFFFFD"/><path d="M703.57 322.61c0 .79-.64 1.44-1.43 1.44-.79 0-1.44-.65-1.44-1.44 0-.79.65-1.44 1.44-1.44.79 0 1.43.65 1.43 1.44" fill="#EBC324"/><path d="M713.85 300.252a8.071 8.071 0 0 0-2.86 1.855c-.97-2.657-2.81-4.572-2.81-4.572 1.02 1.592.94 3.639.65 5.208-1.15-2.142-3.37-2.119-3.37-2.119 3.26 3.407 1.19 5.815 1.19 5.815l2.66-.805 2.12 2.067c-.86-1.978 2.42-7.449 2.42-7.449" fill="#33D12F"/><path fill="#EFBA95" d="M425.1 616.7h100.46V479.43H425.1z"/><path fill="#D89D75" d="M525.56 616.7h2.94V479.43h-2.94z"/><path d="M517.77 541.15l-2.78.74c-.59-1.97-1.76-3.33-3.13-3.33-1.94 0-3.53 2.78-3.53 6.2 0 3.43 1.59 6.21 3.53 6.21 1.22 0 2.29-1.06 2.92-2.7l2.99.8v-7.92" fill="#2B231E"/><path fill="#EFBA95" d="M531.16 616.7h100.45V479.43H531.16z"/><path fill="#D89D75" d="M631.61 616.7h2.96V479.43h-2.96z"/><path d="M623.83 541.15l-2.78.74c-.59-1.97-1.76-3.33-3.12-3.33-1.95 0-3.54 2.78-3.54 6.2 0 3.44 1.59 6.21 3.54 6.21 1.22 0 2.27-1.06 2.92-2.7l2.98.8v-7.92" fill="#2B231E"/><path fill="#EFBA95" d="M637.69 616.7h100.46V479.43H637.69z"/><path fill="#D89D75" d="M738.15 616.7h2.95V479.43h-2.95z"/><path d="M730.36 541.15l-2.78.74c-.59-1.97-1.76-3.33-3.12-3.33-1.95 0-3.53 2.78-3.53 6.2 0 3.43 1.58 6.21 3.53 6.21 1.22 0 2.28-1.06 2.92-2.7l2.98.8v-7.92" fill="#2B231E"/><path fill="#BABABA" d="M355.73 393.73h13.3l2.05 48.82h-17.4l2.05-48.82"/><path d="M372.65 557.21c0 5.21 4.22 9.43 9.42 9.43s9.42-4.22 9.42-9.43c0-5.2-4.22-9.42-9.42-9.42s-9.42 4.22-9.42 9.42" fill="#424039"/><path d="M367.14 557.62c0 5.43 4.4 9.83 9.83 9.83 5.42 0 9.83-4.4 9.83-9.83 0-5.42-4.41-9.83-9.83-9.83-5.43 0-9.83 4.41-9.83 9.83" fill="#5B5950"/><path d="M392.04 447.19s5.73-14.32-71.65-14.32c-77.99 0-69.19 14.32-69.19 14.32h140.84" fill="#5F4100"/><path fill="#47330B" d="M392.04 447.19l-3.48 7.27H256.22l-5.02-7.27h140.84"/><path fill="#727272" d="M382.72 454.46v10.13h-6.14v3.69H264.2l.21-3.69h-8.14l-.05-10.13h126.5"/><path fill="#7C7C7C" d="M319.47 464.59h57.11v3.69l-4.29 12.28H268.71l-4.3-12.28v-3.69h55.06M336.66 538.74l28.1 11.36v4.25l-31.32-12.69 3.22-2.92"/><path d="M312.88 540.12h12.88c4.49 0 3.58 9.79 3.58 9.79h-20.05s-.91-9.79 3.59-9.79" fill="#3A2B07"/><path fill="#424039" d="M314.18 557.97h10.27v-8.06h-10.27z"/><path fill="#7C7C7C" d="M301.97 541.66h34.69v-12.28h-34.69z"/><path d="M369.11 544.32h20.26c7.07 0 5.64 10.03 5.64 10.03h-31.53s-1.43-10.03 5.63-10.03" fill="#3A2B07"/><path d="M266.25 557.21c0 5.21-4.21 9.43-9.41 9.43-5.21 0-9.43-4.22-9.43-9.43 0-5.2 4.22-9.42 9.43-9.42 5.2 0 9.41 4.22 9.41 9.42" fill="#424039"/><path d="M271.77 557.62c0 5.43-4.4 9.83-9.83 9.83s-9.83-4.4-9.83-9.83c0-5.42 4.4-9.83 9.83-9.83s9.83 4.41 9.83 9.83" fill="#5B5950"/><path fill="#7C7C7C" d="M302.24 538.74l-28.09 11.36v4.25l31.32-12.69-3.23-2.92"/><path d="M269.8 544.32h-20.27c-7.06 0-5.63 10.03-5.63 10.03h31.53s1.43-10.03-5.63-10.03" fill="#3A2B07"/><path fill="#BABABA" d="M312.82 480.56h13.3l2.05 48.82h-17.4l2.05-48.82"/><path d="M294.54 404c0 6.26 4.9 11.33 10.93 11.33h95.57c6.04 0 10.94-5.07 10.94-11.33L422 292.997c0-6.257-4.89-11.33-10.93-11.33h-113.8c-6.04 0-10.93 5.073-10.93 11.33L294.54 404" fill="#47330B"/><path d="M284.83 404c0 6.26 4.74 11.33 10.59 11.33h92.61c5.85 0 10.59-5.07 10.59-11.33l9.71-111.003c0-6.257-4.74-11.33-10.59-11.33H287.48c-5.86 0-10.6 5.073-10.6 11.33L284.83 404" fill="#5F4100"/><path d="M359.06 333.36l6.92-7.6c-.56-.62-.93-1.41-1.05-2.29l-3.96.63 3.91-1.11v-.06c0-.5.1-.97.25-1.41l-9.04-3.79 9.27 3.26c.24-.48.58-.91.98-1.26l-5.37-7.2 6.05 6.71c.55-.32 1.17-.51 1.83-.56l-.56-8.9 1.12 8.9c.74.05 1.44.27 2.03.65l4.16-5.22-3.58 5.67c.66.6 1.13 1.4 1.32 2.31l12.17-.74-12.1 1.44.01.14c0 .66-.16 1.28-.43 1.84l4.5 3.97-4.9-3.31c-.37.52-.86.94-1.42 1.24l4.43 10.56-5.35-10.2c-.35.1-.72.17-1.1.17-.11 0-.22-.03-.33-.04l-.53 4.49v-4.54c-.68-.14-1.28-.45-1.8-.87l-7.43 7.12M301.17 333.36l6.92-7.6c-.56-.62-.93-1.41-1.05-2.29l-3.96.63 3.91-1.11v-.06c0-.5.1-.97.26-1.41l-9.05-3.79 9.27 3.26c.24-.48.58-.91.99-1.26l-5.38-7.2 6.05 6.71c.55-.32 1.16-.51 1.83-.56l-.57-8.9 1.13 8.9a4.2 4.2 0 0 1 2.02.65l4.17-5.22-3.57 5.67c.65.6 1.13 1.4 1.31 2.31l12.17-.74-12.1 1.44.01.14c0 .66-.16 1.28-.43 1.84l4.5 3.97-4.9-3.31c-.37.52-.86.94-1.42 1.24l4.43 10.56-5.35-10.2c-.35.1-.72.17-1.1.17-.11 0-.22-.03-.33-.04l-.54 4.49v-4.54a4.22 4.22 0 0 1-1.79-.87l-7.43 7.12M359.06 391.25l6.92-7.59a4.32 4.32 0 0 1-1.05-2.3l-3.96.63 3.91-1.11v-.07c0-.49.1-.97.25-1.41l-9.04-3.78 9.27 3.26c.24-.48.58-.91.98-1.26l-5.37-7.2 6.05 6.71a4.4 4.4 0 0 1 1.83-.56l-.56-8.9 1.12 8.9c.74.05 1.44.27 2.03.65l4.16-5.23-3.58 5.68c.66.61 1.13 1.4 1.32 2.31l12.17-.74-12.1 1.44.01.13c0 .67-.16 1.29-.43 1.84l4.5 3.98-4.9-3.31c-.37.51-.86.93-1.42 1.24l4.43 10.56-5.35-10.19c-.35.09-.72.15-1.1.15-.11 0-.22-.02-.33-.03l-.53 4.49v-4.55c-.68-.13-1.28-.44-1.8-.86l-7.43 7.12M301.17 389.36l6.92-7.59a4.32 4.32 0 0 1-1.05-2.3l-3.96.63 3.91-1.11v-.06c0-.5.1-.97.26-1.41l-9.05-3.79 9.27 3.27c.24-.49.58-.91.99-1.27l-5.38-7.19 6.05 6.7c.55-.31 1.16-.51 1.83-.55l-.57-8.91 1.13 8.9a4.2 4.2 0 0 1 2.02.65l4.17-5.22-3.57 5.67c.65.61 1.13 1.4 1.31 2.31l12.17-.74-12.1 1.44.01.14c0 .66-.16 1.28-.43 1.84l4.5 3.97-4.9-3.31c-.37.52-.86.94-1.42 1.24l4.43 10.56-5.35-10.19c-.35.09-.72.16-1.1.16-.11 0-.22-.03-.33-.03l-.54 4.48v-4.54a4.22 4.22 0 0 1-1.79-.87l-7.43 7.12" fill="#47330B"/><path d="M71.36 365.02l.13 1.27 3.82-.4-.14-1.27c-.01-.01-.4-1.7-2.06-1.52h-.06l-.01.01c-1.66.17-1.68 1.89-1.68 1.91" fill="#F094B0"/><path fill="#FFE900" d="M71.72 368.31l3.8-.4-.21-2.02-1.89.2h-.04l-1.89.2.23 2.02"/><path d="M76.18 397.51l-1.52-2.59c1.65-1.16 3.5-.48 3.74-.39l-.93 2.84c-.09-.05-.34-.16-.67-.13-.19.03-.4.1-.62.27" fill="#FCDB9A"/><path d="M76.18 397.51c.57-.47 1.18-.2 1.29-.14l-.49 1.48-.8-1.34" fill="#83929B"/><path d="M74.66 394.92c.31-.21.68-.38.99-.49.26-.08.51-.13.76-.16.3-.03.57-.02.82 0 .55.05 1.03.21 1.17.26l-2.88-26.62-1.16.12-.72.08h-.04l-.91.1-.97.1 2.94 26.61" fill="#139E45"/><path d="M90.45 367.78c0 .69-.56 1.26-1.27 1.26-.71.01-1.28-.55-1.29-1.24l-.03-4.67c-.01-.69.56-1.25 1.26-1.26.71-.01 1.28.55 1.29 1.24l.04 4.67" fill="#8E8A87"/><path d="M89.25 377.1c-2.21.01-4.01-1.72-4.03-3.88-.02-2.16 1.76-3.92 3.96-3.94 2.2-.01 4.01 1.72 4.02 3.88.02 2.16-1.75 3.92-3.95 3.94zm-.08-9.39c-2.98.03-5.38 2.41-5.36 5.34.02 2.92 2.46 5.26 5.45 5.24 2.98-.02 5.38-2.41 5.35-5.33-.02-2.92-2.46-5.27-5.44-5.25z" fill="#77665C"/><path d="M89.36 378.45c-.71.01-1.29-.55-1.3-1.25 0-.69.57-1.26 1.28-1.26.71-.01 1.29.55 1.29 1.24.01.7-.56 1.27-1.27 1.27zm-.03-3.02c-.96.01-1.73.78-1.72 1.72.01.93.79 1.7 1.75 1.69.96-.01 1.73-.78 1.73-1.72-.01-.94-.8-1.7-1.76-1.69z" fill="#E30613"/><path fill="#E30613" d="M87.78 377.67l-3.95 10.43-.57 8.47 1.52 2.77-.21-2.78.5-8.05 4.29-9.65-1.58-1.19"/><path fill="#E30613" d="M90.85 377.65l4.12 10.36.71 8.46-1.48 2.8.16-2.79-.63-8.03-4.44-9.59 1.56-1.21"/><path fill="#FFE900" d="M72.65 379.55l.78 3.21-.33.08-.03.01-3.17.74h-.03l-.34.08-.78-3.22 3.9-.9"/><path d="M70.53 370.78l2.12 8.77-3.9.9-2.12-8.76c-.2-.92-.1-1.64.28-2.12.39-.49.97-.57 1.1-.59l.01.01.01-.01h.02c.13-.05.68-.23 1.26.03.55.27.97.86 1.22 1.77" fill="#164056"/><path d="M75.95 395.31l1.09 4.68c-1.65-.66-2.61.39-2.82.65l-1.17-4.65.01-.01 2.87-.67h.02" fill="#83929B"/><path d="M76.22 402.67c.29-.06.49-.27.44-.46-.05-.2-.32-.3-.61-.24-.28.07-.48.28-.43.47.04.2.32.3.6.23zm.81-2.69l.64 2.72c-.17.08-1.05.58-.83 2.61-.73-1.91-1.75-1.97-1.93-1.97l-.69-2.71c.1-.15 1.08-1.37 2.81-.65zM73.06 395.99v-.01l2.87-.67h.02l-.27-1.19-2.93.68.29 1.19h.02" fill="#FFE900"/><path fill="#164056" d="M72.78 394.8l2.9-.67-2.61-11.28-3.17.74 2.85 11.22.03-.01"/><path fill="#FFED00" d="M83.27 362.09l-.46 43.71-6.24-.06.45-43.71 6.25.06"/><path fill="#020202" d="M78.13 405.14v.11l-1.56-.02v-.11l1.56.02M77.48 403.71v.11l-.89-.01v-.11l.89.01M77.51 400.87l-.01.11-.88-.01v-.11l.89.01M77.54 398.03v.11l-.9-.01v-.11l.9.01M77.57 395.19v.1h-.89v-.11l.89.01M77.6 392.35l-.01.11-.88-.01v-.11l.89.01M77.63 389.5l-.01.11-.89-.01.01-.1h.89M77.66 386.66l-.01.11-.89-.01.01-.11.89.01M77.69 383.82l-.01.11-.88-.01v-.11l.89.01M77.71 380.98v.11l-.89-.01.01-.11.88.01M77.74 378.14v.1h-.89v-.11l.89.01M77.77 375.29v.11h-.89v-.12l.89.01M77.8 372.45v.11l-.89-.01v-.11l.89.01M77.83 369.61v.11l-.89-.01v-.11l.89.01M77.86 366.77v.11l-.89-.01v-.11l.89.01M77.89 363.93v.11l-.89-.01v-.11l.89.01M78.16 402.3v.11l-1.56-.02v-.11l1.56.02M78.19 399.46v.1l-1.56-.01v-.11l1.56.02M78.22 396.61v.11l-1.56-.01v-.11l1.56.01M78.25 393.77v.11l-1.56-.01v-.12l1.56.02M78.28 390.93v.11l-1.56-.02v-.11l1.56.02M78.31 388.09v.11l-1.56-.02v-.11l1.56.02M78.34 385.25v.11l-1.56-.02v-.11l1.56.02M78.37 382.4v.12l-1.56-.02v-.11l1.56.01M78.4 379.56v.11l-1.56-.01v-.11l1.56.01M78.43 376.72v.11l-1.56-.01v-.12l1.56.02M78.46 373.88v.11l-1.56-.01v-.11l1.56.01M78.49 371.04v.11l-1.56-.02v-.11l1.56.02M78.52 368.19v.12l-1.56-.02v-.11l1.56.01M78.55 365.35v.11l-1.56-.01v-.11l1.56.01M78.58 362.51v.11l-1.56-.01v-.11l1.56.01"/><path d="M80.17 364.24c.41 0 .74.33.74.74l-.4 38.14c0 .4-.34.73-.75.72-.42 0-.75-.33-.74-.74l.4-38.14c0-.4.34-.73.75-.72" fill="#FFF48D"/><path fill="#F7A000" d="M68.15 382.09h21.68v-1.49H68.15z"/><path fill="#D37E02" d="M70.57 406.99h16.84v-1.48H70.57zM89.44 384.06h-20.9l-.39-1.97h21.68l-.39 1.97"/><path fill="#D37E02" d="M70.58 405.53l-2.06-21.61.43.13 2.03 21.6-.4-.12M87.41 405.67l-.4-.04 2.06-21.6.4.03-2.06 21.61"/><path fill="#D37E02" d="M69.25 389.86l-.18-.35 3.97-6 .32.22-4.11 6.13M69.61 393.67l-.22-.39 6.66-9.77.33.22-6.77 9.94M69.97 397.57l-.14-.47 9.44-13.59.33.22-9.63 13.84M70.41 402.15l-.19-.43 11.73-18.21.33.22-11.87 18.42M71.31 405.87l-.33-.22 14.63-22.14.33.22-14.63 22.14M74.3 406.25l-.34-.2 14.66-22.53.34.2-14.66 22.53M77.91 406.7l-.34-.2 11.35-18.85v.88L77.91 406.7M80.65 406.75l-.34-.21 8.17-13.56.05.69-7.88 13.08M84.38 406.49l-.32-.24 3.65-5.76.14.52-3.47 5.48"/><path fill="#D37E02" d="M88.31 394.85l-17.28-11.37.22-.32 17.01 11.19.05.5M88.68 391.03l-11.58-7.55.22-.32 11.43 7.44-.07.43M89.03 387.25l-5.16-4.02.24-.31 5.11 3.76-.19.57M88.04 397.83l-19.4-13 .06-.44 19.33 12.95.01.49M87.65 401.93l-18.67-13.09.11-.42 18.51 12.99.05.52M86.99 405.92l-17.6-12.83.1-.42 17.74 12.93-.24.32M82.9 406.42l-12.91-7.83.01-.46 13.1 7.95-.2.34M75.87 406.42l-5.52-3.31.07-.48 5.66 3.45-.21.34"/><path fill="#49341A" d="M551.4 387.8h-62.81v3.61h2.45v2.75h3.21v2.55h4.03l3.89 10.39h33.95l3.89-10.39h3.65v-2.55h3.59v-2.75h4.15v-3.61"/><path d="M539.89 373.07l-3.02 1.16c-3.08 5.84-15.04 4.77-18.3 4.36-.79-1.68-1.34-3.36-1.74-4.93 6.72-3.05 8.63-8.02 8.63-8.02l-1.32-1.8c.05 2.45-1.67 4.31-3.56 5.61l-.76-8.26-.78-1.38.89 10.07c-1.39.85-2.77 1.41-3.54 1.7-.73-4.09-.42-7.1-.42-7.1h-3.99c-.1 2.35.06 4.55.39 6.61-11.59 2.33-12.75-5.45-12.75-5.45l-.47 1.06c.66 7.71 11.16 7.29 13.76 7.06 2.13 8.77 7.08 14.04 7.08 14.04h6.13a23.28 23.28 0 0 1-6.29-6.85c17.55 3.22 20.06-7.88 20.06-7.88M504.37 347.97l.75 1.13c-.24-.33-.49-.71-.75-1.13zm1.29 3.15l.66-.53s-.53-.56-1.19-1.48c.01 0 7.2-.86 6.82-11.03l-1.11.53s.72 8.29-6.48 9.34c-1-1.67-2-3.95-1.91-6.38l-.75 1.17s1.04 5.52 3.96 8.38z" fill="#7C4E12"/><path d="M504.89 338.41c.64 2.73-2.17 5.93-6.28 7.15-4.11 1.21-7.96-.02-8.6-2.76-.63-2.73 2.18-5.93 6.29-7.15 4.11-1.21 7.95.02 8.59 2.76" fill="#9ABD36"/><path d="M517.4 332.45c.83 3.58-2.85 7.77-8.22 9.36-5.37 1.58-10.41-.03-11.24-3.61-.84-3.57 2.84-7.76 8.21-9.35 5.38-1.59 10.41.03 11.25 3.6M504.34 362.46c0 4.16-5.87 7.53-13.11 7.53-7.24 0-13.11-3.37-13.11-7.53s5.87-7.53 13.11-7.53c7.24 0 13.11 3.37 13.11 7.53M545.46 371.42c0 2.26-3.36 4.08-7.5 4.08-4.14 0-7.5-1.82-7.5-4.08 0-2.25 3.36-4.08 7.5-4.08 4.14 0 7.5 1.83 7.5 4.08" fill="#9ABD36"/><path d="M494.44 356.63s3.11-10.81 19.52-3.92c0 0 13.11 11.13-2.92 13.68 0 0 .47 3.07-1.7 3.6 0 0-5.66 2.44-9.34-4.56l-5.56-8.8" fill="#9ABD36"/><path d="M534.33 352.81c0 3.87-4.79 7-10.71 7-5.91 0-10.7-3.13-10.7-7 0-3.86 4.79-6.99 10.7-6.99 5.92 0 10.71 3.13 10.71 6.99" fill="#9ABD36"/><path d="M529.71 348.26s7.26-3.61 11.97 5.3c0 0 9.25-2.12 11.79 4.24 0 0 3.21 5.72-5.75 4.66 0 0 1.86 6.28-10.85 5.83 0 0-5.65 4.67-8.77-3.07 0 0-4.95 6.04-10.58-2.01l.96-8.28 11.23-6.67" fill="#9ABD36"/><path d="M442.29 383.4c0-.72-5.27-1.31-11.78-1.31-6.5 0-11.77.59-11.77 1.31 0 .72 5.27 1.31 11.77 1.31 6.51 0 11.78-.59 11.78-1.31" fill="#9BA3A5"/><path d="M441.36 383.72c0-.73-4.92-1.31-10.99-1.31-6.08 0-11 .58-11 1.31 0 .73 4.92 1.31 11 1.31 6.07 0 10.99-.58 10.99-1.31" fill="#442711"/><path d="M446.25 393.28c-.13 1.46-1.11 2.71-2.72 3.44l.39-7.3c.34.18.65.38.95.62 1.26 1.02 1.5 2.01 1.38 3.24zm-.34-4.56c-.54-.45-1.19-.81-1.9-1.09l.09-1.83c0-1.53-1.24-2.78-2.77-2.78 0 0-1.68.64-10.72.64-9.05 0-10.97-.64-10.97-.64-1.53 0-2.77 1.25-2.77 2.78l.92 13.16c0 1.36.98 2.49 2.26 2.72.29 1.09 1.3 1.9 2.52 1.9h15.66c1.2 0 2.21-.79 2.51-1.85a2.777 2.777 0 0 0 2.67-2.77l.05-.9c2.61-.82 4.51-2.55 4.7-4.64.15-1.63-.68-3.44-2.25-4.7z" fill="#9BA3A5"/><path d="M443.72 406.83s-5.03.64-13.11.64c-8.09 0-13.11-.64-13.11-.64l-.93-1.63v-1.62h28.07v1.62l-.92 1.63" fill="#9BA3A5"/><path d="M452.73 363.43c.02 1.19-.68 2.18-1.57 2.2l-8.6.18c-.89.02-1.64-.93-1.66-2.13-.03-1.19.68-2.17 1.57-2.19l8.6-.18c.89-.02 1.63.93 1.66 2.12M451.67 367.15h-23.21c-1.57 0-2.84 1.28-2.84 2.85s1.27 2.84 2.84 2.84H430c.15.6.15 1.25-.11 1.94h-1.56c-1.5 0-2.71 1.22-2.71 2.72 0 1.49 1.21 2.71 2.71 2.71h18.88c1.5 0 2.72-1.22 2.72-2.71 0-1.5-1.22-2.72-2.72-2.72h-11.35c-.25-.67-.21-1.33-.04-1.94h15.85c1.57 0 2.85-1.27 2.85-2.84 0-1.57-1.28-2.85-2.85-2.85" fill="#FFF"/><path fill="#8C3341" d="M267.14 394.27l12.85-36.88-3.04-27.56-22.24-18.68-1.87 1.88-2.49 51.87-7.28 21.63-1.27 8.82 19.19 12.08 4.67-3.67 3.03-3.53-1.55-5.96"/><path fill="#A03C48" d="M276.19 353.86l1.75 8.25-7.18 51.5h69.01l-1.63-9.03 6.5-10.5 8.99-22.48 26.23-59.95-4.5-13.494-23.23-10.992-21.23-11.241-43.47 11.241-10.49 5.498-22.23 18.488 18.23 21.73 3.25 20.98"/><path fill="#30070F" d="M296.94 413.61l4.15-5.04 2.83-25.36 3.25-58.2h1.75l7.49-15.99-9.74-6.7h-10.99l-.51 13.44 1.76 9.49h1.24l-7.74 57.09-7.99 22.6 4.07 8.67h10.43"/><path fill="#8C3341" d="M324.91 269.678l-20.62 32.642 12.12 14.45 16.64-40.847-8.14-6.245M284.43 287.498l8.25 31.142 10.49-16.32-6.75-7.41-5.47-14.154-6.52 6.742M385.43 365.86l-2.82-58.711-7.25-8.993-15.4 29.934-8.08 29.27 15.42 47.67 3.73 2.4 17.76-.87 4.38-7.75.5-8.47-8.24-24.48"/><path fill="#702836" d="M317.24 346.04l1.17-3.58 21.48 2.29 1.17 2.73-1-3.94-22.82-2.17v4.67M335.39 413.61l1.34-3.29 1.75-3.84-.34-1.9-3.08 4.91-.84 4.12h1.17"/><path fill="#E8996D" d="M289.57 277.213l6.85 17.697 6.75 7.41h1.12l20.62-32.642-2.1-10.991-33.24 18.526"/><path fill="#F4A876" d="M332.71 230.357l3.47 1.985 1.33 2.922-2.42 9.734-3.32 4.244-3.41.899-1.73 3.918-1.21.997-.62 6.854-18.64 18.454-11.3 2.3-7.2-2.566-6.53-12.542-5.84-18.131-1.97-13.511-.37-21.349 19.72-6.391 25.77 5.949 14.27 16.234"/><path fill="#2E2D21" d="M326.6 245.973l1.31-10.936 4.8-4.68.74-16.332-.74-2.729-.41.834-.21-1.488-1.97 1.735-6.05-8.297-9.52-8.412 1.01 3.267-10.22-6.593 1.33 2.973-13.1-4.6 1.64 2.24-10.61-1.697 6.82 5.811-10.96-5.348 1.69 2.996-3.21-1.538 1.44 2.801-3.96 1.421 1.57 3.102-1.35.555-.4 2.912-2.53.153 1.21 2.814-2.4.493.98 4.678-2.42.146 2.24 23.66 1.18-.225.75-6.016-.66-5.271 3.82-7.394 6.94.677-.05-1.441 5.78 3.251-.32-2.773 4.63 3.34-1.29-3.425 6.21 1.356.01-1.733 4.66.756-.06-1.034 7.46 1.165 6.41 12.282 5.22 4.225.87 12.423 1.72-.104M329.05 250.099l-1.34 4.586-2.29.371.73-5.536 2.9.579"/><path fill="#26251B" d="M319.13 236.376l-10.56-2.749-11.35 5.922-3.38.206 4.05 1.987 6.54-1.396 4.48-2.427 3.72-.803 6.5-.74M290.36 240.736l-4.62-5.036-7.33-2.943-5.52 1.72-.33 2.253 5.19.418 5.03 1.774 5.75 3.386 1.94.191-.11-1.763"/><path fill="#222219" d="M320.1 221.916l-3.27-8.348-4.23-7.448 4.7 7.264 2.8 8.532M307.43 211.054l-5.89-9.886 2.89 4.06 3 5.826M297.38 207.888l-2.92-3.209-3.01-4.516 5.93 7.725M294.86 211.43l-2.98-4.056-3.92-6.384 6.9 10.44M285 212.028l-1.74-2.128-3.76-7.398 5.5 9.526M280.82 214.205l-2.91-3.598-1.6-3.486 2.26 3.541 2.25 3.543M328.63 227.87l-1.08-8.945-5.78-10.277 6.31 10.167.55 9.055"/><path fill="#FFF" d="M313.45 241.109l-4.96-1.2-3.75.271-5.36 3.898 5.05.659 4.52-.274 4.5-3.354M288.25 242.94l-2.37-1.856-5.1-1.462-2.32.988 1.82 2.198 2.81 1.352 2.72-.05 2.44-1.17"/><path d="M307.87 239.952s1.14 3.428-1.98 3.539c0 0-2.38.149-2.47-2.35l1.32-.961 3.13-.228M285.62 241.01s.15 2.351-2.62 2.097c0 0-2.53-.311-1.75-3.352l4.37 1.255" fill="#090909"/><path d="M306.34 241.365c.02.329.62.561 1.34.517.72-.043 1.29-.347 1.27-.675-.02-.328-.62-.558-1.34-.514-.72.043-1.29.344-1.27.672M284.05 241.759c.02.328.52.565 1.12.529.6-.037 1.07-.332 1.05-.66-.02-.329-.52-.565-1.12-.529-.6.037-1.07.331-1.05.66" fill="#FFF"/><path fill="#C98665" d="M304.89 266.71l-6.17 2.028-6.02.543-4.28-.434 4.36 1.41 6.29-.471 5.82-3.076M296.26 256.184l2.84-.807 2.01 2.652-.44 1.896-3.42.129-3.67 2.36-2.84-.117-2.86-2.485.32-3.313.01 3.158 2.63 2.286 2.6.015 3.67-2.301 3.2-.193.46-1.331-1.82-2.399-2.69.45"/><path fill="#C98665" d="M290.36 240.736l-.92 16.324.52-.033.4-16.291M332.72 232.435l2.43 1.317.84 2.606-1.21 5.039.91-5.021-.77-2.457-2.19-1.178-.01-.306M332.26 233.196l-3.1 3.421-.91 3.423.74 3.402-.4-3.423.91-3.385 2.97-3.261-.21-.177"/><path fill="#C98665" d="M330.52 245.736l1.58-2.481-.24-4.03-2.5-2.043.14-.548 2.65 2.382.27 4.411-1.9 2.309M321.71 246.579l-6.54 10.908 6.02-10.646.52-.262M275.34 249.568l4.65 7.467-4.29-6.332-.36-1.135M295.66 271.555l-2.85-.404-1.99.54 2.01-.123 2.83-.013"/><path fill="#F4A876" d="M276.38 377.36l3.19-5.08 12.3-1.08 9.82 2.63 5.62 10.32 4.12 1.92 18.48.07 24.75-1.35 15.14-2.35 5.1-1.12 6.49.71 8.19 5.59 1.55 6.36-.84 7.6-2.82 3.43-5.45.15-4.42 1.01-10.3-1.14-12.38-2.3-31.83-2.44-15.7-.77-5.19 3.75-9.16 3.11-11.77-.37-3.25-4.48-3.46-.94-1.95-4.34-1.79-.76-1.38-6.15-2.27-1.57.78-7.03 3.6-2.04 4.83-1.34"/><path fill="#C98665" d="M276.38 377.36l3.06-.51 3.83-.98 2.15-1.59-1.82 1.84-4.18 1.57-4.9.18 1.86-.51M269.44 389.34l6.73 1.14-.06.62-6.44-.71-.23-1.05M272.61 396.25l2.27.25 2.67 1.51-2.81-.92-1.84-.2-.29-.64"/><path fill="#C98665" d="M275.51 382.53l-.69 1.75-.2 4.06 2.07 3.88-.36 3.2 2.33 3.06.58 3.02 1.28 3.47.75 1.04-1.5-4.8-.51-3.01-2.33-3.07.42-3.19-2.18-3.82.28-3.77.06-1.82M380.32 397.64l1.22-1.49 5.43-.17-5.69-.63-.96 2.29M378.58 401.94l3.44 3.22 1.57-.04-5.01-3.18"/><path fill="#F4A876" d="M243.22 396.25l1.69-.9 5.53.9 7.98 3.21 4.37 4.09-1.89 5.54-21.79-1.66 4.11-11.18"/><path fill="#E29744" d="M411.62 421.91h159.63v-15.56H411.62z"/><path fill="#E89D43" d="M.859 421.91H505.43v-15.56H.859z"/><path fill="#D3873C" d="M10.185 622.17H541.08V421.91H10.185z"/><path fill="#C17536" d="M505.43 622.17h59.64V421.91h-59.64z"/><path d="M250.18 404.48c0 1.08-.87 1.96-1.95 1.96H109.54c-1.08 0-1.95-.88-1.95-1.96s.87-1.95 1.95-1.95h138.69c1.08 0 1.95.87 1.95 1.95" fill="#D1D3D3"/><path d="M18.38 368.11c0 2.56 2.43 4.64 5.44 4.64h203.5c3.01 0 5.44-2.08 5.44-4.64V241.398c0-2.559-2.43-4.634-5.44-4.634H23.82c-3.01 0-5.44 2.075-5.44 4.634V368.11" fill="#AAB1B2"/><path d="M14.904 368.05c0 2.56 2.434 4.64 5.446 4.64h203.5c3 0 5.44-2.08 5.44-4.64V241.335c0-2.561-2.44-4.633-5.44-4.633H20.35c-3.012 0-5.446 2.072-5.446 4.633V368.05" fill="#333"/><path fill="#262626" d="M152.66 406.35h14.14v-3.5h-14.14z"/><path d="M27.16 366.32c0 .54-.6.97-1.33.97-.74 0-1.34-.43-1.34-.97v-15.09c0-.53.6-.97 1.34-.97.73 0 1.33.44 1.33.97v15.09M32.98 366.32c0 .54-.6.97-1.34.97-.73 0-1.33-.43-1.33-.97v-15.09c0-.53.6-.97 1.33-.97.74 0 1.34.44 1.34.97v15.09M38.8 366.32c0 .54-.6.97-1.34.97-.73 0-1.33-.43-1.33-.97v-15.09c0-.53.6-.97 1.33-.97.74 0 1.34.44 1.34.97v15.09M44.61 366.32c0 .54-.59.97-1.33.97-.74 0-1.33-.43-1.33-.97v-15.09c0-.53.59-.97 1.33-.97.74 0 1.33.44 1.33.97v15.09M50.43 366.32c0 .54-.6.97-1.33.97-.74 0-1.34-.43-1.34-.97v-15.09c0-.53.6-.97 1.34-.97.73 0 1.33.44 1.33.97v15.09M56.25 366.32c0 .54-.6.97-1.33.97-.74 0-1.34-.43-1.34-.97v-15.09c0-.53.6-.97 1.34-.97.73 0 1.33.44 1.33.97v15.09M62.07 366.32c0 .54-.6.97-1.34.97-.73 0-1.33-.43-1.33-.97v-15.09c0-.53.6-.97 1.33-.97.74 0 1.34.44 1.34.97v15.09M67.89 366.32c0 .54-.6.97-1.34.97-.73 0-1.33-.43-1.33-.97v-15.09c0-.53.6-.97 1.33-.97.74 0 1.34.44 1.34.97v15.09M73.7 366.32c0 .54-.59.97-1.33.97-.74 0-1.33-.43-1.33-.97v-15.09c0-.53.59-.97 1.33-.97.74 0 1.33.44 1.33.97v15.09M79.52 366.32c0 .54-.59.97-1.33.97-.74 0-1.34-.43-1.34-.97v-15.09c0-.53.6-.97 1.34-.97.74 0 1.33.44 1.33.97v15.09M85.34 366.32c0 .54-.6.97-1.33.97-.74 0-1.34-.43-1.34-.97v-15.09c0-.53.6-.97 1.34-.97.73 0 1.33.44 1.33.97v15.09M91.16 366.32c0 .54-.6.97-1.34.97-.73 0-1.33-.43-1.33-.97v-15.09c0-.53.6-.97 1.33-.97.74 0 1.34.44 1.34.97v15.09M96.97 366.32c0 .54-.59.97-1.33.97-.73 0-1.33-.43-1.33-.97v-15.09c0-.53.6-.97 1.33-.97.74 0 1.33.44 1.33.97v15.09M102.79 366.32c0 .54-.59.97-1.33.97-.74 0-1.33-.43-1.33-.97v-15.09c0-.53.59-.97 1.33-.97.74 0 1.33.44 1.33.97v15.09M108.61 366.32c0 .54-.6.97-1.33.97-.74 0-1.34-.43-1.34-.97v-15.09c0-.53.6-.97 1.34-.97.73 0 1.33.44 1.33.97v15.09M114.43 366.32c0 .54-.6.97-1.33.97-.74 0-1.34-.43-1.34-.97v-15.09c0-.53.6-.97 1.34-.97.73 0 1.33.44 1.33.97v15.09M120.25 366.32c0 .54-.6.97-1.34.97-.73 0-1.33-.43-1.33-.97v-15.09c0-.53.6-.97 1.33-.97.74 0 1.34.44 1.34.97v15.09M126.07 366.32c0 .54-.6.97-1.34.97-.74 0-1.33-.43-1.33-.97v-15.09c0-.53.59-.97 1.33-.97.74 0 1.34.44 1.34.97v15.09M131.88 366.32c0 .54-.59.97-1.33.97-.74 0-1.33-.43-1.33-.97v-15.09c0-.53.59-.97 1.33-.97.74 0 1.33.44 1.33.97v15.09M137.7 366.32c0 .54-.6.97-1.33.97-.74 0-1.34-.43-1.34-.97v-15.09c0-.53.6-.97 1.34-.97.73 0 1.33.44 1.33.97v15.09M143.52 366.32c0 .54-.6.97-1.33.97-.74 0-1.34-.43-1.34-.97v-15.09c0-.53.6-.97 1.34-.97.73 0 1.33.44 1.33.97v15.09M149.34 366.32c0 .54-.6.97-1.34.97-.74 0-1.33-.43-1.33-.97v-15.09c0-.53.59-.97 1.33-.97.74 0 1.34.44 1.34.97v15.09M155.15 366.32c0 .54-.59.97-1.33.97-.74 0-1.33-.43-1.33-.97v-15.09c0-.53.59-.97 1.33-.97.74 0 1.33.44 1.33.97v15.09M160.97 366.32c0 .54-.59.97-1.33.97-.74 0-1.33-.43-1.33-.97v-15.09c0-.53.59-.97 1.33-.97.74 0 1.33.44 1.33.97v15.09M166.79 366.32c0 .54-.59.97-1.33.97-.74 0-1.34-.43-1.34-.97v-15.09c0-.53.6-.97 1.34-.97.74 0 1.33.44 1.33.97v15.09M172.61 366.32c0 .54-.6.97-1.34.97-.73 0-1.33-.43-1.33-.97v-15.09c0-.53.6-.97 1.33-.97.74 0 1.34.44 1.34.97v15.09M178.43 366.32c0 .54-.6.97-1.34.97-.73 0-1.33-.43-1.33-.97v-15.09c0-.53.6-.97 1.33-.97.74 0 1.34.44 1.34.97v15.09M184.24 366.32c0 .54-.59.97-1.33.97-.74 0-1.33-.43-1.33-.97v-15.09c0-.53.59-.97 1.33-.97.74 0 1.33.44 1.33.97v15.09M190.06 366.32c0 .54-.6.97-1.33.97-.74 0-1.34-.43-1.34-.97v-15.09c0-.53.6-.97 1.34-.97.73 0 1.33.44 1.33.97v15.09M195.88 366.32c0 .54-.6.97-1.33.97-.74 0-1.34-.43-1.34-.97v-15.09c0-.53.6-.97 1.34-.97.73 0 1.33.44 1.33.97v15.09M201.7 366.32c0 .54-.6.97-1.34.97-.73 0-1.33-.43-1.33-.97v-15.09c0-.53.6-.97 1.33-.97.74 0 1.34.44 1.34.97v15.09M207.52 366.32c0 .54-.6.97-1.34.97-.74 0-1.33-.43-1.33-.97v-15.09c0-.53.59-.97 1.33-.97.74 0 1.34.44 1.34.97v15.09M213.33 366.32c0 .54-.59.97-1.33.97-.74 0-1.33-.43-1.33-.97v-15.09c0-.53.59-.97 1.33-.97.74 0 1.33.44 1.33.97v15.09M219.15 366.32c0 .54-.6.97-1.33.97-.74 0-1.34-.43-1.34-.97v-15.09c0-.53.6-.97 1.34-.97.73 0 1.33.44 1.33.97v15.09" fill="#1D1E1E"/><path fill="#333" d="M76.64 406.35h76.02v-3.5H76.64z"/><path fill="#6F7575" d="M97.79 402.78h43.65V329.5H97.79z"/><path fill="#838989" d="M95.31 402.78h43.65V329.5H95.31z"/><path d="M417.61 339.82s-13.96 41.41-20.16 48.22l-6.11-1.93s15.51-32.44 18.99-47.29l7.28 1" fill="#2B8E26"/><path d="M380.4 325.98c1.66 0 3.71-.31 6.23-1.16l-.18-.54c-9.23 3.1-11.91-1.26-11.94-1.3-2.53-3.54-3.39-6.22-2.54-7.98.91-1.9 3.58-2.07 3.6-2.07 6.96-.18 7.3-5.4 7.3-5.455.09-2.589-.64-4.548-2.18-5.841-3.03-2.552-8.06-1.547-8.27-1.502l.12.549c.05-.008 4.97-.99 7.79 1.387 1.39 1.171 2.06 2.983 1.98 5.385-.01.188-.33 4.747-6.76 4.907-.13.01-3.03.19-4.09 2.4-.94 1.96-.07 4.83 2.58 8.52.07.13 1.62 2.7 6.36 2.7" fill="#7A9B78"/><path d="M408.68 330.17s-5.5 5.74.61 10.44h9.92v-10.44h-10.53" fill="#329B2D"/><path d="M416.16 335.39c0 2.88 1.37 5.22 3.05 5.22 1.69 0 3.06-2.34 3.06-5.22s-1.37-5.22-3.06-5.22c-1.68 0-3.05 2.34-3.05 5.22" fill="#3AAA35"/><path d="M370.83 300.673c-.69.878-.82 1.928-.29 2.344.53.42 1.52.045 2.21-.83.69-.876.82-1.927.29-2.341-.53-.421-1.52-.048-2.21.827" fill="#319B2C"/><path d="M365.75 323.15l10.37-15.84s-1.99-7.808-11.12-9.228l-13.14 13.998 13.89 11.07" fill="#3AAA35"/><path d="M365.75 323.15s-.39 13.64-6.17 18.54c0 0-14.69-4.9-24.56-20.06 0 0 6.13-9.02 16.84-9.55 0 0 8.85 2.44 13.89 11.07" fill="#319B2C"/><path d="M359.58 341.69s-7.9-12.74-24.56-20.06c0 0 7.71 13.94 24.56 20.06" fill="#288E23"/><path d="M353.71 334.57s-6.13-5.99-10.49-8.54c0 0-1.6 1.33 3.61 5.59 5.21 4.25 6.88 2.95 6.88 2.95" fill="#F9F978"/><path d="M412.81 330.4s-21.38-13.58-40.63-17.08l-3.69 5.63s26.89 6.6 42.97 18.84c0 0-1.72-4.06 1.35-7.39" fill="#2B8E26"/><path fill="#24841F" d="M387.39 395.8h13.13v-11.19h-13.13z"/><path d="M397.12 382.82s-4.24 5.64.2 10.44h3.2v-10.44h-3.4" fill="#329B2D"/><path d="M398.25 388.04c0 2.88 1.02 5.22 2.27 5.22 1.26 0 2.28-2.34 2.28-5.22 0-2.89-1.02-5.22-2.28-5.22-1.25 0-2.27 2.33-2.27 5.22" fill="#3AAA35"/><path fill="#329B2D" d="M363.99 406.61h48.82V395.8h-48.82z"/><path fill="#24841F" d="M363.99 406.61h48.82v-2.82h-48.82zM371.79 395.8h8.07v-2.54h-8.07z"/><path fill="#AA9A96" d="M906.63 301.908H764.48l-.06-107.097 142.21-.195v107.292"/><path fill="#9B8984" d="M906.63 301.908h33.96V194.616h-33.96zM781.11 200.375c-3.41 0-4.54 1.395-5.84 3.559l-.7 88.528c1.26 2.117 2.42 3.561 5.84 3.561h110.22c3.42 0 6.2-1.596 6.2-3.561v-88.73c0-1.963-2.78-3.56-6.2-3.56l-109.52.203zm109.52 97.072H780.41c-4.78 0-8.68-2.236-8.68-4.985l.71-88.528c0-2.748 3.89-4.984 8.67-4.984l109.52-.202c4.79 0 8.68 2.236 8.68 4.984v88.73c0 2.749-3.89 4.985-8.68 4.985z"/><path fill="#FFF" d="M799.87 229.098h72.98v-9.35h-72.98z"/><path fill="#273947" d="M853.14 249.786v10.637h-30.88v-10.637h-8.11v16.208h47.09v-16.208h-8.1"/><path fill="#3E5870" d="M851.47 249.786v10.637h-30.88v-10.637h-8.11v16.208h47.09v-16.208h-8.1"/><path fill="#AA9A96" d="M906.63 407.85H764.48l-.06-107.09 142.21-.196V407.85"/><path fill="#9B8984" d="M940.59 407.85h-33.96V300.564l33.96 1.032V407.85M781.11 306.323c-3.41 0-4.54 1.395-5.84 3.557l-.7 88.53c1.26 2.12 2.42 3.56 5.84 3.56h110.22c3.42 0 6.2-1.6 6.2-3.56v-88.73c0-1.962-2.78-3.56-6.2-3.56l-109.52.203zM890.63 403.4H780.41c-4.78 0-8.68-2.24-8.68-4.99l.71-88.53c0-2.745 3.89-4.982 8.67-4.982l109.52-.202c4.79 0 8.68 2.236 8.68 4.984v88.73c0 2.75-3.89 4.99-8.68 4.99z"/><path fill="#FFF" d="M799.87 335.05h72.98v-9.35h-72.98z"/><path fill="#273947" d="M853.14 355.73v10.64h-30.88v-10.64h-8.11v16.21h47.09v-16.21h-8.1"/><path fill="#3E5870" d="M851.47 355.73v10.64h-30.88v-10.64h-8.11v16.21h47.09v-16.21h-8.1"/><path fill="#AA9A96" d="M906.63 513.8H764.48l-.06-107.09 142.21-.2V513.8"/><path fill="#9B8984" d="M940.59 513.8h-33.96V406.51l33.96 1.03V513.8M781.11 412.27c-3.41 0-4.54 1.4-5.84 3.56l-.7 88.53c1.26 2.12 2.42 3.56 5.84 3.56h110.22c3.42 0 6.2-1.6 6.2-3.56v-88.73c0-1.96-2.78-3.56-6.2-3.56l-109.52.2zm109.52 97.07H780.41c-4.78 0-8.68-2.23-8.68-4.98l.71-88.53c0-2.75 3.89-4.98 8.67-4.98l109.52-.21c4.79 0 8.68 2.24 8.68 4.99v88.73c0 2.75-3.89 4.98-8.68 4.98z"/><path fill="#FFF" d="M799.87 440.99h72.98v-9.35h-72.98z"/><path fill="#273947" d="M853.14 461.68v10.64h-30.88v-10.64h-8.11v16.21h47.09v-16.21h-8.1"/><path fill="#3E5870" d="M851.47 461.68v10.64h-30.88v-10.64h-8.11v16.21h47.09v-16.21h-8.1"/><path fill="#AA9A96" d="M906.63 619.75H764.48l-.06-107.09 142.21-.2v107.29"/><path fill="#9B8984" d="M940.59 619.75h-33.96V512.46l33.96 1.03v106.26M781.11 518.22c-3.41 0-4.54 1.39-5.84 3.56l-.7 88.53c1.26 2.11 2.42 3.56 5.84 3.56h110.22c3.42 0 6.2-1.6 6.2-3.56v-88.73c0-1.97-2.78-3.56-6.2-3.56l-109.52.2zm109.52 97.07H780.41c-4.78 0-8.68-2.23-8.68-4.98l.71-88.53c0-2.75 3.89-4.99 8.67-4.99l109.52-.2c4.79 0 8.68 2.24 8.68 4.99v88.73c0 2.75-3.89 4.98-8.68 4.98z"/><path fill="#FFF" d="M799.87 546.94h72.98v-9.35h-72.98z"/><path fill="#273947" d="M853.14 567.63v10.64h-30.88v-10.64h-8.11v16.21h47.09v-16.21h-8.1"/><path fill="#3E5870" d="M851.47 567.63v10.64h-30.88v-10.64h-8.11v16.21h47.09v-16.21h-8.1"/><path fill="#97C5D3" d="M903.08 194.616H802.1l-.06-126.89 101.04-.232v127.122"/><path fill="#8AB9C4" d="M938.45 194.616h-35.37V67.494l35.74.172-.37 126.95"/><path d="M815.54 76.244c-2.25 0-2.99 1.597-2.85 4.074l-.47 101.317c-.16 2.422.61 4.074 2.86 4.074h72.44c2.25 0 4.07-1.828 4.07-4.074V81.133a4.073 4.073 0 0 0-4.07-4.074l-71.98-.815zm71.98 111.095h-72.44a5.713 5.713 0 0 1-5.71-5.704l.46-101.317a5.713 5.713 0 0 1 5.71-5.704l71.98.815c3.15 0 5.7 2.558 5.7 5.704v100.502a5.704 5.704 0 0 1-5.7 5.704z" fill="#77AAB2"/><path fill="#ADD6E0" d="M804.21 105.251h10.32V88.138h-10.32z"/><path fill="#77AAB2" d="M814.53 105.251h3.26V88.138h-3.26z"/><path fill="#ADD6E0" d="M805.32 171.664h10.32v-17.112h-10.32z"/><path fill="#77AAB2" d="M815.64 171.664h3.26v-17.112h-3.26z"/><path d="M853.65 98.813c-10.32 0-18.72 8.396-18.72 18.716 0 10.319 8.4 18.713 18.72 18.713 10.32 0 18.71-8.394 18.71-18.713 0-10.32-8.39-18.716-18.71-18.716zm0 40.025c-11.75 0-21.31-9.561-21.31-21.309 0-11.751 9.56-21.311 21.31-21.311 11.75 0 21.31 9.56 21.31 21.311 0 11.748-9.56 21.309-21.31 21.309z" fill="#273947"/><path d="M866.73 122.268l-7.12-3.156a6.02 6.02 0 0 0-2.25-6.404l3.04-6.852-2.37-1.052h-1.23l-1.81 6.852a6.016 6.016 0 0 0-6.25 2.638l-7.46-3.331-.89.176.17 2.372 7.27 3.22a6.04 6.04 0 0 0 2.39 5.68l-3.67 7.898 2.37 1.052 3.68-7.898a6.035 6.035 0 0 0 5.82-2.041l6.04 3.219h1.22l1.05-2.373" fill="#273947"/><path d="M852.43 98.813c-10.32 0-18.72 8.396-18.72 18.716 0 10.319 8.4 18.713 18.72 18.713 10.31 0 18.71-8.394 18.71-18.713 0-10.32-8.4-18.716-18.71-18.716zm0 40.025c-11.75 0-21.32-9.561-21.32-21.309 0-11.751 9.57-21.311 21.32-21.311s21.31 9.56 21.31 21.311c0 11.748-9.56 21.309-21.31 21.309z" fill="#3E5870"/><path d="M865.51 122.268l-7.12-3.156a6.02 6.02 0 0 0-2.25-6.404l3.04-6.852-2.38-1.052-3.03 6.852a6.038 6.038 0 0 0-6.26 2.638l-7.12-3.155-1.05 2.372 7.27 3.22a6.02 6.02 0 0 0 2.39 5.68l-3.33 7.513 2.38 1.052 3.33-7.513c2.17.442 4.4-.355 5.81-2.041l7.27 3.219 1.05-2.373" fill="#3E5870"/><path d="M872.73 149.061c0-1.736-1.34-3.142-3-3.142-1.65 0-3 1.406-3 3.142a3.15 3.15 0 0 0 1.51 2.709c-.01.142-.03.285-.03.433 0 1.564.68 2.833 1.52 2.833s1.52-1.269 1.52-2.833c0-.148-.01-.291-.02-.433a3.164 3.164 0 0 0 1.5-2.709" fill="#1D1D1B"/><path fill="#EB0C17" d="M818.69 67.576h18.38V1.802h-18.38z"/><path fill="#CC1225" d="M837.07 67.576h33.79V1.802h-33.79z"/><path d="M833.91 57.62c.51 3.095-1.57 6.025-4.67 6.542a5.684 5.684 0 0 1-6.54-4.665 5.678 5.678 0 0 1 4.67-6.543 5.682 5.682 0 0 1 6.54 4.666" fill="#A8A8A8"/><path d="M832.64 57.831a4.397 4.397 0 0 1-3.61 5.06 4.397 4.397 0 0 1-5.06-3.607 4.394 4.394 0 0 1 8.67-1.453" fill="#721728"/><path fill="#FFF" d="M822.62 46.648h11.37V6.407h-11.37z"/><path d="M832.39 42.221l-.09 2.055-4.56-.188c-.84-.035-1.52-.285-2.03-.747a2.664 2.664 0 0 1-.68-.991 2.86 2.86 0 0 1-.22-1.212c.04-.817.34-1.495.91-2.03a2.72 2.72 0 0 1 2.05-.756c.78.034 1.44.338 1.98.918.54.581.79 1.25.77 2.01-.01.126-.03.309-.07.55l-2.26-.097c.14-.16.22-.324.22-.494a.727.727 0 0 0-.21-.555.756.756 0 0 0-.55-.251.72.72 0 0 0-.56.211.783.783 0 0 0-.25.556c-.02.527.32.808 1.06.835l4.49.186M825.15 34.333l2.19.089c-.08.141-.13.269-.13.385-.02.376.26.572.83.596l2.6.111-.09 2.052-2.99-.124c-.79-.033-1.41-.274-1.86-.728-.46-.451-.67-1.035-.64-1.76.01-.159.03-.366.09-.621M827.24 31.267a.804.804 0 0 0 .8.825.807.807 0 0 0 .85-.754.731.731 0 0 0-.22-.574.807.807 0 0 0-.57-.258.826.826 0 0 0-.6.206.78.78 0 0 0-.26.555zm-2.02-.14c.03-.773.34-1.428.92-1.959a2.746 2.746 0 0 1 2.04-.748c.79.031 1.46.344 1.99.928.53.584.78 1.274.75 2.067a2.783 2.783 0 0 1-.92 2.002 2.74 2.74 0 0 1-2.06.761c-.8-.031-1.46-.343-1.98-.928-.53-.587-.78-1.294-.74-2.123zM823.12 25.641a.975.975 0 0 1 .32-.71c.2-.195.44-.288.71-.278a.95.95 0 0 1 .69.32c.17.199.25.447.24.748-.01.3-.11.543-.31.729a.894.894 0 0 1-.71.256.933.933 0 0 1-.68-.33 1.002 1.002 0 0 1-.26-.735zm2.4 1.065l.09-2.053 4.62.194c.97.039 1.72.3 2.28.781.7.613 1.02 1.432.98 2.45-.01.313-.09.66-.24 1.047l-1.94-.082c.18-.337.27-.623.28-.86.03-.815-.55-1.246-1.74-1.294l-4.33-.183zM828.95 18.198l-.13 3.115a1.6 1.6 0 0 1-.44.053c-.18-.01-.36-.049-.54-.122l.05-1.042c-.41.057-.62.274-.64.66-.01.256.09.468.3.638.21.17.49.264.83.28.36.013.65-.053.87-.2.23-.147.35-.344.35-.596.02-.206-.08-.409-.27-.61l1.45-1.11c.4.564.59 1.179.57 1.845-.04.812-.34 1.483-.91 2.012-.57.533-1.25.78-2.06.748-.8-.035-1.47-.343-2-.924-.52-.581-.77-1.276-.74-2.09.03-.792.33-1.45.9-1.967.56-.517 1.23-.759 2.03-.729.07.003.2.018.38.039M829.01 13.984l.01-2.042c.79.094 1.42.414 1.91.964.48.555.71 1.211.68 1.974a2.753 2.753 0 0 1-.92 2.002c-.58.531-1.28.779-2.1.746-.77-.03-1.42-.34-1.94-.92-.53-.584-.77-1.267-.75-2.052.03-.684.27-1.278.73-1.783a2.743 2.743 0 0 1 1.69-.908l-.01 2.083c-.24.17-.37.39-.38.668-.01.23.06.428.21.584.15.157.34.241.57.25.24.008.44-.062.61-.215a.84.84 0 0 0 .27-.584c.01-.35-.18-.605-.58-.767M824.23 9.015l2.1.089.04-.923 2.17.09-.04.925c.43.015.73-.041.91-.173.16-.128.26-.377.28-.743l2.16.087c-.01.108-.01.188-.01.237-.02.466-.15.901-.38 1.304-.23.404-.54.722-.92.956-.49.296-1.12.427-1.9.394l-4.49-.188.08-2.055" fill="#A6DAE8"/><path fill="#FFF" d="M840.51 21.014h27.06v-8.436h-27.06z"/><path fill="#889C29" d="M842.01 67.576h18.38V1.802h-18.38z"/><path fill="#7B8729" d="M860.39 67.576h33.79V1.802h-33.79z"/><path d="M857.23 57.62c.51 3.095-1.57 6.025-4.67 6.542a5.684 5.684 0 0 1-6.54-4.665 5.678 5.678 0 0 1 4.67-6.543 5.682 5.682 0 0 1 6.54 4.666" fill="#A8A8A8"/><path d="M855.96 57.831a4.397 4.397 0 0 1-3.61 5.06 4.397 4.397 0 0 1-5.06-3.607 4.394 4.394 0 0 1 8.67-1.453" fill="#343810"/><path fill="#FFF" d="M845.94 46.648h11.37V6.407h-11.37z"/><path d="M855.71 42.221l-.09 2.055-4.56-.188c-.84-.035-1.52-.285-2.03-.747a2.664 2.664 0 0 1-.68-.991 2.86 2.86 0 0 1-.22-1.212c.04-.817.34-1.495.91-2.03a2.72 2.72 0 0 1 2.05-.756c.78.034 1.44.338 1.98.918.54.581.79 1.25.77 2.01-.01.126-.03.309-.07.55l-2.26-.097c.14-.16.22-.324.22-.494a.727.727 0 0 0-.21-.555.756.756 0 0 0-.55-.251.733.733 0 0 0-.56.211.783.783 0 0 0-.25.556c-.02.527.32.808 1.06.835l4.49.186M848.47 34.333l2.19.089c-.08.141-.13.269-.13.385-.02.376.26.572.83.596l2.6.111-.09 2.052-2.99-.124c-.79-.033-1.41-.274-1.86-.728-.45-.451-.67-1.035-.64-1.76.01-.159.03-.366.09-.621M850.56 31.267a.804.804 0 0 0 .8.825.807.807 0 0 0 .85-.754.731.731 0 0 0-.22-.574.807.807 0 0 0-.57-.258.826.826 0 0 0-.6.206.78.78 0 0 0-.26.555zm-2.02-.14c.03-.773.34-1.428.92-1.959a2.746 2.746 0 0 1 2.04-.748c.79.031 1.46.344 1.99.928.53.584.78 1.274.75 2.067a2.783 2.783 0 0 1-.92 2.002 2.74 2.74 0 0 1-2.06.761c-.8-.031-1.46-.343-1.98-.928-.53-.587-.78-1.294-.74-2.123zM846.44 25.641a.975.975 0 0 1 .32-.71c.2-.195.44-.288.71-.278a.95.95 0 0 1 .69.32c.17.199.25.447.24.748-.01.3-.11.543-.31.729a.894.894 0 0 1-.71.256.933.933 0 0 1-.68-.33 1.002 1.002 0 0 1-.26-.735zm2.4 1.065l.09-2.053 4.62.194c.97.039 1.72.3 2.28.781.7.613 1.02 1.432.98 2.45-.01.313-.09.66-.24 1.047l-1.94-.082c.18-.337.27-.623.28-.86.03-.815-.55-1.246-1.74-1.294l-4.33-.183zM852.27 18.198l-.13 3.115c-.16.04-.31.059-.44.053-.18-.01-.36-.049-.54-.122l.05-1.042c-.41.057-.62.274-.64.66-.01.256.09.468.3.638.21.17.49.264.83.28.36.013.65-.053.87-.2.23-.147.35-.344.35-.596.02-.206-.08-.409-.27-.61l1.45-1.11c.4.564.59 1.179.57 1.845-.04.812-.34 1.483-.91 2.012-.57.533-1.25.78-2.06.748-.8-.035-1.47-.343-2-.924-.52-.581-.77-1.276-.74-2.09.04-.792.33-1.45.9-1.967.56-.517 1.23-.759 2.03-.729.07.003.2.018.38.039M852.33 13.984l.01-2.042c.79.094 1.42.414 1.91.964.48.555.71 1.211.68 1.974a2.753 2.753 0 0 1-.92 2.002c-.58.531-1.28.779-2.1.746-.77-.03-1.42-.34-1.94-.92-.53-.584-.77-1.267-.75-2.052.03-.684.27-1.278.73-1.783a2.743 2.743 0 0 1 1.69-.908l-.01 2.083c-.24.17-.37.39-.38.668-.01.23.06.428.21.584.15.157.33.241.57.25.24.008.44-.062.61-.215a.84.84 0 0 0 .27-.584c.01-.35-.18-.605-.58-.767M847.55 9.015l2.1.089.04-.923 2.17.09-.04.925c.43.015.73-.041.91-.173.16-.128.26-.377.27-.743l2.17.087c-.01.108-.01.188-.01.237-.02.466-.15.901-.38 1.304-.23.404-.54.722-.92.956-.49.296-1.11.427-1.9.394l-4.49-.188.08-2.055" fill="#A6DAE8"/><path fill="#FFF" d="M863.83 21.014h27.06v-8.436h-27.06z"/><path fill="#FC611F" d="M862.67 67.576h18.39V1.802h-18.39z"/><path fill="#E55523" d="M881.06 67.576h33.78V1.802h-33.78z"/><path d="M877.89 57.62a5.672 5.672 0 0 1-4.66 6.542 5.689 5.689 0 0 1-6.55-4.665 5.678 5.678 0 0 1 4.67-6.543 5.672 5.672 0 0 1 6.54 4.666" fill="#A8A8A8"/><path d="M876.62 57.831a4.397 4.397 0 0 1-3.61 5.06 4.382 4.382 0 0 1-5.05-3.607 4.387 4.387 0 0 1 3.6-5.058c2.4-.4 4.66 1.214 5.06 3.605" fill="#5E1C0E"/><path fill="#FFF" d="M866.6 46.648h11.37V6.407H866.6z"/><path d="M876.37 42.221l-.08 2.055-4.57-.188c-.84-.035-1.51-.285-2.02-.747-.3-.263-.52-.594-.68-.991a2.872 2.872 0 0 1-.23-1.212c.04-.817.34-1.495.91-2.03a2.756 2.756 0 0 1 2.06-.756c.78.034 1.43.338 1.97.918.54.581.8 1.25.77 2.01-.01.126-.03.309-.06.55l-2.27-.097c.14-.16.22-.324.23-.494a.727.727 0 0 0-.21-.555.795.795 0 0 0-.56-.251.733.733 0 0 0-.56.211.783.783 0 0 0-.25.556c-.02.527.33.808 1.06.835l4.49.186M869.13 34.333l2.2.089a.845.845 0 0 0-.14.385c-.01.376.26.572.84.596l2.59.111-.08 2.052-2.99-.124c-.8-.033-1.42-.274-1.87-.728-.45-.451-.66-1.035-.63-1.76.01-.159.03-.366.08-.621M871.23 31.267c-.01.222.06.411.22.572.15.157.34.243.57.253.23.01.42-.058.59-.209.17-.148.26-.33.27-.545a.808.808 0 0 0-.22-.574.826.826 0 0 0-.57-.258.811.811 0 0 0-.6.206.78.78 0 0 0-.26.555zm-2.03-.14a2.75 2.75 0 0 1 .92-1.959 2.769 2.769 0 0 1 2.05-.748c.79.031 1.45.344 1.98.928.54.584.78 1.274.75 2.067a2.783 2.783 0 0 1-.92 2.002c-.58.543-1.26.793-2.06.761-.8-.031-1.46-.343-1.98-.928-.52-.587-.77-1.294-.74-2.123zM867.1 25.641c.01-.279.12-.514.32-.71.2-.195.44-.288.71-.278a.99.99 0 0 1 .7.32c.16.199.25.447.24.748-.01.3-.12.543-.31.729a.92.92 0 0 1-.71.256.937.937 0 0 1-.69-.33 1.045 1.045 0 0 1-.26-.735zm2.4 1.065l.09-2.053 4.62.194c.97.039 1.72.3 2.28.781.7.613 1.03 1.432.99 2.45-.02.313-.09.66-.24 1.047l-1.94-.082c.17-.337.27-.623.27-.86.04-.815-.55-1.246-1.74-1.294l-4.33-.183zM872.94 18.198l-.13 3.115c-.17.04-.31.059-.45.053-.18-.01-.36-.049-.53-.122l.04-1.042c-.41.057-.61.274-.63.66-.01.256.09.468.29.638.22.17.5.264.83.28.36.013.65-.053.88-.2.22-.147.34-.344.35-.596.01-.206-.09-.409-.28-.61l1.45-1.11c.41.564.6 1.179.57 1.845-.04.812-.34 1.483-.9 2.012-.57.533-1.26.78-2.06.748-.8-.035-1.48-.343-2-.924-.53-.581-.78-1.276-.74-2.09.03-.792.32-1.45.89-1.967.56-.517 1.24-.759 2.03-.729.08.003.21.018.39.039M872.99 13.984l.01-2.042c.79.094 1.43.414 1.91.964.49.555.72 1.211.68 1.974a2.753 2.753 0 0 1-.92 2.002c-.58.531-1.28.779-2.09.746-.77-.03-1.43-.34-1.95-.92-.53-.584-.77-1.267-.74-2.052.03-.684.26-1.278.72-1.783a2.768 2.768 0 0 1 1.7-.908l-.01 2.083c-.25.17-.38.39-.39.668 0 .23.07.428.21.584.15.157.34.241.58.25.24.008.43-.062.6-.215a.802.802 0 0 0 .27-.584c.01-.35-.18-.605-.58-.767M868.22 9.015l2.09.089.04-.923 2.17.09-.04.925c.44.015.74-.041.91-.173.17-.128.26-.377.28-.743l2.16.087c0 .108-.01.188-.01.237-.02.466-.15.901-.37 1.304-.24.404-.54.722-.93.956-.48.296-1.11.427-1.89.394l-4.5-.188.09-2.055" fill="#A6DAE8"/><path fill="#FFF" d="M884.5 21.014h27.05v-8.436H884.5z"/><path fill="#D3D316" d="M883.51 67.666h18.73V.696h-18.73z"/><path fill="#C4BF18" d="M902.24 67.666h34.39V.696h-34.39z"/><path d="M899.01 57.528a5.777 5.777 0 0 1-4.75 6.662 5.788 5.788 0 0 1-6.66-4.75 5.782 5.782 0 0 1 4.75-6.662c3.15-.53 6.14 1.599 6.66 4.75" fill="#A8A8A8"/><path d="M897.72 57.743a4.472 4.472 0 0 1-3.68 5.152 4.463 4.463 0 0 1-5.14-3.672 4.47 4.47 0 1 1 8.82-1.48" fill="#827C16"/><path fill="#FFF" d="M887.52 46.357h11.57V5.385h-11.57z"/><path d="M897.47 41.85l-.09 2.091-4.65-.191c-.85-.035-1.54-.289-2.06-.76-.3-.268-.53-.605-.69-1.009a2.82 2.82 0 0 1-.23-1.234c.04-.832.34-1.522.92-2.067a2.809 2.809 0 0 1 2.1-.77 2.82 2.82 0 0 1 2.01.935c.55.592.81 1.273.78 2.047-.01.128-.03.314-.07.559l-2.3-.098c.14-.163.23-.33.23-.503a.746.746 0 0 0-.21-.565.807.807 0 0 0-.57-.256.731.731 0 0 0-.57.216.81.81 0 0 0-.26.565c-.02.536.34.823 1.08.85l4.58.19M890.09 33.818l2.24.09c-.08.145-.13.275-.14.392-.01.384.27.583.85.607l2.65.113-.09 2.09-3.05-.127c-.81-.033-1.44-.279-1.9-.741-.46-.459-.67-1.053-.64-1.791.01-.162.03-.373.08-.633M892.23 30.696c-.01.227.06.419.22.583.15.16.35.248.59.257a.82.82 0 0 0 .6-.212.766.766 0 0 0 .27-.555.8.8 0 0 0-.23-.585.804.804 0 0 0-.58-.262.858.858 0 0 0-.61.209.803.803 0 0 0-.26.565zm-2.06-.142c.03-.787.34-1.454.93-1.995a2.813 2.813 0 0 1 2.09-.761c.8.031 1.48.35 2.02.944.54.595.79 1.297.76 2.105a2.835 2.835 0 0 1-.94 2.038c-.59.553-1.29.808-2.09.776-.82-.033-1.49-.35-2.02-.945-.54-.598-.79-1.318-.75-2.162zM888.03 24.968c.01-.284.12-.523.32-.722.21-.2.45-.294.72-.283.29.015.53.12.71.325.17.202.26.456.25.762a1.03 1.03 0 0 1-.32.742.918.918 0 0 1-.72.261.971.971 0 0 1-.7-.337 1.03 1.03 0 0 1-.26-.748zm2.44 1.085l.09-2.09 4.71.197c.98.04 1.75.305 2.32.795.71.624 1.04 1.457 1 2.494-.01.319-.09.672-.24 1.066l-1.98-.084c.18-.343.28-.633.28-.875.04-.83-.56-1.268-1.77-1.317l-4.41-.186zM893.97 17.389l-.14 3.172c-.17.041-.31.061-.45.054-.18-.01-.36-.049-.54-.124l.05-1.06c-.42.057-.63.279-.65.671-.01.261.09.477.3.65.22.173.5.269.84.285.37.013.66-.054.89-.203.23-.15.36-.352.36-.607.01-.21-.08-.417-.28-.622l1.48-1.13c.41.575.6 1.201.58 1.879-.04.827-.35 1.51-.92 2.049-.59.542-1.28.794-2.1.761-.82-.036-1.5-.349-2.04-.941s-.79-1.299-.75-2.127c.03-.807.33-1.478.91-2.004.57-.526 1.26-.773 2.07-.742.07.004.2.018.39.039M894.02 13.099l.02-2.078c.8.095 1.45.421 1.94.98.49.566.73 1.234.69 2.01-.03.817-.34 1.5-.93 2.039-.6.541-1.31.794-2.14.759a2.723 2.723 0 0 1-1.98-.936 2.837 2.837 0 0 1-.76-2.09c.03-.696.27-1.301.74-1.814a2.794 2.794 0 0 1 1.73-.926l-.01 2.121c-.25.174-.38.397-.39.68a.795.795 0 0 0 .79.849c.25.009.45-.063.62-.218a.823.823 0 0 0 .27-.595c.02-.356-.18-.616-.59-.781M889.16 8.04l2.14.09.03-.94 2.22.093-.04.941c.44.016.74-.041.92-.175.17-.131.27-.384.28-.757l2.21.088c-.01.11-.01.192-.01.242-.02.474-.15.917-.39 1.327a2.71 2.71 0 0 1-.94.973c-.49.302-1.13.435-1.93.401l-4.58-.191.09-2.092" fill="#A6DAE8"/><path fill="#FFF" d="M905.74 20.257h27.55v-8.589h-27.55z"/></g></svg>