<svg xmlns="http://www.w3.org/2000/svg" viewBox="0 0 553.98 243.56"><defs><style>.cls-1{fill:#74bf45;}</style></defs><title>growth</title><g id="Layer_2" data-name="Layer 2"><g id="Layer_2-2" data-name="Layer 2"><path class="cls-1" d="M93.36,192.66c-4,3.08-2.33,8,1.31,8.68.21-.31.43-.61.65-.91s.54-.7.81-1a7,7,0,0,0,.42-2.18,11.38,11.38,0,0,0-.18-2.42,12.49,12.49,0,0,0-.52-2A11.42,11.42,0,0,1,97,197.26a8.37,8.37,0,0,1-.07,1.23,25.94,25.94,0,0,1,2.29-2.27.94.94,0,0,1,.2-.21,4.84,4.84,0,0,0,.89-3.15c0-1-.11-1.5-.1-1.5s.16.52.32,1.5a5.72,5.72,0,0,1,0,1.83,4.55,4.55,0,0,1-.13.55l.74-.54a21.1,21.1,0,0,1,4.48-2.41c1.08-.42,1.66-.56,1.66-.57s-.58.21-1.63.73a22,22,0,0,0-4.26,2.75l-.17.15.63-.12a7.21,7.21,0,0,1,2.08,0,3,3,0,0,1,1.61.64,3.19,3.19,0,0,0-1.66-.42,7.61,7.61,0,0,0-2,.24,8.44,8.44,0,0,0-1.72.62,26,26,0,0,0-2.84,3.17,6.53,6.53,0,0,1,1.76-.3,11.7,11.7,0,0,1,3,.34c1.58.39,2.42.69,2.42.68s-.89-.21-2.5-.47a11.91,11.91,0,0,0-2.92-.12,5.91,5.91,0,0,0-2.39.76c-.19.26-.37.53-.55.81-.3.46-.59.94-.88,1.44.76,2.93,4.69,5.21,8.39,2.38,2.73-2.1,2.06-10.28,6.44-15C103.1,191.22,97.54,189.45,93.36,192.66Z"/><path class="cls-1" d="M79.24,189.21A7.39,7.39,0,0,0,76.33,188a14.91,14.91,0,0,0-3.66-.12c-2,.17-3.17.37-3.17.35s1.07-.29,3.09-.62a14.64,14.64,0,0,1,3.76-.15,8.22,8.22,0,0,1,2.17.54,32.66,32.66,0,0,0-3.24-4.23,10.64,10.64,0,0,0-2.09-.93,9.58,9.58,0,0,0-2.46-.48,4,4,0,0,0-2.11.37,3.82,3.82,0,0,1,2.07-.64,9,9,0,0,1,2.6.23l.78.21-.2-.2a27.56,27.56,0,0,0-5.06-3.83c-1.26-.74-2-1.05-2-1.06s.71.24,2,.87a26.49,26.49,0,0,1,5.36,3.43q.43.35.87.74a5.71,5.71,0,0,1-.11-.7,7.17,7.17,0,0,1,.18-2.28c.29-1.21.56-1.84.54-1.85s-.14.66-.27,1.86a6.06,6.06,0,0,0,.82,4,1.17,1.17,0,0,1,.23.28,32.74,32.74,0,0,1,2.65,3.05,10.47,10.47,0,0,1,0-1.54A14.31,14.31,0,0,1,81,179.88a15.55,15.55,0,0,0-.84,2.46,14.16,14.16,0,0,0-.45,3A8.83,8.83,0,0,0,80,188.1c.31.44.61.89.91,1.37s.48.79.72,1.19c4.61-.51,7.19-6.48,2.46-10.72-4.92-4.4-12-2.73-20.6-5,5,6.33,3.41,16.49,6.62,19.37,4.35,3.89,9.47,1.42,10.7-2.17-.31-.65-.63-1.29-1-1.89C79.65,189.91,79.44,189.56,79.24,189.21Z"/><path class="cls-1" d="M93.71,204.82a33.2,33.2,0,0,1,5.81-8.51A30.87,30.87,0,0,0,93,204.22,36.87,36.87,0,0,0,88.6,214.4c-.08-.59-.16-1.18-.26-1.76-.3-1.66-.62-3.13-.93-4.62-.63-2.94-1.31-5.63-2.07-8a39.69,39.69,0,0,0-4.87-10.37A26.88,26.88,0,0,0,78,186.5a29.45,29.45,0,0,1,2,3.3,40.79,40.79,0,0,1,3.64,10.41c.52,2.35.94,5,1.3,7.93l.53,4.6c.14,1.56.22,3.21.26,4.93.14,6.89-.16,21.23-2.49,23.72l7.78.67c-2.17-4.33-2.27-11.83-1.66-19.7.18-2.19.42-4.29.71-6.24A36.61,36.61,0,0,1,93.71,204.82Z"/><path class="cls-1" d="M154.79,206.48c6.75-2.12,10.85-6.27,16-5.39,5,.85,5.79,6,2.89,8.29l-1-.5c-.4-.19-.8-.37-1.2-.54a7,7,0,0,1-1.39-1.73,11.35,11.35,0,0,1-1-2.22,12.52,12.52,0,0,1-.48-2,11.42,11.42,0,0,0,1.1,4.47,8.46,8.46,0,0,0,.63,1.06,26.09,26.09,0,0,0-3.09-.94.94.94,0,0,0-.27-.09,4.84,4.84,0,0,1-2.26-2.37c-.42-.87-.6-1.38-.61-1.37s.1.54.42,1.48a5.72,5.72,0,0,0,.85,1.62,4.71,4.71,0,0,0,.37.43l-.9-.13a21.17,21.17,0,0,0-5.08,0c-1.15.13-1.73.28-1.73.27s.61-.08,1.78-.12a22,22,0,0,1,5,.44l.22,0-.62.19a7.24,7.24,0,0,0-1.85.94,3,3,0,0,0-1.13,1.32,3.18,3.18,0,0,1,1.27-1.15,7.61,7.61,0,0,1,1.87-.72,8.51,8.51,0,0,1,1.81-.26,26.2,26.2,0,0,1,4,1.48,6.57,6.57,0,0,0-1.69.56,11.73,11.73,0,0,0-2.48,1.7c-1.22,1.08-1.81,1.74-1.82,1.73s.69-.6,2-1.58a11.89,11.89,0,0,1,2.53-1.48,5.91,5.91,0,0,1,2.46-.44l.87.46c.48.27,1,.56,1.45.87.69,2.95-1.72,6.8-6.31,6C164.1,216.18,160.87,208.63,154.79,206.48Z"/><path class="cls-1" d="M183.52,243.47h5.67c-3.78-3.74-2.27-23.12-3.06-32.1-.2-2.25-.45-4.42-.79-6.52s-.76-4-1.14-5.92c-.76-3.77-1.6-7.22-2.55-10.26a51.1,51.1,0,0,0-6.07-13.33,34.91,34.91,0,0,0-3.1-4,37.6,37.6,0,0,1,2.64,4.19A52.11,52.11,0,0,1,180,188.81c.7,3,1.28,6.41,1.78,10.17l.74,5.89c.21,2,.32,4.13.39,6.35C183.12,220.09,183.79,232.08,183.52,243.47Z"/><path class="cls-1" d="M213.59,175.71c-8.92,1.63-16.05-.62-21.41,3.48-5.16,4-3,10.25,1.68,11.13.27-.4.55-.78.83-1.16s.69-.9,1-1.32a9,9,0,0,0,.54-2.79,14.54,14.54,0,0,0-.23-3.11,16,16,0,0,0-.67-2.58,14.68,14.68,0,0,1,1.43,5.73,10.75,10.75,0,0,1-.09,1.58,33.39,33.39,0,0,1,2.94-2.91,1.17,1.17,0,0,1,.26-.27,6.2,6.2,0,0,0,1.14-4c0-1.24-.15-1.92-.13-1.92s.21.67.41,1.93a7.34,7.34,0,0,1,0,2.34,6,6,0,0,1-.17.71q.47-.37.94-.69a27,27,0,0,1,5.74-3.08c1.38-.54,2.13-.72,2.13-.73s-.75.27-2.09.93a28.27,28.27,0,0,0-5.46,3.52l-.22.19.81-.15a9.27,9.27,0,0,1,2.67,0,3.91,3.91,0,0,1,2.07.82,4.09,4.09,0,0,0-2.13-.54,9.75,9.75,0,0,0-2.54.3,10.86,10.86,0,0,0-2.2.79,33.38,33.38,0,0,0-3.64,4.06,8.36,8.36,0,0,1,2.25-.38,15,15,0,0,1,3.83.44c2,.5,3.1.89,3.1.87s-1.14-.27-3.2-.61a15.27,15.27,0,0,0-3.75-.16,7.56,7.56,0,0,0-3.06,1c-.24.34-.47.68-.71,1-.39.59-.76,1.21-1.13,1.85,1,3.76,6,6.68,10.76,3.05C208.83,192.28,208,181.78,213.59,175.71Z"/><path class="cls-1" d="M153.88,156.51c11,2.89,20.11.74,26.41,6.39,6.07,5.43,2.76,13.08-3.15,13.74-.3-.52-.61-1-.92-1.53s-.77-1.19-1.17-1.75a11.33,11.33,0,0,1-.41-3.54,18.21,18.21,0,0,1,.58-3.86,20.07,20.07,0,0,1,1.08-3.15,18.37,18.37,0,0,0-2.33,7,13.42,13.42,0,0,0,0,2,41.89,41.89,0,0,0-3.39-3.91,1.5,1.5,0,0,0-.29-.36,7.77,7.77,0,0,1-1-5.14c.17-1.54.36-2.38.35-2.39s-.32.82-.7,2.37a9.21,9.21,0,0,0-.23,2.93,7.41,7.41,0,0,0,.14.9q-.56-.51-1.11-1a34,34,0,0,0-6.87-4.4c-1.67-.8-2.59-1.1-2.58-1.11s.91.41,2.53,1.36a35.34,35.34,0,0,1,6.48,4.91l.26.26-1-.27a11.54,11.54,0,0,0-3.33-.3,4.89,4.89,0,0,0-2.66.83,5.11,5.11,0,0,1,2.71-.48,12.22,12.22,0,0,1,3.15.62,13.63,13.63,0,0,1,2.68,1.2,41.83,41.83,0,0,1,4.16,5.42,10.49,10.49,0,0,0-2.78-.69,18.73,18.73,0,0,0-4.82.19c-2.58.43-4,.81-4,.79s1.46-.23,4.06-.45a19.14,19.14,0,0,1,4.7.16,9.49,9.49,0,0,1,3.73,1.5c.26.45.53.9.79,1.37.43.77.83,1.58,1.24,2.42-1.58,4.6-8.14,7.78-13.72,2.79C158.25,177.65,160.32,164.63,153.88,156.51Z"/><path class="cls-1" d="M183.52,229.47h2.75a118.89,118.89,0,0,1,1.44-20.25,46.87,46.87,0,0,1,4.8-14.51,42.29,42.29,0,0,1,7.57-10.85c.06,0-3.82,2.85-8.29,10.21a46.53,46.53,0,0,0-5.83,14.58A112,112,0,0,0,183.52,229.47Z"/><path class="cls-1" d="M180.92,243.47h4.5a66.91,66.91,0,0,0-1.78-18.67,32.44,32.44,0,0,0-5-10.82,14.6,14.6,0,0,0-5.8-4.8,10.51,10.51,0,0,0-2.51-.73,11.08,11.08,0,0,1,2.32,1,14.26,14.26,0,0,1,5,5,32.16,32.16,0,0,1,3.93,10.65C182.38,229.49,183.52,240.56,180.92,243.47Z"/><path class="cls-1" d="M268.12,185.58l-1-.53a6.83,6.83,0,0,0-2.84.51,13.76,13.76,0,0,0-2.92,1.7c-1.5,1.13-2.29,1.84-2.3,1.83s.7-.75,2.11-2a13.51,13.51,0,0,1,2.86-2,7.58,7.58,0,0,1,2-.64,30.2,30.2,0,0,0-4.6-1.71,9.78,9.78,0,0,0-2.09.29,8.8,8.8,0,0,0-2.16.83,3.68,3.68,0,0,0-1.46,1.33,3.51,3.51,0,0,1,1.3-1.52,8.32,8.32,0,0,1,2.14-1.09l.71-.22-.25-.06a25.36,25.36,0,0,0-5.83-.51c-1.35,0-2.06.15-2.06.14s.67-.16,2-.31a24.4,24.4,0,0,1,5.86,0l1,.15a5,5,0,0,1-.43-.49,6.63,6.63,0,0,1-1-1.87c-.36-1.09-.47-1.71-.48-1.71s.22.58.7,1.59a5.6,5.6,0,0,0,2.61,2.73,1.06,1.06,0,0,1,.32.11,29.91,29.91,0,0,1,3.56,1.08,9.59,9.59,0,0,1-.73-1.22,12.4,12.4,0,0,1-.95-2.73,12.25,12.25,0,0,1-.32-2.43,14.56,14.56,0,0,0,.55,2.33,13.29,13.29,0,0,0,1.12,2.57,8.15,8.15,0,0,0,1.6,2c.46.19.92.4,1.38.62l1.15.58c3.34-2.66,2.43-8.59-3.34-9.57-6-1-10.73,3.78-18.52,6.22,7,2.48,10.75,11.2,14.67,11.87,5.3.9,8.09-3.54,7.29-6.95C269.24,186.22,268.68,185.89,268.12,185.58Z"/><path class="cls-1" d="M275,102.52c-.47-1-.94-1.9-1.43-2.79-.3-.54-.6-1.06-.91-1.58a11,11,0,0,0-4.31-1.73,22.13,22.13,0,0,0-5.42-.18c-3,.26-4.69.55-4.69.52s1.59-.42,4.57-.92a21.64,21.64,0,0,1,5.57-.21,12.12,12.12,0,0,1,3.21.8,48.38,48.38,0,0,0-4.8-6.25,15.68,15.68,0,0,0-3.09-1.38,14.12,14.12,0,0,0-3.63-.72,5.92,5.92,0,0,0-3.12.55,5.65,5.65,0,0,1,3.07-1,13.33,13.33,0,0,1,3.84.35l1.15.31-.29-.29a40.82,40.82,0,0,0-7.48-5.67c-1.87-1.1-2.92-1.56-2.92-1.57s1.05.36,3,1.28a39.2,39.2,0,0,1,7.93,5.08q.64.52,1.29,1.1a8.53,8.53,0,0,1-.16-1,10.63,10.63,0,0,1,.27-3.38c.43-1.79.82-2.72.81-2.73s-.2,1-.4,2.75a9,9,0,0,0,1.21,5.94,1.73,1.73,0,0,1,.34.42,48.41,48.41,0,0,1,3.92,4.52,15.26,15.26,0,0,1,0-2.29,21.2,21.2,0,0,1,2.69-8.1A23,23,0,0,0,274,88a21,21,0,0,0-.67,4.45,13.06,13.06,0,0,0,.47,4.09c.45.65.91,1.32,1.35,2s.71,1.16,1.07,1.76c6.82-.76,10.65-9.59,3.64-15.86-7.28-6.51-17.81-4-30.5-7.37,7.43,9.37,5,24.41,9.8,28.67C265.56,111.51,273.14,107.84,275,102.52Z"/><path class="cls-1" d="M262.5,151.22c6.74-1.48,7.9-8.1,5.31-11.76-.84-.15-1.67-.28-2.47-.38l-1.45-.15a8.74,8.74,0,0,0-3.13,2,17.65,17.65,0,0,0-2.65,3.43c-1.24,2.07-1.83,3.29-1.85,3.28s.47-1.23,1.54-3.39a17.3,17.3,0,0,1,2.46-3.7,9.65,9.65,0,0,1,2-1.71A38.75,38.75,0,0,0,256,139a12.45,12.45,0,0,0-2.34,1.36,11.28,11.28,0,0,0-2.16,2,4.72,4.72,0,0,0-1.1,2.28,4.49,4.49,0,0,1,.82-2.43,10.74,10.74,0,0,1,2-2.33l.74-.6-.33.05a32.6,32.6,0,0,0-7.17,2.2c-1.59.7-2.37,1.16-2.38,1.15s.72-.52,2.23-1.33a31.23,31.23,0,0,1,7-2.77c.42-.11.86-.22,1.31-.32a6.42,6.42,0,0,1-.75-.38,8.48,8.48,0,0,1-2.06-1.75c-1-1.12-1.38-1.81-1.39-1.8s.54.59,1.59,1.55a7.15,7.15,0,0,0,4.41,2,1.4,1.4,0,0,1,.43,0,38.57,38.57,0,0,1,4.75-.42,12.66,12.66,0,0,1-1.46-1.1,17,17,0,0,1-4-5.53,18.62,18.62,0,0,0,1.78,2.5,16.74,16.74,0,0,0,2.57,2.51,10.38,10.38,0,0,0,2.86,1.6c.63,0,1.28,0,1.94.07s1.09.08,1.64.13c2.7-4.77-1.23-11.38-8.57-9.77-7.62,1.67-10.94,9.65-19,16.3C248.9,143.74,257.52,152.31,262.5,151.22Z"/><path class="cls-1" d="M312.66,124c.31-.46.63-.92,1-1.36s.79-1.06,1.19-1.55a10.44,10.44,0,0,0,.6-3.26,17,17,0,0,0-.29-3.62,18.73,18.73,0,0,0-.8-3,16.19,16.19,0,0,1,1.13,3,15.9,15.9,0,0,1,.6,3.69,12,12,0,0,1-.08,1.84,38.88,38.88,0,0,1,3.39-3.42,1.39,1.39,0,0,1,.3-.32,7.22,7.22,0,0,0,1.29-4.71c-.07-1.44-.19-2.23-.17-2.24s.25.78.5,2.24a8.56,8.56,0,0,1,0,2.73,6.68,6.68,0,0,1-.19.82q.55-.43,1.09-.81a31.59,31.59,0,0,1,6.66-3.65c1.6-.64,2.47-.86,2.47-.87s-.87.33-2.43,1.11a32.94,32.94,0,0,0-6.32,4.16l-.25.22.94-.19a10.74,10.74,0,0,1,3.11-.07,4.54,4.54,0,0,1,2.42.93,4.75,4.75,0,0,0-2.48-.61,11.38,11.38,0,0,0-3,.38,12.71,12.71,0,0,0-2.56.94,39,39,0,0,0-4.2,4.77,9.77,9.77,0,0,1,2.62-.47,17.45,17.45,0,0,1,4.47.47c2.37.56,3.62,1,3.63,1s-1.34-.31-3.74-.68a17.86,17.86,0,0,0-4.37-.15,8.83,8.83,0,0,0-3.56,1.16c-.27.4-.54.8-.82,1.22-.44.69-.87,1.42-1.3,2.17,1.18,4.37,7.08,7.73,12.57,3.45,4.06-3.17,3-15.39,9.43-22.53-10.38,2-18.71-.57-24.92,4.28C304.61,115.75,307.21,123.07,312.66,124Z"/><path class="cls-1" d="M326.36,197.22c-4.86-3.26-9.6.41-9,4.64l1.23.37c.49.16,1,.33,1.43.5a8.17,8.17,0,0,0,2.54-.34,13.27,13.27,0,0,0,2.58-1.09,14.72,14.72,0,0,0,2-1.31,13.22,13.22,0,0,1-4.48,2.88,9.56,9.56,0,0,1-1.37.38,29.74,29.74,0,0,1,3.33,1.67,1.06,1.06,0,0,1,.3.14,5.6,5.6,0,0,0,3.77-.19c1-.4,1.59-.68,1.6-.67a17.27,17.27,0,0,1-1.52.91,6.62,6.62,0,0,1-2,.68,5,5,0,0,1-.65.06c.3.2.59.4.86.61a24.39,24.39,0,0,1,4.28,4c.86,1,1.23,1.61,1.23,1.6s-.45-.56-1.4-1.52a25.44,25.44,0,0,0-4.57-3.64l-.22-.13c.13.22.25.44.37.65a8.39,8.39,0,0,1,.8,2.27,3.49,3.49,0,0,1-.1,2,3.65,3.65,0,0,0-.15-2,8.83,8.83,0,0,0-1-2.08,9.85,9.85,0,0,0-1.31-1.65A30.26,30.26,0,0,0,320.4,204a7.66,7.66,0,0,1,1,1.81,13.58,13.58,0,0,1,.73,3.39c.16,1.88.14,2.9.15,2.9s-.1-1.06-.41-2.91a13.79,13.79,0,0,0-.95-3.24,6.81,6.81,0,0,0-1.71-2.33l-1.09-.3c-.61-.16-1.25-.3-1.9-.43-2.93,1.92-4,7.06.5,10.05,3.3,2.21,12-1.54,18.81,1.49C331.55,207.34,331.41,200.6,326.36,197.22Z"/><path class="cls-1" d="M335,154.23c-9.2,2-10.27,11.52-4.72,15.57.6-.35,1.2-.68,1.8-1s1.46-.75,2.18-1.08a13.07,13.07,0,0,0,2.44-3.31,21,21,0,0,0,1.63-4.19,23,23,0,0,0,.73-3.78,21.26,21.26,0,0,1-1.69,8.37,15.27,15.27,0,0,1-1.09,2,48.42,48.42,0,0,1,5.64-2,1.74,1.74,0,0,1,.5-.19,9,9,0,0,0,4-4.55c.71-1.64,1-2.6,1-2.59s-.15,1-.66,2.77a10.7,10.7,0,0,1-1.45,3.07,9.12,9.12,0,0,1-.66.82c.57-.12,1.12-.23,1.66-.32a39.2,39.2,0,0,1,9.41-.46c2.13.16,3.23.38,3.23.37s-1.14-.11-3.31-.09a40.83,40.83,0,0,0-9.31,1.2l-.4.11,1.16.3a13.34,13.34,0,0,1,3.5,1.61,5.65,5.65,0,0,1,2.19,2.35,5.91,5.91,0,0,0-2.44-2,14.1,14.1,0,0,0-3.51-1.18,15.61,15.61,0,0,0-3.37-.34,48.25,48.25,0,0,0-7.27,3,12.13,12.13,0,0,1,3.18.9,21.59,21.59,0,0,1,4.72,3c2.35,1.91,3.49,3.08,3.51,3.07s-1.33-1.07-3.81-2.79a22.18,22.18,0,0,0-4.79-2.54,11,11,0,0,0-4.6-.64c-.52.3-1,.6-1.58.92-.87.53-1.74,1.11-2.63,1.71-1.06,5.52,3.7,12.47,12.15,10.67,6.25-1.33,11.65-15.57,22.75-20C352.5,159.58,344.59,152.2,335,154.23Z"/><path class="cls-1" d="M318,202.71a7.67,7.67,0,0,1,2.64.9,7.47,7.47,0,0,0-2.48-1.28,14.65,14.65,0,0,0-8.14-.1,19.06,19.06,0,0,0-10.72,7.69c-.16.22-.3.46-.45.68,0-.55,0-1.09-.05-1.63a25.11,25.11,0,0,1,.83-3.54,40.86,40.86,0,0,1,2.95-6.69l1.67-3.27a31,31,0,0,1,1.74-2.86,55.51,55.51,0,0,1,8.46-9.43,93.26,93.26,0,0,1,8.51-6.82,108.17,108.17,0,0,1,13-7.95c3.13-1.6,4.85-2.31,4.84-2.32s-1.74.48-5,1.71a97.61,97.61,0,0,0-13.79,6.55,89.42,89.42,0,0,0-9.34,6.14,57.86,57.86,0,0,0-9.9,9.28,35.89,35.89,0,0,0-2.27,3.1c-.5.78-.92,1.49-1.34,2.2.91-17.75,2.64-32.88,5.2-44.84,2.28-10.86,5.32-19,8.28-24.09a27.78,27.78,0,0,1,5.46-7.07,27.15,27.15,0,0,0-5.88,6.57c-3.3,4.82-6.91,12.78-9.85,23.54a220.7,220.7,0,0,0-5.32,26.19c-.25-3.08-.55-6.11-1-9-.59-4.38-1.32-8.55-2.11-12.53-1.59-8-3.46-15.13-5.37-21.51a159.35,159.35,0,0,0-11.25-28.53,53,53,0,0,0-5.79-9,54.56,54.56,0,0,1,4.94,9.15,164.52,164.52,0,0,1,9.12,28.51c1.49,6.35,2.91,13.48,4,21.35q.38,2.62.7,5.33c-.47-1-1-2-1.49-2.92a39.63,39.63,0,0,0-12-13.44,26.5,26.5,0,0,0-10.47-4.5,7.86,7.86,0,0,0-4,.12,7.77,7.77,0,0,1,3.84.06,26.28,26.28,0,0,1,10,4.77,39.16,39.16,0,0,1,11.26,13.42,48.52,48.52,0,0,1,3.51,8.78c.39,4.5.64,9.19.68,14.11.14,9.85.09,20.5,0,31.83-3.28-8.35-7.67-15-12.27-19.34a36,36,0,0,0-12.13-7.87,34.5,34.5,0,0,0-4.82-1.47,36.28,36.28,0,0,1,4.56,1.8,35.87,35.87,0,0,1,11.15,8.33A53.13,53.13,0,0,1,289,212a79.93,79.93,0,0,1,2.61,10c-.11,6.94,0,18.47-5.5,21.49h18.5c-6-3-5.27-17.38-5.5-25.59a26.47,26.47,0,0,1,2.5-6.37,17.58,17.58,0,0,1,8.73-7.94A14.38,14.38,0,0,1,318,202.71Z"/><path class="cls-1" d="M10.21,210.24a4.5,4.5,0,0,0-1.82-.58,9.08,9.08,0,0,0-2.23.1c-1.23.2-1.9.37-1.91.36s.64-.22,1.85-.52a8.94,8.94,0,0,1,2.28-.26,5,5,0,0,1,1.34.23,19.83,19.83,0,0,0-2.16-2.42,6.46,6.46,0,0,0-1.31-.47,5.81,5.81,0,0,0-1.51-.18,2.45,2.45,0,0,0-1.26.32,2.32,2.32,0,0,1,1.23-.49,5.48,5.48,0,0,1,1.59,0l.48.09-.13-.11a16.77,16.77,0,0,0-3.25-2.09c-.8-.39-1.25-.55-1.25-.55s.44.11,1.26.43A16.08,16.08,0,0,1,6.82,206l.56.41a3.4,3.4,0,0,1-.1-.42,4.35,4.35,0,0,1,0-1.39c.12-.75.25-1.14.24-1.15s-.05.41-.08,1.14a3.69,3.69,0,0,0,.68,2.4.7.7,0,0,1,.15.16A19.67,19.67,0,0,1,10,208.85a6.32,6.32,0,0,1-.05-.94,8.7,8.7,0,0,1,.85-3.41,9.58,9.58,0,0,0-.4,1.53,8.7,8.7,0,0,0-.13,1.85,5.4,5.4,0,0,0,.32,1.66c.21.25.41.51.62.79l.49.69c2.77-.52,4.07-4.27,1-6.62S5.3,203.3,0,202.33c3.34,3.61,2.83,9.85,4.91,11.45a3.93,3.93,0,0,0,6.4-1.81c-.22-.38-.44-.75-.67-1.1Z"/><path class="cls-1" d="M25,201.16a12,12,0,0,1,2.68-4.56,15.63,15.63,0,0,0-4,4c-.29.36-.65.84-1.06,1.44a30.07,30.07,0,0,0-3.63,7.8,61.2,61.2,0,0,0-1.55,6.07l-.7,3.51c-.14.78-.24,1.58-.34,2.4A27.82,27.82,0,0,0,13,213.36a23.93,23.93,0,0,0-5-6.18,25,25,0,0,1,4.45,6.34,27.88,27.88,0,0,1,2.89,8.6c.24,1.49.44,3.08.59,4.76.27,5.5.27,15.19-1.46,15.19h5.33c-1.91-1.93-2.08-20.56-2-21.75s.49-2.72.63-3.83c.29-2.24.68-4.11,1.08-5.92a36.12,36.12,0,0,1,2-5.5C23.69,205.24,24.66,203.54,25,201.16Z"/><path class="cls-1" d="M20.92,204.06a49.39,49.39,0,0,1,4.29-5.9,30.18,30.18,0,0,0-3.37,2.69c-.78.93-1.5,1.93-1,3.29Z"/><path class="cls-1" d="M384.47,112.9c4.19-2.56,3.44-7.28.85-9.15-.6.09-1.18.2-1.75.32l-1,.23a6.26,6.26,0,0,0-1.65,2.06,12.59,12.59,0,0,0-1,2.92c-.35,1.68-.47,2.64-.49,2.63s0-.93.25-2.64a12.37,12.37,0,0,1,.8-3.06,7,7,0,0,1,1-1.61,27.52,27.52,0,0,0-4.19,1.58,9,9,0,0,0-1.26,1.46,8.1,8.1,0,0,0-1,1.86,3.38,3.38,0,0,0-.21,1.79,3.21,3.21,0,0,1,0-1.83,7.6,7.6,0,0,1,.82-2c.11-.19.23-.38.36-.57l-.21.11a23.2,23.2,0,0,0-4.31,3.14c-.91.84-1.33,1.34-1.33,1.33s.37-.51,1.19-1.41a22.27,22.27,0,0,1,4.06-3.48c.26-.17.53-.35.81-.52a4.72,4.72,0,0,1-.59-.08,6.06,6.06,0,0,1-1.8-.7c-.9-.53-1.35-.9-1.35-.89s.5.27,1.43.67a5.11,5.11,0,0,0,3.43.32,1,1,0,0,1,.28-.12,27.46,27.46,0,0,1,3.1-1.39,8.84,8.84,0,0,1-1.24-.4,11.49,11.49,0,0,1-2.29-1.31,11.31,11.31,0,0,1-1.68-1.48,13.55,13.55,0,0,0,1.78,1.27,12.07,12.07,0,0,0,2.31,1.09,7.44,7.44,0,0,0,2.3.41c.43-.14.87-.27,1.32-.4l1.14-.29c.71-3.83-3.47-7.37-8-4.58-4.74,2.89-5.12,9-9,15.37C373.58,111,381.37,114.79,384.47,112.9Z"/><path class="cls-1" d="M384.81,91.05a2.66,2.66,0,0,1,.91-.6h.46l.78,0c.93.9.8,2.68-1.24,3.25-1.51.42-4.49-1.63-7.43-1.26,2.28-2,3-4.16,5.34-4.8s3.67,1,3,2.36h-.51l-.6,0a3.68,3.68,0,0,1-.95-.35,5.36,5.36,0,0,1-.89-.6,5.12,5.12,0,0,1-.64-.62,4.32,4.32,0,0,0,.58.68,4.76,4.76,0,0,0,.86.68,4.09,4.09,0,0,0,.49.25,13.49,13.49,0,0,0-1.46.24.5.5,0,0,0-.13,0,2.53,2.53,0,0,1-1.44-.41c-.36-.23-.55-.37-.55-.37s.16.17.49.44a2.79,2.79,0,0,0,.7.41l.25.08-.4.12a10.24,10.24,0,0,0-2.07.91,7.58,7.58,0,0,0-.64.41s.23-.14.7-.37a11.17,11.17,0,0,1,2.15-.77l.1,0-.21.18a2.85,2.85,0,0,0-.55.67,1.06,1.06,0,0,0-.17.67,1.12,1.12,0,0,1,.26-.63,3.21,3.21,0,0,1,.6-.59,3.93,3.93,0,0,1,.68-.42,14,14,0,0,1,1.95-.21,2.8,2.8,0,0,0-.57.5,4.4,4.4,0,0,0-.64,1c-.26.6-.35.94-.36.94s.15-.34.46-.92A4.53,4.53,0,0,1,384.81,91.05Z"/><path class="cls-1" d="M409.39,34.77c-.09-.55-.16-1.09-.23-1.63s-.14-1.3-.18-1.93a10.32,10.32,0,0,0-1.77-2.77A16.74,16.74,0,0,0,404.55,26a18.37,18.37,0,0,0-2.61-1.63,15.74,15.74,0,0,1,2.82,1.39,16,16,0,0,1,2.93,2.27,12.73,12.73,0,0,1,1.18,1.39,38.12,38.12,0,0,1,.15-4.77,1.35,1.35,0,0,1,0-.43A7.16,7.16,0,0,0,406.79,20c-1-1-1.65-1.49-1.64-1.5s.71.4,1.88,1.29a8.52,8.52,0,0,1,1.87,2,6.86,6.86,0,0,1,.42.72c.07-.46.15-.9.24-1.33A31.33,31.33,0,0,1,411.91,14c.73-1.55,1.21-2.29,1.2-2.3s-.41.82-1,2.44a32.58,32.58,0,0,0-1.78,7.28c0,.11,0,.22,0,.33.19-.27.38-.53.56-.77a10.66,10.66,0,0,1,2.21-2.15,4.51,4.51,0,0,1,2.38-1,4.73,4.73,0,0,0-2.21,1.23,11.31,11.31,0,0,0-1.89,2.28,12.44,12.44,0,0,0-1.22,2.41,38.72,38.72,0,0,0,.18,6.29,9.67,9.67,0,0,1,1.59-2.11,17.31,17.31,0,0,1,3.55-2.67c2.09-1.2,3.3-1.72,3.29-1.73s-1.17.68-3.17,2a17.59,17.59,0,0,0-3.27,2.84,8.73,8.73,0,0,0-1.79,3.24c.07.47.15.95.23,1.44.14.8.33,1.62.52,2.45,3.8,2.37,10.35.82,11.43-6,.8-5-8.26-13.15-8.38-22.69-6.17,8.45-13.94,12.23-15.17,19.93C398,34.2,404.78,37.74,409.39,34.77Z"/><path class="cls-1" d="M451.6,84.44a7.7,7.7,0,0,0-2,1.26c-.23.39-.46.78-.72,1.17s-.42.65-.65,1c1.94,3.19,7.3,2.88,8.88-2.16,1.64-5.24-2-9.85-3.23-17-3.06,6-11.24,8.61-12.31,12-1.45,4.64,2.14,7.48,5.25,7.06.38-.47.75-.94,1.09-1.4l.59-.85a6.07,6.07,0,0,0-.1-2.57,11.75,11.75,0,0,0-1.15-2.74C446.48,78.81,445.95,78,446,78s.58.68,1.51,2a11.45,11.45,0,0,1,1.38,2.71,6.69,6.69,0,0,1,.33,1.79,28.52,28.52,0,0,0,2.07-3.94,8.62,8.62,0,0,0,0-1.88,7.53,7.53,0,0,0-.47-2,3.07,3.07,0,0,0-1-1.41A2.93,2.93,0,0,1,451,76.64a7.11,7.11,0,0,1,.7,2c0,.21.07.42.1.65l.08-.22A23.14,23.14,0,0,0,453,73.93c.13-1.2.12-1.84.13-1.84s.06.61,0,1.8a22,22,0,0,1-.76,5.21c-.08.3-.17.6-.26.91a4.68,4.68,0,0,1,.49-.34,6.23,6.23,0,0,1,1.78-.71c1-.23,1.57-.27,1.57-.28s-.54.15-1.49.49a5.31,5.31,0,0,0-2.74,2.08,1,1,0,0,1-.13.27,28.6,28.6,0,0,1-1.4,3.07,8.8,8.8,0,0,1,1.17-.55,11.61,11.61,0,0,1,2.54-.61,11.18,11.18,0,0,1,2.19-.08,13.38,13.38,0,0,0-2.13.29A12.43,12.43,0,0,0,451.6,84.44Z"/><path class="cls-1" d="M379.16,76.88c-.38-.54-.74-1.08-1.08-1.61a10.36,10.36,0,0,0-2.87-1.6,16.76,16.76,0,0,0-3.49-.87,18.49,18.49,0,0,0-3.06-.2,15.74,15.74,0,0,1,3.14-.11,15.94,15.94,0,0,1,3.65.61,12.5,12.5,0,0,1,1.7.66A38.43,38.43,0,0,1,375,69.49a1.37,1.37,0,0,1-.2-.38,7.16,7.16,0,0,0-4-2.71c-1.37-.39-2.16-.53-2.15-.55s.81,0,2.26.25a8.51,8.51,0,0,1,2.57.84,6.82,6.82,0,0,1,.71.44c-.15-.44-.29-.86-.42-1.28a31.27,31.27,0,0,1-1.31-7.41c-.09-1.71,0-2.6,0-2.59s0,.92.26,2.63A32.68,32.68,0,0,0,374.62,66l.13.31c0-.33.08-.64.13-.95a10.66,10.66,0,0,1,.92-2.94,4.49,4.49,0,0,1,1.64-2,4.7,4.7,0,0,0-1.37,2.13,11.31,11.31,0,0,0-.58,2.9,12.54,12.54,0,0,0,.07,2.7,38.42,38.42,0,0,0,3.14,5.46,9.59,9.59,0,0,1,.4-2.61A17.35,17.35,0,0,1,381,67c1.28-2,2.09-3.08,2.08-3.09s-.71,1.15-1.83,3.29a17.69,17.69,0,0,0-1.53,4.05,8.76,8.76,0,0,0,0,3.7c.29.38.58.77.89,1.16.51.63,1.05,1.27,1.62,1.91,4.48.29,9.5-4.18,7.23-10.69-1.68-4.82-13.5-7.67-18.13-16-1.43,10.37-6.48,17.37-3.92,24.74,2.47,7.09,10.16,7,12.81,2.18Q379.63,77.55,379.16,76.88Z"/><path class="cls-1" d="M407.36,154c-.59.14-1.17.29-1.72.45l-1,.31a6.25,6.25,0,0,0-1.49,2.18,12.61,12.61,0,0,0-.76,3c-.22,1.7-.27,2.67-.28,2.66s0-.93,0-2.65a12.38,12.38,0,0,1,.56-3.12,6.94,6.94,0,0,1,.83-1.68,27.45,27.45,0,0,0-4.05,1.9,9,9,0,0,0-1.14,1.55,8.07,8.07,0,0,0-.84,1.93,3.4,3.4,0,0,0-.07,1.8,3.24,3.24,0,0,1-.16-1.82,7.61,7.61,0,0,1,.66-2.09c.1-.2.2-.4.31-.6l-.2.13a23.12,23.12,0,0,0-4.06,3.46c-.84.91-1.22,1.43-1.23,1.43s.32-.54,1.07-1.5a22.23,22.23,0,0,1,3.78-3.79c.24-.19.5-.39.77-.58a4.53,4.53,0,0,1-.59,0,6,6,0,0,1-1.85-.56c-.94-.46-1.41-.79-1.42-.78s.52.23,1.48.56a5.09,5.09,0,0,0,3.44.05,1,1,0,0,1,.27-.14,27.24,27.24,0,0,1,3-1.62,8.7,8.7,0,0,1-1.26-.3,12,12,0,0,1-4.17-2.48,13.3,13.3,0,0,0,1.87,1.13,11.93,11.93,0,0,0,2.39.91,7.42,7.42,0,0,0,2.32.23c.42-.17.84-.34,1.29-.5l1.11-.38c.41-3.88-4-7.07-8.36-3.95-4.5,3.25-4.4,9.4-7.8,16,6.11-3,14.16.17,17.1-2C411.2,160.28,410.09,155.62,407.36,154Z"/><path class="cls-1" d="M470.66,26.22c2.78,7,10.13,7.11,13.63,3.67,0-.93,0-1.85,0-2.74,0-.54-.06-1.07-.09-1.59a9.54,9.54,0,0,0-2.68-3,19.26,19.26,0,0,0-4.16-2.26c-2.45-1-3.87-1.4-3.87-1.42s1.41.29,3.93,1.07a18.92,18.92,0,0,1,4.43,2A10.64,10.64,0,0,1,484,23.8,42.14,42.14,0,0,0,482.71,17a13.67,13.67,0,0,0-1.87-2.29,12.31,12.31,0,0,0-2.56-2,5.15,5.15,0,0,0-2.66-.79,4.92,4.92,0,0,1,2.77.46,11.63,11.63,0,0,1,2.87,1.77c.25.22.52.45.78.69l-.11-.35a35.59,35.59,0,0,0-3.63-7.35c-1-1.59-1.67-2.36-1.66-2.37s.68.69,1.83,2.17a34.22,34.22,0,0,1,4.21,7.06c.2.44.39.89.58,1.36a7.28,7.28,0,0,1,.28-.87A9.29,9.29,0,0,1,485,12c1-1.23,1.71-1.81,1.7-1.82s-.54.68-1.39,2A7.84,7.84,0,0,0,484,17.31a1.47,1.47,0,0,1,.1.46,42.21,42.21,0,0,1,1.29,5.06,13.38,13.38,0,0,1,.93-1.77,18.54,18.54,0,0,1,5.27-5.28,20.07,20.07,0,0,0-2.39,2.36,18.22,18.22,0,0,0-2.26,3.22,11.38,11.38,0,0,0-1.23,3.37c.1.68.19,1.39.26,2.11s.11,1.19.15,1.79c5.62,2.07,12.06-3.33,9-11C492,9.74,482.81,7.56,474.21,0,476.35,10.22,468.61,21,470.66,26.22Z"/><path class="cls-1" d="M526.09,67.81c.35-.78.67-1.55,1-2.31.17-.46.33-.92.49-1.37a8.76,8.76,0,0,0-1.17-3.51,17.63,17.63,0,0,0-2.7-3.39c-1.71-1.7-2.75-2.57-2.74-2.58s1.08.75,2.92,2.31a17.28,17.28,0,0,1,3,3.28A9.63,9.63,0,0,1,528,62.59a38.68,38.68,0,0,0,1.33-6.15,12.55,12.55,0,0,0-.76-2.6,11.33,11.33,0,0,0-1.44-2.58,4.72,4.72,0,0,0-2-1.62A4.48,4.48,0,0,1,527.37,51a10.62,10.62,0,0,1,1.78,2.52c.14.27.27.56.41.86,0-.11,0-.23,0-.33a32.59,32.59,0,0,0-.42-7.49c-.3-1.71-.56-2.58-.55-2.59s.33.83.76,2.48a31.24,31.24,0,0,1,1,7.45c0,.44,0,.89,0,1.35a6.74,6.74,0,0,1,.55-.63,8.49,8.49,0,0,1,2.2-1.58c1.31-.66,2.08-.91,2.08-.92s-.7.38-1.88,1.18a7.16,7.16,0,0,0-3,3.81,1.44,1.44,0,0,1-.08.42,38.58,38.58,0,0,1-.73,4.72,12.45,12.45,0,0,1,1.42-1.15,16,16,0,0,1,3.29-1.7,15.71,15.71,0,0,1,3-.85,18.6,18.6,0,0,0-2.86,1.13,16.74,16.74,0,0,0-3.05,1.9A10.4,10.4,0,0,0,529.12,64q-.24.92-.53,1.87c-.16.52-.34,1-.52,1.56,4,3.76,11.34,1.52,11.53-6,.2-7.8-6.75-12.93-11.28-22.36-1.86,9.36-12.25,15.69-12.37,20.79C515.76,66.73,521.92,69.45,526.09,67.81Z"/><path class="cls-1" d="M395.06,130.82a7.08,7.08,0,0,0,1.54,1.63c.41.14.83.28,1.25.44l1,.42c2.74-2.56,1.52-7.68-3.59-8.13-5.31-.47-9.11,4.06-15.75,6.75,6.31,1.67,10.19,9,13.66,9.33,4.7.41,6.82-3.67,5.87-6.59-.52-.27-1-.52-1.54-.75l-.91-.39a6,6,0,0,0-2.45.65,12,12,0,0,0-2.43,1.69c-1.23,1.1-1.87,1.77-1.88,1.76s.56-.71,1.7-1.9a11.82,11.82,0,0,1,2.36-1.92,6.64,6.64,0,0,1,1.67-.7,26.4,26.4,0,0,0-4.14-1.17,8.54,8.54,0,0,0-1.8.41,7.71,7.71,0,0,0-1.82.87,3.23,3.23,0,0,0-1.19,1.26,3.11,3.11,0,0,1,1-1.42,7.26,7.26,0,0,1,1.79-1.1l.61-.24-.23,0a22.4,22.4,0,0,0-5.13,0c-1.18.13-1.79.28-1.79.27s.58-.19,1.72-.41a21.41,21.41,0,0,1,5.13-.37l.92.06a4.17,4.17,0,0,1-.41-.4,5.77,5.77,0,0,1-1-1.56c-.39-.93-.53-1.46-.54-1.46s.23.49.72,1.33a4.9,4.9,0,0,0,2.47,2.2.94.94,0,0,1,.29.07,26.15,26.15,0,0,1,3.19.69,8.18,8.18,0,0,1-.72-1,11.6,11.6,0,0,1-1.47-4.42,12.51,12.51,0,0,0,.65,2A11.52,11.52,0,0,0,395.06,130.82Z"/><path class="cls-1" d="M435.49,52.29c.11-.59.2-1.18.27-1.76,0-.35.07-.69.11-1a6.24,6.24,0,0,0-1.41-2.22A12.51,12.51,0,0,0,432,45.41c-1.47-.88-2.35-1.3-2.34-1.31s.87.33,2.42,1.1a12.38,12.38,0,0,1,2.64,1.75,6.86,6.86,0,0,1,1.22,1.43,27.45,27.45,0,0,0-.14-4.46,9,9,0,0,0-1-1.66,8.08,8.08,0,0,0-1.44-1.54,3.38,3.38,0,0,0-1.63-.78,3.24,3.24,0,0,1,1.73.58,7.64,7.64,0,0,1,1.66,1.43c.14.17.29.34.43.53l0-.23A23.14,23.14,0,0,0,434,37.15c-.5-1.13-.83-1.69-.83-1.69s.37.51,1,1.58a22.29,22.29,0,0,1,2,5c.08.3.16.61.23.93a4.32,4.32,0,0,1,.27-.53,6,6,0,0,1,1.24-1.46c.8-.68,1.28-1,1.28-1s-.42.38-1.1,1.13a5.05,5.05,0,0,0-1.41,3.13,1,1,0,0,1,0,.3,27,27,0,0,1,.31,3.37,8.54,8.54,0,0,1,.78-1,11.28,11.28,0,0,1,2-1.73,11.1,11.1,0,0,1,2-1.1,13,13,0,0,0-1.78,1.26,11.92,11.92,0,0,0-1.78,1.82,7.28,7.28,0,0,0-1.14,2c0,.45,0,.91,0,1.37s-.05.77-.09,1.17c3.4,1.91,8.1-.87,6.94-6.07-1.2-5.41-6.88-7.76-11.64-13.5.32,6.77-5.77,12.88-5,16.41C428.17,53.29,432.89,54.13,435.49,52.29Z"/><path class="cls-1" d="M454.41,38c0-.4.07-.78.12-1.17s.13-.92.21-1.36a7.48,7.48,0,0,0-.74-2.22,12.14,12.14,0,0,0-1.42-2.13,13.49,13.49,0,0,0-1.52-1.57,12,12,0,0,1,3.34,3.52,8.71,8.71,0,0,1,.58,1.16A27,27,0,0,1,455.9,31a1,1,0,0,1,.07-.3,5.11,5.11,0,0,0-.81-3.35c-.53-.86-.88-1.31-.87-1.32a15.28,15.28,0,0,1,1.08,1.21,6,6,0,0,1,1,1.67,4.23,4.23,0,0,1,.17.57c.13-.3.26-.6.39-.88a22.33,22.33,0,0,1,2.86-4.52c.77-.94,1.23-1.38,1.23-1.38s-.42.49-1.12,1.51a23.24,23.24,0,0,0-2.48,4.72l-.08.22.52-.44a7.66,7.66,0,0,1,1.89-1.1,3.17,3.17,0,0,1,1.81-.25,3.31,3.31,0,0,0-1.74.47,8,8,0,0,0-1.7,1.25,9,9,0,0,0-1.26,1.46,27.42,27.42,0,0,0-1,4.37,7,7,0,0,1,1.46-1.18,12.3,12.3,0,0,1,2.91-1.23c1.65-.47,2.57-.62,2.57-.63s-.93.27-2.54.86a12.56,12.56,0,0,0-2.75,1.4,6.22,6.22,0,0,0-1.8,1.93c0,.34-.06.68-.09,1,0,.58-.06,1.17-.06,1.78,2.22,2.3,7,2.35,8.93-2.16,1.42-3.34-3.44-10.5-1.88-17.11-5.72,4.77-11.73,6-13.9,11.15C446.62,35.64,450.72,39.26,454.41,38Z"/><path class="cls-1" d="M487.56,44.17c-2.32,4.32.71,8,3.89,8.32.47-.38.92-.77,1.35-1.16l.75-.71a6.23,6.23,0,0,0,.38-2.61,12.65,12.65,0,0,0-.62-3c-.54-1.63-.93-2.51-.91-2.52s.45.82,1.12,2.4a12.41,12.41,0,0,1,.86,3,6.93,6.93,0,0,1,0,1.88,27.62,27.62,0,0,0,2.81-3.48,9.09,9.09,0,0,0,.35-1.89,8.09,8.09,0,0,0-.09-2.1,3.37,3.37,0,0,0-.72-1.65,3.25,3.25,0,0,1,.94,1.57,7.69,7.69,0,0,1,.32,2.17c0,.22,0,.44,0,.68l.12-.2A23.25,23.25,0,0,0,500.22,40c.36-1.18.47-1.83.48-1.82s-.05.63-.31,1.82a22.26,22.26,0,0,1-1.74,5.06c-.13.28-.28.57-.44.85a4.66,4.66,0,0,1,.55-.23,6.06,6.06,0,0,1,1.9-.3c1,0,1.62.09,1.62.08s-.56,0-1.57.14a5.11,5.11,0,0,0-3.12,1.46,1,1,0,0,1-.18.24,27.57,27.57,0,0,1-2,2.77,8.82,8.82,0,0,1,1.27-.28,12,12,0,0,1,4.84.41,13.47,13.47,0,0,0-2.18-.2,12.06,12.06,0,0,0-2.55.23,7.35,7.35,0,0,0-2.19.81q-.45.5-.94,1c-.27.28-.55.55-.83.83,1.33,3.66,6.72,4.6,9.25-.11,2.63-4.89-.15-10.37,0-17.82C497.91,40.29,489.28,41,487.56,44.17Z"/><path class="cls-1" d="M488.83,167.87c.25.31.49.62.72.92s.55.75.8,1.13a7.43,7.43,0,0,0,2.07,1.08,12.08,12.08,0,0,0,2.5.55,13.37,13.37,0,0,0,2.18.08,12,12,0,0,1-4.85-.22A9,9,0,0,1,491,171a27.14,27.14,0,0,1,1.6,3,1,1,0,0,1,.15.26,5.11,5.11,0,0,0,2.9,1.85c1,.25,1.54.34,1.54.34a15.05,15.05,0,0,1-1.61-.13,6,6,0,0,1-1.85-.54,4.86,4.86,0,0,1-.52-.3c.12.31.23.61.32.9a22.3,22.3,0,0,1,1.08,5.24c.1,1.21.07,1.85.07,1.84s0-.65-.24-1.87a23.05,23.05,0,0,0-1.48-5.12l-.1-.22c0,.23,0,.46-.07.67a7.59,7.59,0,0,1-.6,2.11,3.19,3.19,0,0,1-1.13,1.43,3.34,3.34,0,0,0,.93-1.54,8.05,8.05,0,0,0,.36-2.07,8.86,8.86,0,0,0-.1-1.92,27.59,27.59,0,0,0-2.34-3.82,6.93,6.93,0,0,1-.23,1.86,12.26,12.26,0,0,1-1.25,2.91c-.87,1.48-1.43,2.23-1.42,2.24s.48-.84,1.23-2.38a12.53,12.53,0,0,0,1-2.91,6.23,6.23,0,0,0,0-2.63c-.21-.27-.43-.54-.65-.8-.37-.44-.77-.88-1.19-1.32-3.19-.12-6.68,3.16-4.94,7.75,1.29,3.39,9.76,5.19,13.21,11,.81-7.4,4.27-12.49,2.3-17.67C496.09,164.17,490.62,164.4,488.83,167.87Z"/><path class="cls-1" d="M519.73,144.76c-5.69-3.59-11,.78-10.21,5.63l1.42.39c.57.17,1.12.35,1.66.53a9.35,9.35,0,0,0,2.91-.48,15,15,0,0,0,2.93-1.33,16.68,16.68,0,0,0,2.26-1.57,14.37,14.37,0,0,1-2.14,1.84,14.16,14.16,0,0,1-2.91,1.61,11,11,0,0,1-1.56.48,34.74,34.74,0,0,1,3.88,1.81,1.25,1.25,0,0,1,.35.15,6.43,6.43,0,0,0,4.33-.34c1.18-.49,1.81-.83,1.82-.82s-.58.44-1.72,1.09a7.64,7.64,0,0,1-2.27.85,6.52,6.52,0,0,1-.75.09c.35.22.69.44,1,.67a28.06,28.06,0,0,1,5.06,4.47c1,1.15,1.46,1.81,1.47,1.8s-.53-.63-1.66-1.7a29.22,29.22,0,0,0-5.38-4l-.26-.15c.16.25.3.5.44.73a9.5,9.5,0,0,1,1,2.58,4.05,4.05,0,0,1-.05,2.3,4.25,4.25,0,0,0-.24-2.26,10.09,10.09,0,0,0-1.21-2.36,11.25,11.25,0,0,0-1.56-1.86,34.71,34.71,0,0,0-5.25-2.08,8.63,8.63,0,0,1,1.18,2.05,15.45,15.45,0,0,1,.95,3.88c.25,2.15.25,3.33.27,3.33s-.15-1.21-.56-3.33a15.89,15.89,0,0,0-1.19-3.7,7.86,7.86,0,0,0-2-2.62l-1.27-.32c-.71-.16-1.45-.3-2.2-.44-3.3,2.3-4.34,8.24.9,11.55,3.87,2.44,13.76-2.16,21.68,1.11C526,156.24,525.65,148.5,519.73,144.76Z"/><path class="cls-1" d="M458.65,111a5,5,0,0,0-.1,1.57q.19.41.37.85c.1.24.19.48.28.74,2.61.17,4.65-2.89,2.43-5.72s-6.42-2.72-11-4.82c2.16,4,.25,9.51,1.75,11.44a3.65,3.65,0,0,0,6.17-.15c-.11-.39-.22-.78-.35-1.14s-.16-.44-.24-.66a4.16,4.16,0,0,0-1.5-.94,8.4,8.4,0,0,0-2-.43c-1.15-.11-1.8-.11-1.79-.12s.62-.05,1.78,0a8.28,8.28,0,0,1,2.11.29,4.67,4.67,0,0,1,1.15.51,7,7,0,0,0-.65-1.39c-.24-.46-.48-.89-.73-1.28a6,6,0,0,0-1.07-.73,5.56,5.56,0,0,0-1.32-.51,2.24,2.24,0,0,0-1.21,0,2.13,2.13,0,0,1,1.22-.15,5.19,5.19,0,0,1,1.42.39l.41.2-.09-.13a15.56,15.56,0,0,0-2.43-2.64c-.63-.54-1-.78-1-.79a11.53,11.53,0,0,1,1,.68,14.82,14.82,0,0,1,2.64,2.44c.14.16.28.33.41.5a3.8,3.8,0,0,1,0-.4,4.1,4.1,0,0,1,.33-1.25c.28-.64.49-1,.49-1s-.14.35-.33,1a3.43,3.43,0,0,0,.05,2.31.68.68,0,0,1,.1.18c.21.31.42.65.63,1a9.61,9.61,0,0,1,.53,1,6.28,6.28,0,0,1,.17-.86,7.68,7.68,0,0,1,.7-1.63,7.48,7.48,0,0,1,.86-1.24,8.71,8.71,0,0,0-.72,1.28A8.36,8.36,0,0,0,458.65,111Z"/><path class="cls-1" d="M512.16,151.69s-1.4-.51-4.21-1.16a40.68,40.68,0,0,0-12.69-.93,37.3,37.3,0,0,0-5.69,1c.48-.63.89-1.25,1.28-1.83a43.59,43.59,0,0,1,2.76-4,16.32,16.32,0,0,1,3-2.89,15.29,15.29,0,0,0-2.05,1.55l.14-.15.43-.42a3.32,3.32,0,0,0,.33-1,5.3,5.3,0,0,0,.07-1.12,5.79,5.79,0,0,0-.11-1,5.3,5.3,0,0,1,.24,2.12,3.75,3.75,0,0,1-.11.56,11.7,11.7,0,0,1,1.19-.9.44.44,0,0,1,.1-.08,2.24,2.24,0,0,0,.6-1.39c0-.45,0-.69,0-.69a6.87,6.87,0,0,1,.06.71,2.68,2.68,0,0,1-.11.84,2.22,2.22,0,0,1-.09.25l.37-.2a9.66,9.66,0,0,1,2.2-.82c.52-.13.8-.16.8-.16s-.28.06-.79.23a10.23,10.23,0,0,0-2.12,1l-.09.06.3,0a3.32,3.32,0,0,1,1,.12,1.43,1.43,0,0,1,.7.39,1.48,1.48,0,0,0-.73-.3,3.6,3.6,0,0,0-.92,0,4,4,0,0,0-.83.18,12,12,0,0,0-1.5,1.28,3.08,3.08,0,0,1,.82,0,5.47,5.47,0,0,1,1.35.34c.7.28,1.07.47,1.07.46s-.4-.15-1.12-.37a5.57,5.57,0,0,0-1.33-.24,2.74,2.74,0,0,0-1.14.2l-.3.34c-.17.19-.33.4-.5.61a2.39,2.39,0,0,0,3.7,1.61c1.38-.79,1.58-4.59,3.88-6.49-3.27.15-5.71-1-7.83.21s-1.57,3.5,0,4.05c-.28.26-.57.54-.88.88a38.29,38.29,0,0,0-3,3.85,23.08,23.08,0,0,1-2.1,2.56c-.74.21-1.49.45-2.25.72a41.74,41.74,0,0,0-10,5.28,51.6,51.6,0,0,0-4.67,3.76,148.76,148.76,0,0,1,13.22-22.09c2.93-4.14,5.84-8.06,8.63-11.83a30.27,30.27,0,0,1,2.47-1.86l0,.15a29,29,0,0,1,6.07-1.64,13.45,13.45,0,0,1,4.72.13,9.68,9.68,0,0,1,1.14.33,2.38,2.38,0,0,0-.88,3.78c1,1.27,4.75,1,6.94,3-.58-3.22.25-5.79-1.23-7.73s-3.69-1.09-4,.59l.42.3.48.38a3.31,3.31,0,0,0,1,.2,5.31,5.31,0,0,0,1.12-.08,5.74,5.74,0,0,0,.93-.24,4.94,4.94,0,0,1-.92.34,4.89,4.89,0,0,1-1.15.17,3.91,3.91,0,0,1-.57,0,11.62,11.62,0,0,1,1,1.06.42.42,0,0,1,.1.09,2.24,2.24,0,0,0,1.45.42c.45,0,.69-.05.69,0a6.88,6.88,0,0,1-.69.15,2.66,2.66,0,0,1-.85,0l-.26-.06.25.34a9.67,9.67,0,0,1,1.1,2.08c.19.5.26.77.26.77s-.1-.27-.33-.76a10.26,10.26,0,0,0-1.26-2l-.07-.08c0,.1,0,.2.06.29a3.35,3.35,0,0,1,0,1,1.42,1.42,0,0,1-.3.75,1.48,1.48,0,0,0,.2-.77,3.59,3.59,0,0,0-.11-.92,4,4,0,0,0-.28-.8,12,12,0,0,0-1.46-1.32,3.06,3.06,0,0,1,.14.81,5.52,5.52,0,0,1-.16,1.38c-.18.73-.33,1.12-.32,1.12s.1-.41.22-1.16a5.62,5.62,0,0,0,.06-1.35,2.75,2.75,0,0,0-.35-1.11l-.15-.1.55.3a9.59,9.59,0,0,1,.89.6,8.66,8.66,0,0,0-.82-.66,9.36,9.36,0,0,0-2.74-1.33,13.33,13.33,0,0,0-4.85-.45,21.88,21.88,0,0,0-3.83.67l.64-.37a33.23,33.23,0,0,1,9.84-3.48,27.48,27.48,0,0,1,6.65-.42c1.53.1,2.33.27,2.33.25s-.77-.18-2.27-.35a26.91,26.91,0,0,0-6.63.14c-1.3.18-3.6.67-5.84,1.23a32.23,32.23,0,0,0,3-3,19.48,19.48,0,0,1,3.39-3.13,8.4,8.4,0,0,1,3.23-1.35c-.32.15-.64.32-1,.51a3.09,3.09,0,0,1,.8.18,5.51,5.51,0,0,1,1.21.67c.61.45.91.72.91.72s-.34-.25-1-.64a5.56,5.56,0,0,0-1.23-.57,2.74,2.74,0,0,0-1.16-.1l-.38.25-.63.46a2.39,2.39,0,0,0,3.17,2.5c1.54-.41,2.7-4,5.41-5.28-3.2-.68-5.27-2.42-7.62-1.79a2.18,2.18,0,0,0-1.15,3.79c-.23.11-.47.22-.72.36a18.51,18.51,0,0,0-3.67,3,20.48,20.48,0,0,1-4.71,3.85l.08.16a21.08,21.08,0,0,0-4,1.35s0,0-.09,0c1.07-1.56,1.55-3.06,3.21-4.72a99.06,99.06,0,0,0,12.42-15.28c2.14-1.36,4.23-2.52,6.23-3.55a10,10,0,0,1,4.37-.51,9.6,9.6,0,0,1,3.58,1,5.12,5.12,0,0,1,1.25.91,2.07,2.07,0,0,0-.09.48l.46.24.33.19c.16.29.21.46.22.46s0-.15-.14-.41l.11.07a3.3,3.3,0,0,0,1,.05,5.29,5.29,0,0,0,1.1-.24,5.67,5.67,0,0,0,.89-.37,5.3,5.3,0,0,1-2,.8,3.85,3.85,0,0,1-.57.05,11.8,11.8,0,0,1,1.19.9.43.43,0,0,1,.11.08,2.24,2.24,0,0,0,1.5.21c.44-.08.68-.15.68-.15a6.81,6.81,0,0,1-.66.25,2.66,2.66,0,0,1-.84.12l-.26,0,.29.3a9.66,9.66,0,0,1,1.39,1.89c.26.47.37.72.37.72s-.13-.25-.44-.7a10.23,10.23,0,0,0-1.54-1.77l-.08-.07.1.28a3.35,3.35,0,0,1,.15,1,1.43,1.43,0,0,1-.19.78,1.48,1.48,0,0,0,.09-.79,3.59,3.59,0,0,0-.24-.89,4,4,0,0,0-.4-.75,12.06,12.06,0,0,0-1.63-1.09,3.08,3.08,0,0,1,.25.79,5.49,5.49,0,0,1,0,1.39c-.08.75-.16,1.15-.16,1.15s0-.42.06-1.18a5.57,5.57,0,0,0-.13-1.35,2.74,2.74,0,0,0-.5-1l-.41-.2L527,101a2.39,2.39,0,0,0-.54,4c1.14,1.12,4.85.28,7.3,2-1-3.1-.59-5.77-2.33-7.47a2.21,2.21,0,0,0-3.74.49,5.22,5.22,0,0,0-1.12-1A9.55,9.55,0,0,0,523,97.73a12.35,12.35,0,0,0-2-.14c1.72-.83,3.34-1.57,4.84-2.25l9.52-4.2,3.22-1.5c-.61.26-5.07,2-12.82,4.95a111.77,111.77,0,0,0-11.9,5.34,113.67,113.67,0,0,0,9.25-18.44,15.81,15.81,0,0,1,1.15-1.28,14.65,14.65,0,0,1,3.17-2.35,9.28,9.28,0,0,1,3.21-1.12,8.36,8.36,0,0,0-1.5.22l.23-.11a3.32,3.32,0,0,0,.63-.81,5.28,5.28,0,0,0,.43-1,5.74,5.74,0,0,0,.2-.94,5,5,0,0,1-.11,1,4.91,4.91,0,0,1-.36,1.1,3.79,3.79,0,0,1-.28.5,11.83,11.83,0,0,1,1.42-.47.44.44,0,0,1,.13,0,2.24,2.24,0,0,0,1-1.11c.19-.41.26-.64.27-.64a6.57,6.57,0,0,1-.18.69,2.65,2.65,0,0,1-.38.76l-.17.2.42-.07a9.66,9.66,0,0,1,2.35-.07c.53,0,.8.11.8.11s-.28,0-.83,0a10.17,10.17,0,0,0-2.33.25l-.1,0,.29.08a3.37,3.37,0,0,1,.87.42,1.44,1.44,0,0,1,.54.6,1.49,1.49,0,0,0-.6-.52,3.6,3.6,0,0,0-.87-.31,4,4,0,0,0-.84-.1,12,12,0,0,0-1.83.72,3.11,3.11,0,0,1,.79.24,5.5,5.5,0,0,1,1.16.76c.58.49.86.79.86.78s-.33-.27-.93-.71a5.57,5.57,0,0,0-1.18-.66,2.75,2.75,0,0,0-1.15-.18l-.4.22-.66.41a2.39,2.39,0,0,0,3,2.72c1.57-.3,3-3.83,5.78-4.88-3.14-.91-5.08-2.8-7.47-2.34a2.18,2.18,0,0,0-1.38,3.73c-.28.1-.58.2-.9.34a14.2,14.2,0,0,0-3.44,2.17l-.17.16a98.62,98.62,0,0,0,5.24-18.81,119.78,119.78,0,0,1-9.48,24.32s0-.07,0-.11a20.25,20.25,0,0,0-.85-4.26c-.11-.37-.23-.69-.33-1,2.12.39,4-2.09,2.38-4.83s-5.09-3.11-8.68-5.48c1.49,3.81-.48,8.49.62,10.36,1.48,2.53,4.1,2.1,5.09.54-.06-.36-.13-.71-.2-1.06s-.1-.41-.15-.61a3.7,3.7,0,0,0-1.17-1,6.89,6.89,0,0,0-1.64-.6c-.93-.22-1.47-.29-1.47-.3s.52,0,1.47.16a6.61,6.61,0,0,1,1.71.49,4,4,0,0,1,.91.58,18.21,18.21,0,0,0-.94-2.53,5.44,5.44,0,0,0-.83-.76,4.55,4.55,0,0,0-1-.6,1.75,1.75,0,0,0-1-.13,1.65,1.65,0,0,1,1,0,4.16,4.16,0,0,1,1.14.5l.32.22-.07-.13a14.75,14.75,0,0,0-1.81-2.61c-.48-.55-.76-.8-.76-.81s.29.22.8.72a13.6,13.6,0,0,1,2,2.46c.1.16.2.32.3.49,0-.13,0-.24,0-.36a3.73,3.73,0,0,1,.36-1.08,8.62,8.62,0,0,1,.47-.81s-.14.3-.35.86a3.26,3.26,0,0,0-.12,2.06.64.64,0,0,1,.07.17,17.23,17.23,0,0,1,.82,1.88,5.89,5.89,0,0,1,.2-.74,6.55,6.55,0,0,1,.7-1.38,6.16,6.16,0,0,1,.79-1,7,7,0,0,0-.68,1.06,7.25,7.25,0,0,0-.57,1.39,4.8,4.8,0,0,0-.19,1.38q.13.38.25.8l.06.24c-.48-1.32-.85-2-.84-2a28.64,28.64,0,0,1,1,3.47,21.53,21.53,0,0,1,.56,4.2,12.52,12.52,0,0,1-.05,1.42,101,101,0,0,1-13.76,20c.09-.31.18-.62.25-.92a28,28,0,0,0,.67-5.19c.1-2.87,0-4.46,0-4.46s0,1.55-.29,4.37a26.68,26.68,0,0,1-1.77,7.46,75.77,75.77,0,0,1-7.28,6.86c-6.1,5-10.57,10.61-16.92,18.12a66.24,66.24,0,0,0,.44-7c0-5.33-.29-8.27-.27-8.27s0,2.88-.45,8.11a70.27,70.27,0,0,1-1.4,9.24,209.76,209.76,0,0,0-13.22,22.84c-.74,1.46-2.2,4.73-2.88,6.26.36-5,1.09-11.4,2-16.17,2.08-11.16,2.24-14.59,4.34-26,.35-1.9,1.09-5.78,1.67-8,.91-1.94,1.87-3.79,2.85-5.52l.67-1.15a13.14,13.14,0,0,1,1.78-1.39,23.84,23.84,0,0,1,3.25-1.76A42.89,42.89,0,0,1,484,102a46.28,46.28,0,0,1,5-1.19,43.42,43.42,0,0,0-10.79,2.65,24.12,24.12,0,0,0-3.44,1.68l-.3.19c.22-.33.45-.66.68-1,.89-1.23,1.8-2.38,2.7-3.47,1.79-2.18,3.49-4.12,5.05-5.84,3.12-3.45,5.67-6,7.48-7.69A15.79,15.79,0,0,1,493.33,85a15.16,15.16,0,0,0-3,2.14c-.45.38-1,.82-1.5,1.3.23-.29.46-.57.68-.84s.66-.75,1-1.1A8.54,8.54,0,0,0,491.2,84a14,14,0,0,0,.07-2.79,15.13,15.13,0,0,0-.35-2.35,12.64,12.64,0,0,1,.59,2.36,13.1,13.1,0,0,1,.15,2.87,10.33,10.33,0,0,1-.2,1.4,28.76,28.76,0,0,1,2.72-2.37,1,1,0,0,1,.24-.22,5.83,5.83,0,0,0,1.3-3.51c.06-1.11,0-1.73,0-1.72s.12.61.19,1.75a7.08,7.08,0,0,1-.19,2.1,5.34,5.34,0,0,1-.2.62c.29-.19.57-.38.85-.54a22.54,22.54,0,0,1,5.09-2.31c1.21-.37,1.86-.48,1.85-.48s-.65.18-1.84.67a23.77,23.77,0,0,0-4.89,2.72l-.2.15.69-.08a7.36,7.36,0,0,1,2.25.17,3.2,3.2,0,0,1,1.67.89,3.31,3.31,0,0,0-1.75-.65,7.92,7.92,0,0,0-2.17.08,8.86,8.86,0,0,0-1.92.54,29.71,29.71,0,0,0-3.4,3.35,6.72,6.72,0,0,1,1.93-.17,12,12,0,0,1,3.18.69c1.68.6,2.54,1,2.55,1s-.94-.33-2.65-.79a12.21,12.21,0,0,0-3.15-.43,6.18,6.18,0,0,0-2.66.63c-.23.29-.46.57-.68.88-.37.49-.74,1-1.1,1.56A5.48,5.48,0,0,0,498,93.6c3.17-2.13,3.32-11.57,8.55-16.57-7.65.77-13.47-1.79-18.33,1.46-4.66,3.13-3.37,8.89.46,10.06C487.06,90,485,92,482.63,94.42c-1.62,1.65-3.39,3.52-5.27,5.65-.94,1.06-1.9,2.19-2.86,3.41-.48.61-1,1.25-1.41,1.94l-1.3,2.07-.08.13c1.66-5.47,3.26-10.75,4.71-15.76q2.89-10,5-18.74a76,76,0,0,1,4-9.23,7.77,7.77,0,0,1,1.51-1.16,11,11,0,0,1,2.84-1.14,23.39,23.39,0,0,1,2.63-.49,18.47,18.47,0,0,0-2.65.18,10.79,10.79,0,0,0-3.06.89c-.17.08-.35.19-.52.29,1.29-2.4,2.56-4.48,3.7-6.2a56.55,56.55,0,0,1,5.19-6.7,48.84,48.84,0,0,0-5.7,6.16A70.68,70.68,0,0,0,483.16,65,131.72,131.72,0,0,0,486,35.12a77.55,77.55,0,0,0-1.2-11.64,81.75,81.75,0,0,1,.38,11.38,118.69,118.69,0,0,1-2.39,19.56,35.62,35.62,0,0,0-1.31-5.82A38.54,38.54,0,0,0,480,44.65l.09.08a12,12,0,0,0-.49-1.9,4.07,4.07,0,0,0-.57-.62,3.62,3.62,0,0,0-.76-.52,1.5,1.5,0,0,0-.77-.18,1.45,1.45,0,0,1,.8.08,3.31,3.31,0,0,1,.85.45l.23.19,0-.1a10.27,10.27,0,0,0-1.16-2c-.32-.44-.52-.64-.52-.65s.21.18.56.59A9.68,9.68,0,0,1,479.56,42l.19.38a2.21,2.21,0,0,1,.06-.26,2.68,2.68,0,0,1,.39-.75c.28-.37.46-.54.45-.55s-.14.2-.36.59a2.24,2.24,0,0,0-.3,1.48.42.42,0,0,1,0,.13,11.69,11.69,0,0,1,.45,1.42,3.82,3.82,0,0,1,.24-.52,4.83,4.83,0,0,1,.68-.94,5,5,0,0,1,.73-.66,6,6,0,0,0-.64.71,5.25,5.25,0,0,0-.59,1,3.3,3.3,0,0,0-.29,1c0,.19.08.39.11.6s.05.34.07.51c1.64.49,3.38-1.16,2.39-3.28s-3.69-2.67-6.28-4.68c.79,2.88-1.24,6.1-.56,7.54a2.39,2.39,0,0,0,4,.81c0-.27,0-.53-.05-.78s0-.3-.05-.44c.25.73.6,1.86,1,3.37a34.87,34.87,0,0,1,1.11,8.31c-.69,3.19-1.51,6.58-2.5,10.16-.64,2.37-1.38,4.85-2.15,7.38,0-.25-.06-.52-.1-.76a23.42,23.42,0,0,0-1.89-6A29,29,0,0,0,472.93,63a32.44,32.44,0,0,1,2.36,4.7,24,24,0,0,1,1.54,6,25.55,25.55,0,0,1,.18,2.83q-1.69,5.44-3.73,11.36c-.12-.58-.26-1.15-.4-1.71A82,82,0,0,0,468,73.11c-2.23-4.83-4.37-9.15-6.19-13.08,0-.2,0-.41,0-.61a12.61,12.61,0,0,1,.11-2.15,14.61,14.61,0,0,1,.85-3.4,5.78,5.78,0,0,1,1.61-2.52,5.57,5.57,0,0,0-1.87,2.35,14.06,14.06,0,0,0-1.18,3.41c-.09.41-.15.86-.2,1.32-.84-1.85-1.6-3.61-2.25-5.29a47.67,47.67,0,0,1-3.47-13.35,26.47,26.47,0,0,1,0-4.86,25,25,0,0,0-.42,4.77,46,46,0,0,0,2.4,13.59,36.94,36.94,0,0,1-4.18-2.16,10.35,10.35,0,0,1-1.84-1.41,7.63,7.63,0,0,0,.65.75,3.37,3.37,0,0,0-1-.12,5.25,5.25,0,0,0-1.12.15,5.7,5.7,0,0,0-.91.3,5.3,5.3,0,0,1,2-.64,3.81,3.81,0,0,1,.57,0,12,12,0,0,1-1.12-1,.46.46,0,0,1-.1-.09,2.24,2.24,0,0,0-1.48-.32c-.45,0-.69.1-.69.09a7,7,0,0,1,.68-.19,2.66,2.66,0,0,1,.84-.06l.26,0-.27-.32a9.71,9.71,0,0,1-1.24-2c-.23-.49-.31-.75-.31-.75s.11.26.38.73a10.28,10.28,0,0,0,1.39,1.89l.07.07c0-.1-.05-.2-.08-.29a3.34,3.34,0,0,1-.07-1,1.44,1.44,0,0,1,.25-.76A1.48,1.48,0,0,0,450,47a3.59,3.59,0,0,0,.17.91,4.09,4.09,0,0,0,.34.78A12,12,0,0,0,452,49.94a3,3,0,0,1-.19-.8,5.44,5.44,0,0,1,.07-1.39c.13-.74.25-1.14.25-1.14s-.08.42-.15,1.17a5.56,5.56,0,0,0,0,1.35,2.73,2.73,0,0,0,.42,1.08l.39.23.69.37a2.39,2.39,0,0,0,.86-3.94c-1-1.2-4.81-.66-7.12-2.55.79,3.18.13,5.8,1.73,7.64s3.55.93,3.92-.62l0,0a31.72,31.72,0,0,0,4.74,3c.92,2.87,2.11,6,3.46,9.35l-.35-.26a16.07,16.07,0,0,0-3.4-1.82,7.76,7.76,0,0,0-3.2-.68,8.08,8.08,0,0,1,3,.95,16.78,16.78,0,0,1,3.16,2,11.16,11.16,0,0,1,1.36,1.32c1.1,2.73,2.29,5.61,3.5,8.67a85,85,0,0,1,4.12,12.87,20.46,20.46,0,0,1-.05,9.33l-6.24,20.63q-1.21,3.51-2.44,7.16a29.46,29.46,0,0,0-1.23-8.44,18,18,0,0,0-1.48-3.43,11.81,11.81,0,0,1,.83,2.51,38.48,38.48,0,0,1,1.08,11.78c-1.94,5.9-3.83,12.1-5.48,18.64a147.25,147.25,0,0,0-9.7-32.15c-.22-.51-.44-1-.66-1.51q0-2.59.1-4.94a14.65,14.65,0,0,1,1.56-3.68,16.73,16.73,0,0,1,3.11-3.79A11.59,11.59,0,0,1,452,96.73l-.41.25a3.09,3.09,0,0,1,.81.14,5.48,5.48,0,0,1,1.25.6c.63.41,1,.67,1,.67s-.36-.23-1-.59a5.56,5.56,0,0,0-1.26-.5,2.75,2.75,0,0,0-1.16,0l-.37.27-.61.5a2.39,2.39,0,0,0,3.3,2.32c1.51-.5,2.47-4.18,5.1-5.58-3.23-.5-5.4-2.12-7.71-1.35s-2.23,3.14-.75,4l.42-.3.51-.33a3.28,3.28,0,0,0,.52-.89,5.31,5.31,0,0,0,.29-1.09,5.68,5.68,0,0,0,.08-1,5.3,5.3,0,0,1-.19,2.12,3.83,3.83,0,0,1-.22.53,11.62,11.62,0,0,1,1.35-.65.42.42,0,0,1,.12-.06,2.24,2.24,0,0,0,.87-1.24c.13-.43.18-.67.18-.67s0,.25-.09.7a2.66,2.66,0,0,1-.27.8l-.14.22.4-.12a9.64,9.64,0,0,1,2.32-.37c.54,0,.81,0,.81,0s-.29,0-.82.07a10.25,10.25,0,0,0-2.28.55l-.1,0,.29,0a3.34,3.34,0,0,1,.91.3,1.42,1.42,0,0,1,.61.52,1.48,1.48,0,0,0-.66-.44,3.58,3.58,0,0,0-.9-.2,4,4,0,0,0-.85,0,12.28,12.28,0,0,0-1.19.63,10.88,10.88,0,0,0-3.46,1.94,16.5,16.5,0,0,0-3.43,3.69c-.26.39-.52.81-.76,1.26a14.37,14.37,0,0,0,0-1.59c.09-.85.19-1.67.3-2.45A42.92,42.92,0,0,1,448.14,87,40.84,40.84,0,0,0,444,99.18l0,.1c0-.15-.06-.32-.1-.47a22.06,22.06,0,0,0-1.57-4.16,23.42,23.42,0,0,0-1.93-3.25A27.08,27.08,0,0,1,442,94.73a23.24,23.24,0,0,1,1.28,4.16,17.81,17.81,0,0,1,.32,2.56c-.3,1.91-.54,4-.71,6.27-.05.27-.09.54-.13.82-4-9-8.28-17-12.13-24.28l-1.29-2.43A97.32,97.32,0,0,1,432,71.4l.84-2.79a10.91,10.91,0,0,1,2.7-4.22A6.57,6.57,0,0,1,438,63a6.25,6.25,0,0,0-2.56,1.14,8.22,8.22,0,0,0-1.71,1.69c.77-2.65,1.41-5.08,1.85-7.24a38,38,0,0,0,.89-11.34,39.83,39.83,0,0,1-1.56,11c-.9,3.49-2.39,7.65-4.13,12.54l-.16.46c0-.19,0-.4-.08-.58a33,33,0,0,0-.93-4.15,12,12,0,0,0-1.36-3.36,12.61,12.61,0,0,1,1,3.38,36.61,36.61,0,0,1,.64,4.14c.07.7.11,1.46.11,2.24-.68,2-1.37,4.15-2,6.43C424.68,73,421.67,67.2,419.24,62a116.85,116.85,0,0,1-6.6-17,65.72,65.72,0,0,1-2.25-11.07c-.28-2.55-.29-3.87-.3-3.87s-.13,1.27-.15,3.79a63.77,63.77,0,0,0,1,11.18,111.5,111.5,0,0,0,4.81,17.73c.51,1.47,1.07,3,1.65,4.53l-1.8-1.56q-1.86-1.62-3.48-3.09c-2.15-2-4-3.7-5.36-5.2-.66-.7-1.22-1.34-1.7-1.92A3.51,3.51,0,0,0,409,51c-.45-2.3-5.64-4.37-7.21-8.46-1.33,4.63-4.08,7.48-3.39,11s4.17,3.83,5.68,1.82l-.36-.67c-.14-.27-.27-.54-.39-.8a4.76,4.76,0,0,0-1.2-.91,7.75,7.75,0,0,0-1.53-.63,8.38,8.38,0,0,0-1.38-.29,7.75,7.75,0,0,1,3.06.67,5.33,5.33,0,0,1,.73.41,17.65,17.65,0,0,1-.69-2.08.69.69,0,0,1-.07-.19,3.3,3.3,0,0,0-1.65-1.49c-.6-.27-.95-.38-.94-.39s.37.06,1,.26a3.86,3.86,0,0,1,1.12.55,2.79,2.79,0,0,1,.3.25c0-.21-.08-.41-.11-.61a14.43,14.43,0,0,1-.11-3.45c.07-.78.16-1.18.15-1.18s0,.42-.05,1.22a15.08,15.08,0,0,0,.39,3.42c0,.05,0,.1,0,.15,0-.15.08-.29.12-.42a4.92,4.92,0,0,1,.61-1.28,2.1,2.1,0,0,1,.88-.79,2.19,2.19,0,0,0-.76.88,5.14,5.14,0,0,0-.45,1.28,5.62,5.62,0,0,0-.14,1.23,17.68,17.68,0,0,0,1.07,2.69A4.43,4.43,0,0,1,404,52a7.9,7.9,0,0,1,1.11-1.72c.71-.85,1.15-1.26,1.15-1.27s-.4.48-1,1.38a8.17,8.17,0,0,0-1,1.75,4,4,0,0,0-.26,1.68l.33.58c.08.14.18.28.27.42-.33-.43-.63-.83-.84-1.18a5.78,5.78,0,0,1-.72-1.49,5.59,5.59,0,0,0,.61,1.51,24.49,24.49,0,0,0,2.76,3.81c1.32,1.57,3,3.4,5.13,5.46l.77.75-.43-.13a18.86,18.86,0,0,0-3.33-.57l-1.82-.13c1-1.33.16-3.49-2.14-3.4s-3.9,2.36-6.75,4c3,.39,5.14,3.51,6.73,3.45a2.39,2.39,0,0,0,2.29-3.33l-.74-.25-.44-.13a2.74,2.74,0,0,0-1.07.43,5.58,5.58,0,0,0-1,.91c-.5.57-.75.91-.75.91s.21-.35.66-1a5.47,5.47,0,0,1,1-1,3.07,3.07,0,0,1,.71-.41,12.08,12.08,0,0,0-1.94-.29,4,4,0,0,0-.8.29,3.58,3.58,0,0,0-.78.5,1.48,1.48,0,0,0-.47.64,1.43,1.43,0,0,1,.39-.7,3.37,3.37,0,0,1,.75-.6l.26-.14h-.1a10.21,10.21,0,0,0-2.33.28c-.53.13-.8.23-.8.23s.25-.12.76-.29a9.64,9.64,0,0,1,2.3-.47l.42,0-.21-.16a2.67,2.67,0,0,1-.54-.65,6.72,6.72,0,0,1-.33-.63s.13.21.4.56a2.24,2.24,0,0,0,1.25.86.44.44,0,0,1,.13,0,11.88,11.88,0,0,1,1.49.13,3.79,3.79,0,0,1-.39-.42,4.88,4.88,0,0,1-.6-1,4.94,4.94,0,0,1-.33-.93,5.77,5.77,0,0,0,.41.87,5.23,5.23,0,0,0,.65.92,3.31,3.31,0,0,0,.79.65l.59.13.1,0-1.43-.07,3.61.53a21,21,0,0,1,3.19.83,8.54,8.54,0,0,1,3.78,2.54h0l1.4,1.3,1,.91.36.34c1.88,4.84,4,9.76,6.33,15.36.15.34-5.37-6.5-10.37-7.79,4.31,1.48,11.59,10.75,11.78,11.2,2.29,5.43,4.42,10.47,6.79,16.65a37.76,37.76,0,0,0-5.76-3.18c-.6-.26-1.2-.5-1.8-.73a12.16,12.16,0,0,0-1.27-3.6,19,19,0,0,0-2.1-3.11,21.17,21.17,0,0,0-2.2-2.31,25.58,25.58,0,0,1,1.92,2.46,20.44,20.44,0,0,1,1.81,3.18,12.65,12.65,0,0,1,.95,3.08c-.48-.16-1-.33-1.43-.47-.68-.19-1.44-.38-2.06-.52L418.88,99a104.89,104.89,0,0,1-13.63-4,60.23,60.23,0,0,1-6.51-2.94,24.45,24.45,0,0,1-3.21-5.36,13.17,13.17,0,0,1-.95-3.22,12,12,0,0,0,.64,3.28,21.87,21.87,0,0,0,2.15,4.57c-1-.54-1.89-1.08-2.76-1.65a60.94,60.94,0,0,1-12.55-11c-2.56-2.9-3.77-4.56-3.78-4.55s1,1.72,3.21,4.83A60.28,60.28,0,0,0,392,90.37a20,20,0,0,0-3.34-.24,13.17,13.17,0,0,0-2.93.32,14.84,14.84,0,0,1,2.88,0,21.72,21.72,0,0,1,3.34.53c.38.1.78.21,1.2.34a57.34,57.34,0,0,0,10.47,6.44l.91.41c-2,.26-3.92.6-5.69,1-4.12.86-7.59,1.86-10.42,2.7-5.65,1.73-8.76,2.8-8.76,2.79l8.81-2c2.85-.64,6.35-1.4,10.47-2,1.32-.2,2.72-.37,4.17-.52-.72.34-1.41.7-2,1.08a23.69,23.69,0,0,0-4.37,3.37c-.33.32-.61.63-.87.92-.5-1.42-2.69-1.62-3.83.36s-.17,4.24-.39,7.29c1.86-2.32,5.46-2.87,6.25-4.23,1.06-1.84-.12-3.26-1.44-3.28l-.59.52-.33.31a2.66,2.66,0,0,0-.22,1.08,4.76,4.76,0,0,0,.19,1.22c.19.65.33,1,.33,1s-.17-.32-.41-.95a4.6,4.6,0,0,1-.29-1.22,2.89,2.89,0,0,1,0-.77,13.63,13.63,0,0,0-1.25,1.51,4,4,0,0,0-.19.79,3.29,3.29,0,0,0,0,.86,1.19,1.19,0,0,0,.26.65,1.12,1.12,0,0,1-.35-.61,2.92,2.92,0,0,1-.09-.88c0-.09,0-.18,0-.28l-.06.09a10.87,10.87,0,0,0-1,2.07c-.17.49-.24.76-.24.76s0-.26.17-.75a10.05,10.05,0,0,1,.84-2.12l.2-.36-.23.11a2.76,2.76,0,0,1-.8.18,6.57,6.57,0,0,1-.67,0s.23,0,.66-.11a2.47,2.47,0,0,0,1.33-.69.49.49,0,0,1,.08-.11,13.12,13.12,0,0,1,.88-1.19,3.88,3.88,0,0,1-.54.15,4.75,4.75,0,0,1-1.1.09,4.41,4.41,0,0,1-.91-.11,5.22,5.22,0,0,0,.9,0,5.31,5.31,0,0,0,1.07-.17,3.61,3.61,0,0,0,.93-.4l.41-.44.07-.07a11.83,11.83,0,0,0-1.66,2.52,13.21,13.21,0,0,1,3-3.49,24.31,24.31,0,0,1,4.44-3.08,22.87,22.87,0,0,1,3.08-1.4c.49-.17,1-.33,1.53-.47.72,0,1.45-.08,2.2-.09q4.37,1.77,9.3,3.3c1.23.39,2.62.77,3.73,1.15a28.17,28.17,0,0,1,3.49,1.49,34,34,0,0,1,12.23,10.57c.27.82.52,1.66.78,2.49l-.5-.27a18.67,18.67,0,0,0-4.76-1.64,9.38,9.38,0,0,0-4.27-.07,9.61,9.61,0,0,1,4.13.36,19.18,19.18,0,0,1,4.54,1.85c.38.22.77.46,1.15.72a148.79,148.79,0,0,1,4.24,17.24,26.45,26.45,0,0,0-3.58-2.5,28.43,28.43,0,0,0-5-2.29c-1.19-.41-1.83-.56-1.83-.57a30.59,30.59,0,0,1,6.34,3.4,26.22,26.22,0,0,1,4.39,3.85c.6,3.65,1.07,7.38,1.32,11.21.21,3.21.28,6.39.21,9.77,0,2.75,0,5.53,0,8.31-.75-1.22-1.53-2.41-2.33-3.55a82.3,82.3,0,0,0-21.74-21,52.79,52.79,0,0,1-4.6-7,36.09,36.09,0,0,1-3.09-7.67,34.25,34.25,0,0,1-1.14-7.06,30.46,30.46,0,0,0,.4,7.11,34.6,34.6,0,0,0,2.5,8.12,43.37,43.37,0,0,0,2.11,4.1,75.47,75.47,0,0,0-16.16-7.38,31.58,31.58,0,0,0-6.89-1.46,33,33,0,0,1,6.45,2.18,79.93,79.93,0,0,1,16.7,10.09,90.39,90.39,0,0,1,10.52,9.55,24.67,24.67,0,0,0-3.56-1.2,29.79,29.79,0,0,0-10.68-.67,37.14,37.14,0,0,0-6.6,1.37c-1.47.45-2.23.75-2.23.74s.76-.21,2.23-.53a39.79,39.79,0,0,1,6.52-.84,30,30,0,0,1,10.23,1.25,24.66,24.66,0,0,1,7.67,4,77.59,77.59,0,0,1,5.83,8.15,17.58,17.58,0,0,0-3.71-.76,33.17,33.17,0,0,0-4.76-.09,38.87,38.87,0,0,1,4.64.44,16.68,16.68,0,0,1,4.41,1.34A65.08,65.08,0,0,1,444,184.56c0,.19.09.39.14.58,0,2.52,0,5,0,7.58,0,7.56-.16,15.31-.71,23.09-.28,3.88-.67,7.78-1.27,11.57s-2.22,13.15-9.56,16.09h42.21c-10-9.74-12.87-31.14-12.63-43.54a95.36,95.36,0,0,1,3.3-23.38c1.59-2.61,3.19-5.07,4.89-7.33.49-.65,1-1.27,1.48-1.89a20.22,20.22,0,0,1,5.1-1.75,13.92,13.92,0,0,1,7.81.55,10.47,10.47,0,0,1,4.12,2.95,12.09,12.09,0,0,1,1.08,1.47A11.18,11.18,0,0,0,489,169a10.59,10.59,0,0,0-3.9-3.47,14.44,14.44,0,0,0-8.3-1.35,20,20,0,0,0-2.76.51,50.32,50.32,0,0,1,4.31-4.25c.29-.26.59-.48.88-.72h.15c1.93-.12,3.63,0,5-.06.54,0,1,0,1.46-.06,0,0,.06.09.1.13l.4-.17a9.54,9.54,0,0,0,1.24-.2,5.24,5.24,0,0,0,1.06-.36,5.38,5.38,0,0,1-1.06.27c-.2,0-.43.06-.69.08l.09,0a3.3,3.3,0,0,0,.69-.76,5.21,5.21,0,0,0,.52-1,5.45,5.45,0,0,0,.28-.92,5.29,5.29,0,0,1-.64,2,4,4,0,0,1-.32.47,11.73,11.73,0,0,1,1.45-.34.44.44,0,0,1,.13,0,2.24,2.24,0,0,0,1.11-1c.22-.39.32-.62.32-.61a7,7,0,0,1-.24.67,2.66,2.66,0,0,1-.44.72l-.19.19.42,0a9.64,9.64,0,0,1,2.35.14c.53.09.79.18.79.18s-.28-.06-.82-.11a10.23,10.23,0,0,0-2.34.05l-.1,0,.28.1a3.35,3.35,0,0,1,.83.49,1.42,1.42,0,0,1,.48.64,1.48,1.48,0,0,0-.55-.57,3.57,3.57,0,0,0-.84-.39,4,4,0,0,0-.83-.17,12.06,12.06,0,0,0-1.88.56,3,3,0,0,1,.77.31,5.5,5.5,0,0,1,1.09.86c.53.54.78.86.79.86s-.3-.3-.87-.79a5.57,5.57,0,0,0-1.12-.76,2.73,2.73,0,0,0-1.13-.28l-.41.19-.7.35a2.39,2.39,0,0,0,2.73,3c1.59-.17,3.3-3.56,6.18-4.36-3.05-1.18-4.82-3.22-7.24-3a2.19,2.19,0,0,0-1.86,3.4c-.38,0-.77,0-1.22,0-1.24-.05-2.75-.21-4.5-.23a37.16,37.16,0,0,1,15.3-7.3,42.06,42.06,0,0,1,12.44-.67C510.64,151.39,512.16,151.71,512.16,151.69Zm-.76-39.29a5.34,5.34,0,0,0,.35-1.07,5.7,5.7,0,0,0,.13-1,4.86,4.86,0,0,1,0,1,5,5,0,0,1-.28,1.13,3.92,3.92,0,0,1-.25.52,11.76,11.76,0,0,1,1.38-.57.43.43,0,0,1,.12-.06,2.24,2.24,0,0,0,.94-1.19c.16-.42.22-.66.22-.66a6.55,6.55,0,0,1-.13.7,2.65,2.65,0,0,1-.32.78l-.15.21.41-.1a9.66,9.66,0,0,1,2.34-.24c.54,0,.81.05.81,0s-.29,0-.83,0a10.22,10.22,0,0,0-2.31.42l-.1,0,.29.06a3.35,3.35,0,0,1,.89.36,1.43,1.43,0,0,1,.58.56,1.48,1.48,0,0,0-.63-.48,3.6,3.6,0,0,0-.89-.25,4,4,0,0,0-.85,0c-.22.08-.45.19-.68.29a7,7,0,0,0-1.57.3A3.4,3.4,0,0,0,511.4,112.4Zm-32-68a5.52,5.52,0,0,0-1.23-.57c-.71-.24-1.13-.33-1.13-.34s.41.06,1.14.24a5.47,5.47,0,0,1,1.3.5,3,3,0,0,1,.52.38l.21.62A2.74,2.74,0,0,0,479.37,44.4Zm-36.51,64.22h0s0,0,0,0Z"/><path class="cls-1" d="M537.05,82.43c-5.26.92-6.06,6.33-3,8.74l1-.53c.43-.21.84-.4,1.26-.57a7.51,7.51,0,0,0,1.45-1.83,12.24,12.24,0,0,0,1-2.35,13.73,13.73,0,0,0,.49-2.13,12.07,12.07,0,0,1-1.13,4.72,8.72,8.72,0,0,1-.66,1.12,27.16,27.16,0,0,1,3.24-1,1,1,0,0,1,.29-.1,5.11,5.11,0,0,0,2.37-2.5c.43-.92.62-1.45.63-1.45a15,15,0,0,1-.43,1.56,6,6,0,0,1-.88,1.71,4.7,4.7,0,0,1-.39.45l1-.15a22.25,22.25,0,0,1,5.35-.07c1.21.13,1.82.28,1.83.27s-.65-.09-1.88-.12a23.26,23.26,0,0,0-5.31.49l-.23.06.65.19a7.66,7.66,0,0,1,2,1,3.18,3.18,0,0,1,1.19,1.38,3.33,3.33,0,0,0-1.34-1.2,8.13,8.13,0,0,0-2-.74,9,9,0,0,0-1.91-.26,27.54,27.54,0,0,0-4.19,1.58,7,7,0,0,1,1.79.58A12.45,12.45,0,0,1,541.85,93c1.29,1.13,1.92,1.82,1.93,1.82s-.73-.63-2.1-1.66A12.64,12.64,0,0,0,539,91.66a6.22,6.22,0,0,0-2.6-.46l-.91.49c-.5.28-1,.59-1.52.92-.71,3.11,1.85,7.15,6.68,6.3,3.58-.63,6.93-8.6,13.33-10.9C546.86,85.82,542.52,81.47,537.05,82.43Z"/><path class="cls-1" d="M474.42,63.42a5.24,5.24,0,0,0,.06,1.57c.15.26.3.53.44.81s.23.47.34.71c2.51,0,4.14-3.26,1.75-5.89s-6.4-2.16-11-3.87c2.47,3.81,1.2,9.44,2.82,11.22,2.2,2.41,5.07,1.29,5.87-.66-.14-.38-.29-.75-.45-1.11l-.29-.63a4.09,4.09,0,0,0-1.53-.81,7.93,7.93,0,0,0-2-.26c-1.11,0-1.73,0-1.73,0s.59-.1,1.7-.19a7.72,7.72,0,0,1,2,.12,4.53,4.53,0,0,1,1.15.41,19.11,19.11,0,0,0-1.59-2.54A5.91,5.91,0,0,0,471,61.7a5.05,5.05,0,0,0-1.31-.4,2.07,2.07,0,0,0-1.16.1,2,2,0,0,1,1.15-.25,4.76,4.76,0,0,1,1.39.27l.41.16-.1-.12A15.61,15.61,0,0,0,468.81,59c-.66-.48-1-.7-1-.7s.38.17,1.06.59a14.83,14.83,0,0,1,2.76,2.2l.44.46a3.36,3.36,0,0,1,0-.4,4.12,4.12,0,0,1,.19-1.27c.21-.66.37-1,.37-1s-.1.36-.22,1a3.58,3.58,0,0,0,.28,2.3.66.66,0,0,1,.12.17,19.38,19.38,0,0,1,1.31,1.85,5.76,5.76,0,0,1,.08-.86,7.81,7.81,0,0,1,.5-1.68,7.52,7.52,0,0,1,.7-1.3,8.88,8.88,0,0,0-.55,1.34A8.32,8.32,0,0,0,474.42,63.42Z"/><path class="cls-1" d="M429.55,137.28a3.65,3.65,0,0,0,4.36-4.37c-.35-.21-.7-.41-1-.59l-.62-.31a4.16,4.16,0,0,0-1.74.36,8.42,8.42,0,0,0-1.76,1.09c-.9.71-1.38,1.16-1.38,1.15s.41-.47,1.26-1.26a8.3,8.3,0,0,1,1.73-1.24,4.64,4.64,0,0,1,1.19-.42,18.58,18.58,0,0,0-2.85-1,6,6,0,0,0-1.28.21,5.44,5.44,0,0,0-1.31.54,2.29,2.29,0,0,0-.88.84,2.17,2.17,0,0,1,.78-1,5.1,5.1,0,0,1,1.3-.7l.43-.14-.16,0a15.44,15.44,0,0,0-3.58-.23c-.83,0-1.26.12-1.26.11s.41-.11,1.22-.22a15,15,0,0,1,3.59-.06l.64.08a3.1,3.1,0,0,1-.27-.3,4.07,4.07,0,0,1-.63-1.13c-.24-.66-.31-1-.32-1s.14.35.45,1a3.43,3.43,0,0,0,1.64,1.63.65.65,0,0,1,.2.06,18.18,18.18,0,0,1,2.2.61,5.68,5.68,0,0,1-.47-.74,8.1,8.1,0,0,1-.85-3.15,9,9,0,0,0,.37,1.42,8,8,0,0,0,.73,1.56,5,5,0,0,0,1,1.2l.86.36.71.34c2-1.68,1.37-5.3-2.19-5.81s-6.52,2.47-11.26,4.08C424.73,131.64,427.14,136.93,429.55,137.28Z"/><path class="cls-1" d="M411.32,82.39A3.65,3.65,0,0,0,415.69,78c-.35-.21-.7-.41-1-.59l-.62-.31a4.16,4.16,0,0,0-1.74.36,8.42,8.42,0,0,0-1.76,1.09c-.9.71-1.38,1.16-1.38,1.15s.41-.47,1.26-1.26a8.3,8.3,0,0,1,1.73-1.24,4.64,4.64,0,0,1,1.19-.42,18.58,18.58,0,0,0-2.85-1,6,6,0,0,0-1.28.21,5.44,5.44,0,0,0-1.31.54,2.29,2.29,0,0,0-.88.84,2.17,2.17,0,0,1,.78-1,5.1,5.1,0,0,1,1.3-.7l.43-.14-.16,0a15.44,15.44,0,0,0-3.58-.23c-.83,0-1.26.12-1.26.11s.41-.11,1.22-.22a14.94,14.94,0,0,1,3.59-.06l.64.08a3.1,3.1,0,0,1-.27-.3,4.08,4.08,0,0,1-.63-1.13c-.24-.66-.31-1-.32-1s.14.35.45,1a3.43,3.43,0,0,0,1.64,1.63.65.65,0,0,1,.2.06,18.16,18.16,0,0,1,2.2.61,5.68,5.68,0,0,1-.47-.74,8.1,8.1,0,0,1-.85-3.15,9,9,0,0,0,.37,1.42,8,8,0,0,0,.73,1.56,5,5,0,0,0,1,1.2l.86.36.71.34c2-1.68,1.37-5.3-2.19-5.81s-6.52,2.47-11.26,4.09C406.5,76.75,408.91,82,411.32,82.39Z"/><path class="cls-1" d="M524.48,113.19c-4.82-1.83-8.15,2.26-6.8,5.77l1.13.08q.68.06,1.32.15a7.23,7.23,0,0,0,2.11-.8,11.73,11.73,0,0,0,2-1.45,12.39,12.39,0,0,0,1.46-1.52,10.62,10.62,0,0,1-1.33,1.7,10.74,10.74,0,0,1-1.94,1.65,8.32,8.32,0,0,1-1.1.6,26.34,26.34,0,0,1,3.19.76,1,1,0,0,1,.29.06,4.93,4.93,0,0,0,3.19-.91c.81-.55,1.23-.9,1.23-.89a14.51,14.51,0,0,1-1.12,1.08,5.83,5.83,0,0,1-1.58,1,4.85,4.85,0,0,1-.55.18l.86.35a21.35,21.35,0,0,1,4.47,2.58c.94.71,1.37,1.13,1.38,1.13s-.49-.39-1.5-1a22.47,22.47,0,0,0-4.65-2.21l-.22-.07.44.48a7.31,7.31,0,0,1,1.13,1.78,3.12,3.12,0,0,1,.31,1.74,3.23,3.23,0,0,0-.52-1.66,7.72,7.72,0,0,0-1.27-1.59A8.66,8.66,0,0,0,525,121a26.54,26.54,0,0,0-4.25-.76,6.76,6.76,0,0,1,1.2,1.36,12.18,12.18,0,0,1,1.3,2.76c.51,1.58.69,2.46.71,2.46s-.29-.89-.93-2.41a12.24,12.24,0,0,0-1.45-2.59,6,6,0,0,0-1.93-1.66l-1,0c-.56,0-1.13,0-1.72,0-2.13,2.22-2,6.84,2.43,8.52,3.27,1.24,10-3.71,16.42-2.46C530.93,120.84,529.48,115.09,524.48,113.19Z"/><path class="cls-1" d="M428.49,165.71l-1.19.1-.69.1a4.23,4.23,0,0,0-1.23,1.28,8.42,8.42,0,0,0-.84,1.89c-.34,1.1-.48,1.74-.49,1.73s.08-.62.33-1.75a8.27,8.27,0,0,1,.72-2,4.66,4.66,0,0,1,.74-1,18.54,18.54,0,0,0-2.9.8,6.08,6.08,0,0,0-.93.9,5.33,5.33,0,0,0-.78,1.18,2.25,2.25,0,0,0-.25,1.19,2.16,2.16,0,0,1,.1-1.22,5.11,5.11,0,0,1,.67-1.31l.28-.36-.15.06a15.41,15.41,0,0,0-3.08,1.84c-.66.5-1,.81-1,.81a12.09,12.09,0,0,1,.88-.87,15,15,0,0,1,2.93-2.08l.57-.3a3,3,0,0,1-.39-.09,4,4,0,0,1-1.16-.58c-.57-.41-.85-.68-.85-.68s.32.21.92.54a3.43,3.43,0,0,0,2.27.42.65.65,0,0,1,.2-.06,18.55,18.55,0,0,1,2.16-.74,5.79,5.79,0,0,1-.8-.34,7.74,7.74,0,0,1-1.45-1,7.49,7.49,0,0,1-1-1.1,9.14,9.14,0,0,0,1.11,1,8.07,8.07,0,0,0,1.48.87,5,5,0,0,0,1.51.42l.91-.19.78-.12c.71-2.52-1.87-5.14-5.09-3.56s-4,5.72-7,9.73c4.38-1.29,9.36,1.71,11.55.64A3.65,3.65,0,0,0,428.49,165.71Z"/><path class="cls-1" d="M481.15,117.85a4.2,4.2,0,0,0-1,1.49c0,.23,0,.46.07.69s.1.78.17,1.18a3.67,3.67,0,0,0,5.65-2.5c.54-2.37-3.52-6.51-3.27-11.05-3.22,3.83-7,5.39-7.88,9s2.34,5.38,4.64,4.12c0-.27,0-.53-.06-.79s0-.62,0-.92a4.92,4.92,0,0,0-.75-1.37,8,8,0,0,0-1.19-1.23,9.1,9.1,0,0,0-1.19-.85,8,8,0,0,1,2.63,1.92,5.88,5.88,0,0,1,.52.7,18.45,18.45,0,0,1,.22-2.27.66.66,0,0,1,0-.2,3.41,3.41,0,0,0-.93-2.11c-.45-.51-.74-.76-.73-.76s.32.21.85.67a4,4,0,0,1,.83,1,3,3,0,0,1,.18.36c0-.21.1-.42.16-.62a15,15,0,0,1,1.36-3.32,12.22,12.22,0,0,1,.65-1.06s-.22.38-.56,1.13a15.55,15.55,0,0,0-1.08,3.41l0,.16.29-.35a5.22,5.22,0,0,1,1.12-1,2.19,2.19,0,0,1,1.17-.38,2.29,2.29,0,0,0-1.09.52,5.44,5.44,0,0,0-1,1,6.11,6.11,0,0,0-.66,1.11,18.49,18.49,0,0,0-.12,3,4.53,4.53,0,0,1,.83-1,8.27,8.27,0,0,1,1.78-1.16c1-.51,1.63-.72,1.63-.73s-.58.29-1.58.87A8.37,8.37,0,0,0,481.15,117.85Z"/><path class="cls-1" d="M412.26,121.61a4.17,4.17,0,0,0-.91,1.52c0,.23.05.46.09.69.05.38.13.78.21,1.18a3.65,3.65,0,0,0,5.56-2.67c.47-2.39-3.72-6.42-3.62-11-3.09,3.94-6.87,5.61-7.58,9.27s2.51,5.33,4.76,4c0-.26-.06-.53-.08-.78s0-.63-.06-.93a5,5,0,0,0-.8-1.35,8.2,8.2,0,0,0-1.23-1.2,8.52,8.52,0,0,0-1.22-.82,7.32,7.32,0,0,1,1.33.71,7.57,7.57,0,0,1,1.36,1.13,5.85,5.85,0,0,1,.54.69,18.14,18.14,0,0,1,.15-2.28.62.62,0,0,1,0-.2,3.43,3.43,0,0,0-1-2.09c-.47-.49-.76-.74-.76-.75a10,10,0,0,1,.88.65,4,4,0,0,1,.86,1,3,3,0,0,1,.19.35c0-.22.09-.43.14-.63a15.08,15.08,0,0,1,1.25-3.37c.38-.73.62-1.08.61-1.08s-.21.38-.53,1.15a15.5,15.5,0,0,0-1,3.45l0,.16.28-.36a5.1,5.1,0,0,1,1.09-1,2.14,2.14,0,0,1,1.15-.42,2.23,2.23,0,0,0-1.08.55,5.49,5.49,0,0,0-.94,1.06,6,6,0,0,0-.62,1.13,18.69,18.69,0,0,0,0,3,4.63,4.63,0,0,1,.79-1,8.3,8.3,0,0,1,1.74-1.22c1-.54,1.61-.76,1.6-.77s-.57.3-1.55.92A8.46,8.46,0,0,0,412.26,121.61Z"/><path class="cls-1" d="M429.81,115.92a3.78,3.78,0,0,0,1,.53l.66,0,.55.06c.92-1.47-.39-3.58-2.88-3.15s-3.72,2.91-6.48,4.9c3.23,0,6.13,2.74,7.82,2.45,2.28-.39,2.7-2.46,1.83-3.63l-.84-.14-.49-.06a2.93,2.93,0,0,0-1.07.59,5.46,5.46,0,0,0-.9,1c-.42.63-.63,1-.63,1s.16-.38.53-1a5.3,5.3,0,0,1,.84-1.13,3.19,3.19,0,0,1,.69-.51,14.1,14.1,0,0,0-2.13,0,4.31,4.31,0,0,0-.8.4,3.64,3.64,0,0,0-.74.61,1.38,1.38,0,0,0-.38.7,1.32,1.32,0,0,1,.28-.75,3.32,3.32,0,0,1,.69-.71l.25-.18h-.11a11.56,11.56,0,0,0-2.43.61c-.54.2-.81.34-.81.34s.24-.15.76-.39a10.66,10.66,0,0,1,2.37-.79l.44-.09-.25-.13a3,3,0,0,1-.69-.57,7.21,7.21,0,0,1-.46-.58s.18.19.53.5a2.58,2.58,0,0,0,1.49.67.52.52,0,0,1,.14,0,13.72,13.72,0,0,1,1.61-.08,4.34,4.34,0,0,1-.49-.36,5.23,5.23,0,0,1-.82-.9,5,5,0,0,1-.52-.87,6.16,6.16,0,0,0,1.46,1.62Z"/><path class="cls-1" d="M420.08,91a3.16,3.16,0,0,0,.23,1l.4.45.32.4a2.24,2.24,0,0,0,.51-4.14c-2.06-1.34-4.72-.29-8.09-.61,2.17,2.05,2,5.93,3.31,6.81a2.6,2.6,0,0,0,4-1.46c-.15-.22-.29-.44-.45-.64l-.28-.36a2.78,2.78,0,0,0-1.16-.26,6,6,0,0,0-1.41.18c-.77.19-1.2.33-1.2.32s.4-.17,1.16-.42a6,6,0,0,1,1.43-.28,3.2,3.2,0,0,1,.85.07,11.52,11.52,0,0,0-1.41-1.38,4.1,4.1,0,0,0-.84-.22,3.8,3.8,0,0,0-1,0,1.64,1.64,0,0,0-.79.27,1.59,1.59,0,0,1,.77-.37,3.58,3.58,0,0,1,1-.07l.31,0-.08-.06a10,10,0,0,0-2.09-1.12c-.51-.2-.8-.27-.8-.28s.28,0,.81.2a9.53,9.53,0,0,1,2.19,1l.36.22a2.19,2.19,0,0,1-.07-.25,2.65,2.65,0,0,1,0-.86,7.1,7.1,0,0,1,.13-.72s0,.25,0,.71a2.14,2.14,0,0,0,.47,1.44.43.43,0,0,1,.1.09,11.19,11.19,0,0,1,1.14,1,3.83,3.83,0,0,1,0-.58,5.05,5.05,0,0,1,.15-1.18,5.27,5.27,0,0,1,.33-1,5.86,5.86,0,0,0-.22,1A5.42,5.42,0,0,0,420.08,91Z"/><path class="cls-1" d="M503.46,89.33c.38,3.36-2.08,6.72-1.61,8.44.63,2.34,2.73,2.52,3.8,1.48,0-.3,0-.6.05-.89s0-.35,0-.52a3,3,0,0,0-.7-1,5.42,5.42,0,0,0-1.14-.82c-.67-.37-1.07-.54-1.07-.54s.39.12,1.1.43a5.2,5.2,0,0,1,1.22.74,3.24,3.24,0,0,1,.58.66,15.27,15.27,0,0,0-.22-2.22,4.43,4.43,0,0,0-.48-.79,3.77,3.77,0,0,0-.68-.7,1.35,1.35,0,0,0-.74-.31,1.27,1.27,0,0,1,.78.21,3.34,3.34,0,0,1,.78.63l.21.24,0-.11a12.45,12.45,0,0,0-.87-2.47c-.26-.54-.43-.8-.42-.8a8.79,8.79,0,0,1,.47.74,11.44,11.44,0,0,1,1,2.38c0,.14.09.29.13.45a2.68,2.68,0,0,1,.1-.28,3,3,0,0,1,.49-.79,7.31,7.31,0,0,1,.52-.55s-.17.21-.44.62a2.82,2.82,0,0,0-.51,1.63.58.58,0,0,1,0,.15,15.06,15.06,0,0,1,.25,1.67,4.48,4.48,0,0,1,.31-.56,5.44,5.44,0,0,1,.81-1,4.92,4.92,0,0,1,.81-.64,5.91,5.91,0,0,0-.74.71,6.09,6.09,0,0,0-.72,1,4.09,4.09,0,0,0-.43,1.07c0,.22,0,.45,0,.69s0,.39,0,.59c1.56.79,3.51-.83,2.83-3.37S505.74,92,503.46,89.33Z"/><path class="cls-1" d="M440.91,90.48a3.54,3.54,0,0,0,0,1.08c.09.19.18.38.27.58l.2.5c1.72.11,3-2,1.45-3.94s-4.29-1.84-7.33-3.26c1.52,2.75.41,6.53,1.45,7.85a2.34,2.34,0,0,0,4.05-.13c-.08-.27-.17-.53-.26-.78l-.17-.45a2.86,2.86,0,0,0-1-.64,5.49,5.49,0,0,0-1.34-.29c-.76-.07-1.18-.07-1.18-.07s.41,0,1.17,0a5.34,5.34,0,0,1,1.39.19,3.11,3.11,0,0,1,.77.35,13.29,13.29,0,0,0-1-1.83,4.29,4.29,0,0,0-.72-.5,3.59,3.59,0,0,0-.88-.35,1.42,1.42,0,0,0-.8,0,1.34,1.34,0,0,1,.8-.11,3.33,3.33,0,0,1,.94.26l.28.13-.06-.09a11.06,11.06,0,0,0-1.67-1.8c-.43-.37-.67-.53-.67-.53s.25.14.7.46a10.38,10.38,0,0,1,1.8,1.66l.28.34a2,2,0,0,1,0-.28,2.81,2.81,0,0,1,.18-.86c.17-.44.3-.67.29-.67s-.08.24-.19.69a2.46,2.46,0,0,0,.1,1.59.49.49,0,0,1,.07.12,12.72,12.72,0,0,1,.82,1.34,4.36,4.36,0,0,1,.09-.59,5.43,5.43,0,0,1,.95-2,5.69,5.69,0,0,0-.43.89A5.55,5.55,0,0,0,440.91,90.48Z"/><path class="cls-1" d="M426.82,60.81a3.36,3.36,0,0,0-.78-.4,1.25,1.25,0,0,0-.73-.06,1.19,1.19,0,0,1,.74,0,3,3,0,0,1,.85.32l.24.15-.05-.09a10.76,10.76,0,0,0-1.41-1.83c-.37-.38-.58-.56-.58-.56s.22.15.61.5a9.83,9.83,0,0,1,1.54,1.72l.24.34a2.44,2.44,0,0,1,0-.26,2.7,2.7,0,0,1,.23-.8,6.56,6.56,0,0,1,.31-.6s-.09.22-.22.64a2.38,2.38,0,0,0,0,1.5.5.5,0,0,1,.05.12,12.92,12.92,0,0,1,.66,1.33,3.9,3.9,0,0,1,.12-.55,4.84,4.84,0,0,1,.46-1,4.47,4.47,0,0,1,.54-.76,5.63,5.63,0,0,0-.82,1.83,3.41,3.41,0,0,0-.09,1c.07.18.14.37.2.57s.1.32.15.49c1.57.24,2.86-1.64,1.59-3.59s-3.81-2.08-6.5-3.67c1.21,2.72-.05,6.18.81,7.5,1.17,1.79,3.05,1.38,3.72.21-.06-.26-.12-.51-.19-.76s-.08-.29-.13-.44a2.71,2.71,0,0,0-.88-.69,5,5,0,0,0-1.21-.38c-.69-.13-1.08-.16-1.08-.17s.38,0,1.07.06a4.84,4.84,0,0,1,1.26.3,2.94,2.94,0,0,1,.68.39,13.18,13.18,0,0,0-.77-1.8A3.94,3.94,0,0,0,426.82,60.81Z"/><path class="cls-1" d="M437.4,59.51c-2.27.58-2.44,3-1,3.93l.44-.27.53-.29a3.3,3.3,0,0,0,.57-.85A5.27,5.27,0,0,0,438.3,61a5.72,5.72,0,0,0,.14-.95,5,5,0,0,1,0,1,4.86,4.86,0,0,1-.29,1.12,3.72,3.72,0,0,1-.25.51,11.9,11.9,0,0,1,1.39-.55.46.46,0,0,1,.12-.05,2.25,2.25,0,0,0,1-1.18c.16-.42.22-.66.22-.66a6.79,6.79,0,0,1-.13.7,2.67,2.67,0,0,1-.33.78l-.16.21.41-.1a9.66,9.66,0,0,1,2.34-.21,7.94,7.94,0,0,1,.81.06s-.28,0-.83,0a10.22,10.22,0,0,0-2.31.4l-.1,0,.29.06a3.32,3.32,0,0,1,.89.36,1.43,1.43,0,0,1,.57.56,1.48,1.48,0,0,0-.63-.48,3.57,3.57,0,0,0-.89-.26,3.93,3.93,0,0,0-.85,0,12.13,12.13,0,0,0-1.78.84,3.09,3.09,0,0,1,.8.19,5.5,5.5,0,0,1,1.21.69c.6.45.9.73.91.73s-.34-.25-1-.65a5.57,5.57,0,0,0-1.22-.58,2.74,2.74,0,0,0-1.15-.11l-.38.25-.64.45a2.39,2.39,0,0,0,3.14,2.53c1.54-.4,2.74-4,5.46-5.23C441.81,60.65,439.76,58.9,437.4,59.51Z"/><path class="cls-1" d="M394.67,85.24c-.06-.17-.11-.33-.15-.49s-.11-.4-.16-.59a3.29,3.29,0,0,0-.69-.76,5.24,5.24,0,0,0-.95-.61,5.59,5.59,0,0,0-.89-.37,4.93,4.93,0,0,1,.94.28,4.86,4.86,0,0,1,1,.55,3.89,3.89,0,0,1,.44.37,11.66,11.66,0,0,1-.2-1.48.41.41,0,0,1,0-.13,2.24,2.24,0,0,0-.91-1.21c-.37-.26-.58-.38-.58-.38a6.7,6.7,0,0,1,.64.3,2.66,2.66,0,0,1,.68.51l.17.2c0-.15,0-.29,0-.42a9.67,9.67,0,0,1,.36-2.32c.15-.52.26-.77.25-.77s-.08.27-.19.81a10.29,10.29,0,0,0-.17,2.34s0,.07,0,.1l.13-.27a3.27,3.27,0,0,1,.57-.77,1.43,1.43,0,0,1,.69-.42,1.48,1.48,0,0,0-.62.49,3.58,3.58,0,0,0-.47.8,4,4,0,0,0-.25.81,12,12,0,0,0,.38,1.93,3,3,0,0,1,.38-.73,5.47,5.47,0,0,1,1-1c.58-.48.93-.7.93-.7s-.33.27-.87.79a5.5,5.5,0,0,0-.86,1,2.72,2.72,0,0,0-.39,1.09c0,.14.09.28.15.43s.18.48.29.73a2.39,2.39,0,0,0,3.22-2.43c0-1.59-3.22-3.63-3.75-6.57-1.47,2.92-3.67,4.49-3.65,6.92S393.4,86.39,394.67,85.24Z"/><path class="cls-1" d="M463.74,51.83l.25-.45.32-.51a3.56,3.56,0,0,0,.14-1,5.29,5.29,0,0,0-.11-1.07,5.39,5.39,0,0,0-.25-.86,4.48,4.48,0,0,1,.34.85,4.78,4.78,0,0,1,.19,1.08,3.83,3.83,0,0,1,0,.56,13.54,13.54,0,0,1,.92-1.16.52.52,0,0,1,.08-.11,2.47,2.47,0,0,0,.33-1.46c0-.43-.07-.66-.07-.66a5.82,5.82,0,0,1,.16.65,2.7,2.7,0,0,1,0,.82,2.31,2.31,0,0,1,0,.26l.3-.29a10,10,0,0,1,1.83-1.36c.44-.26.68-.36.68-.36s-.24.13-.67.43a11,11,0,0,0-1.74,1.5l-.07.08.26-.1a2.91,2.91,0,0,1,.87-.14,1.1,1.1,0,0,1,.68.18,1.17,1.17,0,0,0-.7-.09,3.29,3.29,0,0,0-.82.23,4,4,0,0,0-.71.39,13.53,13.53,0,0,0-1.13,1.6,2.82,2.82,0,0,1,.73-.25,4.57,4.57,0,0,1,1.25,0c.67.07,1,.16,1,.15s-.38,0-1-.05a4.76,4.76,0,0,0-1.22.13,2.68,2.68,0,0,0-1,.49l-.22.4c-.12.22-.23.46-.35.7.36,1.26,2,2,3.54.53,1.11-1.11.71-4.73,2.46-7.13-2.88,1-5.23.58-6.93,2.28S462.21,51.75,463.74,51.83Z"/><path class="cls-1" d="M453.43,59.89a2.74,2.74,0,0,0,.78.86l.45.08.78.1a2.39,2.39,0,0,0-.6-4c-1.41-.75-4.73,1.09-7.56.15,1.87,2.69,2.18,5.37,4.33,6.52s3.81-.54,3.41-2.21l-.5-.1-.59-.14a3.28,3.28,0,0,0-1,.24,5.25,5.25,0,0,0-1,.54,5.69,5.69,0,0,0-.75.6,5.29,5.29,0,0,1,1.67-1.32,3.86,3.86,0,0,1,.53-.21,11.74,11.74,0,0,1-1.4-.53.43.43,0,0,1-.13,0,2.24,2.24,0,0,0-1.5.22c-.4.2-.61.33-.61.33a6.81,6.81,0,0,1,.57-.42,2.68,2.68,0,0,1,.77-.35l.26,0-.37-.21a9.65,9.65,0,0,1-1.87-1.43,7.83,7.83,0,0,1-.56-.59s.2.21.62.55a10.27,10.27,0,0,0,2,1.27l.09,0-.17-.24a3.34,3.34,0,0,1-.41-.87,1.42,1.42,0,0,1,0-.8,1.49,1.49,0,0,0,.14.78,3.61,3.61,0,0,0,.48.79,4.07,4.07,0,0,0,.59.61,12.06,12.06,0,0,0,1.88.59,3.07,3.07,0,0,1-.46-.68,5.49,5.49,0,0,1-.43-1.32c-.14-.74-.17-1.15-.17-1.15s.08.42.28,1.14A5.56,5.56,0,0,0,453.43,59.89Z"/><path class="cls-1" d="M492.6,61.9a2.75,2.75,0,0,0-1.06-.46l-.44.12-.75.23a2.39,2.39,0,0,0,2.21,3.38c1.59.1,3.84-3,6.81-3.29-2.81-1.67-4.22-4-6.65-4.12s-3.24,2.08-2.18,3.43l.5-.12.6-.11a3.32,3.32,0,0,0,.81-.63,5.28,5.28,0,0,0,.67-.9,5.58,5.58,0,0,0,.43-.86,4.83,4.83,0,0,1-.35.92,4.9,4.9,0,0,1-.62,1,3.8,3.8,0,0,1-.4.41,11.79,11.79,0,0,1,1.49-.1.43.43,0,0,1,.13,0,2.24,2.24,0,0,0,1.27-.83c.28-.35.42-.56.42-.55a7.07,7.07,0,0,1-.34.62,2.66,2.66,0,0,1-.55.64l-.21.15.42,0a9.67,9.67,0,0,1,2.29.52c.51.18.75.31.75.3s-.27-.1-.79-.24a10.24,10.24,0,0,0-2.32-.33h-.1l.26.15a3.32,3.32,0,0,1,.73.62,1.42,1.42,0,0,1,.37.71,1.47,1.47,0,0,0-.45-.65,3.61,3.61,0,0,0-.76-.52,4,4,0,0,0-.79-.31,12.06,12.06,0,0,0-2,.24,3.08,3.08,0,0,1,.7.43,5.47,5.47,0,0,1,.94,1c.43.62.63,1,.64,1s-.25-.35-.73-.92A5.57,5.57,0,0,0,492.6,61.9Z"/><path class="cls-1" d="M494.72,101.9c-2.81-1.68-4.21-4-6.64-4.14s-3.25,2.07-2.19,3.42l.5-.12.6-.11a3.35,3.35,0,0,0,.81-.63,5.23,5.23,0,0,0,.68-.9,5.74,5.74,0,0,0,.43-.86,5.31,5.31,0,0,1-1,1.9,3.75,3.75,0,0,1-.4.41,11.67,11.67,0,0,1,1.49-.09.44.44,0,0,1,.13,0,2.24,2.24,0,0,0,1.27-.82c.28-.35.42-.56.42-.55a6.88,6.88,0,0,1-.34.62,2.69,2.69,0,0,1-.56.64l-.21.15.42,0a9.65,9.65,0,0,1,2.29.53c.51.18.75.31.75.31s-.27-.1-.79-.25a10.25,10.25,0,0,0-2.32-.34H490l.26.15a3.32,3.32,0,0,1,.73.62,1.42,1.42,0,0,1,.37.71,1.47,1.47,0,0,0-.45-.65,3.61,3.61,0,0,0-.76-.52,4,4,0,0,0-.79-.31,12.08,12.08,0,0,0-2,.24,3.08,3.08,0,0,1,.7.43,5.45,5.45,0,0,1,.93,1c.43.62.63,1,.64,1s-.25-.35-.72-.93a5.54,5.54,0,0,0-1-.94,2.75,2.75,0,0,0-1.06-.46l-.44.12-.75.23a2.39,2.39,0,0,0,2.2,3.39C489.5,105.27,491.76,102.21,494.72,101.9Z"/></g></g></svg>