<svg xmlns="http://www.w3.org/2000/svg" viewBox="0 0 588.75 328.41"><defs><style>.a{fill:#48812c;}.b{fill:#74bf45;}.c{fill:#fff;}.d{fill:#9d54a0;}.e{fill:#b2e094;}.f{fill:#e6e6e6;}.g{fill:none;}.h{fill:#6a336d;}.i{fill:#f3a345;}.j{fill:#fbd766;}.k{fill:#ffbf94;}</style></defs><title>contact</title><path class="a" d="M167,35.6a8.15,8.15,0,0,0-8.14-8.15H54.59a8.15,8.15,0,0,0-8.16,8.15V47.83H167Z"/><path class="b" d="M167,41.56a8.14,8.14,0,0,0-8.14-8.15H54.59a8.15,8.15,0,0,0-8.16,8.15V53.79H167Z"/><path class="c" d="M46.43,53.79v65.56a8.13,8.13,0,0,0,8.16,8.14H158.87a8.13,8.13,0,0,0,8.14-8.14V53.79Z"/><path class="d" d="M71.91,59.73A4.93,4.93,0,0,1,67,64.66h0a4.93,4.93,0,0,1-4.92-4.93V48.52A4.92,4.92,0,0,1,67,43.59h0a4.93,4.93,0,0,1,4.93,4.93Z"/><path class="d" d="M149.18,59.73a4.92,4.92,0,0,1-4.92,4.93h0a4.92,4.92,0,0,1-4.92-4.93V48.52a4.92,4.92,0,0,1,4.92-4.93h0a4.92,4.92,0,0,1,4.92,4.93Z"/><rect class="e" x="112.77" y="71.66" width="8.34" height="8.34"/><rect class="b" x="124.05" y="71.66" width="8.34" height="8.34"/><rect class="b" x="135.33" y="71.66" width="8.35" height="8.34"/><rect class="e" x="67.65" y="83.41" width="8.34" height="8.34"/><rect class="e" x="78.93" y="83.41" width="8.34" height="8.34"/><rect class="e" x="90.21" y="83.41" width="8.34" height="8.34"/><rect class="e" x="101.49" y="83.41" width="8.34" height="8.34"/><rect class="e" x="112.77" y="83.41" width="8.34" height="8.34"/><rect class="b" x="124.05" y="83.41" width="8.34" height="8.34"/><rect class="b" x="135.33" y="83.41" width="8.35" height="8.34"/><rect class="e" x="67.65" y="95.15" width="8.34" height="8.35"/><rect class="e" x="78.93" y="95.15" width="8.34" height="8.35"/><rect class="e" x="90.21" y="95.15" width="8.34" height="8.35"/><rect class="e" x="101.49" y="95.15" width="8.34" height="8.35"/><rect class="e" x="112.77" y="95.15" width="8.34" height="8.35"/><rect class="b" x="124.05" y="95.15" width="8.34" height="8.35"/><rect class="b" x="135.33" y="95.15" width="8.35" height="8.35"/><rect class="e" x="67.65" y="106.89" width="8.34" height="8.34"/><rect class="e" x="78.93" y="106.89" width="8.34" height="8.34"/><rect class="e" x="90.21" y="106.89" width="8.34" height="8.34"/><rect class="e" x="101.49" y="106.89" width="8.34" height="8.34"/><rect class="e" x="112.77" y="106.89" width="8.34" height="8.34"/><rect class="b" x="124.05" y="106.89" width="8.34" height="8.34"/><rect class="b" x="135.33" y="106.89" width="8.35" height="8.34"/><circle class="d" cx="484.95" cy="251.07" r="76.03"/><path class="a" d="M263.94,177.84h63.21s8,2.18,0,15.91c0,0-5.09,7.42-1.36,14.2,0,0,27.41,21,62.56,14.86,0,0,9.13-9.11,9.46-39.89,0,0,3.39-33.8-89.26-41.59H219.29C126.65,149.13,130,182.93,130,182.93c.34,30.78,9.47,39.89,9.47,39.89C174.68,228.92,202,208,202,208c3.73-6.79-1.35-14.2-1.35-14.2-8-13.73,0-15.91,0-15.91Z"/><path class="c" d="M309.21,258.08a45.29,45.29,0,1,1-45.27-45.29A45.29,45.29,0,0,1,309.21,258.08Z"/><path class="a" d="M336.38,312.94V274.47c-6-19.08-36.62-86.35-36.62-86.35H283v7.75a11.58,11.58,0,0,1-4.77,7.61h-28.6a11.55,11.55,0,0,1-4.77-7.61v-7.75H228.09s-30.66,67.27-36.61,86.35v38.47Z"/><path class="b" d="M356.39,312.94V274.47c-7.59-19.08-46.75-86.35-46.75-86.35H288.26v7.75a12.1,12.1,0,0,1-6.08,7.61H245.67a12.11,12.11,0,0,1-6.1-7.61v-7.75H218.2S179,255.39,171.46,274.47v38.47Z"/><path class="a" d="M253.5,224.75a2.73,2.73,0,0,1-2.74,2.51H239.92a2.19,2.19,0,0,1-2.27-2.51q.69-5.22,1.37-10.44a2.89,2.89,0,0,1,2.73-2.5h10a2.3,2.3,0,0,1,2.27,2.5Q253.76,219.53,253.5,224.75Zm18-10.44a2.59,2.59,0,0,0-2.5-2.5H259a2.58,2.58,0,0,0-2.5,2.5c-.13,3.48-.27,7-.41,10.44a2.43,2.43,0,0,0,2.5,2.51h10.85a2.43,2.43,0,0,0,2.49-2.51C271.76,221.27,271.62,217.79,271.49,214.31Zm-18.37,17.75a2.41,2.41,0,0,0-2.5-2.51h-11a3,3,0,0,0-3,2.51q-.68,5.22-1.38,10.44a2.3,2.3,0,0,0,2.5,2.51h11.79a2.86,2.86,0,0,0,3-2.51Q252.84,237.28,253.11,232.06Zm19.08,0a2.71,2.71,0,0,0-2.73-2.51h-11a2.69,2.69,0,0,0-2.73,2.51q-.21,5.22-.41,10.44a2.55,2.55,0,0,0,2.73,2.51h11.79a2.56,2.56,0,0,0,2.73-2.51C272.47,239,272.33,235.54,272.2,232.06Zm16.63-17.75a2.89,2.89,0,0,0-2.73-2.5h-10a2.31,2.31,0,0,0-2.27,2.5c.17,3.48.37,7,.55,10.44a2.71,2.71,0,0,0,2.73,2.51h10.84a2.19,2.19,0,0,0,2.27-2.51Q289.52,219.53,288.83,214.31Zm2.33,17.75a3,3,0,0,0-3-2.51h-11a2.43,2.43,0,0,0-2.5,2.51q.28,5.22.55,10.44a2.85,2.85,0,0,0,3,2.51H290a2.3,2.3,0,0,0,2.5-2.51Q291.85,237.28,291.16,232.06Zm-39,17.74a2.55,2.55,0,0,0-2.72-2.5H237.55a3.18,3.18,0,0,0-3.19,2.5q-.69,5.22-1.38,10.44c-.18,1.38,1,2.51,2.73,2.51h12.74a3,3,0,0,0,3.19-2.51Q251.92,255,252.19,249.8Zm20.71,0a2.83,2.83,0,0,0-3-2.5H258a2.85,2.85,0,0,0-3,2.5c-.13,3.48-.27,7-.41,10.44-.06,1.38,1.27,2.51,3,2.51h12.74c1.69,0,3-1.12,3-2.51Q273.11,255,272.9,249.8Zm20.59,0a3.17,3.17,0,0,0-3.18-2.5H278.4a2.54,2.54,0,0,0-2.73,2.5l.55,10.44a3,3,0,0,0,3.18,2.51h12.74c1.69,0,2.92-1.12,2.72-2.51C294.41,256.76,294,253.29,293.49,249.8Z"/><path class="c" d="M253.5,225.74a2.73,2.73,0,0,1-2.74,2.5H239.92a2.19,2.19,0,0,1-2.27-2.5q.69-5.22,1.37-10.44a2.89,2.89,0,0,1,2.73-2.51h10a2.3,2.3,0,0,1,2.27,2.51Q253.76,220.52,253.5,225.74Z"/><path class="c" d="M271.9,225.74a2.43,2.43,0,0,1-2.49,2.5H258.56a2.43,2.43,0,0,1-2.5-2.5c.13-3.48.27-7,.41-10.44a2.57,2.57,0,0,1,2.5-2.51h10a2.58,2.58,0,0,1,2.5,2.51C271.62,218.78,271.76,222.25,271.9,225.74Z"/><path class="c" d="M252.57,243.48a2.86,2.86,0,0,1-3,2.51H237.82a2.3,2.3,0,0,1-2.5-2.51q.7-5.21,1.38-10.44a3,3,0,0,1,3-2.51h11a2.42,2.42,0,0,1,2.5,2.51Q252.84,238.27,252.57,243.48Z"/><path class="c" d="M272.61,243.48a2.56,2.56,0,0,1-2.73,2.51H258.09a2.55,2.55,0,0,1-2.73-2.51q.21-5.21.41-10.44a2.69,2.69,0,0,1,2.73-2.51h11A2.71,2.71,0,0,1,272.2,233C272.33,236.52,272.47,240,272.61,243.48Z"/><path class="c" d="M290.2,225.74a2.18,2.18,0,0,1-2.27,2.5H277.1a2.71,2.71,0,0,1-2.73-2.5c-.18-3.48-.38-7-.55-10.44a2.31,2.31,0,0,1,2.27-2.51h10a2.88,2.88,0,0,1,2.73,2.51Q289.52,220.52,290.2,225.74Z"/><path class="c" d="M292.53,243.48A2.29,2.29,0,0,1,290,246H278.25a2.85,2.85,0,0,1-3-2.51L274.74,233a2.43,2.43,0,0,1,2.5-2.51h11a3,3,0,0,1,3,2.51Q291.85,238.27,292.53,243.48Z"/><path class="c" d="M251.64,261.23a3,3,0,0,1-3.19,2.51H235.72c-1.7,0-2.91-1.12-2.73-2.51q.69-5.22,1.38-10.44a3.18,3.18,0,0,1,3.19-2.51h11.91a2.55,2.55,0,0,1,2.72,2.51Q251.91,256,251.64,261.23Z"/><path class="c" d="M273.32,261.23a2.7,2.7,0,0,1-3,2.51H257.62c-1.68,0-3-1.12-3-2.51.13-3.48.28-7,.41-10.44a2.85,2.85,0,0,1,3-2.51h11.91a2.83,2.83,0,0,1,3,2.51Q273.11,256,273.32,261.23Z"/><path class="c" d="M294.87,261.23c.19,1.38-1,2.51-2.72,2.51H279.4a3,3,0,0,1-3.18-2.51q-.28-5.22-.55-10.44a2.55,2.55,0,0,1,2.73-2.51h11.9a3.17,3.17,0,0,1,3.18,2.51C294,254.27,294.41,257.75,294.87,261.23Z"/><path class="a" d="M171.46,274.47v44.84a9.1,9.1,0,0,0,9.1,9.09H347.29a9.09,9.09,0,0,0,9.1-9.09V274.47Z"/><path class="b" d="M434.53,250.08c0,27.22,22.57,49.28,50.42,49.28V200.8C457.11,200.8,434.53,222.86,434.53,250.08Z"/><path class="b" d="M535.36,250.08c0,27.22-22.57,49.28-50.41,49.28V200.8C512.79,200.8,535.36,222.86,535.36,250.08Z"/><path class="c" d="M434.53,250.08c0,27.22,22.57,49.28,50.42,49.28V200.8C457.11,200.8,434.53,222.86,434.53,250.08Z"/><path class="f" d="M535.36,250.08c0,27.22-22.57,49.28-50.41,49.28V200.8C512.79,200.8,535.36,222.86,535.36,250.08Z"/><path class="g" d="M475.07,231.67c-.84-1,1.14-1.76.56-2.2-.92-.69-2.63,0-2.56,1,.06.78-1.19.93-1-.22.3-1.45-1.72-.71-2.2-.29s-1.51,1.84-1.2,2.64c.43,1.12,2,.25,2.75.36,1.21.18,2.19.86,3.45,1,2.31.25.92-1.45.16-2.34C474.78,231.33,475.37,232,475.07,231.67Z"/><path class="g" d="M483.81,246.25c-1-.58-1.89-2.51-3.08-2.51-1.36,0,.38,3.49.93,3.84.1.06.33-.57.52-.61.44-.08-.05,2.4,2.09,1.49.9-.38.67-.6.67-1.45s-.38-.33-1.14-.77Z"/><path class="g" d="M486.27,215c.78-.29-1.16-1-1.32-1v1.32a5.57,5.57,0,0,0,1.32-.29Z"/><path class="g" d="M483.83,236.64c-.19-.89-.21-2.76-.7-3.5-.39-.59-1-.91-.61-1.7.14-.27,1.08-.89,1-1.18-.12-.46-2.27,0-2.6.21-1.22.69-.13,3.42.49,4.14s-1,2.25.16,3a4.79,4.79,0,0,0,2.19.59C484.73,238.21,483.92,237.07,483.83,236.64Z"/><path class="a" d="M457.54,220.07c.46,0,3-1.62,2.35-2-.37-.21-2.94,1.36-2.94,1.77A.55.55,0,0,0,457.54,220.07Z"/><path class="a" d="M458.48,221.07c-.07,0-1,.11-.83.38.68,1,2.8.58,3.25-.37s1.75-2.87,1.7-3.82c-.1-1.78-2.11,1-2.27,1.36S459,221,458.48,221.07Z"/><path class="a" d="M480.09,277.39c-.74.28-1.32,1.26-1.91,1.75-.81.67-1.87.58-1.94,1.86-.07,1.44-1,5.29,2.08,4.49,1.39-.36,1.66-2.32,2-3.44.18-.54.89-5.09-.27-4.66Z"/><path class="a" d="M525.18,260.23c0,.34.17,2.35.7,2.3.89-.1,2.5-.42,2.5-1.53a17.13,17.13,0,0,1,.77-3.29c.19-.82-.18-1.38-.06-2.2,0-.35.16-2.92-.77-1.8a7.53,7.53,0,0,0-.89,2.12c-.23.63-.46,1.25-.69,1.87C526.42,258.57,525.07,259.36,525.18,260.23Z"/><path class="a" d="M529.42,247.85c.16.28,1.64,3.37,1.8,3.21.79-.76-.06-3.54-.48-4.34a36.47,36.47,0,0,0-2.54-4.22C526.62,242.5,529.2,247.46,529.42,247.85Z"/><path class="a" d="M518.52,254.14a15.54,15.54,0,0,0,.17,2.55c.17.57,1.07,1,1.35,1.6s.23,1.55.93,2.06c.5.36,2.52.95,1.4-.24-.52-.55-.28-1.28-.84-1.87a8.86,8.86,0,0,1-2-2.29c-.24-.46-.21-4.21.27-3.86l.15.54c.23.22,1,.19,1.29.47.06,0,1.81,1.31,1.4,1.52,1.71-.86,1.58-4.15.92-5.47-1-2-3-2.89-1.51-5.39.84-1.37.77,3.17,1.51,2,.39-.63-.12-1.38-.25-2-.15-.82,1-1.86,1.31-2.6a8.14,8.14,0,0,0-2.6-9.86,1.78,1.78,0,0,1-.56-2c.22-.88-.72-1.13-.82-.3-.05.39-2.37-1.37-1.29-2.53.21-.23.71.68.94.68.52,0,.24-1.66,1-.28.12.2,2.65,2.46,2.43,2.58.94-.56-1-2.54-1.33-2.88a7.42,7.42,0,0,1-1.84-3.17c-1-2.56-1.66-4.79-4-6.7-.28-.24-2.44-2.31-2.93-1.88-.73.63-1.92-1.23-2.31-1.7a6.55,6.55,0,0,1-1.34-2.88c-.36-1.07-2-1.21-2.58-2.12.32.48,3.13,1.66,3.76,2a19,19,0,0,0,3,1.8,24.48,24.48,0,0,1-2.33-2c-1.34-.94-2.78-1.75-4.18-2.58a30.9,30.9,0,0,0-4.61-2.17c-.64-.25-3.12-1.54-3.62-1.34s1.35,1.46,1.5,1.61c.49.5.2,1-.14,1.57-.07.11-.87.56-.44.74s.31.54.16.9c-.31.72-2.13-.41-2.32,0-.27.65.11.67-1.05.9-.62.12-.8,1.18-1.27.21-1-2-3.54-.37-4,1-.34,1.14-.47,1.69-1.82,2.15-.86.3-.39-.27-1.14-.48s0,2.24-.15,2.29c-.61.17-3-.68-3.12-1.42-.23-1.49,1.56-1.92,2.07-3.06-2.17.67-2.86,1.39-2.86,3.46,0,.6,3.1,1.21.05,1.44-.1,0-.05.33-.05.41v30.79c1.31-.05,1.27-.15,2.08.68.5.51,2.31.34,3,.44,1.31.2,2.73-.4,4-.13a7.19,7.19,0,0,1,1.94,1.85,1.65,1.65,0,0,0,2.46,1.07c1.25-.81,1,.82,1.17,1.67.45,2.89,2.35,5,3.45,7.63s2.67-1.88,2.59-2.91c-.1-1.38-.34-2.12.64-3.25a35.08,35.08,0,0,0,2.54-3.4c.53-.77.65-1.9,1.58-2.23,1.13-.4,1.53-1.4,2.56-.4s2.14,1.83,2.14,3.22c0,2,1.74-.45,1.64-.53,1,.72,1.64,2.84,1.76,4C518.57,254.65,518.46,253.62,518.52,254.14Z"/><path class="a" d="M527.18,239.46c0-.19-.43-1.74-.84-1.59s.21,2.12.75,1.92c0-.11.05-.22.09-.33C527.12,239.09,527.23,239.83,527.18,239.46Z"/><path class="a" d="M506.47,259.66c-.87-.51-.67,1.55-.35,1.9.74.79,1.45-1.26.35-1.9Z"/><path class="a" d="M484.89,201.15a53.47,53.47,0,0,0-13.41,2.21c-.55.15-7.28,1.5-7.26,2.42s5.45-.47,6-.62a32.78,32.78,0,0,0,3.4-1.18c.08,0,3.11-.79,2.7-.14s-3,.9-3.81,1.18c-1.22.44-2.46.83-3.71,1.19a27.93,27.93,0,0,0-4.17,1.42c-.6.28-4.35,1.85-4.35,2.54,0,0,3.5-.78,3.76-.81,2.06-.14,3.8.6,5.89,0,1.07-.3,9.65-3.19,9.25-3.79.31.47-.16,1.22.19,1.75s1.37.69,1.84.81a20.41,20.41,0,0,0,3.73.41C484.95,207.79,485,201.15,484.89,201.15Z"/><path class="a" d="M487.43,208.92c2.87-1.26,5.08-.05,8-.37.83-.09.4-.42,1-.74a4.74,4.74,0,0,1,2.11-.15c.4,0,0-3.26-.18-3.45-.62-.63-2.29-.89-3.1-1.27a11.76,11.76,0,0,0-2.5-1.14,40.92,40.92,0,0,0-7.77-.64v7c0,.62,1.92,1,2.48.75Z"/><path class="a" d="M485.34,254.34a12.6,12.6,0,0,0,3-3.39c.66-1-.5-1.57-1.21-2-1.33-.75-.37-2.11-2.21-.89-.34.56,0,2.34,0,3v3.49l.39-.22C485.62,254.13,485.25,254.41,485.34,254.34Z"/><path class="a" d="M484.45,213.07a.71.71,0,0,0,.49.85V212.1a3.31,3.31,0,0,0-.49,1C484.38,213.39,484.5,212.83,484.45,213.07Z"/><path class="a" d="M533.46,260.84c-1.12,1.16-1.45,4.44-2.73,5.18-.64.37-.91,1.57-1.24,2.22a16.72,16.72,0,0,1-2.57,4.07,21.45,21.45,0,0,0-3.59,4.77c-.33.69-.66,1.38-1,2.06s-2,2.39-1.91,3.16c.07,1.24,3.33-1.06,3.54-1.35a8.59,8.59,0,0,0,.49-.72q1.77-2.65,3.38-5.39c2.49-4.23,6-9.61,6.33-14.61a2.94,2.94,0,0,0-.7.64Z"/><path class="a" d="M483.63,215.4a25.73,25.73,0,0,0-3.15,1.12c-.48.17-3.38,1.7-2.63-.49.23-.69,4,.73,1-1.65-1.76-1.41-3.17-1.39-5.27-.64-2.34.83-6.65,1.81-7.88,3.91-.81,1.39,2.75.61.75,2.64-1,1,1.58.16,2-.37s.75-.46,1.32-.79.12-1,.54-1.46,4.37-2.57,4.37-1.65c0,1.1-3.38,1.12-2.91,3,.12.47,1.92,0,2.32.38.54.49-2.25.49-2.35.51-1.2.22-2,2.33-2.91,2.3a7,7,0,0,1-1.31,0,11.19,11.19,0,0,1-2.21-.47c-.52-.19.47-1.24.57-2s-1.21.32-1.29.54c-.43,1.11-.69,1.11-1.85,1.17s-2.58,1.13-3.91,1.31a3.13,3.13,0,0,1-1.91-.07c-.72-.31-.14,1.37-.35,1.67-.46.66-1.11,2.86-2.32,2-1.66-1.24-2.73.27-3.68,1.6-1.23.07-.5,1.9-.53,2.6-.1,2,4-1.15,4.22-1.29.71-.44,1.47-1,2.18-1.35s.83.41,1.42.53c1.24.24,1.44-.06,1.93,1.31.32.91,1.11,1.91,1.07,2.9-.06,1.49-3.2.41-1.67,1.85.86.81,2.21-1.81,2.57-2.06.18-.13.35.44.56.25,0,0-1.06-2.79-1.12-3.17-.16-1.06.5-2.67.86-.94.2,1,1.42,2.37,1.17,3.37-.07.3.14,3.68.38,3.62-.25.06,1.71-1.32,1.54-.73.14-.5-.84-.85-.26-1.36a1.74,1.74,0,0,1,1.66-.3c.9.38-.1,2.2.33,3,1,1.91,5.3.11,4.68,2.93-.75,3.41-4.16,2.54-6.61,1.58-1.06-.41-2.46-1.88-3.64-1.41-.56.21-.59.88-1.12,1.09s-1.91-1.12-1.93-1.67c0-1-1.65-1.73-2-2.66-.29-.72,2.08-1.78,1.14-2.51-.45-.36-1.28-.06-1.8-.16-.71-.14-1.27-.64-2-.81s-1.44,0-2.14-.11-1.61-1.28-2.3-.63c-.47.45-1.07.52-1.55.9a12.14,12.14,0,0,0-1.26,1.54c-.83.9-2.11,1.28-3,2.17a9.07,9.07,0,0,0-3.13,4.61c-1,4-1.77,8.79.15,12.69.5,1.44,2,1.9,3.25,2.63s2.34-.25,3.22,1.11c.67,1,1.95,1.16,2.56,2.07,1.06,1.56-.06,3.22.45,4.89s2.68,4.25,2.47,6.07c-.12,1,1.09,1.53.57,2.68a4.17,4.17,0,0,0,.33,4c1.23,2.1,2.49,4.93,4.17,6.67,2,2,3.07,4.39,6.15,4.55,1.58.09,5.19-.33,4.76-2.79-.2-1.16,1.86-.89,1.23-2.48-.56-1.4.63-2.14,1.74-2.65s2.31-.82,1.92-2.21c-.34-1.21-.49-2.23-.92-3.41a4.52,4.52,0,0,1,1.43-5.56c3-2.63,6.44-4.5,7.61-8.55.54-1.9-2.52-1.12-3.43-1-2.51.29-3.07-1.9-4.62-3.48a11,11,0,0,1-2.54-5.83c-.11-.63-1.83-6.15-1.22-6,1.38.43,2.32,4,2.73,5.2.68,2,1.87,3.74,2.52,5.85a10.29,10.29,0,0,0,.84,2.24c.42.7,1.78-.06,2.4-.18a11,11,0,0,0,3.47-1c.86-.49,1.57-1.36,2.59-1.56,1.84-.37.91-5.19.91-6.79-.5.34-1.73.91-2.34.46-.26-.19,0-1.64-.42-1.58-.19,0-.42.67-.52.61-.55-.35-2.29-3.84-.93-3.84,1.72,0,2.11,2.77,4.21,2.7v-31.2c-.44,0-.88.09-1.31.15Zm-7.42,18.23c-.45.77-2.22.44-2.89.13a6.29,6.29,0,0,0-3.38-.54c-3.29,0,.5-4.68,1.71-3.78.56.42.19,1.77.87,1.71,1.09-.09-.07-1.4,1.07-1.64.55-.12,3.37,0,1.66.87s1.66,2.06,1,3.26Zm7.53,4.58c-3.56,0-1.74-2.21-2.69-4.19-.37-.79-1.27-2.93-.15-3.57.33-.19,2.48-.66,2.6-.21.08.3-.85.91-1,1.18-.54,1,.76,1.2.76,2.06S484.53,238.21,483.75,238.21Z"/><path class="a" d="M522.33,266.29c1.13,1.17,3.65.07,5-.31.49-.14,3.33-2.59,3-2.68s-2.17,1.37-2.66,1.56a12.29,12.29,0,0,1-3.61.8c-1.27.05,0-2,0-2.32s-1.44-.28-1.75-.86-5-3.5-5-2.4c0,.85,2,2.14,2.45,2.85A22.87,22.87,0,0,0,522.33,266.29Z"/><path class="h" d="M561,251.07a76.38,76.38,0,0,0-1.24-13.59l-40.56-23.57A48.41,48.41,0,0,1,534,261.46a19.25,19.25,0,0,1-1.08,3.8,50.33,50.33,0,0,1-48,34.1,51.39,51.39,0,0,1-16.13-2.59L512.27,322A76,76,0,0,0,561,251.07Z"/><circle class="a" cx="547.67" cy="171.98" r="41.08"/><path class="c" d="M535.25,183.2l-8-8s-.75-1.3,2-2a2.66,2.66,0,0,0,2-1.63,15.62,15.62,0,0,0-6-9.8s-2.31,0-6.25,3.85c0,0-4.7,3.85,6,16.56l11.3,11.3c12.71,10.74,16.55,6,16.55,6,3.85-3.93,3.85-6.24,3.85-6.24a15.6,15.6,0,0,0-9.8-6,2.66,2.66,0,0,0-1.62,2c-.72,2.76-2,2-2,2Z"/><path class="c" d="M558.42,192.16a1.15,1.15,0,0,1-.53-2.17,22.09,22.09,0,1,0-29.75-29.73,1.15,1.15,0,0,1-2-1.05A24.38,24.38,0,1,1,558.94,192,1.15,1.15,0,0,1,558.42,192.16Z"/><path class="c" d="M536.6,177.19v-2.26l2-1.85c3.52-3.15,5.22-4.95,5.24-6.82,0-1.3-.76-2.33-2.61-2.33a6,6,0,0,0-3.42,1.3l-1.06-2.66a8.77,8.77,0,0,1,5.21-1.65c3.64,0,5.61,2.12,5.61,5,0,2.71-1.92,4.85-4.26,6.91l-1.48,1.23v.05h6.05v3.07Z"/><path class="c" d="M556.84,177.19v-3.81h-7.08v-2.44l6-9.74h4.6v9.37h1.89v2.81h-1.89v3.81Zm0-6.62V167c0-1,.05-1.94.1-3h-.07c-.52,1-1,2-1.5,3l-2.12,3.49,0,0Z"/><rect class="i" x="0.3" y="202.83" width="105.19" height="75.69" transform="matrix(1, -0.01, 0.01, 1, -1.9, 0.43)"/><polygon class="d" points="0 203.25 39.94 249.74 64.85 249.54 105.18 202.42 0 203.25"/><polygon class="d" points="105.18 202.42 53.03 164.99 0 203.25 105.18 202.42"/><polygon class="c" points="93.73 176.36 11.24 177.01 11.55 216.5 39.94 249.74 64.85 249.54 94.04 215.44 93.73 176.36"/><polygon class="j" points="64.85 249.54 39.94 249.74 0.6 278.94 105.78 278.1 64.85 249.54"/><path class="k" d="M53.07,189.62a1.18,1.18,0,0,1-1.17,1.19L24.25,191a1.18,1.18,0,0,1-1.19-1.17h0a1.18,1.18,0,0,1,1.17-1.19l27.65-.22a1.17,1.17,0,0,1,1.18,1.17Z"/><path class="k" d="M81.95,195.41a1.17,1.17,0,0,1-1.16,1.19L24.3,197a1.18,1.18,0,0,1-1.18-1.17h0a1.17,1.17,0,0,1,1.16-1.19l56.48-.45a1.18,1.18,0,0,1,1.18,1.17Z"/><path class="k" d="M82,201.42a1.18,1.18,0,0,1-1.17,1.19l-56.48.45a1.18,1.18,0,0,1-1.19-1.17h0a1.18,1.18,0,0,1,1.17-1.18l56.48-.45A1.18,1.18,0,0,1,82,201.42Z"/><path class="k" d="M82,207.44a1.17,1.17,0,0,1-1.16,1.19l-56.48.45a1.18,1.18,0,0,1-1.19-1.17h0a1.17,1.17,0,0,1,1.17-1.19l56.48-.45A1.17,1.17,0,0,1,82,207.44Z"/><path class="k" d="M82.09,213.45a1.18,1.18,0,0,1-1.16,1.19l-56.48.45a1.18,1.18,0,0,1-1.19-1.17h0a1.18,1.18,0,0,1,1.17-1.19l56.48-.45a1.18,1.18,0,0,1,1.18,1.17Z"/><path class="k" d="M82.14,219.47A1.17,1.17,0,0,1,81,220.65l-56.48.45a1.18,1.18,0,0,1-1.19-1.17h0a1.18,1.18,0,0,1,1.17-1.19L81,218.3a1.18,1.18,0,0,1,1.18,1.17Z"/><circle class="a" cx="89.13" cy="293.12" r="30.61"/><path class="c" d="M93.84,297.57c-.75-1.28-.28-3,.21-4.13a10,10,0,0,0,2.78-4.54.64.64,0,0,0,.5.31c.56,0,1-1.08,1-2.42s-.45-2.41-1-2.41h0c-.26-4.95-2.37-8.8-8.17-8.8-6,0-7.92,3.85-8.17,8.8h0c-.55,0-1,1.08-1,2.41s.45,2.42,1,2.42a.65.65,0,0,0,.5-.32,10,10,0,0,0,2.78,4.55c.5,1.15,1,2.85.22,4.13,0,0-12.88,4.68-12.88,10.07h35.17C106.72,302.25,93.84,297.57,93.84,297.57Z"/><path class="a" d="M369.64,59.21A10.43,10.43,0,0,1,380,48.78H461.5a10.43,10.43,0,0,1,10.43,10.43v48.93a10.42,10.42,0,0,1-10.43,10.42H413.34l-12.11,12.63L390.9,118.56H380a10.42,10.42,0,0,1-10.41-10.42Z"/><path class="c" d="M529.08,92.76a10.42,10.42,0,0,1-10.41,10.43H507.83l-10.31,12.6-12.13-12.6H437.22a10.42,10.42,0,0,1-10.42-10.43V43.81A10.42,10.42,0,0,1,437.22,33.4h81.45a10.42,10.42,0,0,1,10.41,10.42Z"/><path class="b" d="M431.21,109.28A10.42,10.42,0,0,1,420.8,98.85V49.9a10.38,10.38,0,0,1,.06-1.12H380a10.43,10.43,0,0,0-10.41,10.43v48.93A10.42,10.42,0,0,0,380,118.56H390.9l10.32,12.63,12.11-12.63H461.5a10.42,10.42,0,0,0,10.37-9.28Z"/><path class="c" d="M269.16,22.87a12.13,12.13,0,0,0-2.06.19c0-.07,0-.14,0-.21,0-7.92-5.91-14.35-13.2-14.35a12.33,12.33,0,0,0-6.82,2.08A19.37,19.37,0,0,0,235.51.73a17.55,17.55,0,0,0-5-.73c-10.48,0-19,9.24-19,20.64a22.85,22.85,0,0,0,.32,3.67,12.26,12.26,0,0,0-5.74-1.44c-7.29,0-13.2,6.43-13.2,14.35,0,7.23,4.93,13.2,11.34,14.19l31.27,0,35.85,0c6.24-1.14,11-7,11-14.14C282.36,29.29,276.45,22.87,269.16,22.87Z"/><circle class="d" cx="294.22" cy="66.95" r="48.29"/><path class="c" d="M297.43,76a13.67,13.67,0,0,1-3.59,3,7.7,7.7,0,0,1-8.26-.16,9.2,9.2,0,0,1-3.37-4,13.21,13.21,0,0,1-1.3-5.85,17.15,17.15,0,0,1,2-7.86,15.11,15.11,0,0,1,5-5.91,10.54,10.54,0,0,1,5.8-2,8.11,8.11,0,0,1,4.1,1.12,9.66,9.66,0,0,1,3.36,3.42L302,54h4.42l-3.56,16.57q-.74,3.46-.74,3.83a1.53,1.53,0,0,0,.51,1.15,1.71,1.71,0,0,0,1.22.48,6.6,6.6,0,0,0,3.43-1.51,13.82,13.82,0,0,0,4.46-5.3,15.29,15.29,0,0,0,1.64-6.85A14.79,14.79,0,0,0,305,49a19.93,19.93,0,0,0-9.25-2.15,21.05,21.05,0,0,0-10.56,2.7,18.51,18.51,0,0,0-7.41,7.75,23.1,23.1,0,0,0-2.63,10.83,19.83,19.83,0,0,0,2.63,10.42,15.68,15.68,0,0,0,7.6,6.46,28.25,28.25,0,0,0,11,2.09,24.21,24.21,0,0,0,10.84-2.17,16.93,16.93,0,0,0,6.54-5.28h4.47a17.51,17.51,0,0,1-4.32,5.28,23.09,23.09,0,0,1-7.28,4.26,29.3,29.3,0,0,1-10.17,1.57,34.64,34.64,0,0,1-10.11-1.41,21.33,21.33,0,0,1-7.89-4.23,18.73,18.73,0,0,1-4.91-6.51,24.51,24.51,0,0,1-2.07-10.07A27.54,27.54,0,0,1,274,57a23,23,0,0,1,8.56-10.25A24.38,24.38,0,0,1,296,43.2a23.71,23.71,0,0,1,11,2.51,18.37,18.37,0,0,1,7.69,7.47,18.68,18.68,0,0,1,2.39,9.28,18.38,18.38,0,0,1-5,12.72q-4.49,5-9.83,5a6.23,6.23,0,0,1-2.75-.52,3.32,3.32,0,0,1-1.54-1.48A6.31,6.31,0,0,1,297.43,76Zm-12-6.69a7.83,7.83,0,0,0,1.61,5.26,4.74,4.74,0,0,0,3.68,1.88,6.14,6.14,0,0,0,2.91-.83,10.47,10.47,0,0,0,2.93-2.46,13,13,0,0,0,2.28-4.14,14.89,14.89,0,0,0,.89-5,7.52,7.52,0,0,0-1.67-5.21A5.27,5.27,0,0,0,294,57a5.87,5.87,0,0,0-3,.8,9.17,9.17,0,0,0-2.71,2.58,14.5,14.5,0,0,0-2.1,4.32A15.85,15.85,0,0,0,285.48,69.34Z"/></svg>