<svg xmlns="http://www.w3.org/2000/svg" viewBox="0 0 475.19 85.19"><defs><style>.cls-1{fill:#9d54a0;}.cls-1,.cls-2,.cls-3,.cls-4,.cls-5,.cls-6{fill-rule:evenodd;}.cls-2{fill:#807e80;}.cls-3{fill:#9bca48;}.cls-4,.cls-7{fill:#74bf45;}.cls-5{fill:#7b51a0;}.cls-6{fill:#f4f4f4;}</style></defs><title>web-logo</title><g id="Layer_2" data-name="Layer 2"><g id="Layer_1-2" data-name="Layer 1"><polyline class="cls-1" points="60.23 21.66 45.59 0 0 67.45 29.14 67.45 45.59 43.12"/><polyline class="cls-2" points="0 67.45 29.14 67.45 45.59 43.12"/><polyline class="cls-3" points="45.59 43.12 62.04 67.45 91.18 67.45 60.23 21.66 45.59 0"/><polyline class="cls-4" points="45.59 0 60.23 21.66 91.18 67.45 62.04 67.45 45.59 0"/><polygon class="cls-5" points="45.59 0 45.59 43.12 30.12 51.46 45.59 0"/><polygon class="cls-6" points="29.14 67.45 0 67.45 17.3 85.19 91.18 67.45 62.04 67.45 34.23 73.99 29.14 67.45"/><path class="cls-7" d="M91.18,42.6a25.15,25.15,0,0,1,.94-7A16.54,16.54,0,0,1,95,29.9a13.62,13.62,0,0,1,4.72-3.82,14.77,14.77,0,0,1,6.66-1.41h16.28V31H105.47a4.76,4.76,0,0,0-2.76,1,11.43,11.43,0,0,0-2.6,2.67,16.59,16.59,0,0,0-2,3.7,11.53,11.53,0,0,0-.79,4.17,12.28,12.28,0,0,0,.77,4.26,15.13,15.13,0,0,0,2,3.73,10.62,10.62,0,0,0,2.7,2.64,5.37,5.37,0,0,0,3,1h10.1V37.25h6.74V60.46H105.16a11.07,11.07,0,0,1-6-1.62,14.73,14.73,0,0,1-4.39-4.2,19.66,19.66,0,0,1-2.7-5.76A22.53,22.53,0,0,1,91.18,42.6Z"/><path class="cls-7" d="M126.44,24.67H145a8.38,8.38,0,0,1,4.11,1A8.62,8.62,0,0,1,152,28.23a11.48,11.48,0,0,1,1.71,3.67,16,16,0,0,1,.56,4.23,16.32,16.32,0,0,1-1.43,7.14,7.34,7.34,0,0,1-4.59,4l8.88,13.22h-8.32L135.52,42h8.78a2.21,2.21,0,0,0,1.45-.59A5.34,5.34,0,0,0,146.93,40a8.4,8.4,0,0,0,.76-1.82,6.34,6.34,0,0,0,.28-1.73,5.68,5.68,0,0,0-.23-1.44,8.56,8.56,0,0,0-.61-1.62,4.62,4.62,0,0,0-.94-1.29,1.76,1.76,0,0,0-1.22-.53H126.44Z"/><path class="cls-7" d="M186.9,60.46H180V55.11l-3.78,5.35H166a8.75,8.75,0,0,1-3.9-.79,7.35,7.35,0,0,1-2.65-2.17,9.12,9.12,0,0,1-1.53-3.17,14.25,14.25,0,0,1-.48-3.73V24.67h7V49.12a6.88,6.88,0,0,0,.64,3.38q.64,1.09,2.88,1.09h12V24.67h6.94Z"/><path class="cls-7" d="M190.73,24.67h18.52a7.57,7.57,0,0,1,4.18,1.12,9.52,9.52,0,0,1,2.88,2.91,13.06,13.06,0,0,1,1.68,4,18.22,18.22,0,0,1,.54,4.32,15.5,15.5,0,0,1-2.27,7.88,10.54,10.54,0,0,1-2.63,2.91,5.57,5.57,0,0,1-3.42,1.15h-8.88l-3.67-5.35V60.46h-6.94Zm6.94,6.88v11H208.9a2,2,0,0,0,1.4-.59,5,5,0,0,0,1.07-1.44,8.16,8.16,0,0,0,.66-1.82,6.24,6.24,0,0,0,0-3.26,9.79,9.79,0,0,0-.59-1.82,5.4,5.4,0,0,0-.94-1.5,1.69,1.69,0,0,0-1.27-.62Z"/><path class="cls-7" d="M220.83,42.77a21.84,21.84,0,0,1,1.33-7.64,20,20,0,0,1,3.62-6.23,17.62,17.62,0,0,1,5.36-4.2,14.32,14.32,0,0,1,6.58-1.56,14.93,14.93,0,0,1,6.71,1.53,16.86,16.86,0,0,1,5.36,4.17,19.48,19.48,0,0,1,3.55,6.23,22.82,22.82,0,0,1,1.27,7.7,21.91,21.91,0,0,1-1.3,7.64,19.29,19.29,0,0,1-3.57,6.11,16.49,16.49,0,0,1-5.36,4.05A15.3,15.3,0,0,1,237.72,62a15,15,0,0,1-6.58-1.47,16.84,16.84,0,0,1-5.36-4.05,19.36,19.36,0,0,1-3.62-6.11A21.52,21.52,0,0,1,220.83,42.77Zm6.28,0a13,13,0,0,0,.84,4.67,12.36,12.36,0,0,0,2.27,3.82,11.12,11.12,0,0,0,3.34,2.59,8.85,8.85,0,0,0,4.06,1,9.76,9.76,0,0,0,4.16-.91,11,11,0,0,0,3.44-2.5,11.51,11.51,0,0,0,2.32-3.79,13.5,13.5,0,0,0,.84-4.85,13.86,13.86,0,0,0-.82-4.73,13,13,0,0,0-2.25-4,10.86,10.86,0,0,0-3.37-2.7,9.12,9.12,0,0,0-4.23-1,8.9,8.9,0,0,0-4.13,1,10.65,10.65,0,0,0-3.37,2.73,13.88,13.88,0,0,0-2.27,4A13.21,13.21,0,0,0,227.11,42.77Z"/><path class="cls-7" d="M294.31,24.67h7l15.31,35.79h-7.45L305,50.53H296.2L292.67,45l-6.12,15.46H279.1Zm3.37,7.64-4.8,11.81h9.9l-4.9-11.81Z"/><path class="cls-7" d="M319.16,31V24.67h16.23a13.9,13.9,0,0,1,6.33,1.41,14.75,14.75,0,0,1,4.8,3.82,16.91,16.91,0,0,1,3,5.67,22.89,22.89,0,0,1,1,7,22.55,22.55,0,0,1-.92,6.29,19.69,19.69,0,0,1-2.7,5.76,14.86,14.86,0,0,1-4.36,4.2,10.94,10.94,0,0,1-5.94,1.62h-17.5V37.25h6.74V54.17H336a5.37,5.37,0,0,0,3-1,10.64,10.64,0,0,0,2.7-2.64,15.18,15.18,0,0,0,2-3.73,12.27,12.27,0,0,0,.77-4.26,10.66,10.66,0,0,0-.87-4.17,17.07,17.07,0,0,0-2.12-3.7A13.52,13.52,0,0,0,338.8,32a4.3,4.3,0,0,0-2.45-1Z"/><path class="cls-7" d="M353.65,31V24.67h16.23a13.9,13.9,0,0,1,6.33,1.41A14.75,14.75,0,0,1,381,29.9a16.91,16.91,0,0,1,3,5.67,22.89,22.89,0,0,1,1,7,22.55,22.55,0,0,1-.92,6.29,19.69,19.69,0,0,1-2.7,5.76,14.86,14.86,0,0,1-4.36,4.2,10.94,10.94,0,0,1-5.94,1.62h-17.5V37.25h6.74V54.17h10.1a5.37,5.37,0,0,0,3-1,10.64,10.64,0,0,0,2.7-2.64,15.18,15.18,0,0,0,2-3.73,12.28,12.28,0,0,0,.77-4.26,10.66,10.66,0,0,0-.87-4.17,17.07,17.07,0,0,0-2.12-3.7A13.52,13.52,0,0,0,373.29,32a4.3,4.3,0,0,0-2.45-1Z"/><path class="cls-7" d="M388.14,60.46V54.17H397V31h-8.83V24.67h24.54V31h-8.78V54.17h8.78v6.29Z"/><path class="cls-7" d="M416.61,54.17h18.88a2.17,2.17,0,0,0,1.2-.38,4.08,4.08,0,0,0,1-1,5.8,5.8,0,0,0,.74-1.32,3.8,3.8,0,0,0,.28-1.41,5.47,5.47,0,0,0-.89-3,2.72,2.72,0,0,0-2.37-1.38H424.83a7.4,7.4,0,0,1-3.57-.85,8.23,8.23,0,0,1-2.68-2.29,11.15,11.15,0,0,1-1.71-3.29,12.18,12.18,0,0,1-.61-3.85,12.37,12.37,0,0,1,.72-4.26,10.35,10.35,0,0,1,2-3.38,9.32,9.32,0,0,1,3-2.23,8.42,8.42,0,0,1,3.7-.82h19.13V31H425.23a1.65,1.65,0,0,0-1.1.41,3.62,3.62,0,0,0-.84,1.09,6,6,0,0,0-.54,1.44,6.46,6.46,0,0,0-.18,1.47,4,4,0,0,0,.26,1.35,6.24,6.24,0,0,0,.64,1.29,4.26,4.26,0,0,0,.84,1,1.39,1.39,0,0,0,.87.38h11a7.51,7.51,0,0,1,3.62.88,9.58,9.58,0,0,1,2.83,2.32,10.28,10.28,0,0,1,1.84,3.35,12.65,12.65,0,0,1,.64,4,13.07,13.07,0,0,1-.54,3.59A12.42,12.42,0,0,1,443,56.94a9.25,9.25,0,0,1-2.4,2.53,5.28,5.28,0,0,1-3.14,1H416.61Z"/><path class="cls-7" d="M475.19,24.67V31h-9.8v29.5h-6.94V31h-9.8V24.67Z"/></g></g></svg>