<?xml version="1.0" encoding="UTF-8" standalone="no"?>
<svg width="759px" height="196px" viewBox="0 0 759 196" version="1.1" xmlns="http://www.w3.org/2000/svg" xmlns:xlink="http://www.w3.org/1999/xlink">
    <!-- Generator: Sketch 39 (31667) - http://www.bohemiancoding.com/sketch -->
    <title>logo-web</title>
    <desc>Created with Sketch.</desc>
    <defs></defs>
    <g id="Page-1" stroke="none" stroke-width="1" fill="none" fill-rule="evenodd">
        <g id="Logo" transform="translate(-1.000000, -1.000000)">
            <g id="Tech" transform="translate(460.633689, 52.266130)" fill="#AA0000">
                <polygon id="path4359" points="70.9868125 2.261625 70.9868125 7.78145 38.84915 7.78145 38.84915 87.9416125 32.164025 87.9416125 32.164025 7.78145 0.0263625 7.78145 0.0263625 2.261625"></polygon>
                <polygon id="path4361" points="128.45435 2.261625 128.45435 7.78145 88.3436 7.78145 88.3436 42.0657125 127.411713 42.0657125 127.411713 47.646875 88.3436 47.646875 88.3436 82.421775 129.43565 82.421775 129.43565 87.9416125 81.7198125 87.9416125 81.7198125 2.261625 128.45435 2.261625"></polygon>
                <path d="M214.502325,8.3334375 L214.502325,15.5705375 C204.116875,10.0507125 193.935858,7.2908 183.959275,7.2908 C173.3285,7.2908 164.435446,10.9093542 157.280113,18.1464625 C150.124779,25.3835708 146.547112,34.4197333 146.547112,45.25495 C146.547112,56.212825 150.145225,65.2285417 157.34145,72.3021 C164.537667,79.3756583 173.716933,82.9124375 184.87925,82.9124375 C194.201625,82.9124375 204.362196,79.9889708 215.360962,74.1420375 L215.360962,81.0111625 C205.220838,86.3674375 195.101154,89.045575 185.001913,89.045575 C171.958771,89.045575 161.082667,84.8750375 152.3736,76.5339625 C143.705425,68.1520042 139.371338,57.7256667 139.371338,45.25495 C139.371338,32.70245 143.807646,22.214775 152.680262,13.791925 C161.552871,5.36908333 172.122317,1.1576625 184.3886,1.1576625 C194.038075,1.1576625 204.075983,3.5495875 214.502325,8.3334375 L214.502325,8.3334375 Z" id="path4363"></path>
                <polygon id="path4365" points="298.771687 2.261625 298.771687 87.9416125 292.086562 87.9416125 292.086562 47.3402125 234.925687 47.3402125 234.925687 87.9416125 228.301887 87.9416125 228.301887 2.261625 234.925687 2.261625 234.925687 41.8203875 292.086562 41.8203875 292.086562 2.261625"></polygon>
            </g>
            <g id="Emblem" transform="translate(348.633689, 99.266130) scale(1, -1) translate(-348.633689, -99.266130) translate(253.633689, 0.266130)">
                <g id="spiral-red" opacity="0.87999998" transform="translate(0.750000, 53.250000)" fill="#AA0000">
                    <path d="M136.801825,62.2271875 C136.724325,66.0734375 133.601825,69.1234375 129.831825,69.0434375 C126.061825,68.9596875 123.075575,65.7759375 123.151825,61.9334375 C123.231825,58.0859375 126.353075,55.0371875 130.119325,55.1171875 C133.891825,55.1984375 136.880575,58.3834375 136.801825,62.2271875" id="path3507"></path>
                    <path d="M121.927575,78.9410625 C121.850075,82.5460625 118.927575,85.4048125 115.393825,85.3298125 C111.858825,85.2535625 109.056325,82.2698125 109.131325,78.6635625 C109.205075,75.0598125 112.130075,72.1985625 115.667575,72.2760625 C119.198825,72.3523125 122.003825,75.3373125 121.927575,78.9410625" id="path3511"></path>
                    <path d="M102.196075,89.2229375 C102.126075,92.5854375 99.394825,95.2566875 96.099825,95.1841875 C92.797325,95.1129375 90.182325,92.3266875 90.252325,88.9654375 C90.321075,85.5991875 93.054825,82.9304375 96.351075,83.0016875 C99.648575,83.0729375 102.266075,85.8579375 102.196075,89.2229375" id="path3515"></path>
                    <path d="M82.044825,92.5414375 C81.984825,95.6664375 79.443575,98.1439375 76.382325,98.0789375 C73.321075,98.0114375 70.892325,95.4251875 70.957325,92.3039375 C71.023575,89.1764375 73.557325,86.7001875 76.617325,86.7651875 C79.679825,86.8326875 82.114825,89.4189375 82.044825,92.5414375" id="path3519"></path>
                    <path d="M62.84195,90.4388125 C62.7832,93.3250625 60.4432,95.6138125 57.6182,95.5500625 C54.79195,95.4900625 52.5482,93.1025625 52.60945,90.2200625 C52.66695,87.3338125 55.00445,85.0450625 57.83445,85.1050625 C60.66445,85.1688125 62.9057,87.5550625 62.84195,90.4388125" id="path3523"></path>
                    <path d="M46.66395,83.8208125 C46.6077,86.4645625 44.4627,88.5645625 41.8727,88.5070625 C39.2827,88.4508125 37.2252,86.2645625 37.28145,83.6208125 C37.33645,80.9758125 39.4802,78.8795625 42.0702,78.9345625 C44.66145,78.9908125 46.72145,81.1770625 46.66395,83.8208125" id="path3527"></path>
                    <path d="M34.115075,74.0954375 C34.067575,76.4954375 32.117575,78.4004375 29.760075,78.3504375 C27.406325,78.2991875 25.536325,76.3116875 25.586325,73.9104375 C25.637575,71.5079375 27.580075,69.6004375 29.942575,69.6491875 C32.298825,69.7016875 34.162575,71.6891875 34.115075,74.0954375" id="path3531"></path>
                    <path d="M24.6742,61.8298125 C24.62795,63.9923125 22.8717,65.7073125 20.7517,65.6610625 C18.6342,65.6160625 16.9517,63.8260625 16.9917,61.6635625 C17.04045,59.4998125 18.7967,57.7873125 20.91295,57.8335625 C23.03545,57.8773125 24.7192,59.6673125 24.6742,61.8298125" id="path3535"></path>
                    <path d="M19.176075,48.6980625 C19.317325,50.6218125 17.906075,52.2255625 16.028575,52.2843125 C14.142325,52.3418125 12.502325,50.8293125 12.366075,48.9043125 C12.223575,46.9793125 13.632325,45.3755625 15.511075,45.3168125 C17.397325,45.2605625 19.037325,46.7718125 19.176075,48.6980625" id="path3539"></path>
                    <path d="M17.617325,35.9118125 C17.582325,37.5955625 16.218575,38.9280625 14.568575,38.8930625 C12.918575,38.8580625 11.613575,37.4643125 11.647325,35.7843125 C11.681075,34.0993125 13.048575,32.7655625 14.697325,32.8030625 C16.341075,32.8380625 17.653575,34.2280625 17.617325,35.9118125" id="path3543"></path>
                    <path d="M18.260575,24.6545625 C18.231825,26.0970625 17.060575,27.2395625 15.646825,27.2095625 C14.234325,27.1808125 13.113075,25.9858125 13.141825,24.5433125 C13.171825,23.1033125 14.340575,21.9570625 15.754325,21.9883125 C17.170575,22.0183125 18.291825,23.2120625 18.260575,24.6545625" id="path3547"></path>
                    <path d="M20.531075,15.5340625 C20.507325,16.7353125 19.533575,17.6890625 18.354825,17.6628125 C17.178575,17.6365625 16.241075,16.6453125 16.267325,15.4415625 C16.292325,14.2390625 17.269825,13.2890625 18.449825,13.3128125 C19.624825,13.3365625 20.558575,14.3340625 20.531075,15.5340625" id="path3551"></path>
                    <path d="M23.33145,8.3434375 C23.31645,9.3046875 22.5377,10.0659375 21.59145,10.0459375 C20.6527,10.0271875 19.9052,9.2309375 19.92395,8.2696875 C19.94145,7.3071875 20.72395,6.5446875 21.66645,6.5671875 C22.61145,6.5859375 23.3552,7.3796875 23.33145,8.3434375" id="path3555"></path>
                    <path d="M26.936075,2.8759375 C26.919825,3.5946875 26.337325,4.1684375 25.628575,4.1534375 C24.926075,4.1371875 24.362325,3.5409375 24.376075,2.8234375 C24.391075,2.0984375 24.977325,1.5284375 25.684825,1.5434375 C26.393575,1.5596875 26.952325,2.1546875 26.936075,2.8759375" id="path3559"></path>
                    <path d="M156.605325,74.2218125 C156.506575,78.9118125 152.622825,82.6330625 147.934075,82.5330625 C143.246575,82.4343125 139.525325,78.5518125 139.625325,73.8643125 C139.725325,69.1730625 143.605325,65.4530625 148.294075,65.5530625 C152.985325,65.6530625 156.704075,69.5343125 156.605325,74.2218125" id="path3451"></path>
                    <path d="M138.09945,94.6086875 C138.00445,99.0036875 134.36695,102.489937 129.9707,102.396187 C125.57195,102.303687 122.0832,98.6649375 122.17945,94.2699375 C122.27195,89.8711875 125.9082,86.3836875 130.3082,86.4799375 C134.70195,86.5724375 138.1907,90.2099375 138.09945,94.6086875" id="path3455"></path>
                    <path d="M113.5462,107.143562 C113.46245,111.246062 110.06495,114.502312 105.9662,114.414812 C101.8612,114.328562 98.60745,110.932312 98.6912,106.829812 C98.7787,102.726062 102.1737,99.4723125 106.27995,99.5598125 C110.3812,99.6448125 113.6362,103.039812 113.5462,107.143562" id="path3459"></path>
                    <path d="M88.479075,111.195063 C88.400325,115.005063 85.245325,118.026313 81.436575,117.946313 C77.625325,117.867563 74.604075,114.711313 74.684075,110.902563 C74.762825,107.090063 77.917825,104.067563 81.726575,104.148813 C85.537825,104.230063 88.559075,107.382563 88.479075,111.195063" id="path3463"></path>
                    <path d="M64.58995,108.629062 C64.5137,112.146562 61.60745,114.934062 58.08995,114.861562 C54.5712,114.786562 51.78245,111.877812 51.85495,108.360312 C51.93245,104.842812 54.84245,102.052812 58.3587,102.126562 C61.87495,102.199062 64.66495,105.112812 64.58995,108.629062" id="path3467"></path>
                    <path d="M44.4617,100.561437 C44.39295,103.785187 41.7242,106.341437 38.5017,106.271437 C35.27795,106.205187 32.7217,103.537687 32.7892,100.312687 C32.8592,97.0889375 35.5242,94.5326875 38.7467,94.6001875 C41.9742,94.6701875 44.52795,97.3351875 44.4617,100.561437" id="path3471"></path>
                    <path d="M28.8502,88.6968125 C28.78895,91.6255625 26.3627,93.9493125 23.4327,93.8880625 C20.49895,93.8268125 18.1752,91.3993125 18.23645,88.4693125 C18.3027,85.5405625 20.7252,83.2143125 23.6577,83.2768125 C26.5852,83.3393125 28.9102,85.7630625 28.8502,88.6968125" id="path3475"></path>
                    <path d="M17.104575,73.7395625 C17.047075,76.3770625 14.863325,78.4695625 12.224575,78.4145625 C9.588325,78.3583125 7.497075,76.1758125 7.552075,73.5358125 C7.609575,70.8995625 9.789575,68.8058125 12.428325,68.8620625 C15.065825,68.9195625 17.158325,71.0995625 17.104575,73.7395625" id="path3479"></path>
                    <path d="M10.2662,57.7233125 C10.4362,60.0695625 8.6837,62.0283125 6.33995,62.0970625 C4.0012,62.1670625 1.9587,60.3220625 1.7862,57.9733125 C1.60995,55.6283125 3.36745,53.6720625 5.7087,53.6008125 C8.04745,53.5320625 10.08495,55.3770625 10.2662,57.7233125" id="path3483"></path>
                    <path d="M8.324075,42.1313125 C8.281575,44.1825625 6.584075,45.8088125 4.531575,45.7663125 C2.477825,45.7225625 0.851575,44.0250625 0.896575,41.9750625 C0.939075,39.9200625 2.637825,38.2938125 4.687825,38.3375625 C6.737825,38.3813125 8.366575,40.0775625 8.324075,42.1313125" id="path3487"></path>
                    <path d="M9.126075,28.4001875 C9.087325,30.1626875 7.633575,31.5539375 5.873575,31.5164375 C4.113575,31.4814375 2.721075,30.0251875 2.757325,28.2639375 C2.797325,26.5076875 4.251075,25.1126875 6.011075,25.1501875 C7.767325,25.1889375 9.163575,26.6426875 9.126075,28.4001875" id="path3491"></path>
                    <path d="M11.950825,17.2796875 C11.920825,18.7446875 10.707075,19.9071875 9.243325,19.8759375 C7.774575,19.8434375 6.612075,18.6309375 6.643325,17.1659375 C6.675825,15.7009375 7.889575,14.5396875 9.354575,14.5709375 C10.819575,14.6009375 11.978325,15.8121875 11.950825,17.2796875" id="path3495"></path>
                    <path d="M15.435825,8.5083125 C15.413325,9.6820625 14.442075,10.6120625 13.269575,10.5870625 C12.095825,10.5620625 11.169575,9.5908125 11.192075,8.4158125 C11.217075,7.2445625 12.189575,6.3170625 13.360825,6.3408125 C14.532075,6.3658125 15.463325,7.3370625 15.435825,8.5083125" id="path3499"></path>
                    <path d="M19.918325,1.8401875 C19.899575,2.7189375 19.174575,3.4176875 18.297075,3.3976875 C17.417075,3.3814375 16.715825,2.6526875 16.737075,1.7739375 C16.754575,0.8939375 17.484575,0.1951875 18.360825,0.2139375 C19.242075,0.2326875 19.938325,0.9614375 19.918325,1.8401875" id="path3503"></path>
                </g>
                <g id="spiral-black" transform="translate(97.000000, 37.000000)" fill="#000022">
                    <path d="M4.803575,24.2315625 C8.174825,22.3790625 12.373575,23.5540625 14.192325,26.8615625 C16.004825,30.1640625 14.741075,34.3453125 11.372325,36.2003125 C8.001075,38.0528125 3.801075,36.8753125 1.987325,33.5703125 C0.172325,30.2653125 1.437325,26.0840625 4.803575,24.2315625" id="path3619"></path>
                    <path d="M26.7152,28.7560625 C29.8752,27.0210625 33.8152,28.1248125 35.51645,31.2223125 C37.2152,34.3223125 36.03145,38.2398125 32.87395,39.9773125 C29.71395,41.7160625 25.7777,40.6123125 24.0727,37.5123125 C22.37395,34.4135625 23.55645,30.4923125 26.7152,28.7560625" id="path3623"></path>
                    <path d="M45.4847,40.7043125 C48.43345,39.0818125 52.1122,40.1130625 53.6972,43.0018125 C55.2847,45.8968125 54.18095,49.5555625 51.2347,51.1755625 C48.28345,52.7993125 44.6072,51.7668125 43.0197,48.8743125 C41.4322,45.9843125 42.53595,42.3243125 45.4847,40.7043125" id="path3627"></path>
                    <path d="M58.436325,56.4959375 C61.171325,54.9871875 64.586325,55.9459375 66.060075,58.6296875 C67.536325,61.3159375 66.510075,64.7109375 63.772575,66.2184375 C61.032575,67.7246875 57.617575,66.7659375 56.143825,64.0821875 C54.670075,61.3971875 55.698825,57.9984375 58.436325,56.4959375" id="path3631"></path>
                    <path d="M66.21345,74.1754375 C68.7422,72.7841875 71.89595,73.6679375 73.2522,76.1466875 C74.61595,78.6241875 73.6722,81.7604375 71.14345,83.1504375 C68.61595,84.5416875 65.4622,83.6579375 64.1022,81.1804375 C62.7422,78.7004375 63.6872,75.5654375 66.21345,74.1754375" id="path3635"></path>
                    <path d="M68.575575,91.4946875 C70.893075,90.2221875 73.781825,91.0296875 75.028075,93.3059375 C76.274325,95.5746875 75.409325,98.4496875 73.089325,99.7221875 C70.770575,100.995938 67.884325,100.188438 66.639325,97.9171875 C65.391825,95.6446875 66.256825,92.7709375 68.575575,91.4946875" id="path3639"></path>
                    <path d="M66.42345,107.226563 C68.52845,106.069063 71.15345,106.805313 72.28595,108.869063 C73.4197,110.934063 72.6347,113.550313 70.52595,114.705313 C68.42095,115.864063 65.7972,115.130313 64.66095,113.061563 C63.52845,110.997813 64.31595,108.387813 66.42345,107.226563" id="path3643"></path>
                    <path d="M60.521325,121.535062 C62.420075,120.493812 64.780075,121.156312 65.805075,123.016312 C66.821325,124.875062 66.116325,127.225062 64.220075,128.271312 C62.321325,129.311312 59.958825,128.647562 58.941325,126.792563 C57.920075,124.930062 58.628825,122.578812 60.521325,121.535062" id="path3647"></path>
                    <path d="M51.897075,132.862562 C53.494575,131.780062 55.589575,132.198812 56.579575,133.796312 C57.574575,135.401312 57.082075,137.576312 55.484575,138.661312 C53.889575,139.743812 51.793325,139.325062 50.804575,137.726312 C49.814575,136.121312 50.302075,133.947562 51.897075,132.862562" id="path3651"></path>
                    <path d="M41.605325,140.606062 C43.081575,139.794812 44.917825,140.311062 45.711575,141.756062 C46.505325,143.202312 45.952825,145.029812 44.481575,145.839812 C43.002825,146.653562 41.166575,146.137312 40.374075,144.692312 C39.579075,143.247312 40.131575,141.416062 41.605325,140.606062" id="path3655"></path>
                    <path d="M31.534575,145.678062 C32.799575,144.981812 34.372075,145.425562 35.057075,146.664312 C35.732075,147.900562 35.262075,149.470562 33.999575,150.168062 C32.732075,150.860562 31.159575,150.420562 30.478325,149.179312 C29.798325,147.940562 30.269575,146.371812 31.534575,145.678062" id="path3659"></path>
                    <path d="M22.498825,148.272062 C23.555075,147.692062 24.863825,148.057062 25.433825,149.090812 C26.000075,150.123312 25.605075,151.432062 24.553825,152.010812 C23.498825,152.589562 22.186325,152.219562 21.621325,151.187062 C21.051325,150.155812 21.445075,148.849562 22.498825,148.272062" id="path3663"></path>
                    <path d="M14.874325,149.440937 C15.713075,148.974687 16.764325,149.268437 17.219325,150.095937 C17.670575,150.920937 17.356825,151.967187 16.514325,152.429687 C15.670575,152.895937 14.618075,152.599687 14.170575,151.773437 C13.709325,150.944687 14.028075,149.903437 14.874325,149.440937" id="path3667"></path>
                    <path d="M8.336325,149.053937 C8.967575,148.706437 9.757575,148.923937 10.097575,149.547687 C10.436325,150.165187 10.198825,150.950187 9.567575,151.297687 C8.933825,151.646437 8.148825,151.421437 7.807575,150.805187 C7.470075,150.182687 7.705075,149.401437 8.336325,149.053937" id="path3671"></path>
                    <path d="M5.28945,1.0826875 C9.40195,-1.1760625 14.56445,0.3289375 16.82445,4.4376875 C19.08195,8.5464375 17.57945,13.7089375 13.4682,15.9689375 C9.35445,18.2276875 4.19695,16.7264375 1.93945,12.6164375 C-0.3193,8.5051875 1.1782,3.3439375 5.28945,1.0826875" id="path3563"></path>
                    <path d="M32.196075,6.9189375 C36.049825,4.8039375 40.891075,6.2114375 43.008575,10.0651875 C45.126075,13.9201875 43.719825,18.7576875 39.864825,20.8751875 C36.009825,22.9914375 31.173575,21.5851875 29.051075,17.7289375 C26.937325,13.8764375 28.343575,9.0364375 32.196075,6.9189375" id="path3567"></path>
                    <path d="M55.32845,21.9103125 C58.92595,19.9340625 63.44345,21.2465625 65.4197,24.8440625 C67.39345,28.4415625 66.0822,32.9578125 62.4872,34.9353125 C58.88845,36.9103125 54.3697,35.5978125 52.3947,31.9978125 C50.41845,28.4040625 51.73095,23.8878125 55.32845,21.9103125" id="path3571"></path>
                    <path d="M71.37095,41.5960625 C74.71095,39.7610625 78.9072,40.9810625 80.73845,44.3185625 C82.5772,47.6598125 81.3572,51.8548125 78.01845,53.6885625 C74.67595,55.5273125 70.4797,54.3048125 68.64595,50.9660625 C66.8122,47.6273125 68.0297,43.4323125 71.37095,41.5960625" id="path3575"></path>
                    <path d="M81.093825,63.5674375 C84.178825,61.8736875 88.047575,63.0011875 89.740075,66.0824375 C91.437575,69.1661875 90.308825,73.0361875 87.230075,74.7311875 C84.145075,76.4236875 80.273825,75.2986875 78.581325,72.2161875 C76.886325,69.1336875 78.010075,65.2599375 81.093825,63.5674375" id="path3579"></path>
                    <path d="M84.17245,85.0323125 C86.99745,83.4798125 90.54495,84.5135625 92.0987,87.3398125 C93.6537,90.1673125 92.6212,93.7135625 89.79245,95.2673125 C86.96495,96.8198125 83.41745,95.7873125 81.8662,92.9623125 C80.31245,90.1360625 81.3437,86.5898125 84.17245,85.0323125" id="path3583"></path>
                    <path d="M81.70295,104.486688 C84.27045,103.074188 87.49545,104.015438 88.9067,106.580438 C90.3192,109.150438 89.3817,112.380438 86.81295,113.789188 C84.24295,115.199188 81.01545,114.261688 79.6042,111.692938 C78.19295,109.125438 79.1292,105.899188 81.70295,104.486688" id="path3587"></path>
                    <path d="M74.62045,122.138062 C76.93545,120.865562 79.8392,121.711812 81.11045,124.025562 C82.38045,126.338062 81.53545,129.240562 79.2217,130.509312 C76.91045,131.781812 74.0067,130.938062 72.73545,128.624312 C71.46795,126.311812 72.30795,123.409312 74.62045,122.138062" id="path3591"></path>
                    <path d="M64.168825,136.067438 C66.117575,134.746188 68.688825,135.286188 69.920075,137.277438 C71.151325,139.271188 70.573825,141.962438 68.625075,143.283688 C66.685075,144.609938 64.112575,144.067438 62.880075,142.077438 C61.651325,140.084938 62.227575,137.394938 64.168825,136.067438" id="path3595"></path>
                    <path d="M51.638325,145.545062 C53.437075,144.555062 55.694575,145.213812 56.683325,147.012562 C57.672075,148.810062 57.015825,151.070062 55.215825,152.056312 C53.414575,153.045062 51.157075,152.388812 50.172075,150.591312 C49.183325,148.793812 49.842075,146.535062 51.638325,145.545062" id="path3599"></path>
                    <path d="M39.345825,151.716312 C40.890825,150.867562 42.823325,151.432562 43.670825,152.972562 C44.519575,154.515062 43.955825,156.450062 42.414575,157.298812 C40.873325,158.143812 38.938325,157.580062 38.090825,156.038812 C37.242075,154.498812 37.803325,152.562562 39.345825,151.716312" id="path3603"></path>
                    <path d="M28.302075,154.829062 C29.585825,154.124063 31.199575,154.594063 31.904575,155.876563 C32.612075,157.164062 32.143325,158.779063 30.855825,159.481562 C29.573325,160.187813 27.962075,159.717813 27.254575,158.432813 C26.547075,157.149063 27.018325,155.537813 28.302075,154.829062" id="path3607"></path>
                    <path d="M18.9637,156.197437 C19.9937,155.629937 21.2812,156.006187 21.8462,157.033687 C22.4137,158.062437 22.0362,159.351187 21.00745,159.917438 C19.9812,160.482438 18.6887,160.103687 18.1262,159.078688 C17.55995,158.049937 17.9362,156.759937 18.9637,156.197437" id="path3611"></path>
                    <path d="M10.948575,155.648812 C11.718575,155.226313 12.687325,155.505063 13.109825,156.276313 C13.534825,157.045063 13.251075,158.016312 12.482325,158.438813 C11.709825,158.861312 10.743575,158.580062 10.321075,157.810063 C9.896075,157.038813 10.179825,156.072563 10.948575,155.648812" id="path3615"></path>
                </g>
                <g id="spiral-blue" transform="translate(41.500000, 0.750000)" fill="#000080">
                    <path d="M12.3202,129.947437 C8.3077,127.518687 7.02645,122.293687 9.45895,118.282437 C11.8877,114.272437 17.10895,112.993687 21.1227,115.423687 C25.13645,117.853687 26.41145,123.074937 23.98145,127.086187 C21.5552,131.094937 16.3327,132.378687 12.3202,129.947437" id="path3675"></path>
                    <path d="M3.919325,103.728562 C0.159325,101.449812 -1.041925,96.5548125 1.238075,92.7948125 C3.519325,89.0335625 8.411825,87.8323125 12.174325,90.1098125 C15.931825,92.3910625 17.133075,97.2848125 14.854325,101.046062 C12.575575,104.806062 7.681825,106.007312 3.919325,103.728562" id="path3679"></path>
                    <path d="M5.336575,76.2011875 C1.827825,74.0736875 0.706575,69.5061875 2.831575,65.9961875 C4.960325,62.4861875 9.529075,61.3636875 13.039075,63.4911875 C16.546575,65.6186875 17.667825,70.1861875 15.541575,73.6961875 C13.414075,77.2061875 8.847825,78.3299375 5.336575,76.2011875" id="path3683"></path>
                    <path d="M14.36245,52.4645625 C11.10495,50.4895625 10.06495,46.2483125 12.03745,42.9895625 C14.01245,39.7295625 18.2562,38.6895625 21.5162,40.6620625 C24.7762,42.6395625 25.81495,46.8833125 23.83995,50.1420625 C21.86745,53.3983125 17.62245,54.4395625 14.36245,52.4645625" id="path3687"></path>
                    <path d="M28.5287,33.05906 C25.52245,31.23531 24.56245,27.31906 26.38245,24.31031 C28.2087,21.30156 32.1237,20.34156 35.12995,22.16406 C38.13745,23.98781 39.0987,27.90406 37.2787,30.91031 C35.4562,33.92031 31.53745,34.88156 28.5287,33.05906" id="path3691"></path>
                    <path d="M45.581825,19.66118 C42.824325,17.98868 41.945575,14.39993 43.615575,11.64243 C45.286825,8.88243 48.875575,8.00368 51.635575,9.67618 C54.389325,11.34868 55.271825,14.93493 53.601825,17.69243 C51.929325,20.44868 48.341825,21.32993 45.581825,19.66118" id="path3695"></path>
                    <path d="M63.66295,12.07206 C61.1567,10.55456 60.3567,7.28956 61.87545,4.78581 C63.3917,2.27831 66.6592,1.47456 69.16545,2.99581 C71.6717,4.51706 72.47295,7.77581 70.9517,10.28581 C69.43295,12.78956 66.17295,13.59206 63.66295,12.07206" id="path3699"></path>
                    <path d="M82.489825,9.37743 C80.229825,8.01118 79.513575,5.07243 80.879825,2.81743 C82.248575,0.55993 85.182325,-0.15882 87.441075,1.20993 C89.697325,2.57743 90.418575,5.51118 89.052325,7.76868 C87.682325,10.02493 84.748575,10.74618 82.489825,9.37743" id="path3703"></path>
                    <path d="M99.7787,11.46418 C97.66245,10.43918 96.83995,7.94168 97.95495,5.87918 C99.06245,3.81543 101.68245,2.97168 103.79995,3.99543 C105.9212,5.01668 106.73745,7.51668 105.62745,9.57918 C104.5162,11.63793 101.89995,12.48168 99.7787,11.46418" id="path3707"></path>
                    <path d="M114.252575,17.57806 C112.496325,16.51556 111.940075,14.23181 113.002575,12.47681 C114.066325,10.71931 116.348825,10.15931 118.103825,11.22431 C119.858825,12.28931 120.418825,14.57306 119.355075,16.32681 C118.293825,18.08181 116.010075,18.64556 114.252575,17.57806" id="path3711"></path>
                    <path d="M125.74295,25.13731 C124.2367,24.22481 123.7567,22.26731 124.6692,20.76231 C125.58045,19.25731 127.53795,18.78106 129.0442,19.68981 C130.5467,20.60481 131.0267,22.56106 130.11545,24.06606 C129.2042,25.56856 127.24795,26.05106 125.74295,25.13731" id="path3715"></path>
                    <path d="M133.9632,33.14506 C132.7082,32.38631 132.3082,30.75631 133.0682,29.50256 C133.82695,28.24756 135.4607,27.84756 136.71195,28.60631 C137.96695,29.36631 138.3657,30.99756 137.60695,32.25131 C136.8482,33.50631 135.2182,33.90631 133.9632,33.14506" id="path3719"></path>
                    <path d="M139.814075,40.5493125 C138.810325,39.9443125 138.491575,38.6380625 139.099075,37.6343125 C139.705325,36.6305625 141.012825,36.3130625 142.017825,36.9205625 C143.017825,37.5280625 143.334075,38.8343125 142.730325,39.8343125 C142.122825,40.8380625 140.819075,41.1593125 139.814075,40.5493125" id="path3723"></path>
                    <path d="M143.3492,47.7660625 C142.59545,47.3098125 142.3542,46.3323125 142.81045,45.5798125 C143.2667,44.8273125 144.2467,44.5860625 144.9992,45.0423125 C145.75045,45.4985625 145.9892,46.4785625 145.5342,47.2285625 C145.07545,47.9848125 144.10295,48.2210625 143.3492,47.7660625" id="path3727"></path>
                    <path d="M32.6107,118.798812 C29.3207,116.805062 28.23945,112.577562 30.1932,109.352562 C32.14945,106.127562 36.4007,105.132562 39.69195,107.123812 C42.98195,109.115062 44.0607,113.343812 42.1082,116.566312 C40.14945,119.788812 35.9007,120.786312 32.6107,118.798812" id="path3731"></path>
                    <path d="M25.572075,97.5566875 C22.488325,95.6866875 21.478325,91.7266875 23.307075,88.7054375 C25.140825,85.6804375 29.125825,84.7441875 32.209575,86.6129375 C35.294575,88.4816875 36.308325,92.4416875 34.475825,95.4679375 C32.642075,98.4904375 28.657075,99.4241875 25.572075,97.5566875" id="path3735"></path>
                    <path d="M26.5352,75.3283125 C23.6577,73.5845625 22.70895,69.8858125 24.42145,67.0683125 C26.13145,64.2458125 29.85395,63.3720625 32.73145,65.1133125 C35.6077,66.8583125 36.55395,70.5558125 34.84145,73.3758125 C33.1352,76.1970625 29.41145,77.0720625 26.5352,75.3283125" id="path3739"></path>
                    <path d="M33.7362,56.2170625 C31.0587,54.6020625 30.18245,51.1658125 31.76995,48.5445625 C33.35995,45.9270625 36.81495,45.1183125 39.4887,46.7345625 C42.15995,48.3533125 43.03995,51.7895625 41.4512,54.4070625 C39.85995,57.0270625 36.40495,57.8358125 33.7362,56.2170625" id="path3743"></path>
                    <path d="M45.158325,40.6408125 C42.685825,39.1470625 41.877075,35.9745625 43.343325,33.5595625 C44.813325,31.1408125 47.998325,30.3908125 50.464575,31.8858125 C52.934575,33.3808125 53.744575,36.5508125 52.280825,38.9695625 C50.813325,41.3858125 47.623325,42.1358125 45.158325,40.6408125" id="path3747"></path>
                    <path d="M58.9767,29.9383088 C56.7167,28.5658088 55.97045,25.6595588 57.31795,23.4445588 C58.6617,21.2308088 61.58295,20.5408088 63.84545,21.9145588 C66.10545,23.2820588 66.85045,26.1870588 65.5092,28.4020588 C64.1617,30.6183088 61.2417,31.3070588 58.9767,29.9383088" id="path3751"></path>
                    <path d="M73.677575,23.9349338 C71.620075,22.6911838 70.947575,20.0486838 72.166325,18.0349338 C73.390075,16.0199338 76.043825,15.3936838 78.102575,16.6411838 C80.157575,17.8849338 80.836325,20.5224338 79.610075,22.5399338 C78.390075,24.5561838 75.735075,25.1774338 73.677575,23.9349338" id="path3755"></path>
                    <path d="M89.0182,21.8908087 C87.1682,20.7670587 86.56195,18.3895587 87.6582,16.5758087 C88.7582,14.7645587 91.14945,14.2020587 93.0032,15.3208087 C94.85195,16.4433087 95.4582,18.8208087 94.35945,20.6308087 C93.26195,22.4470587 90.86945,23.0095587 89.0182,21.8908087" id="path3759"></path>
                    <path d="M103.1392,23.6956837 C101.3992,22.8544337 100.72045,20.8306837 101.60795,19.1756837 C102.5017,17.5131837 104.6317,16.8494337 106.36795,17.6894337 C108.1042,18.5319337 108.79045,20.5556837 107.8992,22.2119337 C107.00545,23.8706837 104.8767,24.5381837 103.1392,23.6956837" id="path3763"></path>
                    <path d="M114.992325,28.7371838 C113.552325,27.8646838 113.079825,26.0159338 113.936075,24.6059338 C114.788575,23.1946838 116.647325,22.7621838 118.087325,23.6321838 C119.531075,24.5021838 120.002325,26.3509338 119.146075,27.7609338 C118.294825,29.1709338 116.431075,29.6096838 114.992325,28.7371838" id="path3767"></path>
                    <path d="M124.42095,34.92305 C123.18595,34.1743 122.78095,32.5918 123.51595,31.38055 C124.24595,30.17555 125.84095,29.79805 127.07595,30.5468 C128.3072,31.29305 128.7147,32.87805 127.9797,34.0868 C127.24845,35.2968 125.6522,35.6718 124.42095,34.92305" id="path3771"></path>
                    <path d="M131.18245,41.4501875 C130.1537,40.8264375 129.8162,39.5089375 130.4262,38.5001875 C131.0387,37.4939375 132.3662,37.1801875 133.3962,37.8026875 C134.42495,38.4239375 134.75745,39.7489375 134.14745,40.7551875 C133.53745,41.7639375 132.20995,42.0726875 131.18245,41.4501875" id="path3775"></path>
                    <path d="M136.010325,47.4719375 C135.186575,46.9756875 134.914075,45.9194375 135.406575,45.1131875 C135.891575,44.3094375 136.955325,44.0581875 137.776575,44.5556875 C138.602825,45.0519375 138.871575,46.1106875 138.380325,46.9144375 C137.891575,47.7244375 136.834075,47.9706875 136.010325,47.4719375" id="path3779"></path>
                    <path d="M138.9437,53.3258125 C138.3287,52.9520625 138.1237,52.1595625 138.4887,51.5558125 C138.8537,50.9520625 139.6537,50.7645625 140.26995,51.1370625 C140.8887,51.5095625 141.08995,52.3045625 140.7237,52.9083125 C140.35495,53.5133125 139.55995,53.6983125 138.9437,53.3258125" id="path3783"></path>
                </g>
            </g>
            <g id="BMG" transform="translate(0.633689, 53.516130)" fill="#000022">
                <path d="M0.36631125,2.044625 L18.2145713,2.044625 C27.5782637,2.044625 34.6725896,4.00732083 39.4975487,7.9327125 C44.3225079,11.8581042 46.7349875,17.2759583 46.7349875,24.186275 C46.7349875,32.44595 42.6255942,38.8042667 34.4068075,43.261225 C47.6141108,46.1234917 54.2177625,53.3609292 54.2177625,64.9735375 C54.2177625,71.9247542 51.6212804,77.4652792 46.4283163,81.5951125 C41.2762413,85.6840625 34.2841392,87.7285375 25.45201,87.7285375 L0.36631125,87.7285375 L0.36631125,2.044625 L0.36631125,2.044625 Z M6.9904075,7.5647 L6.9904075,41.7278625 L16.1905412,41.7278625 C31.7694354,41.7278625 39.5588825,36.044225 39.5588825,24.67695 C39.5588825,13.2687833 31.6876567,7.5647 15.945205,7.5647 L6.9904075,7.5647 L6.9904075,7.5647 Z M6.9904075,47.3092875 L6.9904075,82.2084625 L24.716,82.2084625 C32.0352175,82.2084625 37.5961871,80.6342167 41.3989087,77.485725 C45.2016313,74.3372333 47.1029925,70.1256167 47.1029925,64.850875 C47.1029925,53.1564833 38.6797587,47.3092875 21.8332913,47.3092875 L6.9904075,47.3092875 L6.9904075,47.3092875 Z" id="path4352"></path>
                <polygon id="path4354" points="106.045185 41.8505375 138.674987 2.044625 145.360425 2.044625 145.360425 87.7285375 138.674987 87.7285375 138.674987 11.735425 106.045185 51.7866875 73.3540413 11.735425 73.3540413 87.7285375 66.729945 87.7285375 66.729945 2.044625 73.3540413 2.044625 106.045185 41.8505375"></polygon>
                <path d="M236.564425,8.239375 L236.564425,15.72215 C226.423833,9.95673333 216.303683,7.074025 206.203975,7.074025 C195.368267,7.074025 186.352137,10.6723 179.155587,17.86885 C171.959037,25.0654 168.360762,34.0815333 168.360762,44.91725 C168.360762,55.7529583 171.918146,64.7690875 179.032912,71.9656375 C186.147687,79.1213042 195.81805,82.6991375 208.044,82.6991375 C216.876133,82.6991375 224.706471,80.9408875 231.535012,77.4243875 L231.535012,54.3013875 L213.441412,54.3013875 L213.441412,48.7813 L238.22045,48.7813 L238.22045,81.5951125 C228.120742,86.4200708 217.98015,88.83255 207.798675,88.83255 C194.509592,88.83255 183.408096,84.6209333 174.494187,76.1977 C165.621162,67.7744667 161.18465,57.2658708 161.18465,44.6719125 C161.18465,32.1597292 165.539383,21.7533542 174.24885,13.4527875 C182.9992,5.1113375 193.978025,0.9406125 207.185325,0.9406125 C216.181017,0.9406125 225.97405,3.37353333 236.564425,8.239375 L236.564425,8.239375 Z" id="path4356"></path>
            </g>
        </g>
    </g>
</svg>