<svg xmlns="http://www.w3.org/2000/svg" viewBox="0 0 60 58"><defs><style>.a,.d{fill:#e9eaeb;}.b,.e{fill:#9d54a0;}.b,.c,.d,.e,.f{stroke:#6a336d;stroke-width:2px;}.b,.d,.f{stroke-linejoin:round;}.c,.f{fill:none;}.c,.e{stroke-miterlimit:10;}</style></defs><title>blueprint</title><path class="a" d="M50.76,24A21,21,0,1,0,9.24,24Z"/><path class="b" d="M7,50a2.3,2.3,0,0,0-2-1,4,4,0,0,0-4,4V23a4,4,0,0,1,4-4,2,2,0,0,1,2,1Z"/><line class="c" x1="22" y1="24" x2="10" y2="24"/><line class="c" x1="50" y1="24" x2="38" y2="24"/><path class="c" d="M59,53a4,4,0,0,1-4,4H5a4,4,0,0,1-4-4"/><path class="d" d="M53,50a2.3,2.3,0,0,1,2-1,4,4,0,0,1,4,4V23a4,4,0,0,0-4-4,2,2,0,0,0-2,1Z"/><polygon class="e" points="30 6 28 8 28 12 30 14 32 12 32 8 30 6"/><polyline class="f" points="41.75 51 30 20 18 51"/><line class="c" x1="30" y1="35" x2="30" y2="44"/><circle class="c" cx="30" cy="21" r="6"/><path class="c" d="M44,34a19.33,19.33,0,0,1-28,0"/></svg>