<svg xmlns="http://www.w3.org/2000/svg" viewBox="0 0 64.23 51.22"><defs><style>.a,.b{fill:none;}.a{stroke:#bcc0c4;}.a,.b,.d,.e{stroke-miterlimit:10;stroke-width:2px;}.b,.d,.e{stroke:#6a336d;}.c{fill:#e9eaeb;}.d{fill:#fff;}.e{fill:#9d54a0;}</style></defs><title>speed</title><path class="a" d="M2.2,23.44A31.16,31.16,0,0,0,7,50.41"/><path class="a" d="M29.95,1A31.13,31.13,0,0,0,3.57,19.62"/><path class="a" d="M62,23.44a31.16,31.16,0,0,1-4.81,27"/><path class="a" d="M34.28,1A31.13,31.13,0,0,1,60.66,19.62"/><path class="b" d="M49.5,49.83a24.74,24.74,0,1,0-34.53,0"/><line class="b" x1="32" y1="7.22" x2="32" y2="11.22"/><line class="b" x1="17.06" y1="12.66" x2="19.47" y2="15.75"/><line class="b" x1="8.36" y1="26.19" x2="12.17" y2="27.14"/><line class="b" x1="9.84" y1="42.21" x2="13.42" y2="40.62"/><line class="b" x1="47.42" y1="12.66" x2="45.01" y2="15.75"/><line class="b" x1="56.12" y1="26.19" x2="52.31" y2="27.14"/><line class="b" x1="54.64" y1="42.21" x2="51.06" y2="40.62"/><circle class="c" cx="33" cy="39.22" r="12"/><path class="d" d="M47.19,27.83,34.32,35.2a4.45,4.45,0,1,0,3,3.77l10.38-10.5Z"/><path class="e" d="M44,24.55a13.33,13.33,0,0,0-23.27,3.53l.44.35a12.11,12.11,0,0,1,1.66-1.53c5-3.75,12.12-3.25,15.61,1.7l5.94-3.49C44.24,24.92,44.13,24.73,44,24.55Z"/></svg>