<svg xmlns="http://www.w3.org/2000/svg" viewBox="0 0 58 57"><defs><style>.a{fill:#e9eaeb;}.b{fill:#fff;}.c{fill:#9d54a0;}.d{fill:none;stroke:#6a336d;stroke-miterlimit:10;stroke-width:2px;}</style></defs><title>strategy</title><circle class="a" cx="20.5" cy="20.5" r="20.5"/><path class="b" d="M55,46H25a2,2,0,0,1-2-2V6a2,2,0,0,1,2-2H49l8,8V44A2,2,0,0,1,55,46Z"/><polygon class="c" points="48 4 48 13 57 13 48 4"/><path class="d" d="M55,46H25a2,2,0,0,1-2-2V6a2,2,0,0,1,2-2H49l8,8V44A2,2,0,0,1,55,46Z"/><polyline class="d" points="54 13 48 13 48 7"/><path class="c" d="M28,25l3,3,3-3V22l-7.5-7.5L30,11a11.65,11.65,0,0,0-8-3A13,13,0,0,0,9,21V33l3,3v8H10a2,2,0,0,0-2,2v3H7a2,2,0,0,0-2,2v5H34V51a2,2,0,0,0-2-2H31V46a2,2,0,0,0-2-2H27V40l4-4-7-7V25Z"/><path class="d" d="M8,49V46a2,2,0,0,1,2-2h7"/><path class="d" d="M24,44h5a2,2,0,0,1,2,2v3"/><path class="d" d="M19,49H7a2,2,0,0,0-2,2v5H34V51a2,2,0,0,0-2-2H26"/><line class="d" x1="21" y1="49" x2="23" y2="49"/><line class="d" x1="19" y1="44" x2="21" y2="44"/><polyline class="d" points="24 25 24 29 31 36 27 40 27 44"/><path class="d" d="M25,13l9,9v3l-3,3-3-3H22a4,4,0,0,1-4-4h0"/><path class="d" d="M12,43V36L9,33V21A13,13,0,0,1,22,8a11.65,11.65,0,0,1,8,3l-3,3"/><path class="d" d="M21,12a8,8,0,0,0-8,8v4"/><line class="d" x1="41" y1="20" x2="51" y2="20"/><line class="d" x1="37" y1="20" x2="39" y2="20"/><line class="d" x1="41" y1="24" x2="51" y2="24"/><line class="d" x1="37" y1="24" x2="39" y2="24"/><line class="d" x1="41" y1="28" x2="51" y2="28"/><line class="d" x1="37" y1="28" x2="39" y2="28"/><line class="d" x1="41" y1="32" x2="51" y2="32"/><line class="d" x1="37" y1="32" x2="39" y2="32"/><line class="d" x1="41" y1="36" x2="51" y2="36"/><line class="d" x1="37" y1="36" x2="39" y2="36"/></svg>