<svg xmlns="http://www.w3.org/2000/svg" viewBox="0 0 58 54.41"><defs><style>.a{fill:#fff;}.a,.c,.d{stroke:#6a336d;}.a,.b,.c,.d{stroke-miterlimit:10;stroke-width:2px;}.b,.c{fill:none;}.b{stroke:#bcc0c4;}.d{fill:#9d54a0;}</style></defs><title>trusted-security</title><path class="a" d="M29,6H43.14c.56,4,3.86,6.64,7.86,7.19V33.35c0,10.78-19.24,20.06-22,20.06S7,44.13,7,33.35V13.19C11,12.64,14.31,10,14.86,6Z"/><path class="b" d="M57,24v9.35c0,6.8-4.42,13.3-12.78,19.23"/><line class="b" x1="36" y1="1" x2="44" y2="1"/><line class="b" x1="14" y1="1" x2="22" y2="1"/><path class="b" d="M13.78,52.58C5.42,46.65,1,40.15,1,33.35V24"/><path class="c" d="M42.69,28.39a14.61,14.61,0,1,1-9.4-13.66"/><polygon class="d" points="42.18 13.87 29 27.05 23.51 21.56 19.11 25.95 29 35.84 46.57 18.26 42.18 13.87"/><line class="b" x1="57" y1="12" x2="57" y2="14"/><line class="b" x1="57" y1="16" x2="57" y2="18"/><line class="b" x1="57" y1="20" x2="57" y2="22"/><line class="b" x1="1" y1="12" x2="1" y2="14"/><line class="b" x1="1" y1="16" x2="1" y2="18"/><line class="b" x1="1" y1="20" x2="1" y2="22"/><line class="b" x1="28" y1="1" x2="30" y2="1"/><line class="b" x1="24" y1="1" x2="26" y2="1"/><line class="b" x1="32" y1="1" x2="34" y2="1"/></svg>