<svg xmlns="http://www.w3.org/2000/svg" xmlns:xlink="http://www.w3.org/1999/xlink" viewBox="0 0 630.38 266.6"><defs><style>.a{fill:none;}.b{fill:#9d54a0;}.b,.c,.d,.e,.f,.g,.k{fill-rule:evenodd;}.c{fill:#807e80;}.d{fill:#9bca48;}.e,.h{fill:#74bf45;}.f{fill:#7b51a0;}.g{fill:#f4f4f4;}.i{fill:#858687;}.j{clip-path:url(#a);}.k{fill:#9454a0;}</style><clipPath id="a"><rect class="a" x="251.5" y="112.63" width="360.84" height="3.16"/></clipPath></defs><title>Asset 1</title><polyline class="b" points="188.49 67.78 142.66 0 0 211.08 91.19 211.08 142.66 134.92"/><polyline class="c" points="0 211.08 91.19 211.08 142.66 134.92"/><polyline class="d" points="142.66 134.92 194.14 211.08 285.34 211.08 188.49 67.78 142.66 0"/><polyline class="e" points="142.66 0 188.49 67.78 285.34 211.08 194.14 211.08 142.66 0"/><polygon class="f" points="142.66 0 142.66 134.92 94.24 161.02 142.66 0"/><polygon class="g" points="91.19 211.08 0 211.08 54.12 266.6 285.34 211.08 194.14 211.08 107.12 231.54 91.19 211.08"/><path class="h" d="M246.57,84.37a24,24,0,0,1,.9-6.69,15.76,15.76,0,0,1,2.7-5.4,13,13,0,0,1,4.5-3.64A14.07,14.07,0,0,1,261,67.29h15.51v6H260.19a4.53,4.53,0,0,0-2.63,1,10.89,10.89,0,0,0-2.48,2.55,15.81,15.81,0,0,0-1.87,3.53,11,11,0,0,0-.75,4,11.7,11.7,0,0,0,.73,4.06,14.42,14.42,0,0,0,1.87,3.56,10.12,10.12,0,0,0,2.58,2.52,5.12,5.12,0,0,0,2.84,1h9.63V79.27h6.42v22.12H259.89a10.55,10.55,0,0,1-5.69-1.54,14,14,0,0,1-4.18-4,18.74,18.74,0,0,1-2.58-5.49A21.47,21.47,0,0,1,246.57,84.37Z"/><path class="h" d="M280.17,67.29h17.65a8,8,0,0,1,3.91.92,8.21,8.21,0,0,1,2.77,2.46,10.94,10.94,0,0,1,1.63,3.5,15.22,15.22,0,0,1,.54,4,15.56,15.56,0,0,1-1.36,6.8,7,7,0,0,1-4.37,3.78l8.46,12.6h-7.92L288.82,83.81h8.36a2.1,2.1,0,0,0,1.38-.56,5.09,5.09,0,0,0,1.12-1.37,8,8,0,0,0,.73-1.74,6,6,0,0,0,.27-1.65,5.41,5.41,0,0,0-.22-1.37,8.15,8.15,0,0,0-.58-1.54,4.41,4.41,0,0,0-.9-1.23,1.67,1.67,0,0,0-1.17-.5H280.17Z"/><path class="h" d="M337.78,101.39h-6.61V96.3l-3.6,5.1H317.9a8.34,8.34,0,0,1-3.72-.76,7,7,0,0,1-2.53-2.07,8.69,8.69,0,0,1-1.46-3,13.58,13.58,0,0,1-.46-3.56V67.29h6.66v23.3a6.56,6.56,0,0,0,.61,3.22q.61,1,2.75,1h11.43V67.29h6.61Z"/><path class="h" d="M341.43,67.29h17.65a7.21,7.21,0,0,1,4,1.06,9.07,9.07,0,0,1,2.75,2.77,12.44,12.44,0,0,1,1.6,3.81,17.36,17.36,0,0,1,.51,4.12,14.77,14.77,0,0,1-2.16,7.5,10,10,0,0,1-2.5,2.77A5.3,5.3,0,0,1,360,90.42h-8.46l-3.5-5.1v16.07h-6.61ZM348,73.84V84.37h10.7a1.93,1.93,0,0,0,1.34-.56,4.8,4.8,0,0,0,1-1.37,7.77,7.77,0,0,0,.63-1.74,5.95,5.95,0,0,0,0-3.11,9.33,9.33,0,0,0-.56-1.74,5.14,5.14,0,0,0-.9-1.43,1.61,1.61,0,0,0-1.21-.59Z"/><path class="h" d="M370.12,84.54a20.81,20.81,0,0,1,1.26-7.28,19,19,0,0,1,3.45-5.94,16.79,16.79,0,0,1,5.11-4,13.64,13.64,0,0,1,6.27-1.48,14.22,14.22,0,0,1,6.39,1.46,16.07,16.07,0,0,1,5.1,4,18.56,18.56,0,0,1,3.38,5.94,21.74,21.74,0,0,1,1.21,7.34,20.88,20.88,0,0,1-1.24,7.28,18.38,18.38,0,0,1-3.4,5.82,15.71,15.71,0,0,1-5.11,3.86,14.58,14.58,0,0,1-6.34,1.4,14.31,14.31,0,0,1-6.27-1.4,16,16,0,0,1-5.11-3.86,18.45,18.45,0,0,1-3.45-5.82A20.51,20.51,0,0,1,370.12,84.54Zm6,0a12.36,12.36,0,0,0,.8,4.45,11.77,11.77,0,0,0,2.16,3.64,10.59,10.59,0,0,0,3.18,2.46,8.43,8.43,0,0,0,3.87.92,9.3,9.3,0,0,0,4-.87,10.48,10.48,0,0,0,3.28-2.38,11,11,0,0,0,2.21-3.61,12.86,12.86,0,0,0,.8-4.62,13.2,13.2,0,0,0-.78-4.51,12.38,12.38,0,0,0-2.14-3.78,10.34,10.34,0,0,0-3.21-2.58,8.69,8.69,0,0,0-4-1,8.48,8.48,0,0,0-3.94,1,10.15,10.15,0,0,0-3.21,2.6,13.23,13.23,0,0,0-2.16,3.78A12.59,12.59,0,0,0,376.1,84.54Z"/><path class="h" d="M440.13,67.29h6.66l14.59,34.1h-7.1l-4-9.46h-8.36l-3.36-5.26-5.83,14.73h-7.1Zm3.21,7.28-4.57,11.26h9.43l-4.67-11.26Z"/><path class="h" d="M463.81,73.28v-6h15.46a13.24,13.24,0,0,1,6,1.34,14.06,14.06,0,0,1,4.57,3.64,16.11,16.11,0,0,1,2.89,5.4,21.81,21.81,0,0,1,1,6.69,21.49,21.49,0,0,1-.87,6,18.77,18.77,0,0,1-2.58,5.49,14.16,14.16,0,0,1-4.16,4,10.43,10.43,0,0,1-5.66,1.54H463.81V79.27h6.42V95.4h9.63a5.12,5.12,0,0,0,2.84-1,10.14,10.14,0,0,0,2.58-2.52,14.46,14.46,0,0,0,1.87-3.56,11.69,11.69,0,0,0,.73-4.06,10.16,10.16,0,0,0-.83-4,16.27,16.27,0,0,0-2-3.53,12.88,12.88,0,0,0-2.5-2.55,4.09,4.09,0,0,0-2.33-1Z"/><path class="h" d="M496.68,73.28v-6h15.46a13.24,13.24,0,0,1,6,1.34,14.06,14.06,0,0,1,4.57,3.64,16.11,16.11,0,0,1,2.89,5.4,21.81,21.81,0,0,1,1,6.69,21.49,21.49,0,0,1-.87,6,18.77,18.77,0,0,1-2.58,5.49,14.16,14.16,0,0,1-4.16,4,10.43,10.43,0,0,1-5.66,1.54H496.68V79.27h6.42V95.4h9.63a5.12,5.12,0,0,0,2.84-1,10.14,10.14,0,0,0,2.58-2.52A14.46,14.46,0,0,0,520,88.37a11.7,11.7,0,0,0,.73-4.06,10.16,10.16,0,0,0-.83-4,16.27,16.27,0,0,0-2-3.53,12.88,12.88,0,0,0-2.5-2.55,4.09,4.09,0,0,0-2.33-1Z"/><path class="h" d="M529.54,101.39v-6H538V73.28h-8.41v-6h23.39v6h-8.36V95.4h8.36v6Z"/><path class="h" d="M556.67,95.4h18a2.07,2.07,0,0,0,1.14-.36,3.89,3.89,0,0,0,1-1,5.53,5.53,0,0,0,.71-1.26,3.62,3.62,0,0,0,.27-1.34,5.22,5.22,0,0,0-.85-2.88,2.59,2.59,0,0,0-2.26-1.32H564.5a7.05,7.05,0,0,1-3.4-.81,7.84,7.84,0,0,1-2.55-2.18,10.62,10.62,0,0,1-1.63-3.14,11.61,11.61,0,0,1-.58-3.67,11.79,11.79,0,0,1,.68-4.06,9.86,9.86,0,0,1,1.87-3.22,8.88,8.88,0,0,1,2.82-2.13,8,8,0,0,1,3.53-.78h18.23v6H564.89a1.57,1.57,0,0,0-1,.39,3.45,3.45,0,0,0-.8,1,5.72,5.72,0,0,0-.51,1.37,6.16,6.16,0,0,0-.17,1.4,3.78,3.78,0,0,0,.24,1.29,6,6,0,0,0,.61,1.23,4.06,4.06,0,0,0,.8.92,1.32,1.32,0,0,0,.83.36H575.3a7.16,7.16,0,0,1,3.45.84,9.13,9.13,0,0,1,2.7,2.21,9.79,9.79,0,0,1,1.75,3.19,12.06,12.06,0,0,1,.61,3.84,12.45,12.45,0,0,1-.51,3.42A11.83,11.83,0,0,1,581.83,98a8.81,8.81,0,0,1-2.29,2.41,5,5,0,0,1-3,1H556.67Z"/><path class="h" d="M612.49,67.29v6h-9.33v28.11h-6.61V73.28h-9.34v-6Z"/><path class="i" d="M333.16,128.69a5.81,5.81,0,0,1-.26,1.75,5.23,5.23,0,0,1-.75,1.51,5.7,5.7,0,0,1-1.19,1.21,6,6,0,0,1-1.56.84,4.27,4.27,0,0,1,1.27.44,3.4,3.4,0,0,1,1.64,2,4.65,4.65,0,0,1,.23,1.5,6.4,6.4,0,0,1-.2,1.56,6.29,6.29,0,0,1-.64,1.58,6.84,6.84,0,0,1-1.15,1.47,7.14,7.14,0,0,1-1.71,1.23,9.61,9.61,0,0,1-2.3.83,13.34,13.34,0,0,1-3,.31h-5.64a1.22,1.22,0,0,1-.93-.31,1.08,1.08,0,0,1-.15-1l3.55-17.73a1.48,1.48,0,0,1,.56-1,1.68,1.68,0,0,1,1-.31h4.89a13.57,13.57,0,0,1,2.8.25,6,6,0,0,1,2,.76,3.4,3.4,0,0,1,1.21,1.29A3.94,3.94,0,0,1,333.16,128.69Zm-5,9.41a1.91,1.91,0,0,0-.75-1.59,3.89,3.89,0,0,0-2.38-.58h-2.75l-1.15,5.78h2.92a4.93,4.93,0,0,0,1.88-.31,3.73,3.73,0,0,0,1.26-.82,3.16,3.16,0,0,0,.73-1.16A3.88,3.88,0,0,0,328.21,138.11Zm.69-8.64a1.78,1.78,0,0,0-.16-.77,1.53,1.53,0,0,0-.47-.57,2.28,2.28,0,0,0-.79-.36,4.93,4.93,0,0,0-1.22-.13H324l-1.07,5.28h2.33a3.94,3.94,0,0,0,1.7-.32,3.23,3.23,0,0,0,1.74-2A3.87,3.87,0,0,0,328.9,129.46Z"/><path class="i" d="M347.43,144.36a.59.59,0,0,1-.13.27.7.7,0,0,1-.31.19,2.73,2.73,0,0,1-.54.11,7.1,7.1,0,0,1-.82,0,6.46,6.46,0,0,1-.79,0,1.93,1.93,0,0,1-.48-.11.4.4,0,0,1-.23-.19.37.37,0,0,1,0-.27l.42-2.28a5.49,5.49,0,0,1-.86,1.11,7.47,7.47,0,0,1-1.27,1,6.89,6.89,0,0,1-1.55.75,5.27,5.27,0,0,1-1.71.28,5,5,0,0,1-1.86-.31,3.18,3.18,0,0,1-1.23-.83,3.24,3.24,0,0,1-.68-1.27,5.82,5.82,0,0,1-.21-1.6,8.57,8.57,0,0,1,.07-1.09q.07-.56.18-1.14l1.73-8.69a.52.52,0,0,1,.15-.27.83.83,0,0,1,.36-.19,3.71,3.71,0,0,1,.64-.11q.39,0,1,0a9.41,9.41,0,0,1,1,0,2.76,2.76,0,0,1,.57.11.49.49,0,0,1,.27.19.37.37,0,0,1,0,.27l-1.67,8.42a6.1,6.1,0,0,0-.12.72,7,7,0,0,0,0,.72,3.06,3.06,0,0,0,.07.68,1.46,1.46,0,0,0,.23.53,1,1,0,0,0,.4.33,1.42,1.42,0,0,0,.59.11,2.63,2.63,0,0,0,1.34-.42,5.43,5.43,0,0,0,1.33-1.15,8.28,8.28,0,0,0,1.12-1.73,9.24,9.24,0,0,0,.75-2.16l1.19-6.07a.42.42,0,0,1,.14-.27.89.89,0,0,1,.37-.19,3.69,3.69,0,0,1,.64-.11q.39,0,1,0a9.42,9.42,0,0,1,1,0,2.9,2.9,0,0,1,.58.11.46.46,0,0,1,.28.19.4.4,0,0,1,0,.27Z"/><path class="i" d="M363,130.94a4.08,4.08,0,0,1-.06.56,5.55,5.55,0,0,1-.17.75,3.3,3.3,0,0,1-.26.65q-.15.27-.34.27a1,1,0,0,1-.48-.15l-.67-.33a5.91,5.91,0,0,0-.92-.32,4.8,4.8,0,0,0-1.23-.14,3.15,3.15,0,0,0-1,.14,2.08,2.08,0,0,0-.71.39,1.65,1.65,0,0,0-.43.57,1.69,1.69,0,0,0-.15.71,1,1,0,0,0,.4.82,5,5,0,0,0,1,.62l1.29.6a6.24,6.24,0,0,1,1.29.79,4,4,0,0,1,1,1.15,3.34,3.34,0,0,1,.39,1.7,5.33,5.33,0,0,1-.46,2.21,4.92,4.92,0,0,1-1.33,1.75,6.35,6.35,0,0,1-2.12,1.15,8.89,8.89,0,0,1-2.82.42,9.17,9.17,0,0,1-1.44-.11,10.57,10.57,0,0,1-1.23-.27,4.61,4.61,0,0,1-.92-.36,2.85,2.85,0,0,1-.57-.38.77.77,0,0,1-.18-.27,1,1,0,0,1-.06-.36,3.53,3.53,0,0,1,0-.36q0-.22.08-.49t.13-.53a3.42,3.42,0,0,1,.16-.49,1.46,1.46,0,0,1,.2-.35.31.31,0,0,1,.24-.13.87.87,0,0,1,.49.19,6.86,6.86,0,0,0,.69.42,6.14,6.14,0,0,0,1,.42,5.21,5.21,0,0,0,1.55.2,3.78,3.78,0,0,0,1.12-.15,2.23,2.23,0,0,0,.79-.42,1.66,1.66,0,0,0,.46-.61,1.84,1.84,0,0,0,.15-.74,1.15,1.15,0,0,0-.38-.9,4.61,4.61,0,0,0-1-.64q-.58-.3-1.27-.61a6.27,6.27,0,0,1-1.26-.77,3.83,3.83,0,0,1-1-1.13,3.39,3.39,0,0,1-.38-1.7,5.07,5.07,0,0,1,.42-2.07,4.78,4.78,0,0,1,1.24-1.67,5.86,5.86,0,0,1,2-1.12,8.08,8.08,0,0,1,2.64-.4,9.37,9.37,0,0,1,1.28.09,8.3,8.3,0,0,1,1.12.23,5.85,5.85,0,0,1,.87.31,1.69,1.69,0,0,1,.53.35A.7.7,0,0,1,363,130.94Z"/><path class="i" d="M368,144.35a.52.52,0,0,1-.15.27.89.89,0,0,1-.36.2,3.07,3.07,0,0,1-.64.12q-.39,0-1,0a9.31,9.31,0,0,1-1,0,2.43,2.43,0,0,1-.58-.12.49.49,0,0,1-.28-.2.4.4,0,0,1,0-.27l2.78-14a.54.54,0,0,1,.15-.27,1,1,0,0,1,.36-.2,3,3,0,0,1,.63-.13,8.25,8.25,0,0,1,1,0,7.85,7.85,0,0,1,1,0,2.39,2.39,0,0,1,.58.13.52.52,0,0,1,.28.2.4.4,0,0,1,0,.27Zm4.06-18.73a4.14,4.14,0,0,1-.3,1,1.73,1.73,0,0,1-.5.64,1.93,1.93,0,0,1-.77.35,5.26,5.26,0,0,1-1.13.1,4.64,4.64,0,0,1-1.08-.1,1.18,1.18,0,0,1-.63-.35,1.08,1.08,0,0,1-.24-.64,3.45,3.45,0,0,1,.09-1,4,4,0,0,1,.3-1,1.82,1.82,0,0,1,.5-.64,2,2,0,0,1,.77-.36,4.91,4.91,0,0,1,1.13-.11,4.34,4.34,0,0,1,1.08.11,1.2,1.2,0,0,1,.63.36,1.07,1.07,0,0,1,.24.64A4,4,0,0,1,372.09,125.61Z"/><path class="i" d="M387.07,133.46a8.49,8.49,0,0,1-.07,1.1q-.07.55-.18,1.13l-1.74,8.66a.54.54,0,0,1-.15.27.89.89,0,0,1-.36.2,3.07,3.07,0,0,1-.63.12q-.39,0-1,0a9.29,9.29,0,0,1-1,0,2.31,2.31,0,0,1-.57-.12.52.52,0,0,1-.27-.2.37.37,0,0,1,0-.27l1.7-8.41a7.3,7.3,0,0,0,.12-.77q0-.39,0-.69a2.09,2.09,0,0,0-.3-1.16,1.11,1.11,0,0,0-1-.46,2.67,2.67,0,0,0-1.34.41,5.45,5.45,0,0,0-1.32,1.11A8.09,8.09,0,0,0,377.9,136a7.25,7.25,0,0,0-.69,2l-1.27,6.35a.52.52,0,0,1-.15.27.89.89,0,0,1-.36.2,3.07,3.07,0,0,1-.64.12q-.39,0-1,0a9.3,9.3,0,0,1-1,0,2.43,2.43,0,0,1-.58-.12.49.49,0,0,1-.28-.2.4.4,0,0,1,0-.27l2.81-14a.58.58,0,0,1,.13-.27.7.7,0,0,1,.31-.19,2.85,2.85,0,0,1,.55-.11,7.19,7.19,0,0,1,.81,0,6.54,6.54,0,0,1,.79,0,2,2,0,0,1,.48.11.4.4,0,0,1,.23.19.43.43,0,0,1,0,.27l-.46,2.31a6.41,6.41,0,0,1,.88-1.12,6.78,6.78,0,0,1,1.27-1,7.35,7.35,0,0,1,1.56-.75,5.32,5.32,0,0,1,1.75-.29,4.67,4.67,0,0,1,1.85.32,3.22,3.22,0,0,1,1.21.87,3.38,3.38,0,0,1,.67,1.28A5.74,5.74,0,0,1,387.07,133.46Z"/><path class="i" d="M403.57,133.41a4.07,4.07,0,0,1-.51,2,4.35,4.35,0,0,1-1.59,1.56,8.71,8.71,0,0,1-2.73,1,19.62,19.62,0,0,1-4,.35h-1.45q-.06.36-.09.71t0,.65a2.56,2.56,0,0,0,.66,1.92,3,3,0,0,0,2.12.64,10.51,10.51,0,0,0,1.86-.15,14.43,14.43,0,0,0,1.45-.33q.62-.18,1-.33a2,2,0,0,1,.6-.15.31.31,0,0,1,.27.11.61.61,0,0,1,.08.35,4.62,4.62,0,0,1,0,.61,6,6,0,0,1-.13.68,4,4,0,0,1-.22.64,1.35,1.35,0,0,1-.31.46,2,2,0,0,1-.69.38,9.16,9.16,0,0,1-1.21.35,15.85,15.85,0,0,1-1.59.26,15.68,15.68,0,0,1-1.79.1,9.81,9.81,0,0,1-2.63-.31,4.85,4.85,0,0,1-1.88-1,4,4,0,0,1-1.13-1.64,6.68,6.68,0,0,1-.38-2.37,13.92,13.92,0,0,1,.2-2.26,12.39,12.39,0,0,1,.64-2.37,11.67,11.67,0,0,1,1.13-2.24,8.18,8.18,0,0,1,1.67-1.88,8,8,0,0,1,2.27-1.3,8.27,8.27,0,0,1,2.94-.49,7.93,7.93,0,0,1,2.46.34,5,5,0,0,1,1.69.9,3.6,3.6,0,0,1,1,1.27A3.54,3.54,0,0,1,403.57,133.41Zm-3.88.3a1.31,1.31,0,0,0-.5-1,2.18,2.18,0,0,0-1.44-.42,3.36,3.36,0,0,0-1.41.28,3.64,3.64,0,0,0-1.09.76,4.66,4.66,0,0,0-.81,1.13,7.25,7.25,0,0,0-.54,1.39h1.32a11.32,11.32,0,0,0,2.11-.16,4.8,4.8,0,0,0,1.37-.45,1.94,1.94,0,0,0,.75-.67A1.55,1.55,0,0,0,399.69,133.71Z"/><path class="i" d="M416.33,130.94a4.09,4.09,0,0,1-.06.56,5.56,5.56,0,0,1-.17.75,3.3,3.3,0,0,1-.26.65q-.15.27-.34.27A1,1,0,0,1,415,133l-.67-.33a5.91,5.91,0,0,0-.92-.32,4.8,4.8,0,0,0-1.23-.14,3.15,3.15,0,0,0-1,.14,2.08,2.08,0,0,0-.71.39,1.65,1.65,0,0,0-.43.57,1.69,1.69,0,0,0-.15.71,1,1,0,0,0,.4.82,5,5,0,0,0,1,.62l1.29.6a6.24,6.24,0,0,1,1.29.79,4,4,0,0,1,1,1.15,3.34,3.34,0,0,1,.39,1.7,5.33,5.33,0,0,1-.46,2.21,4.92,4.92,0,0,1-1.33,1.75,6.35,6.35,0,0,1-2.12,1.15,8.89,8.89,0,0,1-2.82.42,9.17,9.17,0,0,1-1.44-.11,10.58,10.58,0,0,1-1.23-.27,4.61,4.61,0,0,1-.92-.36,2.85,2.85,0,0,1-.57-.38.77.77,0,0,1-.18-.27,1,1,0,0,1-.06-.36,3.55,3.55,0,0,1,0-.36q0-.22.08-.49t.13-.53a3.42,3.42,0,0,1,.17-.49,1.46,1.46,0,0,1,.2-.35.31.31,0,0,1,.24-.13.87.87,0,0,1,.49.19,6.86,6.86,0,0,0,.69.42,6.14,6.14,0,0,0,1,.42,5.21,5.21,0,0,0,1.55.2,3.78,3.78,0,0,0,1.12-.15,2.23,2.23,0,0,0,.79-.42,1.66,1.66,0,0,0,.46-.61,1.84,1.84,0,0,0,.15-.74,1.15,1.15,0,0,0-.38-.9,4.61,4.61,0,0,0-1-.64q-.58-.3-1.27-.61a6.27,6.27,0,0,1-1.26-.77,3.83,3.83,0,0,1-1-1.13,3.39,3.39,0,0,1-.38-1.7,5.07,5.07,0,0,1,.42-2.07,4.78,4.78,0,0,1,1.24-1.67,5.86,5.86,0,0,1,2-1.12,8.08,8.08,0,0,1,2.64-.4,9.37,9.37,0,0,1,1.28.09,8.3,8.3,0,0,1,1.12.23,5.85,5.85,0,0,1,.87.31,1.69,1.69,0,0,1,.53.35A.7.7,0,0,1,416.33,130.94Z"/><path class="i" d="M429,130.94a4.09,4.09,0,0,1-.06.56,5.56,5.56,0,0,1-.17.75,3.3,3.3,0,0,1-.26.65q-.15.27-.34.27a1,1,0,0,1-.48-.15l-.67-.33a5.91,5.91,0,0,0-.92-.32,4.8,4.8,0,0,0-1.23-.14,3.15,3.15,0,0,0-1,.14,2.08,2.08,0,0,0-.71.39,1.65,1.65,0,0,0-.43.57,1.69,1.69,0,0,0-.15.71,1,1,0,0,0,.4.82,5,5,0,0,0,1,.62l1.29.6a6.24,6.24,0,0,1,1.29.79,4,4,0,0,1,1,1.15,3.34,3.34,0,0,1,.39,1.7,5.33,5.33,0,0,1-.46,2.21,4.92,4.92,0,0,1-1.33,1.75,6.35,6.35,0,0,1-2.12,1.15,8.89,8.89,0,0,1-2.82.42,9.17,9.17,0,0,1-1.44-.11,10.58,10.58,0,0,1-1.23-.27,4.61,4.61,0,0,1-.92-.36,2.85,2.85,0,0,1-.57-.38.77.77,0,0,1-.18-.27,1,1,0,0,1-.06-.36,3.55,3.55,0,0,1,0-.36q0-.22.08-.49t.13-.53a3.42,3.42,0,0,1,.16-.49,1.46,1.46,0,0,1,.2-.35.31.31,0,0,1,.24-.13.87.87,0,0,1,.49.19,6.85,6.85,0,0,0,.69.42,6.14,6.14,0,0,0,1,.42,5.21,5.21,0,0,0,1.55.2,3.78,3.78,0,0,0,1.12-.15,2.23,2.23,0,0,0,.79-.42,1.66,1.66,0,0,0,.46-.61,1.84,1.84,0,0,0,.15-.74,1.15,1.15,0,0,0-.38-.9,4.61,4.61,0,0,0-1-.64q-.58-.3-1.27-.61a6.27,6.27,0,0,1-1.26-.77,3.83,3.83,0,0,1-1-1.13,3.39,3.39,0,0,1-.38-1.7,5.07,5.07,0,0,1,.42-2.07,4.78,4.78,0,0,1,1.24-1.67,5.86,5.86,0,0,1,2-1.12,8.08,8.08,0,0,1,2.64-.4,9.37,9.37,0,0,1,1.28.09,8.3,8.3,0,0,1,1.12.23,5.85,5.85,0,0,1,.87.31,1.69,1.69,0,0,1,.53.35A.7.7,0,0,1,429,130.94Z"/><path class="i" d="M454.4,129.53a9.16,9.16,0,0,1-.2,1.84,8.1,8.1,0,0,1-1.78,3.62,7.33,7.33,0,0,1-1.71,1.46,8.8,8.8,0,0,1-2.35,1,11.86,11.86,0,0,1-3.14.37H443.1l-1.3,6.51a.55.55,0,0,1-.16.28.92.92,0,0,1-.39.2,3.64,3.64,0,0,1-.68.12q-.41,0-1,0c-.39,0-.71,0-1,0a2.62,2.62,0,0,1-.61-.12.58.58,0,0,1-.3-.2.34.34,0,0,1,0-.29L441.32,126a1.77,1.77,0,0,1,.61-1.11,1.83,1.83,0,0,1,1.16-.37h4.45q.82,0,1.46.06a11.45,11.45,0,0,1,1.27.18,6.47,6.47,0,0,1,1.72.58,4.54,4.54,0,0,1,1.3,1,4.1,4.1,0,0,1,.82,1.38A5.34,5.34,0,0,1,454.4,129.53ZM450,130a2.32,2.32,0,0,0-.36-1.3,1.92,1.92,0,0,0-1.12-.77,3.33,3.33,0,0,0-.74-.15q-.41,0-.91,0h-1.82l-1.35,6.9h1.89a4.87,4.87,0,0,0,1.53-.21,4.13,4.13,0,0,0,1.12-.56,3.54,3.54,0,0,0,.82-.82,4.85,4.85,0,0,0,.55-1,5.18,5.18,0,0,0,.31-1A5.78,5.78,0,0,0,450,130Z"/><path class="i" d="M467.14,144.36a.64.64,0,0,1-.5.47,4.91,4.91,0,0,1-1.39.14c-.32,0-.59,0-.79,0a2.06,2.06,0,0,1-.5-.1.41.41,0,0,1-.24-.19.47.47,0,0,1,0-.29l.44-2.25a4.27,4.27,0,0,1-.75,1.06,6.37,6.37,0,0,1-1.23,1,7.32,7.32,0,0,1-1.56.75,5.33,5.33,0,0,1-1.77.3,4.44,4.44,0,0,1-2.09-.44,3.62,3.62,0,0,1-1.34-1.19,4.93,4.93,0,0,1-.71-1.71,9.28,9.28,0,0,1-.21-2,13.62,13.62,0,0,1,.19-2.16,14.52,14.52,0,0,1,.58-2.33,12.81,12.81,0,0,1,1-2.24,8.56,8.56,0,0,1,1.47-1.91,6.75,6.75,0,0,1,2-1.33,6.08,6.08,0,0,1,2.51-.5,4.8,4.8,0,0,1,2.31.54,5.28,5.28,0,0,1,1.76,1.58l.25-1.24a.64.64,0,0,1,.5-.47,4.9,4.9,0,0,1,1.39-.14,6.59,6.59,0,0,1,.79,0,2.17,2.17,0,0,1,.5.11.44.44,0,0,1,.24.19.4.4,0,0,1,0,.27Zm-1.95-9.84a4.18,4.18,0,0,0-1.22-1.3,2.79,2.79,0,0,0-1.55-.43,2.4,2.4,0,0,0-1.21.31,3.45,3.45,0,0,0-1,.84,6,6,0,0,0-.75,1.22,9.53,9.53,0,0,0-.53,1.44,11.13,11.13,0,0,0-.42,2.92,5.38,5.38,0,0,0,.07.9,2.25,2.25,0,0,0,.26.75,1.47,1.47,0,0,0,.5.53,1.49,1.49,0,0,0,.8.2,2.82,2.82,0,0,0,1.41-.42,5.37,5.37,0,0,0,1.35-1.13,7.87,7.87,0,0,0,1.11-1.67,8.06,8.06,0,0,0,.7-2Z"/><path class="i" d="M482.75,130.11c0,.07,0,.2,0,.39s-.05.41-.09.66-.09.51-.16.78-.13.52-.21.75a2.36,2.36,0,0,1-.27.57.41.41,0,0,1-.32.22.78.78,0,0,1-.28-.06l-.31-.11-.38-.11a1.83,1.83,0,0,0-.47-.05,2.06,2.06,0,0,0-1.14.41,5.53,5.53,0,0,0-1.16,1.08,7.86,7.86,0,0,0-1,1.56,7.47,7.47,0,0,0-.62,1.86l-1.26,6.3a.52.52,0,0,1-.15.27.89.89,0,0,1-.36.2,3.07,3.07,0,0,1-.64.12q-.39,0-1,0a9.31,9.31,0,0,1-1,0,2.43,2.43,0,0,1-.58-.12.49.49,0,0,1-.28-.2.4.4,0,0,1,0-.27l2.8-14a.56.56,0,0,1,.14-.27.76.76,0,0,1,.32-.19,2.85,2.85,0,0,1,.55-.11,7.19,7.19,0,0,1,.81,0,6.54,6.54,0,0,1,.79,0,2,2,0,0,1,.48.11.4.4,0,0,1,.23.19.43.43,0,0,1,0,.27l-.44,2.23a7.18,7.18,0,0,1,.87-1.24,6.83,6.83,0,0,1,1.05-1,5,5,0,0,1,1.16-.65,3.19,3.19,0,0,1,1.18-.24,3.73,3.73,0,0,1,.48,0l.46.08a2.14,2.14,0,0,1,.38.12,1.08,1.08,0,0,1,.26.15A.41.41,0,0,1,482.75,130.11Z"/><path class="i" d="M493.47,130.47a3.17,3.17,0,0,1,0,.4c0,.16,0,.34-.09.53a4.67,4.67,0,0,1-.15.57,3.59,3.59,0,0,1-.21.51,1.51,1.51,0,0,1-.27.38.45.45,0,0,1-.32.15h-3.06L488,139.59q0,.24-.09.56a4.71,4.71,0,0,0,0,.53,1.24,1.24,0,0,0,.3.92,1.31,1.31,0,0,0,.94.29,3.22,3.22,0,0,0,.64-.06,3.3,3.3,0,0,0,.46-.13l.34-.13a.75.75,0,0,1,.27-.05.25.25,0,0,1,.21.12.66.66,0,0,1,.09.39,4.15,4.15,0,0,1-.06.68,6.43,6.43,0,0,1-.16.73,5.42,5.42,0,0,1-.23.64,1.38,1.38,0,0,1-.27.43,1.4,1.4,0,0,1-.42.27,3.94,3.94,0,0,1-.67.22,7.28,7.28,0,0,1-1.71.21A6.29,6.29,0,0,1,486,145a3,3,0,0,1-1.2-.62,2.6,2.6,0,0,1-.73-1.08,4.66,4.66,0,0,1-.24-1.6c0-.12,0-.25,0-.4s0-.31.05-.48l.08-.51c0-.17.05-.33.09-.46l1.37-6.84h-1.7a.34.34,0,0,1-.3-.13,1,1,0,0,1-.09-.51,5.7,5.7,0,0,1,.05-.7,5.24,5.24,0,0,1,.18-.85,2.6,2.6,0,0,1,.33-.72.59.59,0,0,1,.49-.3H486l.63-3.13a.57.57,0,0,1,.15-.28.9.9,0,0,1,.36-.21,2.8,2.8,0,0,1,.63-.13c.26,0,.58,0,1,0s.69,0,.94,0a2.15,2.15,0,0,1,.58.13.54.54,0,0,1,.27.21.4.4,0,0,1,0,.28l-.63,3.13h3a.37.37,0,0,1,.36.17A1.08,1.08,0,0,1,493.47,130.47Z"/><path class="i" d="M508.68,133.46a8.49,8.49,0,0,1-.07,1.1q-.07.55-.18,1.13l-1.74,8.66a.54.54,0,0,1-.15.27.89.89,0,0,1-.36.2,3.07,3.07,0,0,1-.63.12q-.39,0-1,0a9.29,9.29,0,0,1-1,0,2.31,2.31,0,0,1-.57-.12.52.52,0,0,1-.27-.2.37.37,0,0,1,0-.27l1.7-8.41a7.33,7.33,0,0,0,.12-.77q0-.39,0-.69a2.09,2.09,0,0,0-.3-1.16,1.11,1.11,0,0,0-1-.46,2.67,2.67,0,0,0-1.34.41,5.45,5.45,0,0,0-1.32,1.11,8.09,8.09,0,0,0-1.11,1.63,7.26,7.26,0,0,0-.69,2l-1.27,6.35a.52.52,0,0,1-.15.27.89.89,0,0,1-.36.2,3.07,3.07,0,0,1-.64.12q-.39,0-1,0a9.31,9.31,0,0,1-1,0,2.43,2.43,0,0,1-.58-.12.49.49,0,0,1-.28-.2.4.4,0,0,1,0-.27l2.81-14a.58.58,0,0,1,.13-.27.7.7,0,0,1,.31-.19,2.85,2.85,0,0,1,.55-.11,7.19,7.19,0,0,1,.81,0,6.54,6.54,0,0,1,.79,0,2,2,0,0,1,.48.11.4.4,0,0,1,.23.19.43.43,0,0,1,0,.27l-.46,2.31a6.41,6.41,0,0,1,.88-1.12,6.78,6.78,0,0,1,1.27-1,7.35,7.35,0,0,1,1.56-.75,5.32,5.32,0,0,1,1.75-.29,4.67,4.67,0,0,1,1.85.32,3.22,3.22,0,0,1,1.21.87,3.38,3.38,0,0,1,.67,1.28A5.74,5.74,0,0,1,508.68,133.46Z"/><path class="i" d="M525.19,133.41a4.07,4.07,0,0,1-.51,2,4.35,4.35,0,0,1-1.59,1.56,8.71,8.71,0,0,1-2.73,1,19.63,19.63,0,0,1-4,.35H515q-.06.36-.09.71t0,.65a2.56,2.56,0,0,0,.66,1.92,3,3,0,0,0,2.12.64,10.51,10.51,0,0,0,1.86-.15,14.43,14.43,0,0,0,1.45-.33q.62-.18,1-.33a2,2,0,0,1,.6-.15.31.31,0,0,1,.27.11.61.61,0,0,1,.08.35,4.63,4.63,0,0,1,0,.61,6,6,0,0,1-.13.68,4,4,0,0,1-.22.64,1.35,1.35,0,0,1-.31.46,2,2,0,0,1-.69.38,9.16,9.16,0,0,1-1.21.35,15.86,15.86,0,0,1-1.59.26,15.68,15.68,0,0,1-1.79.1,9.81,9.81,0,0,1-2.63-.31,4.85,4.85,0,0,1-1.88-1,4,4,0,0,1-1.13-1.64,6.67,6.67,0,0,1-.38-2.37,13.94,13.94,0,0,1,.2-2.26,12.4,12.4,0,0,1,.64-2.37,11.67,11.67,0,0,1,1.13-2.24,8.18,8.18,0,0,1,1.67-1.88,8,8,0,0,1,2.27-1.3,8.27,8.27,0,0,1,2.94-.49,7.93,7.93,0,0,1,2.46.34,5,5,0,0,1,1.69.9,3.6,3.6,0,0,1,1,1.27A3.54,3.54,0,0,1,525.19,133.41Zm-3.88.3a1.31,1.31,0,0,0-.5-1,2.18,2.18,0,0,0-1.44-.42,3.36,3.36,0,0,0-1.41.28,3.64,3.64,0,0,0-1.09.76,4.67,4.67,0,0,0-.81,1.13,7.24,7.24,0,0,0-.54,1.39h1.32a11.31,11.31,0,0,0,2.11-.16,4.8,4.8,0,0,0,1.37-.45,1.94,1.94,0,0,0,.75-.67A1.55,1.55,0,0,0,521.3,133.71Z"/><path class="i" d="M538,130.11c0,.07,0,.2,0,.39s-.05.41-.09.66-.09.51-.16.78-.13.52-.21.75a2.36,2.36,0,0,1-.27.57.41.41,0,0,1-.32.22.78.78,0,0,1-.28-.06l-.31-.11-.38-.11a1.83,1.83,0,0,0-.47-.05,2.06,2.06,0,0,0-1.14.41,5.53,5.53,0,0,0-1.16,1.08,7.86,7.86,0,0,0-1,1.56,7.47,7.47,0,0,0-.62,1.86l-1.26,6.3a.52.52,0,0,1-.15.27.89.89,0,0,1-.36.2,3.07,3.07,0,0,1-.64.12q-.39,0-1,0a9.31,9.31,0,0,1-1,0,2.43,2.43,0,0,1-.58-.12.49.49,0,0,1-.28-.2.4.4,0,0,1,0-.27l2.8-14a.56.56,0,0,1,.14-.27.76.76,0,0,1,.32-.19,2.85,2.85,0,0,1,.55-.11,7.19,7.19,0,0,1,.81,0,6.54,6.54,0,0,1,.79,0,2,2,0,0,1,.48.11.4.4,0,0,1,.23.19.43.43,0,0,1,0,.27l-.44,2.23a7.18,7.18,0,0,1,.87-1.24,6.83,6.83,0,0,1,1.05-1,5,5,0,0,1,1.16-.65,3.19,3.19,0,0,1,1.18-.24,3.73,3.73,0,0,1,.48,0l.46.08a2.15,2.15,0,0,1,.38.12,1.08,1.08,0,0,1,.26.15A.41.41,0,0,1,538,130.11Z"/><g class="j"><polyline class="f" points="519.8 101 430.47 89.59 152.29 125.13 330.09 125.13 430.47 112.3"/><polygon class="c" points="318.44 109.85 418.55 122.2 578.44 120.36 590.49 101.98 318.44 109.85"/><polygon class="d" points="464.08 104.79 543.3 106.2 604.56 136.08 472.6 119.07 435.09 110.29 464.08 104.79"/><polygon class="e" points="538.3 125.97 588.93 101.66 630.07 109.96 630.38 115.64 538.3 125.97"/><polygon class="k" points="435.63 89.59 446.06 110.64 341.2 116.7 435.63 89.59"/></g></svg>