<svg xmlns="http://www.w3.org/2000/svg" viewBox="0 0 64 58"><defs><style>.a,.d{fill:#e9eaeb;}.b{fill:#9d54a0;}.c{fill:none;}.c,.d,.e{stroke:#6a336d;stroke-miterlimit:10;stroke-width:2px;}.e{fill:#fff;}</style></defs><title>law</title><circle class="a" cx="32" cy="15" r="15"/><path class="b" d="M42,51H41V50a3,3,0,0,0-3-3H26a3,3,0,0,0-3,3v1H22a3,3,0,0,0-3,3v3H45V54A3,3,0,0,0,42,51Z"/><path class="c" d="M23,51V50a3,3,0,0,1,3-3H38a3,3,0,0,1,3,3v1"/><path class="c" d="M31,51H22a3,3,0,0,0-3,3v3H45V54a3,3,0,0,0-3-3H38"/><line class="c" x1="33" y1="51" x2="35" y2="51"/><line class="c" x1="34" y1="22" x2="34" y2="46"/><line class="c" x1="30" y1="46" x2="30" y2="22"/><polyline class="c" points="51 19 44 36 44 38"/><polyline class="c" points="61 38 61 36 53 19"/><path class="d" d="M42,38v2a12.19,12.19,0,0,0,21,0V38Z"/><polyline class="c" points="10 19 3 36 3 38"/><polyline class="c" points="20 38 20 36 12 19"/><path class="d" d="M1,38v2a11.82,11.82,0,0,0,10.5,6A11.82,11.82,0,0,0,22,40V38Z"/><path class="c" d="M28.8,6.2a3.2,3.2,0,0,1,6.4,0"/><line class="c" x1="14" y1="57" x2="19" y2="57"/><line class="c" x1="12" y1="57" x2="10" y2="57"/><line class="c" x1="45" y1="57" x2="48" y2="57"/><line class="c" x1="50" y1="57" x2="52" y2="57"/><line class="c" x1="54" y1="57" x2="56" y2="57"/><path class="e" d="M55,13c-2,0-5,1.88-10-1-5.74-3.3-9.58-4.32-13-.82C28.58,7.68,24.74,8.7,19,12c-5,2.88-8,1-10,1a3,3,0,1,0,0,6,18.77,18.77,0,0,0,6-1c2-.55,5.92-2,9-2s5,3,8,3,4.92-3,8-3,7,1.45,9,2a18.77,18.77,0,0,0,6,1,3,3,0,1,0,0-6Z"/></svg>