<svg xmlns="http://www.w3.org/2000/svg" viewBox="0 0 64 57.01"><defs><style>.a{fill:#e9eaeb;}.b{fill:#9d54a0;}.c,.e{fill:#fff;}.c,.d{stroke:#6a336d;stroke-miterlimit:10;stroke-width:2px;}.d{fill:none;}</style></defs><title>partnership</title><circle class="a" cx="32" cy="26" r="26"/><path class="b" d="M11,40c-2.23,0-5-2.77-5-5V27a7.3,7.3,0,0,1,7-7h7c3.11,0,6,2.84,6,7v9c0,2.23-.77,4-3,4V57H11Z"/><path class="c" d="M17,17a5,5,0,0,0,5-5V10a5,5,0,0,0-10,0v2A5,5,0,0,0,17,17Z"/><line class="d" x1="11" y1="57.01" x2="11" y2="27.01"/><path class="d" d="M26,33v3c0,2.23-.77,4-3,4V57"/><line class="d" x1="17" y1="40.01" x2="17" y2="57.01"/><line class="d" x1="27" y1="30.01" x2="17" y2="30.01"/><line class="d" x1="31" y1="30.01" x2="29" y2="30.01"/><polyline class="d" points="21 35.21 15.8 30.01 21 24.81"/><line class="d" x1="33" y1="30.01" x2="35" y2="30.01"/><path class="d" d="M26,27c0-4.16-2.89-7-6-7H13a7.3,7.3,0,0,0-7,7v8c0,2.23,2.77,5,5,5"/><rect class="c" x="1" y="37.01" width="12" height="10"/><path class="e" d="M53,40c2,0,5-2.77,5-5V27a7.3,7.3,0,0,0-7-7H44c-3.11,0-6,2.84-6,7v9c0,2.23,1,4,3,4V57H53Z"/><path class="c" d="M47,17a5,5,0,0,1-5-5V10a5,5,0,1,1,10,0v2A5,5,0,0,1,47,17Z"/><line class="d" x1="53" y1="57.01" x2="53" y2="27.01"/><path class="d" d="M38,33v3c0,2.23,1,4,3,4V57"/><line class="d" x1="47" y1="40.01" x2="47" y2="57.01"/><line class="d" x1="37" y1="30.01" x2="47" y2="30.01"/><polyline class="d" points="43 35.21 48.2 30.01 43 24.81"/><path class="d" d="M38,27c0-4.16,2.89-7,6-7h7a7.3,7.3,0,0,1,7,7v8c0,2.23-2.77,5-5,5"/><rect class="c" x="51" y="37.01" width="12" height="10" transform="translate(114 84.01) rotate(180)"/></svg>