<svg xmlns="http://www.w3.org/2000/svg" viewBox="0 0 64 58.17"><defs><style>.a{fill:#eeeff0;}.b{fill:#fff;}.c,.e{fill:none;stroke-miterlimit:10;stroke-width:2px;}.c{stroke:#6a336d;}.d{fill:#9d54a0;}.e{stroke:#cacdd0;}</style></defs><title>document-flow</title><circle class="a" cx="38" cy="26" r="26"/><path class="b" d="M28,10H40L56.59,26.59a2,2,0,0,1,0,2.83L29.41,56.59a2,2,0,0,1-2.83,0L5.41,35.41a2,2,0,0,1,0-2.83Z"/><line class="c" x1="26" y1="49" x2="9" y2="49"/><line class="c" x1="20" y1="24" y2="24"/><polygon class="d" points="28 11 34 17 40 11 28 11"/><path class="c" d="M11,27,5.41,32.59a2,2,0,0,0,0,2.83L19,49"/><path class="c" d="M22,52l4.59,4.59a2,2,0,0,0,2.83,0L56.59,29.41a2,2,0,0,0,0-2.83L40,10H28L14,24"/><polyline class="c" points="30 13 34 17 38 13"/><line class="e" x1="28" y1="23" x2="39" y2="34"/><line class="e" x1="25" y1="26" x2="36" y2="37"/><line class="e" x1="22" y1="29" x2="30" y2="37"/><line class="e" x1="12" y1="4" x2="32" y2="4"/><line class="e" x1="44" y1="50" x2="56" y2="50"/><line class="c" x1="18" y1="12" x2="8" y2="12"/><line class="c" x1="6" y1="12" x2="4" y2="12"/></svg>