<svg xmlns="http://www.w3.org/2000/svg" viewBox="0 0 60 63"><defs><style>.a{fill:#e9eaeb;}.b{fill:#9d54a0;}.b,.c,.d{stroke:#6a336d;}.b,.c,.d,.e{stroke-miterlimit:10;stroke-width:2px;}.c{fill:#fff;}.d,.e{fill:none;}.e{stroke:#bcc0c4;}</style></defs><title>piggy-bank</title><circle class="a" cx="20" cy="37" r="20"/><circle class="b" cx="38" cy="22" r="9"/><path class="c" d="M36.33,25.28A25.19,25.19,0,0,0,25,28l0,1.76c-2.25-3.23-8.14-4.79-9-3.78-.58.72,1.23,3.84,2.46,6a11.64,11.64,0,0,0-4.09,4.89,10.22,10.22,0,0,1-4.43.75c-1.72,0-1.26,4.71.32,7.69C11.75,48,21,53.59,22,53.81V62h5l1.95-4.55A30.3,30.3,0,0,0,37,59a34.06,34.06,0,0,0,9.11-1.8L47.93,62h4.83L54,52.63a14.75,14.75,0,0,0,4.91-10.72C58.87,32.73,47.82,25.28,36.33,25.28Z"/><line class="d" x1="35" y1="4" x2="35" y2="9"/><line class="d" x1="35" x2="35" y2="2"/><circle class="c" cx="22.75" cy="38.75" r="2.75"/><line class="d" x1="42" y1="5" x2="42" y2="21"/><path class="d" d="M39.86,31c8,0,14.47,5.55,14.47,12.4"/><line class="e" x1="24" y1="9" x2="24" y2="15"/><line class="e" x1="27" y1="12" x2="21" y2="12"/><line class="e" x1="57" y1="21" x2="57" y2="27"/><line class="e" x1="60" y1="24" x2="54" y2="24"/><circle class="e" cx="54" cy="6" r="3"/></svg>