<svg xmlns="http://www.w3.org/2000/svg" viewBox="0 0 62.98 62.33"><defs><style>.a{fill:#e9eaeb;}.b,.c{fill:none;}.b{stroke:#bcc0c4;}.b,.c,.e{stroke-miterlimit:10;stroke-width:2px;}.c,.e{stroke:#6a336d;}.d,.e{fill:#9d54a0;}</style></defs><title>power-hit</title><circle class="a" cx="34.18" cy="28.81" r="23" transform="translate(-10.36 32.61) rotate(-45)"/><path class="b" d="M49.72,5.72a27.61,27.61,0,0,0-35,3.33l-11,11"/><path class="b" d="M47.62,54.55l7.45-7.45a23.52,23.52,0,0,0,6.21-22.32"/><line class="c" x1="44.5" y1="47.77" x2="35.77" y2="56.5"/><line class="c" x1="33.36" y1="58.92" x2="31.11" y2="61.16"/><line class="c" x1="12.97" y1="19.91" x2="7.78" y2="25.1"/><line class="c" x1="6.36" y1="26.51" x2="4.24" y2="28.63"/><line class="c" x1="2.83" y1="30.05" x2="0.71" y2="32.17"/><line class="b" x1="45.5" y1="56.68" x2="44.08" y2="58.09"/><line class="b" x1="42.67" y1="59.5" x2="40.55" y2="61.63"/><path class="d" d="M37.67,12.49l-1-1a2.13,2.13,0,0,0-3.34-.11l-4,4,4.95,4.95,4-4C39.3,15.2,38.74,13.57,37.67,12.49Z"/><path class="c" d="M29.23,15.37l4-4a2.13,2.13,0,0,1,3.34.11l1,1c1.08,1.08,1.64,2.71.56,3.79l-4,4"/><path class="d" d="M44,16l-1-1a2.13,2.13,0,0,0-3.34-.11l-5.46,5.46,4.95,4.95,5.46-5.46C45.67,18.74,45.11,17.1,44,16Z"/><path class="c" d="M39.13,25.27l5.46-5.46c1.08-1.08.52-2.71-.56-3.79l-1-1a2.13,2.13,0,0,0-3.34-.11l-5.46,5.46"/><path class="d" d="M35.94,22.07l-5.78-5.78a4.86,4.86,0,0,0-4.54-1.52c-1.95.3-5.12.65-6.21,1.46s-2,4.86-2,7.93c0,3.71-.1,7.4-.88,8.18l-5.09,5.09a1.8,1.8,0,0,0,0,2.55l.28.28a1.8,1.8,0,0,0,2.55,0l3.1-3.1a1.81,1.81,0,0,1,2.56,0l.27.27a1.81,1.81,0,0,1,0,2.56l-9.11,9.11a2.31,2.31,0,0,0,0,3.27l.27.27a2.31,2.31,0,0,0,3.27,0l2.84-2.84a1.68,1.68,0,0,1,2.38,0l.45.45a1.68,1.68,0,0,1,0,2.38l-1,1a2,2,0,0,0,0,2.77l.06.06a2,2,0,0,0,2.77,0l9.56-9.56c1.59-1.59,4.83.82,7.07-1.41L46.2,38S46.83,33.69,35.94,22.07Z"/><rect class="e" x="39.7" y="29.55" width="13" height="7" rx="2.76" ry="2.76" transform="translate(-9.84 42.35) rotate(-45)"/><rect class="d" x="36.17" y="23.18" width="13" height="7" rx="2.76" ry="2.76" transform="translate(-6.37 37.99) rotate(-45)"/><path class="c" d="M36.49,29.7,38.6,31.8a2.76,2.76,0,0,0,3.9,0l5.29-5.29a2.76,2.76,0,0,0,0-3.9l-1-1a2.76,2.76,0,0,0-3.9,0l-3.43,3.21"/><path class="e" d="M8.74,43a2,2,0,0,1,0,2.81L4.6,49.91a2,2,0,0,1-2.81,0l0,0a2,2,0,0,1,0-2.81l4.14-4.14a2,2,0,0,1,2.81,0Z"/><path class="c" d="M27,37.18c4-4,3.31-10.84.07-14.07l4.49,4.49a5.5,5.5,0,0,0,8.86-.82c-1-1-10.26-10.48-10.26-10.48a4.86,4.86,0,0,0-4.54-1.52c-1.95.3-5.12.65-6.21,1.46s-2,4.86-2,7.93c0,3.71-.1,7.4-.88,8.18l-5.09,5.09a1.8,1.8,0,0,0,0,2.55l.28.28a1.8,1.8,0,0,0,2.55,0l3.1-3.1a1.81,1.81,0,0,1,2.56,0l.27.27a1.81,1.81,0,0,1,0,2.56l-9.11,9.11a2.31,2.31,0,0,0,0,3.27l.27.27a2.31,2.31,0,0,0,3.27,0l2.84-2.84a1.68,1.68,0,0,1,2.38,0l.45.45a1.68,1.68,0,0,1,0,2.38l-1,1a2,2,0,0,0,0,2.77l.06.06a2,2,0,0,0,2.77,0l9.56-9.56c1.59-1.59,4.83.82,7.07-1.41L46.2,38"/></svg>