<svg xmlns="http://www.w3.org/2000/svg" viewBox="0 0 64 56"><defs><style>.a{fill:#e9eaeb;}.b,.c{fill:none;}.b,.e,.f{stroke:#6a336d;}.b,.c,.e,.f{stroke-miterlimit:10;stroke-width:2px;}.c{stroke:#bcc0c4;}.d,.e{fill:#9d54a0;}.f{fill:#fff;}</style></defs><title>wallet</title><path class="a" d="M12.25,19.13H51.61A22.4,22.4,0,1,0,12.25,38.21Z"/><path class="a" d="M17,25H15a3,3,0,0,1-3-3V52a3,3,0,0,0,3,3h2Z"/><line class="b" x1="51" y1="12" x2="51" y2="6"/><line class="b" x1="54.78" y1="12.62" x2="57.39" y2="8.11"/><line class="b" x1="57.72" y1="15.56" x2="62.23" y2="12.95"/><line class="b" x1="59" y1="20" x2="64" y2="20"/><circle class="c" cx="9.48" cy="4.51" r="3.51"/><line class="c" x1="23" y1="7" x2="23" y2="13"/><line class="c" x1="26" y1="10" x2="20" y2="10"/><line class="c" x1="3" y1="21" x2="3" y2="27"/><line class="c" x1="6" y1="24" y2="24"/><line class="c" x1="3" y1="21" x2="3" y2="27"/><line class="c" x1="6" y1="24" y2="24"/><path class="a" d="M12,22a3,3,0,0,0,3,3H53V19H15A3,3,0,0,0,12,22Z"/><path class="b" d="M53,25V19H15a3,3,0,0,0-3,3"/><polyline class="d" points="48.09 25 34.01 10.91 19.87 25"/><polyline class="b" points="48.09 25 34.01 10.91 19.87 25"/><path class="a" d="M41,25l-4.87-4.9a2.65,2.65,0,0,1-4.24,0L27,25"/><path class="b" d="M41,25l-4.87-4.9a2.65,2.65,0,0,1-4.24,0L27,25"/><path class="b" d="M58,55H15a3,3,0,0,1-3-3V22a3,3,0,0,0,3,3H58V55Z"/><path class="e" d="M59,45H44.5A5.5,5.5,0,0,1,39,39.5h0A5.5,5.5,0,0,1,44.5,34H59a2,2,0,0,1,2,2v7A2,2,0,0,1,59,45Z"/><circle class="f" cx="45.5" cy="39.5" r="2.5"/></svg>