<svg xmlns="http://www.w3.org/2000/svg" viewBox="0 0 63 56"><defs><style>.a{fill:#e9eaeb;}.b,.f{fill:none;}.b,.c,.d,.e,.f{stroke:#6a336d;stroke-miterlimit:10;stroke-width:2px;}.c{fill:#fff;}.d,.e{fill:#9d54a0;}.e,.f{stroke-linecap:round;}</style></defs><title>contract</title><path class="a" d="M56.25,9H51v7H62C62,12,59.43,9,56.25,9Z"/><circle class="a" cx="24" cy="24" r="24"/><path class="b" d="M54,16h8c0-4-2.57-7-5.75-7H47"/><path class="c" d="M56.64,9A5.75,5.75,0,0,0,51,14.87v34A6.41,6.41,0,0,1,44.85,55H21V14.75A6,6,0,0,1,27,9H56.64Z"/><path class="d" d="M39.19,49H13.78c.88,3,3.81,6,6.48,6H44.74C42.07,55,39.84,52,39.19,49Z"/><line class="b" x1="27" y1="19" x2="45" y2="19"/><line class="b" x1="27" y1="23" x2="45" y2="23"/><line class="b" x1="27" y1="27" x2="45" y2="27"/><line class="b" x1="39" y1="43" x2="45" y2="43"/><path class="e" d="M31.1,41.57s-.57-4.82-3-7.25L8.79,15a3,3,0,1,0-4.24,4.24L23.86,38.57C26.29,41,31.1,41.57,31.1,41.57Z"/><line class="f" x1="11.13" y1="31.5" x2="1.94" y2="22.31"/><line class="f" x1="4.77" y1="25.14" x2="6.89" y2="23.02"/><line class="f" x1="30.93" y1="41.4" x2="32.35" y2="42.81"/><line class="f" x1="23.86" y1="38.57" x2="28.11" y2="34.33"/><line class="f" x1="7.6" y1="22.31" x2="11.84" y2="18.07"/><line class="b" x1="35" y1="43" x2="37" y2="43"/></svg>