<svg width="89" height="89" viewBox="0 0 89 89" xmlns="http://www.w3.org/2000/svg"><title>lifebuoy</title><g fill="none" fill-rule="evenodd"><path d="M62.254 62.072a25.062 25.062 0 0 1-17.772 7.369 25.085 25.085 0 0 1-17.783-7.363c-9.815-9.815-9.815-25.734 0-35.55 4.91-4.91 11.344-7.362 17.783-7.362a25.056 25.056 0 0 1 17.772 7.363c9.815 9.815 9.815 25.734 0 35.543zm12.696-48.24C66.532 5.42 55.507 1.207 44.482 1.212c-11.03 0-22.066 4.207-30.474 12.62-16.831 16.826-16.831 44.11 0 60.942 8.408 8.413 19.443 12.62 30.474 12.62 11.025 0 22.05-4.207 30.468-12.62 16.82-16.831 16.826-44.116 0-60.942z" fill="#FFF"/><path d="M44.482 17.516c-7.16 0-13.89 2.788-18.949 7.847-5.058 5.053-7.84 11.784-7.84 18.938 0 7.159 2.782 13.884 7.84 18.943 5.06 5.058 11.79 7.84 18.949 7.84 7.148 0 13.879-2.782 18.937-7.846 5.06-5.053 7.847-11.778 7.847-18.937 0-7.154-2.788-13.885-7.847-18.938-5.058-5.059-11.789-7.847-18.937-7.847zm0 68.228c-11.075 0-21.489-4.31-29.308-12.14-16.16-16.156-16.16-42.45 0-58.606 7.824-7.83 18.233-12.136 29.308-12.136 11.063 0 21.472 4.306 29.302 12.136 16.156 16.155 16.156 42.444 0 58.605-7.83 7.83-18.239 12.141-29.302 12.141z" fill="#9B569D"/><path d="M44.482 19.908c-6.522 0-12.647 2.535-17.255 7.143-4.608 4.608-7.148 10.734-7.148 17.25a24.25 24.25 0 0 0 7.148 17.254c4.608 4.603 10.728 7.138 17.255 7.138 6.51 0 12.641-2.535 17.244-7.143 4.608-4.608 7.148-10.734 7.148-17.25 0-6.515-2.54-12.641-7.148-17.249-4.603-4.608-10.734-7.143-17.244-7.143zm0 50.275c-6.923 0-13.422-2.694-18.305-7.583-4.889-4.888-7.577-11.382-7.577-18.3 0-6.911 2.688-13.41 7.577-18.294 4.888-4.888 11.388-7.582 18.305-7.582 6.912 0 13.406 2.694 18.294 7.582 4.888 4.883 7.583 11.383 7.583 18.295 0 6.911-2.69 13.41-7.583 18.3-4.888 4.888-11.382 7.582-18.294 7.582zm.005-68.228c-11.321 0-21.956 4.399-29.957 12.4-16.512 16.512-16.512 43.379-.005 59.891 8.006 8.001 18.64 12.405 29.957 12.405 11.305 0 21.94-4.404 29.94-12.405 16.513-16.512 16.513-43.379 0-59.891-8-8.001-18.63-12.4-29.935-12.4zm-.005 86.181c-11.712 0-22.72-4.564-31.002-12.84-17.09-17.09-17.084-44.896 0-61.992C21.761 5.03 32.77.47 44.482.47c11.707 0 22.715 4.559 30.99 12.834 17.096 17.09 17.096 44.903 0 61.993-8.28 8.275-19.289 12.84-30.99 12.84z" fill="#282E29"/><path d="M26.843 26.673a25.062 25.062 0 0 1 8.12-5.429L27.824 4a43.467 43.467 0 0 0-14.175 9.472 43.257 43.257 0 0 0-9.472 14.181l17.244 7.135a24.964 24.964 0 0 1 5.423-8.115M61.077 4.226l-7.093 17.123a24.68 24.68 0 0 1 8.066 5.383 24.675 24.675 0 0 1 5.389 8.061L84.55 27.7a43.044 43.044 0 0 0-9.397-14.071 43.17 43.17 0 0 0-14.077-9.403M61.077 84.38a43.244 43.244 0 0 0 14.077-9.408 43.073 43.073 0 0 0 9.397-14.07l-17.112-7.089a24.762 24.762 0 0 1-5.389 8.061 24.68 24.68 0 0 1-8.066 5.384l7.093 17.123M27.876 84.38l7.093-17.122a24.824 24.824 0 0 1-8.066-5.384 24.744 24.744 0 0 1-5.384-8.06L4.402 60.9a43.004 43.004 0 0 0 9.403 14.071 43.078 43.078 0 0 0 14.07 9.409" stroke="#78BD4D" fill="#78BD4D"/></g></svg>