<svg width="107" height="63" viewBox="0 0 107 63" xmlns="http://www.w3.org/2000/svg"><title>team-leader</title><g fill="none" fill-rule="evenodd"><path d="M80.431 20.23c0 4.581 3.277 9.08 7.308 9.08 4.041 0 7.308-4.499 7.308-9.08 0-4.58-3.267-7.9-7.308-7.9-4.03 0-7.308 3.32-7.308 7.9" fill="#FFF"/><path d="M87.739 13.072c-3.74 0-6.56 3.073-6.56 7.159 0 4.36 3.123 8.336 6.56 8.336 3.436 0 6.57-3.976 6.57-8.336 0-4.086-2.826-7.16-6.57-7.16zm0 16.985c-4.29 0-8.05-4.597-8.05-9.826 0-4.85 3.535-8.644 8.05-8.644 4.514 0 8.05 3.794 8.05 8.644 0 5.23-3.761 9.826-8.05 9.826z" fill="#282E29"/><path d="M105.945 51.82c0-9.825-4.536-17.787-12.779-17.787l-4.998 14.99-5.208-14.99c-8.242 0-12.779 7.962-12.779 17.788h35.764" fill="#FFF"/><path d="M70.935 51.073h34.262c-.209-8.05-3.788-15.94-11.503-16.287L88.87 49.259l-.703.505-.704-.5-5.031-14.478c-7.71.34-11.29 8.237-11.498 16.287zm35.01 1.485H70.18l-.742-.737c0-11.085 5.433-18.53 13.521-18.53l.699.494 4.492 12.933 4.311-12.922.704-.506c8.089 0 13.521 7.446 13.521 18.53l-.742.738z" fill="#282E29"/><path fill="#78BD4D" d="M88.063 45.206l2.689-8.452-2.689-2.815-2.689 2.815 2.69 8.452"/><path d="M11.268 20.23c0 4.581 3.272 9.08 7.303 9.08 4.036 0 7.307-4.499 7.307-9.08 0-4.58-3.271-7.9-7.307-7.9-4.03 0-7.303 3.32-7.303 7.9" fill="#FFF"/><path d="M18.57 13.072c-3.744 0-6.56 3.073-6.56 7.159 0 4.36 3.124 8.336 6.56 8.336 3.437 0 6.56-3.976 6.56-8.336 0-4.086-2.815-7.16-6.56-7.16zm0 16.985c-4.283 0-8.05-4.597-8.05-9.826 0-4.85 3.542-8.644 8.05-8.644 4.515 0 8.05 3.794 8.05 8.644 0 5.23-3.76 9.826-8.05 9.826z" fill="#282E29"/><path d="M36.777 51.82c0-9.825-4.542-17.787-12.78-17.787L19 49.023l-5.213-14.99c-8.237 0-12.774 7.962-12.774 17.788h35.764" fill="#FFF"/><path d="M1.761 51.073h34.263c-.21-8.05-3.795-15.94-11.493-16.287l-4.828 14.473-.703.505-.704-.5-5.032-14.478c-7.709.34-11.294 8.237-11.503 16.287zm35.016 1.485H1.013l-.742-.737c0-11.085 5.427-18.53 13.516-18.53l.704.494 4.492 12.933 4.311-12.922.704-.506c8.083 0 13.516 7.446 13.516 18.53l-.737.738z" fill="#282E29"/><path fill="#78BD4D" d="M18.895 45.206l2.689-8.452-2.689-2.815-2.694 2.815 2.694 8.452"/><path d="M41.731 12.962c0 7.054 5.037 13.988 11.25 13.988 6.22 0 11.25-6.934 11.25-13.988 0-7.05-5.03-12.163-11.25-12.163-6.213 0-11.25 5.113-11.25 12.163" fill="#FFF"/><path d="M52.981 1.54c-5.993 0-10.508 4.911-10.508 11.422 0 6.933 5.01 13.246 10.508 13.246 5.5 0 10.509-6.313 10.509-13.246 0-6.51-4.515-11.421-10.509-11.421zm0 26.153c-6.389 0-11.998-6.885-11.998-14.731 0-7.237 5.274-12.906 11.998-12.906 6.725 0 11.999 5.67 11.999 12.906 0 7.846-5.609 14.73-11.999 14.73z" fill="#282E29"/><path d="M81.014 61.603c0-15.121-6.994-27.389-19.68-27.389l-7.693 23.084-8.022-23.084c-12.691 0-19.675 12.268-19.675 27.39h55.07" fill="#FFF"/><path d="M26.692 60.855h53.569c-.21-12.828-5.928-25.536-18.388-25.893L54.35 57.534l-.71.511-.698-.5-7.852-22.583c-12.466.352-18.184 13.06-18.399 25.893zm54.322 1.485h-55.07l-.742-.737c0-16.826 8.204-28.131 20.417-28.131l.704.5 7.307 21.022 7-21.01.704-.512c12.213 0 20.417 11.305 20.417 28.131l-.737.737z" fill="#282E29"/><path fill="#9B569D" d="M53.482 51.42l4.14-13.005-4.14-4.338-4.146 4.338 4.146 13.005M23.574 20.88c0 3.365-2.199 6.092-4.92 6.092-2.723 0-4.933-2.727-4.933-6.092 0-3.371 2.21-6.098 4.932-6.098 2.722 0 4.921 2.727 4.921 6.098M92.737 20.753c0 3.371-2.205 6.098-4.927 6.098-2.722 0-4.932-2.727-4.932-6.098 0-3.365 2.21-6.098 4.932-6.098 2.722 0 4.927 2.733 4.927 6.098"/><path d="M61.191 13.847c0 5.565-3.646 10.074-8.144 10.074-4.503 0-8.149-4.51-8.149-10.074 0-5.565 3.646-10.08 8.15-10.08 4.497 0 8.143 4.515 8.143 10.08" fill="#78BD4D"/></g></svg>