<?xml version="1.0" encoding="UTF-8"?>
<svg width="393px" height="255px" viewBox="0 0 393 255" version="1.1" xmlns="http://www.w3.org/2000/svg" xmlns:xlink="http://www.w3.org/1999/xlink">
    <!-- Generator: Sketch 40.1 (33804) - http://www.bohemiancoding.com/sketch -->
    <title>kpi</title>
    <desc>Created with Sketch.</desc>
    <defs></defs>
    <g id="Page-1" stroke="none" stroke-width="1" fill="none" fill-rule="evenodd">
        <g id="kpi">
            <path d="M342.872,154.872 C342.872,142.65 352.779,132.743 365,132.743 C377.221,132.743 387.128,142.65 387.128,154.872 C387.128,167.093 377.221,177 365,177 C352.779,177 342.872,167.093 342.872,154.872" id="Fill-3" fill-opacity="0.800000012" fill="#78BD4D"></path>
            <polyline id="Fill-4" fill-opacity="0.800000012" fill="#78BD4D" points="113.144 145.059 98.264 161.539 98.264 189.06 69.783 189.06 69.783 77.058 98.264 77.058 98.264 125.539 141.145 77.058 174.105 77.058 132.505 123.458 176.826 189.06 142.745 189.06 113.144 145.059"></polyline>
            <path d="M98.264,190.06 L69.783,190.06 C69.231,190.06 68.783,189.612 68.783,189.06 L68.783,77.058 C68.783,76.505 69.231,76.058 69.783,76.058 L98.264,76.058 C98.816,76.058 99.264,76.505 99.264,77.058 L99.264,122.898 L100.842,121.114 L102.34,122.439 L99.013,126.201 C98.737,126.513 98.296,126.621 97.91,126.474 C97.521,126.327 97.264,125.954 97.264,125.539 L97.264,78.058 L70.783,78.058 L70.783,188.06 L97.264,188.06 L97.264,161.539 C97.264,161.291 97.355,161.053 97.521,160.869 L112.402,144.389 L113.886,145.729 L99.264,161.924 L99.264,189.06 C99.264,189.612 98.816,190.06 98.264,190.06" id="Fill-5" fill="#30414F"></path>
            <path d="M158.465,163.669 L131.676,124.019 C131.419,123.638 131.454,123.132 131.76,122.791 L171.866,78.058 L141.596,78.058 L133.551,87.152 L132.053,85.827 L140.396,76.395 C140.586,76.181 140.858,76.058 141.145,76.058 L174.105,76.058 C174.5,76.058 174.858,76.29 175.019,76.65 C175.179,77.01 175.113,77.431 174.85,77.725 L133.77,123.545 L160.122,162.55 L158.465,163.669" id="Fill-6" fill="#30414F"></path>
            <path d="M167.576,190.06 L142.745,190.06 C142.412,190.06 142.101,189.894 141.916,189.618 L112.314,145.617 L113.974,144.5 L143.278,188.06 L167.576,188.06 L167.576,190.06" id="Fill-7" fill="#30414F"></path>
            <path d="M214.783,135.139 L233.663,135.139 C246.144,135.139 253.344,128.899 253.344,117.059 C253.344,105.378 246.144,99.458 233.663,99.458 L214.783,99.458 L214.783,135.139 L214.783,135.139 Z M235.104,77.058 C263.744,77.058 280.225,91.138 280.225,116.098 C280.225,142.339 263.744,157.539 235.104,157.539 L214.783,157.539 L214.783,189.06 L186.302,189.06 L186.302,77.058 L235.104,77.058 L235.104,77.058 Z" id="Fill-8" fill-opacity="0.800000012" fill="#78BD4D"></path>
            <polygon id="Fill-9" fill-opacity="0.800000012" fill="#78BD4D" points="295.102 189.06 323.582 189.06 323.582 77.058 295.102 77.058"></polygon>
            <polygon id="Fill-10" fill="#30414F" points="43.04 190.06 94.117 190.06 94.117 188.06 43.04 188.06"></polygon>
            <polygon id="Fill-11" fill="#30414F" points="30.165 190.06 38.607 190.06 38.607 188.06 30.165 188.06"></polygon>
            <polygon id="Fill-12" fill="#30414F" points="183 190.06 227.667 190.06 227.667 188.06 183 188.06"></polygon>
            <polygon id="Fill-13" fill="#30414F" points="235 190.06 247.667 190.06 247.667 188.06 235 188.06"></polygon>
            <path d="M323.582,190.06 L283.333,190.06 L283.333,188.06 L322.582,188.06 L322.582,77.058 C322.582,76.792 322.688,76.538 322.875,76.351 L355.941,43.284 L357.355,44.698 L324.582,77.472 L324.582,189.06 C324.582,189.612 324.135,190.06 323.582,190.06" id="Fill-14" fill="#30414F"></path>
            <polyline id="Fill-15" fill="#30414F" points="362.64 38 357.647 49.892 356.201 44.439 350.749 42.993 362.64 38"></polyline>
            <polygon id="Fill-16" fill="#30414F" points="312.541 86.058 323.582 86.058 323.582 84.058 312.541 84.058"></polygon>
            <polygon id="Fill-17" fill="#30414F" points="306.689 93.859 323.582 93.859 323.582 91.859 306.689 91.859"></polygon>
            <polygon id="Fill-18" fill="#30414F" points="312.541 101.661 323.582 101.661 323.582 99.661 312.541 99.661"></polygon>
            <polygon id="Fill-19" fill="#30414F" points="312.541 109.463 323.582 109.463 323.582 107.463 312.541 107.463"></polygon>
            <polygon id="Fill-20" fill="#30414F" points="312.541 117.265 323.582 117.265 323.582 115.265 312.541 115.265"></polygon>
            <polygon id="Fill-21" fill="#30414F" points="312.541 125.067 323.582 125.067 323.582 123.067 312.541 123.067"></polygon>
            <polygon id="Fill-22" fill="#30414F" points="306.689 132.869 323.582 132.869 323.582 130.869 306.689 130.869"></polygon>
            <polygon id="Fill-23" fill="#30414F" points="312.541 140.671 323.582 140.671 323.582 138.671 312.541 138.671"></polygon>
            <polygon id="Fill-24" fill="#30414F" points="312.541 148.473 323.582 148.473 323.582 146.473 312.541 146.473"></polygon>
            <polygon id="Fill-25" fill="#30414F" points="312.541 156.274 323.582 156.274 323.582 154.274 312.541 154.274"></polygon>
            <polygon id="Fill-26" fill="#30414F" points="312.541 164.076 323.582 164.076 323.582 162.076 312.541 162.076"></polygon>
            <polygon id="Fill-27" fill="#30414F" points="306.689 171.878 323.582 171.878 323.582 169.878 306.689 169.878"></polygon>
            <polygon id="Fill-28" fill="#30414F" points="312.541 179.68 323.582 179.68 323.582 177.68 312.541 177.68"></polygon>
            <path d="M226.857,111.058 C226.857,112.715 225.514,114.058 223.857,114.058 C222.2,114.058 220.857,112.715 220.857,111.058 C220.857,109.401 222.2,108.058 223.857,108.058 C225.514,108.058 226.857,109.401 226.857,111.058" id="Fill-29" fill="#30414F"></path>
            <path d="M245.255,111.058 C245.255,112.715 243.912,114.058 242.255,114.058 C240.598,114.058 239.255,112.715 239.255,111.058 C239.255,109.401 240.598,108.058 242.255,108.058 C243.912,108.058 245.255,109.401 245.255,111.058" id="Fill-30" fill="#30414F"></path>
            <path d="M228.63,125.033 C229.086,127.056 230.897,128.571 233.057,128.571 C235.216,128.571 237.027,127.056 237.483,125.033 L228.63,125.033 L228.63,125.033 Z M233.057,130.571 C229.451,130.571 226.519,127.638 226.519,124.033 C226.519,123.481 226.966,123.033 227.519,123.033 L238.595,123.033 C239.147,123.033 239.595,123.481 239.595,124.033 C239.595,127.638 236.662,130.571 233.057,130.571 L233.057,130.571 Z" id="Fill-31" fill="#D6483C"></path>
            <polygon id="Fill-32" fill="#30414F" points="94.8 205.563 164.731 205.563 164.731 203.563 94.8 203.563"></polygon>
            <polyline id="Fill-33" fill="#30414F" points="158.303 212.498 156.98 211.077 163.987 204.565 156.98 198.052 158.303 196.631 166.835 204.565 158.303 212.498"></polyline>
            <path d="M58.298,205.5 L60.298,205.5 L60.298,203.5 L58.298,203.5 L58.298,205.5 Z M62.298,205.5 L64.298,205.5 L64.298,203.5 L62.298,203.5 L62.298,205.5 Z M66.298,205.5 L68.298,205.5 L68.298,203.5 L66.298,203.5 L66.298,205.5 Z M70.298,205.5 L72.298,205.5 L72.298,203.5 L70.298,203.5 L70.298,205.5 Z M74.298,205.5 L76.298,205.5 L76.298,203.5 L74.298,203.5 L74.298,205.5 Z M78.298,205.5 L80.298,205.5 L80.298,203.5 L78.298,203.5 L78.298,205.5 Z M82.298,205.5 L84.298,205.5 L84.298,203.5 L82.298,203.5 L82.298,205.5 Z M86.298,205.5 L88.298,205.5 L88.298,203.5 L86.298,203.5 L86.298,205.5 Z M90.298,205.5 L92.298,205.5 L92.298,203.5 L90.298,203.5 L90.298,205.5 Z" id="Fill-34" fill="#30414F"></path>
            <polygon id="Fill-35" fill="#30414F" points="115.551 218.054 185.482 218.054 185.482 216.054 115.551 216.054"></polygon>
            <polyline id="Fill-36" fill="#30414F" points="179.054 224.988 177.731 223.568 184.738 217.056 177.731 210.543 179.054 209.122 187.586 217.056 179.054 224.988"></polyline>
            <path d="M79.049,217.99 L81.049,217.99 L81.049,215.99 L79.049,215.99 L79.049,217.99 Z M83.049,217.99 L85.049,217.99 L85.049,215.99 L83.049,215.99 L83.049,217.99 Z M87.049,217.99 L89.049,217.99 L89.049,215.99 L87.049,215.99 L87.049,217.99 Z M91.049,217.99 L93.049,217.99 L93.049,215.99 L91.049,215.99 L91.049,217.99 Z M95.049,217.99 L97.049,217.99 L97.049,215.99 L95.049,215.99 L95.049,217.99 Z M99.049,217.99 L101.049,217.99 L101.049,215.99 L99.049,215.99 L99.049,217.99 Z M103.049,217.99 L105.049,217.99 L105.049,215.99 L103.049,215.99 L103.049,217.99 Z M107.049,217.99 L109.049,217.99 L109.049,215.99 L107.049,215.99 L107.049,217.99 Z M111.049,217.99 L113.049,217.99 L113.049,215.99 L111.049,215.99 L111.049,217.99 Z" id="Fill-37" fill="#30414F"></path>
            <path d="M249.304,209 C247.649,209 246.304,210.346 246.304,212 L246.304,250 C246.304,251.654 247.649,253 249.304,253 L275.304,253 C276.958,253 278.304,251.654 278.304,250 L278.304,212 C278.304,210.346 276.958,209 275.304,209 L249.304,209 L249.304,209 Z M275.304,255 L249.304,255 C246.547,255 244.304,252.757 244.304,250 L244.304,212 C244.304,209.243 246.547,207 249.304,207 L275.304,207 C278.061,207 280.304,209.243 280.304,212 L280.304,250 C280.304,252.757 278.061,255 275.304,255 L275.304,255 Z" id="Fill-38" fill="#30414F"></path>
            <path d="M279.304,251 L279.304,249 C280.958,249 282.304,247.654 282.304,246 L282.304,208 C282.304,206.346 280.958,205 279.304,205 L253.304,205 C251.649,205 250.304,206.346 250.304,208 L248.304,208 C248.304,205.243 250.547,203 253.304,203 L279.304,203 C282.061,203 284.304,205.243 284.304,208 L284.304,246 C284.304,248.757 282.061,251 279.304,251" id="Fill-39" fill="#30414F"></path>
            <path d="M283.304,247 L283.304,245 C284.958,245 286.304,243.654 286.304,242 L286.304,204 C286.304,202.346 284.958,201 283.304,201 L257.304,201 C255.649,201 254.304,202.346 254.304,204 L252.304,204 C252.304,201.243 254.547,199 257.304,199 L283.304,199 C286.061,199 288.304,201.243 288.304,204 L288.304,242 C288.304,244.757 286.061,247 283.304,247" id="Fill-40" fill="#30414F"></path>
            <path d="M251.304,224 C250.752,224 250.304,224.448 250.304,225 C250.304,225.552 250.752,226 251.304,226 C251.855,226 252.304,225.552 252.304,225 C252.304,224.448 251.855,224 251.304,224 L251.304,224 Z M251.304,228 C249.649,228 248.304,226.654 248.304,225 C248.304,223.346 249.649,222 251.304,222 C252.958,222 254.304,223.346 254.304,225 C254.304,226.654 252.958,228 251.304,228 L251.304,228 Z" id="Fill-41" fill="#F3CB37"></path>
            <path d="M257.304,216 C256.752,216 256.304,216.448 256.304,217 C256.304,217.552 256.752,218 257.304,218 C257.855,218 258.304,217.552 258.304,217 C258.304,216.448 257.855,216 257.304,216 L257.304,216 Z M257.304,220 C255.649,220 254.304,218.654 254.304,217 C254.304,215.346 255.649,214 257.304,214 C258.958,214 260.304,215.346 260.304,217 C260.304,218.654 258.958,220 257.304,220 L257.304,220 Z" id="Fill-42" fill="#F3CB37"></path>
            <path d="M265.304,221 C264.752,221 264.304,221.448 264.304,222 C264.304,222.552 264.752,223 265.304,223 C265.855,223 266.304,222.552 266.304,222 C266.304,221.448 265.855,221 265.304,221 L265.304,221 Z M265.304,225 C263.649,225 262.304,223.654 262.304,222 C262.304,220.346 263.649,219 265.304,219 C266.958,219 268.304,220.346 268.304,222 C268.304,223.654 266.958,225 265.304,225 L265.304,225 Z" id="Fill-43" fill="#F3CB37"></path>
            <path d="M273.304,214 C272.752,214 272.304,214.448 272.304,215 C272.304,215.552 272.752,216 273.304,216 C273.855,216 274.304,215.552 274.304,215 C274.304,214.448 273.855,214 273.304,214 L273.304,214 Z M273.304,218 C271.649,218 270.304,216.654 270.304,215 C270.304,213.346 271.649,212 273.304,212 C274.958,212 276.304,213.346 276.304,215 C276.304,216.654 274.958,218 273.304,218 L273.304,218 Z" id="Fill-44" fill="#F3CB37"></path>
            <polyline id="Fill-45" fill="#F3CB37" points="253.085 223.625 251.522 222.375 255.522 217.375 257.085 218.625 253.085 223.625"></polyline>
            <polyline id="Fill-46" fill="#F3CB37" points="262.789 221.857 257.789 218.857 258.818 217.143 263.818 220.143 262.789 221.857"></polyline>
            <polyline id="Fill-47" fill="#F3CB37" points="268.011 221.707 266.597 220.293 271.597 215.293 273.011 216.707 268.011 221.707"></polyline>
            <polygon id="Fill-48" fill="#30414F" points="250.304 232 274.304 232 274.304 230 250.304 230"></polygon>
            <polygon id="Fill-49" fill="#30414F" points="250.304 236 274.304 236 274.304 234 250.304 234"></polygon>
            <path d="M255.304,240 C253.098,240 251.304,241.794 251.304,244 C251.304,246.206 253.098,248 255.304,248 C257.51,248 259.304,246.206 259.304,244 C259.304,241.794 257.51,240 255.304,240 L255.304,240 Z M255.304,250 C251.995,250 249.304,247.309 249.304,244 C249.304,240.691 251.995,238 255.304,238 C258.612,238 261.304,240.691 261.304,244 C261.304,247.309 258.612,250 255.304,250 L255.304,250 Z" id="Fill-50" fill="#D6483C"></path>
            <path d="M255.304,245 L250.304,245 L250.304,243 L254.304,243 L254.304,239 L256.304,239 L256.304,244 C256.304,244.553 255.856,245 255.304,245" id="Fill-51" fill="#D6483C"></path>
            <polyline id="Fill-52" fill="#D6483C" points="258.704 247.8 254.704 244.8 255.903 243.2 259.903 246.2 258.704 247.8"></polyline>
            <polygon id="Fill-53" fill="#30414F" points="263.304 241 274.304 241 274.304 239 263.304 239"></polygon>
            <polygon id="Fill-54" fill="#30414F" points="263.304 245 274.304 245 274.304 243 263.304 243"></polygon>
            <polygon id="Fill-55" fill="#30414F" points="263.304 249 274.304 249 274.304 247 263.304 247"></polygon>
            <path d="M309.147,191.332 L311.147,191.332 L311.147,189.332 L309.147,189.332 L309.147,191.332 Z M309.147,195.332 L311.147,195.332 L311.147,193.332 L309.147,193.332 L309.147,195.332 Z M309.147,199.332 L311.147,199.332 L311.147,197.332 L309.147,197.332 L309.147,199.332 Z M309.147,203.332 L311.147,203.332 L311.147,201.332 L309.147,201.332 L309.147,203.332 Z M309.147,207.332 L311.147,207.332 L311.147,205.332 L309.147,205.332 L309.147,207.332 Z M309.147,211.332 L311.147,211.332 L311.147,209.332 L309.147,209.332 L309.147,211.332 Z M309.147,215.332 L311.147,215.332 L311.147,213.332 L309.147,213.332 L309.147,215.332 Z M309.147,219.332 L311.147,219.332 L311.147,217.332 L309.147,217.332 L309.147,219.332 Z M310.95,223.596 L309.03,223.039 C309.107,222.77 309.147,222.488 309.147,222.203 L309.147,221.332 L311.147,221.332 L311.147,222.203 C311.147,222.677 311.081,223.146 310.95,223.596 L310.95,223.596 Z M307.573,226.997 L307.003,225.079 C307.48,224.938 307.922,224.674 308.277,224.315 L309.695,225.728 C309.104,226.32 308.37,226.76 307.573,226.997 L307.573,226.997 Z M287.304,227.203 L289.304,227.203 L289.304,225.203 L287.304,225.203 L287.304,227.203 Z M291.304,227.203 L293.304,227.203 L293.304,225.203 L291.304,225.203 L291.304,227.203 Z M295.304,227.203 L297.304,227.203 L297.304,225.203 L295.304,225.203 L295.304,227.203 Z M299.304,227.203 L301.304,227.203 L301.304,225.203 L299.304,225.203 L299.304,227.203 Z M303.304,227.203 L305.304,227.203 L305.304,225.203 L303.304,225.203 L303.304,227.203 Z" id="Fill-56" fill="#30414F"></path>
            <path d="M205.095,191.493 L207.095,191.493 L207.095,189.493 L205.095,189.493 L205.095,191.493 Z M205.095,195.493 L207.095,195.493 L207.095,193.493 L205.095,193.493 L205.095,195.493 Z M205.095,199.493 L207.095,199.493 L207.095,197.493 L205.095,197.493 L205.095,199.493 Z M205.095,203.493 L207.095,203.493 L207.095,201.493 L205.095,201.493 L205.095,203.493 Z M205.095,207.493 L207.095,207.493 L207.095,205.493 L205.095,205.493 L205.095,207.493 Z M205.095,211.493 L207.095,211.493 L207.095,209.493 L205.095,209.493 L205.095,211.493 Z M205.095,215.493 L207.095,215.493 L207.095,213.493 L205.095,213.493 L205.095,215.493 Z M205.095,219.493 L207.095,219.493 L207.095,217.493 L205.095,217.493 L205.095,219.493 Z M205.351,223.787 C205.18,223.275 205.094,222.741 205.095,222.201 L205.095,221.493 L207.095,221.493 L207.095,222.203 C207.094,222.529 207.146,222.849 207.247,223.154 L205.351,223.787 L205.351,223.787 Z M208.864,227.051 C208.055,226.846 207.303,226.437 206.69,225.865 L208.054,224.402 C208.421,224.744 208.87,224.989 209.354,225.111 L208.864,227.051 L208.864,227.051 Z M211.1,227.203 L213.1,227.203 L213.1,225.203 L211.1,225.203 L211.1,227.203 Z M215.1,227.203 L217.1,227.203 L217.1,225.203 L215.1,225.203 L215.1,227.203 Z M219.1,227.203 L221.1,227.203 L221.1,225.203 L219.1,225.203 L219.1,227.203 Z M223.1,227.203 L225.1,227.203 L225.1,225.203 L223.1,225.203 L223.1,227.203 Z M227.1,227.203 L229.1,227.203 L229.1,225.203 L227.1,225.203 L227.1,227.203 Z M231.1,227.203 L233.1,227.203 L233.1,225.203 L231.1,225.203 L231.1,227.203 Z M235.1,227.203 L237.1,227.203 L237.1,225.203 L235.1,225.203 L235.1,227.203 Z M239.1,227.203 L241.1,227.203 L241.1,225.203 L239.1,225.203 L239.1,227.203 Z M243.1,227.203 L245.1,227.203 L245.1,225.203 L243.1,225.203 L243.1,227.203 Z" id="Fill-57" fill="#30414F"></path>
            <path d="M55.652,145.5 C57.676,144.048 59,141.681 59,139 C59,134.582 55.418,131 51,131 C48.319,131 45.952,132.324 44.5,134.348 C43.048,132.324 40.681,131 38,131 C33.582,131 30,134.582 30,139 C30,141.875 31.522,144.389 33.799,145.799 L36,148 L17,167 L13,163 L9,167 L13,171 L10,174 L6,170 L1.875,174.125 L5.875,178.125 L1.417,182.583 L7.917,189.083 L15,182 L19,186 L24,181 L20,177 L42.5,154.5 L44.201,156.201 C45.611,158.478 48.125,160 51,160 C55.418,160 59,156.418 59,152 C59,149.319 57.676,146.952 55.652,145.5" id="Fill-58" fill="#F3CB37"></path>
            <path d="M2.831,182.583 L7.917,187.669 L14.293,181.293 C14.684,180.902 15.316,180.902 15.707,181.293 L19,184.586 L22.586,181 L19.293,177.707 C18.902,177.316 18.902,176.684 19.293,176.293 L41.793,153.793 C42.184,153.402 42.816,153.402 43.207,153.793 L44.908,155.494 C44.963,155.549 45.011,155.609 45.051,155.675 C46.341,157.757 48.564,159 51,159 C54.86,159 58,155.859 58,152 C58,149.754 56.904,147.628 55.069,146.313 C54.807,146.125 54.652,145.822 54.652,145.5 C54.652,145.178 54.807,144.875 55.069,144.688 C56.904,143.372 58,141.246 58,139 C58,135.14 54.86,132 51,132 C48.755,132 46.628,133.096 45.313,134.931 C44.938,135.455 44.063,135.455 43.688,134.931 C42.371,133.096 40.245,132 38,132 C34.14,132 31,135.14 31,139 C31,141.436 32.243,143.659 34.325,144.948 C34.391,144.989 34.452,145.037 34.506,145.092 L36.707,147.293 C37.098,147.684 37.098,148.316 36.707,148.707 L17.707,167.707 C17.316,168.098 16.684,168.098 16.293,167.707 L13,164.414 L10.414,167 L13.707,170.293 C14.098,170.684 14.098,171.316 13.707,171.707 L10.707,174.707 C10.316,175.098 9.684,175.098 9.293,174.707 L6,171.414 L3.289,174.125 L6.582,177.418 C6.77,177.605 6.875,177.859 6.875,178.125 C6.875,178.391 6.77,178.645 6.582,178.832 L2.831,182.583 L2.831,182.583 Z M7.917,190.083 C7.661,190.083 7.405,189.985 7.209,189.79 L0.709,183.29 C0.522,183.103 0.416,182.849 0.416,182.583 C0.416,182.317 0.522,182.063 0.709,181.876 L4.461,178.125 L1.168,174.832 C0.777,174.441 0.777,173.809 1.168,173.418 L5.293,169.293 C5.684,168.902 6.316,168.902 6.707,169.293 L10,172.586 L11.586,171 L8.293,167.707 C7.902,167.316 7.902,166.684 8.293,166.293 L12.293,162.293 C12.684,161.902 13.316,161.902 13.707,162.293 L17,165.586 L34.586,148 L33.171,146.586 C30.557,144.92 29,142.093 29,139 C29,134.038 33.038,130 38,130 C40.462,130 42.813,131.023 44.5,132.786 C46.187,131.023 48.538,130 51,130 C55.962,130 60,134.038 60,139 C60,141.463 58.977,143.813 57.214,145.5 C58.977,147.187 60,149.537 60,152 C60,156.963 55.962,161 51,161 C47.907,161 45.08,159.443 43.415,156.828 L42.5,155.914 L21.414,177 L24.707,180.293 C25.098,180.684 25.098,181.316 24.707,181.707 L19.707,186.707 C19.316,187.098 18.684,187.098 18.293,186.707 L15,183.414 L8.624,189.79 C8.428,189.985 8.172,190.083 7.917,190.083 L7.917,190.083 Z" id="Fill-59" fill="#30414F"></path>
            <polyline id="Fill-60" fill="#30414F" points="25.707 167.707 24.293 166.293 39.293 151.293 40.707 152.707 25.707 167.707"></polyline>
            <polyline id="Fill-61" fill="#30414F" points="21.707 171.707 20.293 170.293 22.293 168.293 23.707 169.707 21.707 171.707"></polyline>
            <path d="M51,137 C49.897,137 49,137.897 49,139 C49,140.103 49.897,141 51,141 C52.103,141 53,140.103 53,139 C53,137.897 52.103,137 51,137 L51,137 Z M51,143 C48.794,143 47,141.206 47,139 C47,136.794 48.794,135 51,135 C53.206,135 55,136.794 55,139 C55,141.206 53.206,143 51,143 L51,143 Z" id="Fill-62" fill="#30414F"></path>
            <polyline id="Fill-63" fill="#30414F" points="40.293 144.707 38.293 142.707 39.707 141.293 41.707 143.293 40.293 144.707"></polyline>
            <polyline id="Fill-64" fill="#30414F" points="44.293 148.707 42.293 146.707 43.707 145.293 45.707 147.293 44.293 148.707"></polyline>
            <polyline id="Fill-65" fill="#30414F" points="48.293 152.707 46.293 150.707 47.707 149.293 49.707 151.293 48.293 152.707"></polyline>
            <path d="M45,188 L49,188 L49,186.541 C49,186.104 49.283,185.719 49.7,185.587 C50.183,185.435 50.674,185.229 51.158,184.977 C51.546,184.775 52.02,184.848 52.328,185.156 L53.364,186.192 L56.192,183.364 L55.156,182.328 C54.847,182.02 54.774,181.545 54.977,181.158 C55.229,180.676 55.434,180.186 55.587,179.699 C55.718,179.283 56.104,179 56.541,179 L58,179 L58,175 L56.541,175 C56.104,175 55.718,174.717 55.587,174.301 C55.434,173.814 55.229,173.324 54.977,172.842 C54.774,172.455 54.847,171.98 55.156,171.672 L56.192,170.636 L53.364,167.808 L52.328,168.844 C52.02,169.153 51.546,169.226 51.158,169.023 C50.674,168.771 50.183,168.565 49.7,168.413 C49.283,168.281 49,167.896 49,167.459 L49,166 L45,166 L45,167.459 C45,167.896 44.717,168.281 44.3,168.413 C43.817,168.565 43.326,168.771 42.842,169.023 C42.455,169.226 41.981,169.153 41.672,168.844 L40.636,167.808 L37.808,170.636 L38.844,171.672 C39.153,171.98 39.226,172.455 39.023,172.842 C38.771,173.324 38.566,173.814 38.413,174.301 C38.282,174.717 37.896,175 37.459,175 L36,175 L36,179 L37.459,179 C37.896,179 38.282,179.283 38.413,179.699 C38.566,180.186 38.771,180.676 39.023,181.158 C39.226,181.545 39.153,182.02 38.844,182.328 L37.808,183.364 L40.636,186.192 L41.672,185.156 C41.981,184.848 42.455,184.775 42.842,184.977 C43.326,185.229 43.817,185.435 44.3,185.587 C44.717,185.719 45,186.104 45,186.541 L45,188 L45,188 Z M50,190 L44,190 C43.448,190 43,189.553 43,189 L43,187.246 C42.861,187.191 42.723,187.134 42.585,187.072 L41.343,188.313 C40.953,188.704 40.32,188.704 39.929,188.313 L35.687,184.071 C35.499,183.884 35.394,183.63 35.394,183.364 C35.394,183.099 35.499,182.845 35.687,182.657 L36.928,181.416 C36.867,181.277 36.809,181.139 36.753,181 L35,181 C34.448,181 34,180.553 34,180 L34,174 C34,173.447 34.448,173 35,173 L36.753,173 C36.809,172.861 36.867,172.723 36.928,172.584 L35.687,171.343 C35.499,171.155 35.394,170.901 35.394,170.636 C35.394,170.37 35.499,170.116 35.687,169.929 L39.929,165.687 C40.32,165.296 40.953,165.296 41.343,165.687 L42.585,166.928 C42.723,166.866 42.861,166.809 43,166.754 L43,165 C43,164.447 43.448,164 44,164 L50,164 C50.552,164 51,164.447 51,165 L51,166.754 C51.139,166.809 51.277,166.866 51.415,166.928 L52.657,165.687 C53.047,165.296 53.68,165.296 54.071,165.687 L58.313,169.929 C58.501,170.116 58.606,170.37 58.606,170.636 C58.606,170.901 58.501,171.155 58.313,171.343 L57.072,172.584 C57.133,172.723 57.191,172.861 57.247,173 L59,173 C59.552,173 60,173.447 60,174 L60,180 C60,180.553 59.552,181 59,181 L57.247,181 C57.191,181.139 57.133,181.277 57.072,181.416 L58.313,182.657 C58.501,182.845 58.606,183.099 58.606,183.364 C58.606,183.63 58.501,183.884 58.313,184.071 L54.071,188.313 C53.68,188.704 53.047,188.704 52.657,188.313 L51.415,187.072 C51.277,187.134 51.139,187.191 51,187.246 L51,189 C51,189.553 50.552,190 50,190 L50,190 Z" id="Fill-66" fill="#30414F"></path>
            <path d="M47,173 C44.794,173 43,174.794 43,177 C43,179.206 44.794,181 47,181 C49.206,181 51,179.206 51,177 C51,174.794 49.206,173 47,173 L47,173 Z M47,183 C43.691,183 41,180.309 41,177 C41,173.691 43.691,171 47,171 C50.309,171 53,173.691 53,177 C53,180.309 50.309,183 47,183 L47,183 Z" id="Fill-67" fill="#30414F"></path>
            <path d="M10,156 C7.243,156 5,153.757 5,151 L7,151 C7,152.654 8.346,154 10,154 L10,156" id="Fill-68" fill="#F3CB37"></path>
            <path d="M2,156 L2,154 C3.654,154 5,152.654 5,151 L7,151 C7,153.757 4.757,156 2,156" id="Fill-69" fill="#F3CB37"></path>
            <path d="M7,159 L5,159 C5,157.346 3.654,156 2,156 L2,154 C4.757,154 7,156.243 7,159" id="Fill-70" fill="#F3CB37"></path>
            <path d="M7,159 L5,159 C5,156.243 7.243,154 10,154 L10,156 C8.346,156 7,157.346 7,159" id="Fill-71" fill="#F3CB37"></path>
            <path d="M22,150 C19.243,150 17,147.757 17,145 L19,145 C19,146.654 20.346,148 22,148 L22,150" id="Fill-72" fill="#F3CB37"></path>
            <path d="M14,150 L14,148 C15.654,148 17,146.654 17,145 L19,145 C19,147.757 16.757,150 14,150" id="Fill-73" fill="#F3CB37"></path>
            <path d="M19,153 L17,153 C17,151.346 15.654,150 14,150 L14,148 C16.757,148 19,150.243 19,153" id="Fill-74" fill="#F3CB37"></path>
            <path d="M19,153 L17,153 C17,150.243 19.243,148 22,148 L22,150 C20.346,150 19,151.346 19,153" id="Fill-75" fill="#F3CB37"></path>
            <path d="M12,141 C9.243,141 7,138.757 7,136 L9,136 C9,137.654 10.346,139 12,139 L12,141" id="Fill-76" fill="#F3CB37"></path>
            <path d="M4,141 L4,139 C5.654,139 7,137.654 7,136 L9,136 C9,138.757 6.757,141 4,141" id="Fill-77" fill="#F3CB37"></path>
            <path d="M9,144 L7,144 C7,142.346 5.654,141 4,141 L4,139 C6.757,139 9,141.243 9,144" id="Fill-78" fill="#F3CB37"></path>
            <path d="M9,144 L7,144 C7,141.243 9.243,139 12,139 L12,141 C10.346,141 9,142.346 9,144" id="Fill-79" fill="#F3CB37"></path>
            <polygon id="Fill-80" fill="#30414F" points="345 156 365 156 365 154 345 154"></polygon>
            <path d="M334.414,158 L340.586,158 L343.586,155 L340.586,152 L334.414,152 L336.707,154.293 C337.098,154.684 337.098,155.316 336.707,155.707 L334.414,158 L334.414,158 Z M341,160 L332,160 C331.596,160 331.23,159.757 331.076,159.383 C330.921,159.009 331.007,158.579 331.293,158.293 L334.586,155 L331.293,151.707 C331.007,151.421 330.921,150.991 331.076,150.617 C331.23,150.243 331.596,150 332,150 L341,150 C341.266,150 341.52,150.105 341.707,150.293 L345.707,154.293 C346.098,154.684 346.098,155.316 345.707,155.707 L341.707,159.707 C341.52,159.895 341.266,160 341,160 L341,160 Z" id="Fill-81" fill="#30414F"></path>
            <path d="M365,175 C355.121,175 346.824,167.917 345.272,158.157 L347.247,157.843 C348.644,166.626 356.11,173 365,173 C374.925,173 383,164.925 383,155 C383,145.075 374.925,137 365,137 C356.11,137 348.644,143.374 347.247,152.157 L345.272,151.843 C346.824,142.083 355.121,135 365,135 C376.028,135 385,143.972 385,155 C385,166.028 376.028,175 365,175" id="Fill-82" fill="#30414F"></path>
            <path d="M365,171 C357.422,171 350.827,165.616 349.32,158.199 L351.281,157.801 C352.599,164.29 358.368,169 365,169 C372.72,169 379,162.72 379,155 C379,147.28 372.72,141 365,141 C358.368,141 352.599,145.71 351.281,152.199 L349.32,151.801 C350.827,144.384 357.422,139 365,139 C373.822,139 381,146.178 381,155 C381,163.822 373.822,171 365,171" id="Fill-83" fill="#30414F"></path>
            <path d="M365,164 C361.318,164 358.045,161.792 356.66,158.376 L358.514,157.624 C359.591,160.282 362.137,162 365,162 C368.859,162 372,158.859 372,155 C372,151.141 368.859,148 365,148 C362.137,148 359.591,149.718 358.514,152.376 L356.66,151.624 C358.045,148.208 361.318,146 365,146 C369.963,146 374,150.037 374,155 C374,159.963 369.963,164 365,164" id="Fill-84" fill="#30414F"></path>
            <path d="M365,160 C363.805,160 362.641,159.557 361.722,158.753 L363.038,157.247 C363.431,157.591 364.09,158 365,158 C366.654,158 368,156.654 368,155 C368,153.346 366.654,152 365,152 C364.09,152 363.431,152.409 363.038,152.753 L361.722,151.247 C362.641,150.443 363.805,150 365,150 C367.757,150 370,152.243 370,155 C370,157.757 367.757,160 365,160" id="Fill-85" fill="#30414F"></path>
            <path d="M365,181 C353.515,181 343.251,173.302 340.041,162.279 L341.961,161.721 C344.924,171.895 354.398,179 365,179 C378.233,179 389,168.233 389,155 C389,141.767 378.233,131 365,131 C354.398,131 344.924,138.105 341.961,148.279 L340.041,147.721 C343.251,136.698 353.515,129 365,129 C379.337,129 391,140.663 391,155 C391,169.337 379.337,181 365,181" id="Fill-86" fill="#30414F"></path>
            <path d="M379.093,189.663 C377.955,189.663 376.897,189.029 376.367,187.97 L372.105,179.447 L373.895,178.553 L378.156,187.075 C378.381,187.523 378.879,187.755 379.36,187.629 C379.666,187.553 379.92,187.346 380.057,187.062 C380.195,186.773 380.199,186.455 380.067,186.164 L376.09,177.414 L377.91,176.586 L381.888,185.336 C382.265,186.165 382.254,187.11 381.858,187.931 C381.463,188.751 380.729,189.349 379.846,189.569 C379.594,189.633 379.341,189.663 379.093,189.663" id="Fill-87" fill="#30414F"></path>
            <path d="M351.071,189.663 C350.822,189.663 350.57,189.633 350.318,189.57 C349.434,189.349 348.7,188.751 348.305,187.931 C347.909,187.111 347.898,186.165 348.275,185.336 L352.253,176.586 L354.073,177.414 L350.096,186.164 C349.964,186.455 349.967,186.774 350.106,187.062 C350.245,187.351 350.493,187.552 350.804,187.63 C351.287,187.748 351.783,187.522 352.007,187.075 L356.269,178.553 L358.058,179.447 L353.796,187.97 C353.266,189.029 352.208,189.663 351.071,189.663" id="Fill-88" fill="#30414F"></path>
            <polygon id="Fill-89" fill="#30414F" points="368 185 370 185 370 183 368 183"></polygon>
            <polygon id="Fill-90" fill="#30414F" points="364 185 366 185 366 183 364 183"></polygon>
            <polygon id="Fill-91" fill="#30414F" points="360 185 362 185 362 183 360 183"></polygon>
            <path d="M224.957,27.662 C225.614,26.596 226,25.344 226,24 C226,20.134 222.866,17 219,17 C218.23,17 217.491,17.129 216.798,17.359 C216.059,14.286 213.3,12 210,12 C208.656,12 207.404,12.386 206.338,13.043 C205.222,10.657 202.808,9 200,9 C197.192,9 194.778,10.657 193.662,13.043 C192.596,12.386 191.344,12 190,12 C186.7,12 183.941,14.286 183.202,17.359 C182.509,17.129 181.77,17 181,17 C177.134,17 174,20.134 174,24 C174,25.344 174.386,26.596 175.043,27.662 C172.657,28.778 171,31.192 171,34 C171,37.866 174.134,41 178,41 L213,41 C213,45.971 217.029,50 222,50 L222,41 C225.866,41 229,37.866 229,34 C229,31.192 227.343,28.778 224.957,27.662" id="Fill-92" fill="#F3CB37"></path>
            <path d="M181,18 C177.691,18 175,20.691 175,24 C175,25.103 175.309,26.188 175.894,27.138 C176.043,27.38 176.082,27.676 176,27.949 C175.919,28.222 175.725,28.447 175.466,28.568 C173.36,29.553 172,31.685 172,34 C172,37.309 174.691,40 178,40 L213,40 C213.553,40 214,40.448 214,41 C214,45.072 217.06,48.444 221,48.938 L221,41 C221,40.448 221.447,40 222,40 C225.309,40 228,37.309 228,34 C228,31.685 226.64,29.553 224.533,28.568 C224.275,28.447 224.081,28.222 223.999,27.949 C223.917,27.675 223.956,27.38 224.105,27.137 C224.69,26.188 225,25.103 225,24 C225,20.691 222.309,18 219,18 C218.364,18 217.729,18.103 217.113,18.308 C216.849,18.397 216.558,18.369 216.313,18.232 C216.068,18.097 215.893,17.865 215.826,17.593 C215.175,14.889 212.779,13 210,13 C208.896,13 207.812,13.309 206.862,13.894 C206.62,14.043 206.327,14.083 206.051,14 C205.778,13.919 205.553,13.724 205.432,13.466 C204.448,11.36 202.315,10 200,10 C197.685,10 195.553,11.36 194.568,13.466 C194.447,13.725 194.222,13.919 193.949,14 C193.677,14.082 193.381,14.044 193.138,13.894 C192.188,13.309 191.103,13 190,13 C187.221,13 184.825,14.889 184.174,17.592 C184.108,17.864 183.932,18.097 183.688,18.232 C183.444,18.369 183.153,18.397 182.887,18.308 C182.271,18.103 181.636,18 181,18 L181,18 Z M222,51 C216.823,51 212.553,47.046 212.05,42 L178,42 C173.589,42 170,38.411 170,34 C170,31.263 171.424,28.719 173.701,27.262 C173.24,26.236 173,25.125 173,24 C173,19.589 176.589,16 181,16 C181.513,16 182.024,16.05 182.53,16.149 C183.695,13.073 186.637,11 190,11 C191.125,11 192.236,11.24 193.262,11.701 C194.719,9.424 197.263,8 200,8 C202.737,8 205.282,9.424 206.738,11.701 C207.764,11.24 208.874,11 210,11 C213.362,11 216.305,13.073 217.471,16.149 C217.976,16.05 218.487,16 219,16 C223.411,16 227,19.589 227,24 C227,25.126 226.76,26.236 226.299,27.262 C228.576,28.719 230,31.263 230,34 C230,38.072 226.94,41.444 223,41.938 L223,50 C223,50.552 222.553,51 222,51 L222,51 Z" id="Fill-93" fill="#30414F"></path>
            <path d="M198,41 L196,41 L196,34.535 L187.445,28.833 C187.167,28.647 187,28.335 187,28.001 L187,25 C187,21.691 189.691,19 193,19 C194.578,19 196.07,19.611 197.201,20.721 C197.392,20.91 197.5,21.167 197.5,21.435 C197.5,21.703 197.392,21.96 197.201,22.148 C196.426,22.909 196,23.921 196,25 C196,26.079 196.426,27.091 197.201,27.852 L195.799,29.278 C194.639,28.139 194,26.62 194,25 C194,23.76 194.375,22.578 195.072,21.581 C194.452,21.202 193.74,21 193,21 C190.794,21 189,22.794 189,25 L189,27.466 L197.555,33.168 C197.833,33.353 198,33.665 198,34 L198,41" id="Fill-94" fill="#30414F"></path>
            <path d="M202.799,29.278 C201.639,28.139 201,26.62 201,25 C201,23.76 201.375,22.578 202.072,21.581 C200.832,20.824 199.168,20.824 197.928,21.581 C198.625,22.578 199,23.76 199,25 C199,26.62 198.361,28.139 197.201,29.278 L195.799,27.852 C196.574,27.091 197,26.079 197,25 C197,23.921 196.574,22.909 195.799,22.148 C195.608,21.96 195.5,21.703 195.5,21.435 C195.5,21.167 195.608,20.91 195.799,20.721 C196.93,19.611 198.422,19 200,19 C201.578,19 203.069,19.611 204.2,20.721 C204.392,20.91 204.5,21.167 204.5,21.435 C204.5,21.703 204.393,21.96 204.2,22.148 C203.427,22.909 203,23.921 203,25 C203,26.079 203.427,27.091 204.2,27.852 L202.799,29.278" id="Fill-95" fill="#30414F"></path>
            <path d="M196.5,23.065 C196.173,23.651 196,24.312 196,25 C196,25.688 196.173,26.349 196.5,26.935 C196.827,26.349 197,25.688 197,25 C197,24.312 196.827,23.651 196.5,23.065 L196.5,23.065 Z M196.5,29.565 C196.247,29.565 195.994,29.469 195.799,29.278 C194.639,28.139 194,26.62 194,25 C194,23.38 194.639,21.861 195.799,20.722 C196.188,20.34 196.812,20.34 197.201,20.722 C198.361,21.861 199,23.38 199,25 C199,26.62 198.361,28.139 197.201,29.278 C197.006,29.469 196.753,29.565 196.5,29.565 L196.5,29.565 Z" id="Fill-96" fill="#30414F"></path>
            <path d="M204.2,29.278 L202.799,27.852 C203.573,27.091 204,26.079 204,25 C204,23.921 203.573,22.909 202.799,22.148 C202.608,21.96 202.5,21.703 202.5,21.435 C202.5,21.167 202.608,20.91 202.799,20.721 C203.931,19.611 205.422,19 207,19 C208.578,19 210.069,19.611 211.2,20.721 L209.8,22.149 C208.514,20.886 206.428,20.666 204.929,21.581 C205.625,22.578 206,23.76 206,25 C206,26.62 205.361,28.139 204.2,29.278" id="Fill-97" fill="#30414F"></path>
            <path d="M203.5,23.065 C203.174,23.651 203,24.312 203,25 C203,25.688 203.174,26.349 203.5,26.935 C203.826,26.349 204,25.688 204,25 C204,24.312 203.826,23.651 203.5,23.065 L203.5,23.065 Z M203.5,29.565 C203.247,29.565 202.994,29.469 202.799,29.278 C201.639,28.139 201,26.62 201,25 C201,23.38 201.639,21.861 202.799,20.722 C203.188,20.34 203.812,20.34 204.2,20.722 C205.361,21.861 206,23.38 206,25 C206,26.62 205.361,28.139 204.2,29.278 C204.006,29.469 203.753,29.565 203.5,29.565 L203.5,29.565 Z" id="Fill-98" fill="#30414F"></path>
            <path d="M204,41 L202,41 L202,34 C202,33.665 202.167,33.353 202.445,33.168 L211,27.465 L211,25 C211,23.921 210.573,22.909 209.8,22.148 L211.2,20.722 C212.361,21.861 213,23.38 213,25 L213,28 C213,28.335 212.833,28.646 212.555,28.832 L204,34.535 L204,41" id="Fill-99" fill="#30414F"></path>
            <path d="M196.5,42 C195.673,42 195,42.673 195,43.5 C195,44.327 195.673,45 196.5,45 L203.5,45 C204.327,45 205,44.327 205,43.5 C205,42.673 204.327,42 203.5,42 L196.5,42 L196.5,42 Z M203.5,47 L196.5,47 C194.57,47 193,45.43 193,43.5 C193,41.57 194.57,40 196.5,40 L203.5,40 C205.43,40 207,41.57 207,43.5 C207,45.43 205.43,47 203.5,47 L203.5,47 Z" id="Fill-100" fill="#30414F"></path>
            <path d="M196.5,47 C195.673,47 195,47.673 195,48.5 C195,49.327 195.673,50 196.5,50 L203.5,50 C204.327,50 205,49.327 205,48.5 C205,47.673 204.327,47 203.5,47 L196.5,47 L196.5,47 Z M203.5,52 L196.5,52 C194.57,52 193,50.43 193,48.5 C193,46.57 194.57,45 196.5,45 L203.5,45 C205.43,45 207,46.57 207,48.5 C207,50.43 205.43,52 203.5,52 L203.5,52 Z" id="Fill-101" fill="#30414F"></path>
            <path d="M196.5,52 C195.673,52 195,52.673 195,53.5 C195,54.327 195.673,55 196.5,55 L203.5,55 C204.327,55 205,54.327 205,53.5 C205,52.673 204.327,52 203.5,52 L196.5,52 L196.5,52 Z M203.5,57 L196.5,57 C194.57,57 193,55.43 193,53.5 C193,51.57 194.57,50 196.5,50 L203.5,50 C205.43,50 207,51.57 207,53.5 C207,55.43 205.43,57 203.5,57 L203.5,57 Z" id="Fill-102" fill="#30414F"></path>
            <path d="M200,60 C197.794,60 196,58.206 196,56 L198,56 C198,57.103 198.897,58 200,58 C201.103,58 202,57.103 202,56 L204,56 C204,58.206 202.206,60 200,60" id="Fill-103" fill="#30414F"></path>
            <polygon id="Fill-104" fill="#30414F" points="199 6 201 6 201 0 199 0"></polygon>
            <polyline id="Fill-105" fill="#30414F" points="219.707 11.707 218.293 10.293 223.293 5.293 224.707 6.707 219.707 11.707"></polyline>
            <polyline id="Fill-106" fill="#30414F" points="180.293 11.707 175.293 6.707 176.707 5.293 181.707 10.293 180.293 11.707"></polyline>
            <polyline id="Fill-107" fill="#30414F" points="176.707 54.707 175.293 53.293 180.293 48.293 181.707 49.707 176.707 54.707"></polyline>
            <polygon id="Fill-108" fill="#30414F" points="188 46 190 46 190 44 188 44"></polygon>
            <polygon id="Fill-109" fill="#30414F" points="184 46 186 46 186 44 184 44"></polygon>
            <polygon id="Fill-110" fill="#30414F" points="180 46 182 46 182 44 180 44"></polygon>
            <polyline id="Fill-111" fill-opacity="0.8" fill="#78BD4D" points="319 58 319 66 316 64 313 66 310 64 307 66 304 64 301 66 301 58"></polyline>
            <path d="M319,67 C318.806,67 318.612,66.944 318.445,66.832 L316,65.202 L313.555,66.832 C313.219,67.056 312.781,67.056 312.445,66.832 L310,65.202 L307.555,66.832 C307.219,67.056 306.781,67.056 306.445,66.832 L304,65.202 L301.555,66.832 C301.248,67.037 300.853,67.056 300.528,66.882 C300.203,66.708 300,66.369 300,66 L300,58 L302,58 L302,64.131 L303.445,63.168 C303.781,62.944 304.219,62.944 304.555,63.168 L307,64.798 L309.445,63.168 C309.781,62.944 310.219,62.944 310.555,63.168 L313,64.798 L315.445,63.168 C315.781,62.944 316.219,62.944 316.555,63.168 L318,64.131 L318,58 L320,58 L320,66 C320,66.369 319.797,66.708 319.472,66.882 C319.324,66.961 319.162,67 319,67" id="Fill-112" fill="#30414F"></path>
            <path d="M310,76 C309.744,76 309.488,75.902 309.293,75.707 L300.293,66.707 L301.707,65.293 L310,73.586 L318.293,65.293 L319.707,66.707 L310.707,75.707 C310.512,75.902 310.256,76 310,76" id="Fill-113" fill="#30414F"></path>
            <polygon id="Fill-114" fill="#30414F" points="306 72 314 72 314 70 306 70"></polygon>
            <path d="M301,55 C300.448,55 300,55.449 300,56 C300,56.551 300.448,57 301,57 L319,57 C319.552,57 320,56.551 320,56 C320,55.449 319.552,55 319,55 L301,55 L301,55 Z M319,59 L301,59 C299.346,59 298,57.654 298,56 C298,54.346 299.346,53 301,53 L319,53 C320.654,53 322,54.346 322,56 C322,57.654 320.654,59 319,59 L319,59 Z" id="Fill-115" fill="#30414F"></path>
            <path d="M301,51 C300.448,51 300,51.449 300,52 C300,52.551 300.448,53 301,53 L319,53 C319.552,53 320,52.551 320,52 C320,51.449 319.552,51 319,51 L301,51 L301,51 Z M319,55 L301,55 C299.346,55 298,53.654 298,52 C298,50.346 299.346,49 301,49 L319,49 C320.654,49 322,50.346 322,52 C322,53.654 320.654,55 319,55 L319,55 Z" id="Fill-116" fill="#30414F"></path>
            <path d="M301,47 C300.448,47 300,47.449 300,48 C300,48.551 300.448,49 301,49 L319,49 C319.552,49 320,48.551 320,48 C320,47.449 319.552,47 319,47 L301,47 L301,47 Z M319,51 L301,51 C299.346,51 298,49.654 298,48 C298,46.346 299.346,45 301,45 L319,45 C320.654,45 322,46.346 322,48 C322,49.654 320.654,51 319,51 L319,51 Z" id="Fill-117" fill="#30414F"></path>
            <path d="M301,47 C300.448,47 300,47.449 300,48 C300,48.551 300.448,49 301,49 L319,49 C319.552,49 320,48.551 320,48 C320,47.449 319.552,47 319,47 L301,47 L301,47 Z M319,51 L301,51 C299.346,51 298,49.654 298,48 C298,46.346 299.346,45 301,45 L319,45 C320.654,45 322,46.346 322,48 C322,49.654 320.654,51 319,51 L319,51 Z" id="Fill-118" fill="#30414F"></path>
            <path d="M301.022,45 L318.978,45 C322.756,42.168 325,37.709 325,33 C325,24.729 318.271,18 310,18 C301.729,18 295,24.729 295,33 C295,37.709 297.244,42.168 301.022,45 L301.022,45 Z M319.268,47.027 C319.224,47.027 319.181,47.024 319.137,47.018 L318.995,47 L301,47 C300.997,47 300.865,47.018 300.863,47.018 C300.614,47.054 300.358,46.988 300.152,46.841 C295.674,43.649 293,38.475 293,33 C293,23.626 300.626,16 310,16 C319.374,16 327,23.626 327,33 C327,38.475 324.326,43.649 319.848,46.841 C319.678,46.962 319.475,47.027 319.268,47.027 L319.268,47.027 Z" id="Fill-119" fill="#30414F"></path>
            <path d="M308,46 L306,46 L306,38.468 L302.497,35.549 C300.91,34.227 300,32.283 300,30.218 C300,27.39 302.29,25 305,25 C306.137,25 307.219,25.388 308.128,26.122 C308.363,26.312 308.5,26.598 308.5,26.9 C308.5,27.203 308.363,27.489 308.128,27.678 C307.411,28.257 307,29.103 307,30 C307,30.896 307.411,31.743 308.128,32.322 L306.872,33.877 C305.683,32.917 305,31.504 305,30 C305,28.967 305.322,27.977 305.909,27.147 C305.616,27.05 305.311,27 305,27 C303.402,27 302,28.503 302,30.218 C302,31.688 302.648,33.071 303.778,34.013 L307.641,37.232 C307.868,37.422 308,37.703 308,38 L308,46" id="Fill-120" fill="#30414F"></path>
            <path d="M311.872,33.877 C310.683,32.917 310,31.504 310,30 C310,28.967 310.322,27.977 310.909,27.147 C310.323,26.953 309.677,26.953 309.091,27.147 C309.678,27.977 310,28.967 310,30 C310,31.504 309.317,32.917 308.128,33.877 L306.872,32.322 C307.589,31.743 308,30.896 308,30 C308,29.103 307.589,28.257 306.872,27.678 C306.637,27.489 306.5,27.203 306.5,26.9 C306.5,26.598 306.637,26.313 306.871,26.123 C308.689,24.654 311.311,24.654 313.129,26.123 C313.363,26.313 313.5,26.598 313.5,26.9 C313.5,27.203 313.363,27.489 313.128,27.678 C312.411,28.257 312,29.103 312,30 C312,30.896 312.411,31.743 313.128,32.322 L311.872,33.877" id="Fill-121" fill="#30414F"></path>
            <path d="M307.5,28.364 C307.177,28.847 307,29.413 307,30 C307,30.587 307.177,31.153 307.5,31.636 C307.823,31.153 308,30.587 308,30 C308,29.413 307.823,28.847 307.5,28.364 L307.5,28.364 Z M307.5,34.1 C307.277,34.1 307.055,34.025 306.872,33.877 C305.683,32.917 305,31.504 305,30 C305,28.496 305.683,27.083 306.872,26.123 C307.237,25.827 307.763,25.827 308.128,26.123 C309.317,27.083 310,28.496 310,30 C310,31.504 309.317,32.917 308.128,33.877 C307.945,34.025 307.723,34.1 307.5,34.1 L307.5,34.1 Z" id="Fill-122" fill="#30414F"></path>
            <path d="M314,46 L312,46 L312,38 C312,37.703 312.132,37.422 312.359,37.232 L316.222,34.013 C317.352,33.071 318,31.688 318,30.218 C318,28.503 316.598,27 315,27 C314.689,27 314.384,27.05 314.091,27.147 C314.678,27.977 315,28.967 315,30 C315,31.504 314.317,32.917 313.128,33.877 L311.872,32.322 C312.589,31.743 313,30.896 313,30 C313,29.103 312.589,28.257 311.872,27.678 C311.637,27.489 311.5,27.203 311.5,26.9 C311.5,26.598 311.637,26.312 311.872,26.122 C312.781,25.388 313.863,25 315,25 C317.71,25 320,27.39 320,30.218 C320,32.283 319.09,34.227 317.503,35.549 L314,38.468 L314,46" id="Fill-123" fill="#30414F"></path>
            <path d="M312.5,28.364 C312.177,28.847 312,29.413 312,30 C312,30.587 312.177,31.153 312.5,31.636 C312.823,31.153 313,30.587 313,30 C313,29.413 312.823,28.847 312.5,28.364 L312.5,28.364 Z M312.5,34.1 C312.277,34.1 312.055,34.025 311.872,33.877 C310.683,32.917 310,31.504 310,30 C310,28.496 310.683,27.083 311.872,26.123 C312.237,25.827 312.763,25.827 313.128,26.123 C314.317,27.083 315,28.496 315,30 C315,31.504 314.317,32.917 313.128,33.877 C312.945,34.025 312.723,34.1 312.5,34.1 L312.5,34.1 Z" id="Fill-124" fill="#30414F"></path>
            <polyline id="Fill-125" fill="#30414F" points="326.707 21.707 325.293 20.293 329.293 16.293 330.707 17.707 326.707 21.707"></polyline>
            <polyline id="Fill-126" fill="#30414F" points="329.293 49.707 325.293 45.707 326.707 44.293 330.707 48.293 329.293 49.707"></polyline>
            <polygon id="Fill-127" fill="#30414F" points="330 34 336 34 336 32 330 32"></polygon>
            <polyline id="Fill-128" fill="#30414F" points="293.293 21.707 289.293 17.707 290.707 16.293 294.707 20.293 293.293 21.707"></polyline>
            <polyline id="Fill-129" fill="#30414F" points="290.707 49.707 289.293 48.293 293.293 44.293 294.707 45.707 290.707 49.707"></polyline>
            <polygon id="Fill-130" fill="#30414F" points="284 34 290 34 290 32 284 32"></polygon>
            <polygon id="Fill-131" fill="#30414F" points="309 13 311 13 311 7 309 7"></polygon>
            <polygon id="Fill-132" fill="#30414F" points="322 66 324 66 324 64 322 64"></polygon>
            <polygon id="Fill-133" fill="#30414F" points="326 66 328 66 328 64 326 64"></polygon>
            <polygon id="Fill-134" fill="#30414F" points="330 66 332 66 332 64 330 64"></polygon>
            <polygon id="Fill-135" fill="#30414F" points="288 66 290 66 290 64 288 64"></polygon>
            <polygon id="Fill-136" fill="#30414F" points="292 66 294 66 294 64 292 64"></polygon>
            <polygon id="Fill-137" fill="#30414F" points="296 66 298 66 298 64 296 64"></polygon>
            <polygon id="Fill-138" fill="#30414F" points="318.991 190.06 357.87 190.06 357.87 188.06 318.991 188.06"></polygon>
            <polygon id="Fill-139" fill="#30414F" points="361.733 190.06 368 190.06 368 188.06 361.733 188.06"></polygon>
            <polygon id="Fill-140" fill="#30414F" points="371.232 190.06 387.009 190.06 387.009 188.06 371.232 188.06"></polygon>
            <polygon id="Fill-141" fill="#30414F" points="337.578 115.703 342.811 115.703 342.811 113.703 337.578 113.703"></polygon>
            <polygon id="Fill-142" fill="#30414F" points="349.708 115.703 354.94 115.703 354.94 113.703 349.708 113.703"></polygon>
            <polygon id="Fill-143" fill="#30414F" points="345.26 111.254 347.26 111.254 347.26 106.022 345.26 106.022"></polygon>
            <polygon id="Fill-144" fill="#30414F" points="345.26 123.384 347.26 123.384 347.26 118.152 345.26 118.152"></polygon>
            <polyline id="Fill-145" fill="#30414F" points="349.405 112.971 347.991 111.557 351.69 107.857 353.104 109.271 349.405 112.971"></polyline>
            <polyline id="Fill-146" fill="#30414F" points="340.828 121.548 339.414 120.134 343.114 116.435 344.528 117.849 340.828 121.548"></polyline>
            <polyline id="Fill-147" fill="#30414F" points="351.69 121.548 347.991 117.849 349.405 116.435 353.104 120.134 351.69 121.548"></polyline>
            <polyline id="Fill-148" fill="#30414F" points="343.114 112.971 339.414 109.271 340.828 107.857 344.528 111.557 343.114 112.971"></polyline>
            <polygon id="Fill-149" fill="#30414F" points="198.679 89.104 200.679 89.104 200.679 58.208 198.679 58.208"></polygon>
            <path d="M202.687,88.953 C202.687,90.614 201.34,91.961 199.679,91.961 C198.018,91.961 196.671,90.614 196.671,88.953 C196.671,87.292 198.018,85.946 199.679,85.946 C201.34,85.946 202.687,87.292 202.687,88.953" id="Fill-150" fill="#30414F"></path>
            <path d="M185.302,79.058 L187.302,79.058 L187.302,77.058 L185.302,77.058 L185.302,79.058 Z M185.302,83.058 L187.302,83.058 L187.302,81.058 L185.302,81.058 L185.302,83.058 Z M185.302,87.058 L187.302,87.058 L187.302,85.058 L185.302,85.058 L185.302,87.058 Z M185.302,91.058 L187.302,91.058 L187.302,89.058 L185.302,89.058 L185.302,91.058 Z M185.302,95.058 L187.302,95.058 L187.302,93.058 L185.302,93.058 L185.302,95.058 Z M185.302,99.058 L187.302,99.058 L187.302,97.058 L185.302,97.058 L185.302,99.058 Z M185.302,103.058 L187.302,103.058 L187.302,101.058 L185.302,101.058 L185.302,103.058 Z M185.302,107.058 L187.302,107.058 L187.302,105.058 L185.302,105.058 L185.302,107.058 Z M185.302,111.058 L187.302,111.058 L187.302,109.058 L185.302,109.058 L185.302,111.058 Z M185.302,115.058 L187.302,115.058 L187.302,113.058 L185.302,113.058 L185.302,115.058 Z M185.302,119.058 L187.302,119.058 L187.302,117.058 L185.302,117.058 L185.302,119.058 Z M185.302,123.058 L187.302,123.058 L187.302,121.058 L185.302,121.058 L185.302,123.058 Z M185.302,127.058 L187.302,127.058 L187.302,125.058 L185.302,125.058 L185.302,127.058 Z M185.302,131.058 L187.302,131.058 L187.302,129.058 L185.302,129.058 L185.302,131.058 Z M185.302,135.058 L187.302,135.058 L187.302,133.058 L185.302,133.058 L185.302,135.058 Z M185.302,139.058 L187.302,139.058 L187.302,137.058 L185.302,137.058 L185.302,139.058 Z M185.302,143.058 L187.302,143.058 L187.302,141.058 L185.302,141.058 L185.302,143.058 Z M185.302,147.058 L187.302,147.058 L187.302,145.058 L185.302,145.058 L185.302,147.058 Z M185.302,151.058 L187.302,151.058 L187.302,149.058 L185.302,149.058 L185.302,151.058 Z M185.302,155.058 L187.302,155.058 L187.302,153.058 L185.302,153.058 L185.302,155.058 Z M185.302,159.058 L187.302,159.058 L187.302,157.058 L185.302,157.058 L185.302,159.058 Z M185.302,163.058 L187.302,163.058 L187.302,161.058 L185.302,161.058 L185.302,163.058 Z M185.302,167.058 L187.302,167.058 L187.302,165.058 L185.302,165.058 L185.302,167.058 Z M185.302,171.058 L187.302,171.058 L187.302,169.058 L185.302,169.058 L185.302,171.058 Z M185.302,175.058 L187.302,175.058 L187.302,173.058 L185.302,173.058 L185.302,175.058 Z M185.302,179.058 L187.302,179.058 L187.302,177.058 L185.302,177.058 L185.302,179.058 Z M185.302,183.058 L187.302,183.058 L187.302,181.058 L185.302,181.058 L185.302,183.058 Z M185.302,187.058 L187.302,187.058 L187.302,185.058 L185.302,185.058 L185.302,187.058 Z" id="Fill-151" fill="#30414F"></path>
            <path d="M239.623,148.924 L238.209,147.51 L239.623,146.096 L241.037,147.51 L239.623,148.924 L239.623,148.924 Z M242.451,151.753 L241.037,150.338 L242.451,148.924 L243.865,150.339 L242.451,151.753 L242.451,151.753 Z M245.28,154.581 L243.866,153.167 L245.28,151.753 L246.694,153.167 L245.28,154.581 L245.28,154.581 Z M248.108,157.409 L246.694,155.995 L248.108,154.581 L249.522,155.995 L248.108,157.409 L248.108,157.409 Z M250.937,160.238 L249.522,158.823 L250.937,157.409 L252.351,158.824 L250.937,160.238 L250.937,160.238 Z M253.765,163.066 L252.351,161.652 L253.765,160.238 L255.179,161.652 L253.765,163.066 L253.765,163.066 Z M256.594,165.895 L255.18,164.48 L256.594,163.066 L258.008,164.48 L256.594,165.895 L256.594,165.895 Z M259.422,168.724 L258.008,167.31 L259.422,165.896 L260.836,167.31 L259.422,168.724 L259.422,168.724 Z M262.25,171.552 L260.836,170.138 L262.25,168.724 L263.664,170.138 L262.25,171.552 L262.25,171.552 Z M265.078,174.38 L263.664,172.966 L265.078,171.552 L266.492,172.966 L265.078,174.38 L265.078,174.38 Z M267.379,175.654 L269.379,175.654 L269.379,173.654 L267.379,173.654 L267.379,175.654 Z M271.379,175.654 L273.379,175.654 L273.379,173.654 L271.379,173.654 L271.379,175.654 Z M275.379,175.654 L277.379,175.654 L277.379,173.654 L275.379,173.654 L275.379,175.654 Z M279.379,175.654 L281.379,175.654 L281.379,173.654 L279.379,173.654 L279.379,175.654 Z M283.379,175.654 L285.379,175.654 L285.379,173.654 L283.379,173.654 L283.379,175.654 Z M287.379,175.654 L289.379,175.654 L289.379,173.654 L287.379,173.654 L287.379,175.654 Z M291.379,175.654 L293.379,175.654 L293.379,173.654 L291.379,173.654 L291.379,175.654 Z M295.379,175.654 L297.379,175.654 L297.379,173.654 L295.379,173.654 L295.379,175.654 Z M299.379,175.654 L301.379,175.654 L301.379,173.654 L299.379,173.654 L299.379,175.654 Z" id="Fill-152" fill="#30414F"></path>
            <path d="M236.895,149.036 C235.721,147.862 235.721,145.957 236.895,144.783 C238.07,143.608 239.975,143.608 241.149,144.783 C242.324,145.957 242.324,147.862 241.149,149.036 C239.975,150.211 238.07,150.211 236.895,149.036" id="Fill-153" fill="#30414F"></path>
            <path d="M302.197,177.662 C303.858,177.662 305.205,176.315 305.205,174.654 C305.205,172.993 303.858,171.646 302.197,171.646 C300.536,171.646 299.189,172.993 299.189,174.654 C299.189,176.315 300.536,177.662 302.197,177.662" id="Fill-154" fill="#30414F"></path>
            <path d="M373.69,123.296 C373.69,120.122 370.869,117.301 367.695,117.301 C370.869,117.301 373.69,114.48 373.69,111.306 C373.69,114.48 376.512,117.301 379.685,117.301 C376.512,117.301 373.69,120.122 373.69,123.296" id="Fill-155" fill="#F3CB37"></path>
            <path d="M387.045,111.965 C387.045,108.792 384.223,105.97 381.05,105.97 C384.223,105.97 387.045,103.149 387.045,99.975 C387.045,103.149 389.866,105.97 393.039,105.97 C389.866,105.97 387.045,108.792 387.045,111.965" id="Fill-156" fill="#F3CB37"></path>
            <path d="M371.197,105.97 C371.197,102.797 368.376,99.975 365.202,99.975 C368.376,99.975 371.197,97.154 371.197,93.981 C371.197,97.154 374.018,99.975 377.192,99.975 C374.018,99.975 371.197,102.797 371.197,105.97" id="Fill-157" fill="#F3CB37"></path>
            <path d="M69.09,41.532 C68.474,41.444 67.843,41.392 67.216,41.376 L67.265,39.377 C67.97,39.395 68.679,39.454 69.372,39.552 L69.09,41.532 L69.09,41.532 Z M63.475,41.721 L63.061,39.764 C63.747,39.619 64.45,39.512 65.152,39.448 L65.334,41.439 C64.71,41.497 64.084,41.591 63.475,41.721 L63.475,41.721 Z M72.719,42.493 C72.139,42.263 71.538,42.065 70.934,41.905 L71.445,39.971 C72.126,40.152 72.803,40.375 73.456,40.633 L72.719,42.493 L72.719,42.493 Z M59.917,42.927 L59.057,41.121 C59.694,40.818 60.354,40.549 61.018,40.324 L61.661,42.218 C61.07,42.418 60.484,42.657 59.917,42.927 L59.917,42.927 Z M76.022,44.275 C75.51,43.916 74.972,43.583 74.423,43.287 L75.373,41.527 C75.991,41.86 76.596,42.234 77.172,42.639 L76.022,44.275 L76.022,44.275 Z M56.741,44.931 L55.483,43.375 C56.03,42.933 56.609,42.519 57.203,42.144 L58.271,43.835 C57.742,44.168 57.227,44.537 56.741,44.931 L56.741,44.931 Z M78.824,46.777 C78.41,46.31 77.963,45.861 77.496,45.444 L78.828,43.952 C79.353,44.421 79.855,44.925 80.321,45.45 L78.824,46.777 L78.824,46.777 Z M54.112,47.617 L52.53,46.393 C52.961,45.836 53.428,45.299 53.918,44.798 L55.348,46.197 C54.912,46.643 54.496,47.12 54.112,47.617 L54.112,47.617 Z M80.972,49.861 C80.678,49.311 80.347,48.771 79.989,48.256 L81.63,47.113 C82.033,47.692 82.405,48.299 82.736,48.917 L80.972,49.861 L80.972,49.861 Z M52.181,50.835 L50.357,50.015 C50.645,49.375 50.975,48.744 51.337,48.14 L53.052,49.169 C52.729,49.707 52.437,50.267 52.181,50.835 L52.181,50.835 Z M82.341,53.358 C82.183,52.751 81.987,52.149 81.76,51.569 L83.622,50.839 C83.878,51.493 84.098,52.17 84.276,52.853 L82.341,53.358 L82.341,53.358 Z M51.054,54.416 L49.088,54.044 C49.219,53.354 49.392,52.663 49.604,51.992 L51.511,52.592 C51.324,53.189 51.169,53.802 51.054,54.416 L51.054,54.416 Z M82.854,57.078 C82.841,56.452 82.792,55.821 82.706,55.203 L84.688,54.928 C84.784,55.624 84.839,56.333 84.854,57.037 L82.854,57.078 L82.854,57.078 Z M50.774,58.211 L48.774,58.211 L48.774,57.414 C48.774,56.986 48.79,56.562 48.819,56.142 L50.814,56.282 C50.788,56.656 50.774,57.033 50.774,57.414 L50.774,58.211 L50.774,58.211 Z M82.858,61.058 L84.858,61.058 L84.858,59.058 L82.858,59.058 L82.858,61.058 Z M48.774,62.211 L50.774,62.211 L50.774,60.211 L48.774,60.211 L48.774,62.211 Z M82.858,65.058 L84.858,65.058 L84.858,63.058 L82.858,63.058 L82.858,65.058 Z M48.774,66.211 L50.774,66.211 L50.774,64.211 L48.774,64.211 L48.774,66.211 Z M82.858,69.058 L84.858,69.058 L84.858,67.058 L82.858,67.058 L82.858,69.058 Z M48.774,70.211 L50.774,70.211 L50.774,68.211 L48.774,68.211 L48.774,70.211 Z M82.858,73.058 L84.858,73.058 L84.858,71.058 L82.858,71.058 L82.858,73.058 Z M48.774,74.211 L50.774,74.211 L50.774,72.211 L48.774,72.211 L48.774,74.211 Z M82.858,77.058 L84.858,77.058 L84.858,75.058 L82.858,75.058 L82.858,77.058 Z M48.774,78.211 L50.774,78.211 L50.774,76.211 L48.774,76.211 L48.774,78.211 Z M48.774,82.211 L50.774,82.211 L50.774,80.211 L48.774,80.211 L48.774,82.211 Z M48.774,86.211 L50.774,86.211 L50.774,84.211 L48.774,84.211 L48.774,86.211 Z M48.774,90.211 L50.774,90.211 L50.774,88.211 L48.774,88.211 L48.774,90.211 Z M48.774,94.211 L50.774,94.211 L50.774,92.211 L48.774,92.211 L48.774,94.211 Z M48.774,98.211 L50.774,98.211 L50.774,96.211 L48.774,96.211 L48.774,98.211 Z M48.774,102.211 L50.774,102.211 L50.774,100.211 L48.774,100.211 L48.774,102.211 Z M48.774,106.211 L50.774,106.211 L50.774,104.211 L48.774,104.211 L48.774,106.211 Z M48.774,110.211 L50.774,110.211 L50.774,108.211 L48.774,108.211 L48.774,110.211 Z M48.774,114.211 L50.774,114.211 L50.774,112.211 L48.774,112.211 L48.774,114.211 Z M48.774,118.211 L50.774,118.211 L50.774,116.211 L48.774,116.211 L48.774,118.211 Z M48.774,122.211 L50.774,122.211 L50.774,120.211 L48.774,120.211 L48.774,122.211 Z M48.774,126.211 L50.774,126.211 L50.774,124.211 L48.774,124.211 L48.774,126.211 Z M48.774,130.211 L50.774,130.211 L50.774,128.211 L48.774,128.211 L48.774,130.211 Z" id="Fill-158" fill="#30414F"></path>
            <path d="M127.286,34.569 L150.615,34.569 C152.824,34.569 154.615,36.36 154.615,38.569 L154.615,52.602 C154.615,54.812 152.824,56.602 150.615,56.602 L147.617,56.602 L151.86,61.594 L143.059,56.602 L127.286,56.602 C125.076,56.602 123.286,54.812 123.286,52.602 L123.286,38.569 C123.286,36.36 125.076,34.569 127.286,34.569" id="Fill-159" fill-opacity="0.800000012" fill="#78BD4D"></path>
            <path d="M108.796,50.651 C107.142,50.651 105.796,51.997 105.796,53.651 L105.796,68.312 C105.796,69.966 107.142,71.312 108.796,71.312 L111.479,71.312 C111.794,71.312 112.092,71.461 112.281,71.715 C112.47,71.968 112.527,72.296 112.437,72.599 L111.407,76.031 L115.972,71.594 C116.159,71.413 116.409,71.312 116.669,71.312 L132.024,71.312 C133.678,71.312 135.024,69.966 135.024,68.312 L135.024,53.651 C135.024,51.997 133.678,50.651 132.024,50.651 L108.796,50.651 L108.796,50.651 Z M109.342,80.431 C109.164,80.431 108.984,80.383 108.823,80.286 C108.434,80.05 108.253,79.58 108.384,79.144 L110.134,73.312 L108.796,73.312 C106.04,73.312 103.796,71.068 103.796,68.312 L103.796,53.651 C103.796,50.895 106.04,48.651 108.796,48.651 L132.024,48.651 C134.781,48.651 137.024,50.895 137.024,53.651 L137.024,68.312 C137.024,71.068 134.781,73.312 132.024,73.312 L117.075,73.312 L110.039,80.148 C109.847,80.334 109.596,80.431 109.342,80.431 L109.342,80.431 Z" id="Fill-160" fill="#30414F"></path>
            <path d="M145.297,44.663 C145.297,45.861 146.269,46.833 147.468,46.833 C148.667,46.833 149.638,45.861 149.638,44.663 C149.638,43.464 148.667,42.492 147.468,42.492 C146.269,42.492 145.297,43.464 145.297,44.663" id="Fill-161" fill="#FFFFFF"></path>
            <path d="M136.78,44.663 C136.78,45.861 137.751,46.833 138.95,46.833 C140.149,46.833 141.121,45.861 141.121,44.663 C141.121,43.464 140.149,42.492 138.95,42.492 C137.751,42.492 136.78,43.464 136.78,44.663" id="Fill-162" fill="#FFFFFF"></path>
            <path d="M128.262,44.663 C128.262,45.861 129.234,46.833 130.432,46.833 C131.631,46.833 132.603,45.861 132.603,44.663 C132.603,43.464 131.631,42.492 130.432,42.492 C129.234,42.492 128.262,43.464 128.262,44.663" id="Fill-163" fill="#FFFFFF"></path>
            <path d="M247.232,51 C245.521,51 244.129,52.393 244.129,54.104 C244.129,55.815 245.521,57.208 247.232,57.208 C248.944,57.208 250.337,55.815 250.337,54.104 C250.337,52.393 248.944,51 247.232,51 L247.232,51 Z M247.232,59.208 C244.418,59.208 242.129,56.918 242.129,54.104 C242.129,51.29 244.418,49 247.232,49 C250.047,49 252.337,51.29 252.337,54.104 C252.337,56.918 250.047,59.208 247.232,59.208 L247.232,59.208 Z" id="Fill-164" fill-opacity="0.800000012" fill="#78BD4D"></path>
            <path d="M264.13,39.883 C264.13,41.324 262.962,42.492 261.522,42.492 C260.081,42.492 258.913,41.324 258.913,39.883 C258.913,38.442 260.081,37.274 261.522,37.274 C262.962,37.274 264.13,38.442 264.13,39.883" id="Fill-165" fill-opacity="0.800000012" fill="#78BD4D"></path>
            <path d="M43.304,217 C41.265,217 39.607,218.658 39.607,220.696 C39.607,222.734 41.265,224.393 43.304,224.393 C45.342,224.393 47,222.734 47,220.696 C47,218.658 45.342,217 43.304,217 L43.304,217 Z M43.304,226.393 C40.163,226.393 37.607,223.837 37.607,220.696 C37.607,217.556 40.163,215 43.304,215 C46.445,215 49,217.556 49,220.696 C49,223.837 46.445,226.393 43.304,226.393 L43.304,226.393 Z" id="Fill-166" fill-opacity="0.800000012" fill="#78BD4D"></path>
            <path d="M326.226,202.549 C324.998,202.549 324,203.547 324,204.774 C324,206.002 324.998,207 326.226,207 C327.453,207 328.451,206.002 328.451,204.774 C328.451,203.547 327.453,202.549 326.226,202.549 L326.226,202.549 Z M326.226,209 C323.896,209 322,207.104 322,204.774 C322,202.444 323.896,200.549 326.226,200.549 C328.556,200.549 330.451,202.444 330.451,204.774 C330.451,207.104 328.556,209 326.226,209 L326.226,209 Z" id="Fill-167" fill-opacity="0.800000012" fill="#78BD4D"></path>
            <path d="M359.448,68.355 C358.739,68.355 358.163,68.932 358.163,69.64 C358.163,70.349 358.739,70.926 359.448,70.926 C360.157,70.926 360.733,70.349 360.733,69.64 C360.733,68.932 360.157,68.355 359.448,68.355 L359.448,68.355 Z M359.448,72.926 C357.637,72.926 356.163,71.452 356.163,69.64 C356.163,67.829 357.637,66.355 359.448,66.355 C361.26,66.355 362.733,67.829 362.733,69.64 C362.733,71.452 361.26,72.926 359.448,72.926 L359.448,72.926 Z" id="Fill-168" fill-opacity="0.800000012" fill="#78BD4D"></path>
            <path d="M21.513,112.965 C20.127,112.965 19,114.093 19,115.479 C19,116.864 20.127,117.991 21.513,117.991 C22.899,117.991 24.026,116.864 24.026,115.479 C24.026,114.093 22.899,112.965 21.513,112.965 L21.513,112.965 Z M21.513,119.991 C19.024,119.991 17,117.967 17,115.479 C17,112.99 19.024,110.965 21.513,110.965 C24.001,110.965 26.026,112.99 26.026,115.479 C26.026,117.967 24.001,119.991 21.513,119.991 L21.513,119.991 Z" id="Fill-169" fill-opacity="0.800000012" fill="#78BD4D"></path>
            <polyline id="Fill-170" fill="#30414F" points="161.599 181.998 124.407 127.729 126.056 126.598 163.248 180.867 161.599 181.998"></polyline>
        </g>
    </g>
</svg>