<svg width="88" height="83" viewBox="0 0 88 83" xmlns="http://www.w3.org/2000/svg"><title>consulting-manager</title><g fill="none" fill-rule="evenodd"><path d="M44.104.908h38.925c2.298 0 4.184 1.897 4.184 4.185v23.913a4.2 4.2 0 0 1-4.184 4.185h-4.113c-4.25 4.597-10.332 7.33-16.722 9.909 1.88-3.168 3.882-6.461 5.125-9.91H44.104c-2.282 0-4.18-1.885-4.18-4.184V5.093c0-2.299 1.881-4.185 4.18-4.185" fill="#9B569D"/><path fill="#FFF" d="M35.322 63.296h6.934V40.57h-13.72v22.726h6.786"/><path d="M29.274 62.554h12.24V41.313h-12.24v21.241zm12.982 1.485h-13.72l-.741-.743V40.57l.742-.742h13.72l.747.742v22.726l-.748.743z" fill="#282E29"/><path d="M35.322 56.802l-6.785-6.9s-15.22 5.548-20.043 8.11c-2.276 1.204-3.706 2.375-4.432 6.318-.726 3.937-1.765 12.031-2.392 17.783h67.458c-.616-5.752-1.66-13.846-2.386-17.783-.732-3.943-2.156-5.114-4.432-6.318-4.823-2.562-20.054-8.11-20.054-8.11l-6.934 6.9" fill="#FFF"/><path d="M2.5 81.37h65.803c-.615-5.58-1.594-13.136-2.293-16.908-.698-3.772-2.056-4.74-4.052-5.801-4.262-2.26-16.975-6.967-19.51-7.902l-6.603 6.571-.528.22-.528-.225-6.45-6.56c-2.552.94-15.237 5.641-19.493 7.896-1.996 1.061-3.36 2.029-4.053 5.801-.687 3.717-1.666 11.289-2.292 16.909zm66.667 1.485H1.67l-.55-.247-.187-.578c.622-5.707 1.672-13.895 2.403-17.837.737-4.02 2.2-5.455 4.812-6.835 4.811-2.557 19.509-7.924 20.13-8.155l.781.182 6.269 6.367 6.406-6.373.78-.176c.622.231 15.33 5.598 20.142 8.155 2.607 1.38 4.07 2.815 4.817 6.835.726 3.942 1.76 11.96 2.37 17.612l.066.308-.742.742z" fill="#282E29"/><path fill="#FFF" d="M57.79 74.552l-.303-.253-.241.314.824 7.5h.55l-.83-7.56"/><path d="M58.62 82.855h-.55l-.736-.66-.825-7.5c-.066-.55.33-1.056.88-1.133h.021c.633 0 1.073.407 1.117.924l.83 7.544-.181.578-.556.247" fill="#282E29"/><path d="M23.577 34.934c-5.317-4.855-4.558-9.914-3.184-9.59 1.375.325 2.26 2.453 2.26 2.453s1.683 4.058.924 7.137" fill="#FFF"/><path d="M20.234 26.07c.093.033-.088.347-.105 1.045-.027 1.518.743 3.86 2.904 6.224.05-2.529-1.05-5.229-1.067-5.262-.193-.456-.924-1.803-1.732-2.007zm3.343 9.606l-.5-.192c-4.295-3.92-4.845-8.078-4.185-9.777.39-1.006 1.094-1.122 1.38-1.122l.297.039c1.688.396 2.662 2.628 2.766 2.887.077.176 1.77 4.322.962 7.599l-.506.533-.214.033z" fill="#282E29"/><path d="M47.265 34.934c5.318-4.855 4.559-9.914 3.184-9.59-1.369.325-2.26 2.453-2.26 2.453s-1.682 4.058-.924 7.137" fill="#FFF"/><path d="M50.455 26.037c-.65.22-1.386 1.584-1.578 2.046-.011.027-1.111 2.732-1.062 5.256 2.156-2.364 2.926-4.706 2.898-6.224-.016-.726-.209-1.034-.258-1.078zm-3.19 9.64l-.214-.034-.506-.533c-.803-3.277.885-7.423.957-7.6.11-.258 1.083-2.49 2.777-2.886l.297-.039c.286 0 .99.11 1.374 1.122.666 1.7.11 5.856-4.184 9.777l-.5.192z" fill="#282E29"/><path d="M40.793 14.16c-1.506-.566-3.69-1.358-4.371-1.815h-2.046c-.676.457-2.859 1.249-4.366 1.815-4.695 1.782-9.446 4.206-9.446 4.206.682 4.141 2.276 20.846 5.02 24.585 8.886 6.879 11.102 6.632 19.636 0 3.964-7.352 4.498-21.324 5.004-24.458l.01-.055.006-.039v-.022l.006-.01s-4.751-2.425-9.453-4.207" fill="#FFF"/><path d="M26.123 42.434c3.97 3.069 6.78 4.845 9.331 4.845 2.502 0 5.065-1.623 9.189-4.812 3.035-5.768 3.992-15.655 4.508-20.983.105-1.122.193-2.04.28-2.694-1.313-.649-5.146-2.513-8.902-3.932l-.665-.253c-1.682-.632-2.97-1.127-3.651-1.517h-1.628c-.676.39-1.946.874-3.618 1.506l-.693.264c-3.75 1.419-7.577 3.277-8.896 3.932.12.836.274 1.98.445 3.321.792 6.082 2.254 17.36 4.3 20.323zm9.331 6.33c-3.013 0-5.955-1.837-10.326-5.225l-.149-.148c-2.298-3.134-3.755-14.374-4.63-21.087-.209-1.645-.385-2.98-.522-3.817l.396-.78c.05-.022 4.844-2.47 9.524-4.24l.698-.264c1.27-.478 3.013-1.133 3.52-1.473l.411-.127h2.046l.412.127c.517.346 2.271 1.006 3.553 1.484l.67.253c4.685 1.77 9.48 4.218 9.524 4.24l.396.786c-.12.737-.22 1.792-.352 3.134-.528 5.477-1.512 15.671-4.75 21.676l-.199.236c-4.46 3.465-7.264 5.224-10.222 5.224z" fill="#282E29"/><path d="M22.318 27.967s1.254-3.8 1.605-10.106c0 0 1.749 1.468 6.51 2.716 4.768 1.243 12.472.071 15.485-3.3 0 0-1.583 6.352 2.552 10.646 0 0 1.968-2.947 2.908-8.671.952-5.713-2.309-6.489-2.309-6.489.946-4.839-7.209-8.154-16.243-7.165-9.04.99-10.96 6.786-10.96 6.786-1.374.137-3.243 1.616-3.37 5.823-.148 4.547 2.26 8.193 3.822 9.76" fill="#78BD4D"/><path d="M45.918 16.535l.347.088.374.83c-.011.056-1.254 5.28 1.699 9.178.626-1.237 1.693-3.767 2.31-7.5.824-4.971-1.722-5.642-1.75-5.642l-.56-.869c.192-.973-.066-1.908-.776-2.766-1.847-2.238-6.384-3.69-11.547-3.69-1.028 0-2.078.061-3.107.171-8.413.924-10.266 6.065-10.343 6.285l-.627.5c-.945.094-2.584 1.282-2.705 5.114-.104 3.333 1.265 6.296 2.733 8.205.39-1.6.995-4.597 1.215-8.617l.446-.643.775.115c.01.011 1.732 1.386 6.224 2.563 1.155.302 2.535.461 4.003.461 4.531 0 8.848-1.424 10.734-3.535l.555-.248zm-23.6 12.174l-.528-.214c-1.947-1.963-4.18-5.84-4.036-10.31.126-4.157 1.913-6.038 3.58-6.461.648-1.43 3.337-5.977 11.41-6.862a29.729 29.729 0 0 1 3.271-.182c5.68 0 10.547 1.622 12.697 4.229.84 1.033 1.242 2.188 1.165 3.392 1.067.567 3.03 2.288 2.233 7.072-.957 5.812-2.942 8.836-3.025 8.963l-.555.324-.6-.22c-2.925-3.035-3.188-6.967-3.024-9.32-2.87 1.952-7.12 2.683-10.277 2.683-1.589 0-3.106-.176-4.382-.511-2.815-.737-4.63-1.556-5.67-2.134-.428 5.576-1.506 8.892-1.555 9.04l-.534.495-.17.016z" fill="#282E29"/><path d="M35.322 74.596L46.37 51.43a476.892 476.892 0 0 0-4.113-1.529l-6.934 6.203-6.785-6.203s-1.996.726-4.768 1.777l11.553 22.918" fill="#FFF"/><path d="M24.803 52.079L35.3 72.914l10.052-21.071c-1.342-.506-2.387-.891-2.93-1.09l-6.61 5.906-.996-.005-6.45-5.9c-.632.23-1.919.704-3.563 1.325zm10.52 23.26l-.666-.413L23.11 52.007l-.028-.599.429-.423c2.771-1.056 4.767-1.782 4.767-1.782l.76.149 6.29 5.757 6.433-5.763.754-.143s1.688.616 4.118 1.529l.429.418-.022.599-11.052 23.166-.666.423z" fill="#282E29"/><path fill="#9B569D" d="M36.411 55.868l1.996 1.644-1.88 2.364 1.699 8.622-2.904 6.098-2.793-5.526 1.814-9.194-1.875-2.364 1.99-1.644h1.953"/><path d="M23.77 51.678c2.77-1.05 4.767-1.777 4.767-1.777l6.785 6.203-7.088 4.536-4.465-8.962zM42.255 49.9l-6.934 6.203 6.604 4.514 4.443-9.188a476.892 476.892 0 0 0-4.113-1.529z" fill="#FFF"/><path d="M36.52 56.027l5.115 3.492 3.711-7.682c-1.341-.5-2.38-.885-2.925-1.083l-5.9 5.273zm-11.717-3.948l3.723 7.495L34.107 56l-5.74-5.246c-.633.23-1.92.71-3.564 1.325zm3.431 9.304l-.203-.022-.467-.39-4.46-8.964-.022-.599.429-.423c2.771-1.056 4.767-1.782 4.767-1.782l.76.149 6.29 5.757 6.433-5.763.754-.137s1.688.615 4.118 1.523l.429.423-.022.6-4.448 9.182-.473.396-.61-.104L35.305 57l-6.676 4.267-.396.116z" fill="#282E29"/><path fill="#FFF" d="M14.295 82.102l.825-7.506-.242-.308-.302.253-.83 7.56h.55"/><path d="M14.295 82.844h-.55l-.55-.247-.186-.578.83-7.566a1.018 1.018 0 0 1 1.012-.907c.67.071 1.072.577 1.011 1.138l-.824 7.495-.743.665" fill="#282E29"/><path d="M35.322 74.596l-9.54-23.672c-1.237.457-2.804 1.05-4.498 1.7l.072 3.645 2.655 1.072-1.413 2.403 12.724 14.852" fill="#FFF"/><path d="M23.511 59.662l9.425 11.014-7.572-18.806c-.979.363-2.111.797-3.321 1.26l.044 2.633 2.205.89.423.446-.06.616-1.144 1.947zm11.811 15.676l-.566-.258-12.719-14.852-.077-.863.98-1.66-1.865-.754-.462-.671-.066-3.64.479-.71c1.693-.648 3.26-1.248 4.498-1.704l.945.418 9.54 23.677-.307.913-.38.104z" fill="#282E29"/><path d="M35.322 74.596l9.689-23.672c1.237.462 2.623.979 4.322 1.628l-.055 3.717-2.661 1.072 1.418 2.403-12.713 14.852" fill="#FFF"/><path d="M45.423 51.87l-7.67 18.74 9.375-10.948-1.15-1.947-.065-.616.429-.445 2.2-.89.038-2.706c-1.188-.451-2.216-.836-3.157-1.188zm-10.1 23.468l-.391-.11-.297-.912 9.689-23.678.945-.412.65.247c1.077.402 2.27.847 3.678 1.386l.478.704-.055 3.717-.467.67-1.859.754.98 1.66-.078.864-12.713 14.847-.56.263z" fill="#282E29"/></g></svg>