<svg width="105" height="63" viewBox="0 0 105 63" xmlns="http://www.w3.org/2000/svg"><title>handshake-agreement</title><g fill="none" fill-rule="evenodd"><path d="M14.418 32.075c1.292 1.11 8.352 6.604 8.517 7.445 6.324-6.466 9.387-2.485 10.607.28 3.41-1.187 10.459-2.87 11.421 3.07 2.97-.067 8.034.84 7.533 7.884 4.003.952 5.29 3.14 4.993 5.565l-.099 1.48c1.875.065 4.905.07 5.416-3.24 1.177.11 7.292 1.37 6.918-4.245-.803.182 7.555 1.37 7.016-5.982 0 0 6.873-.259 2.59-6 0 0-25.822-26.426-31.684-18.293-1.732.676-14.879 6.12-11.37-9.365l1.033-1.65-10.69-.098-.824 1.875c-1.694 3.227-9.766 19.768-11.377 21.274" fill="#FFF"/><path d="M53.448 50.056c4.794 1.424 5.174 4.57 4.948 6.378l-.016.407v.055c2.238-.044 3.26-.77 3.52-2.48l.994-.775.39.05c.44.055 1.128.148 1.876.148 1.402 0 2.403-.319 2.986-.93.473-.5.698-1.253.676-2.243l-.072-.385.776-.863.704.132.572.028c.791 0 2.77-.143 3.997-1.463.803-.858 1.15-2.112 1.028-3.723l.231-.676.65-.303c.631-.027 2.529-.324 2.996-1.303.33-.687-.066-1.836-1.105-3.233-.116-.104-19.152-19.482-27.648-19.482-1.155 0-1.996.39-2.562 1.177l-.407.319c-1.056.412-3.915 1.534-6.714 1.534-2.238 0-3.937-.71-5.053-2.106-1.584-1.985-1.864-5.295-.83-9.848l.115-.28.165-.27-8.452-.072-.583 1.32c-.4.77-1.088 2.134-1.946 3.85-4.465 8.88-7.49 14.725-8.996 16.924l.979.792c3.656 2.953 5.466 4.498 6.362 5.416 4.553-4.25 8.655-3.86 10.986.534 1.534-.49 3.53-.963 5.433-.963 3.321 0 5.515 1.501 6.257 4.24 1.848.066 4.212.539 5.857 2.31 1.297 1.39 1.93 3.331 1.886 5.784zm4.734 8.671l-.83-.016-.72-.396-.116-.814.033-.687.033-.605c.28-2.282-1.166-3.822-4.295-4.564l-.703-.957c.159-2.287-.297-4.03-1.359-5.174-1.336-1.43-3.447-1.732-4.981-1.732h-.259l-.93-.764c-.384-2.365-1.841-3.465-4.607-3.465-1.985 0-4.14.605-5.609 1.117l-1.138-.495c-.649-1.48-1.815-3.228-3.679-3.228-1.523 0-3.348 1.078-5.432 3.217l-.924.236-.632-.71c-.385-.576-4.685-4.052-6.516-5.536a67.047 67.047 0 0 1-1.694-1.386l-.319-.67.286-.688c1.133-1.061 6.62-11.97 9.254-17.217a449.105 449.105 0 0 1 1.936-3.821l.803-1.815.835-.55h.011l10.684.1.798.478-.028.924-.951 1.517c-.863 3.899-.693 6.643.511 8.15.754.94 1.974 1.418 3.624 1.418 2.348 0 4.839-.94 5.807-1.314.918-1.139 2.221-1.716 3.876-1.716 9.266 0 28.23 19.306 29.033 20.125 1.595 2.123 2.03 3.85 1.37 5.219-.726 1.523-2.546 2.05-3.674 2.238-.027 1.732-.544 3.145-1.54 4.212-1.715 1.853-4.305 2.05-5.338 2.05l-.176-.005c-.1 1.133-.484 2.062-1.15 2.766-.94.99-2.397 1.501-4.316 1.501-.616 0-1.188-.05-1.65-.104-.654 2.1-2.441 3.161-5.328 3.161z" fill="#282E29"/><path d="M102.93 25.812c1.282 2.453.479 5.41-1.798 6.604l-3.024 1.59c-2.282 1.192-5.174.17-6.455-2.277L81.332 12.038c-1.282-2.452-.479-5.41 1.798-6.604l3.024-1.59c2.276-1.192 5.169-.17 6.45 2.283l10.326 19.685" fill="#FFF"/><path d="M88.188 4.263c-.566 0-1.11.132-1.61.396l-3.025 1.583c-1.831.963-2.458 3.371-1.408 5.373L92.466 31.3c1.007 1.93 3.437 2.82 5.213 1.891l3.03-1.583c1.825-.962 2.458-3.365 1.408-5.367L91.79 6.551c-.72-1.392-2.139-2.288-3.602-2.288zm7.88 31.155c-2.166 0-4.173-1.253-5.224-3.266L80.518 12.467C79 9.564 79.984 6.05 82.7 4.626l3.024-1.59c2.672-1.402 6.208-.159 7.693 2.667l10.32 19.686c1.518 2.898.54 6.411-2.182 7.835l-3.025 1.59a5.25 5.25 0 0 1-2.463.604z" fill="#282E29"/><path d="M89.882 33.037l-6.12 5.972c-5.763-6.065-28.406-32.431-38.403-21.83 0 0-8.985 4.333-4.8-5.883 0 0 5.267-8.21 11.151-5.576 2.447.99 23.826 12.136 27.323 6.989h.248l.302.687 10.299 19.641" fill="#FFF"/><path d="M51.182 13.776c10.486 0 25.24 15.962 31.54 22.775l1.067 1.15 4.966-4.84L78.918 14.1c-.83.583-1.99.874-3.46.874-6.24 0-17.452-5.29-22.236-7.55-.89-.423-1.54-.73-1.858-.857a4.907 4.907 0 0 0-2.046-.457c-4.283 0-7.951 5.62-7.99 5.68-1.358 3.366-.962 4.57-.72 4.927.072.11.308.457 1.215.457 1.172 0 2.557-.561 2.997-.76 1.716-1.748 3.855-2.638 6.362-2.638zm32.58 26.151h-.017l-.648-.286c-.462-.495-1.045-1.116-1.716-1.842-6.137-6.642-20.516-22.192-30.199-22.192-2.078 0-3.76.72-5.158 2.2l-.27.192c-.082.043-2.094 1.006-3.93 1.006-1.557 0-2.349-.688-2.739-1.27-.902-1.342-.698-3.558.627-6.786.247-.412 4.322-6.67 9.606-6.67.946 0 1.88.204 2.766.605.302.121.984.44 1.919.88 4.674 2.21 15.622 7.38 21.456 7.38 1.44 0 2.386-.32 2.81-.952l.764-.396h.248l.863.605.253.572L90.696 32.62l-.176 1.077-6.115 5.966-.643.264z" fill="#282E29"/><path d="M32.448 42.182s11.212-5.163 10.8 2.683c0 0 8.885-1.919 7.236 7.374 14.483 1.809-5.63 17.14-6.588 5.57 0 0-9.518 4.542-7.66-4.333 0 0-8.374 3.712-7.967-4.547 0 0-10.816-1.067-4.212-7.962 6.604-6.896 8.391 1.215 8.391 1.215" fill="#FFF"/><path d="M43.896 56.896l.451.116.457.726c.192 2.282 1.198 3.442 2.985 3.442 2.931 0 6.857-2.986 6.995-5.323.12-1.864-2.717-2.496-4.416-2.71l-.621-.37-.165-.703c.407-2.293.165-3.987-.726-5.053-1.71-2.04-5.41-1.27-5.416-1.26l-.786-.203-.325-.742c.066-1.166-.165-2.035-.676-2.574-.511-.539-1.364-.808-2.535-.808-2.81 0-6.252 1.562-6.285 1.578l-.792-.016-.49-.616c-.005-.033-.753-3.283-2.787-3.283-1.083 0-2.485.869-4.047 2.496-1.056 1.111-2.227 2.678-1.782 3.877.627 1.7 4.223 2.43 5.422 2.551l.83.952c-.088 1.682.215 2.892.886 3.596.522.544 1.308.825 2.353.825 1.705 0 3.426-.748 3.442-.76l.946.133.319.896c-.363 1.754-.275 3.046.27 3.712.368.45 1.006.682 1.896.682 1.92 0 4.18-1.062 4.201-1.073l.396-.088zm3.893 6.115c-1.187 0-3.849-.407-4.63-3.915-.978.363-2.457.792-3.86.792-1.468 0-2.584-.451-3.315-1.353-.704-.869-.996-2.112-.869-3.712-.753.21-1.71.402-2.689.402-1.562 0-2.799-.468-3.679-1.391-.89-.946-1.363-2.32-1.402-4.108-1.677-.28-5.212-1.155-6.13-3.618-.617-1.677.115-3.618 2.177-5.78 1.98-2.061 3.733-3.062 5.372-3.062 2.49 0 3.734 2.293 4.261 3.684 1.331-.517 3.828-1.353 6.093-1.353 1.694 0 2.991.468 3.866 1.386.676.71 1.06 1.655 1.16 2.837 1.567-.132 4.399-.027 6.12 2.024 1.11 1.33 1.529 3.222 1.26 5.625 4.596.836 5.179 3.145 5.09 4.504-.203 3.282-4.904 7.038-8.825 7.038z" fill="#282E29"/><path d="M2.277 23.679c-1.281 2.447-.479 5.41 1.798 6.598l3.024 1.59c2.277 1.192 5.169.175 6.456-2.283L23.875 9.9c1.282-2.452.479-5.41-1.797-6.599l-3.025-1.589c-2.276-1.193-5.169-.176-6.455 2.277L2.277 23.678" fill="#FFF"/><path d="M17.013 2.13c-1.462 0-2.876.896-3.601 2.287L3.09 24.102c-.517.979-.65 2.084-.369 3.107.275 1 .902 1.803 1.776 2.254l3.025 1.59c1.781.934 4.206.043 5.218-1.892L23.06 9.476a4.24 4.24 0 0 0 .364-3.107c-.27-1.001-.902-1.804-1.77-2.26l-3.03-1.59c-.501-.258-1.04-.39-1.612-.39zM9.14 33.284c-.869 0-1.699-.204-2.469-.605l-3.019-1.59c-1.33-.697-2.287-1.902-2.694-3.397a6.07 6.07 0 0 1 .511-4.438L11.784 3.56c1.485-2.82 5.015-4.07 7.693-2.656L22.5 2.487c1.33.698 2.282 1.902 2.694 3.398.396 1.474.215 3.052-.511 4.443L14.363 30.013c-1.05 2.013-3.057 3.272-5.224 3.272z" fill="#282E29"/><path d="M99.956 25.158c1.1 2.045.709 4.366-.908 5.053l-1.935.995c-1.512.798-3.602-.22-4.603-2.265l-8.275-16.249c-1-2.045-.61-4.256.902-5.053l2.05-.995c1.513-.798 3.597.22 4.587 2.265l8.182 16.249" fill="#78BD4D"/><path d="M4.751 23.3c-1.105 2.094-.775 4.404.77 5.283l2.095 1.1c1.54.886 3.75-.22 4.85-2.2l9.04-16.732c1.11-1.985.78-4.404-.765-5.29l-1.99-1.1c-1.655-.77-3.745.22-4.96 2.316l-9.04 16.622" fill="#9B569D"/></g></svg>