<svg width="91" height="82" viewBox="0 0 91 82" xmlns="http://www.w3.org/2000/svg"><title>team-relationship</title><g fill="none" fill-rule="evenodd"><path d="M51.488 7.76c0 3.718-2.656 7.374-5.928 7.374-3.277 0-5.927-3.656-5.927-7.373 0-3.712 2.65-6.412 5.927-6.412 3.272 0 5.928 2.7 5.928 6.412" fill="#FFF"/><path d="M45.56 2.097c-2.958 0-5.19 2.43-5.19 5.664 0 3.47 2.48 6.626 5.19 6.626 2.717 0 5.186-3.157 5.186-6.626 0-3.234-2.227-5.664-5.186-5.664zm0 13.774c-3.557 0-6.67-3.783-6.67-8.11 0-4.009 2.926-7.149 6.67-7.149 3.74 0 6.67 3.14 6.67 7.149 0 4.327-3.117 8.11-6.67 8.11z" fill="#282E29"/><path d="M30.79 33.396c0-7.968 3.68-14.435 10.366-14.435l4.052 12.164 4.234-12.164c6.687 0 10.371 6.467 10.371 14.435H30.791" fill="#FFF"/><path d="M31.544 32.653h27.51c-.198-6.384-3.04-12.592-9.09-12.933l-4.052 11.652-.704.495-.698-.506-3.887-11.64c-6.038.34-8.875 6.554-9.079 12.932zm28.302 1.485H30.791l-.748-.742c0-9.079 4.47-15.177 11.113-15.177l.704.512 3.365 10.09 3.514-10.101.703-.5c6.588 0 11.03 5.993 11.108 14.94l.038.236-.742.742z" fill="#282E29"/><path fill="#78BD4D" d="M45.302 28.029l-2.189-6.852 2.189-2.287 2.177 2.287-2.177 6.852"/><path d="M21.647 54.972c0 3.718-2.656 7.374-5.928 7.374-3.277 0-5.928-3.656-5.928-7.374 0-3.717 2.65-6.406 5.928-6.406 3.272 0 5.928 2.69 5.928 6.406" fill="#FFF"/><path d="M15.719 49.309c-2.958 0-5.185 2.43-5.185 5.663 0 3.47 2.469 6.626 5.185 6.626 2.71 0 5.185-3.156 5.185-6.626 0-3.233-2.232-5.663-5.185-5.663zm0 13.78c-3.558 0-6.67-3.795-6.67-8.117 0-4.008 2.925-7.148 6.67-7.148s6.67 3.14 6.67 7.148c0 4.322-3.118 8.116-6.67 8.116z" fill="#282E29"/><path d="M.95 80.602c0-7.968 3.678-14.429 10.364-14.429l4.053 12.163 4.229-12.163c6.691 0 10.37 6.461 10.37 14.429H.95" fill="#FFF"/><path d="M1.703 79.865h27.51c-.204-6.384-3.047-12.597-9.09-12.933l-4.052 11.652-.704.5-.698-.511-3.882-11.64c-6.043.34-8.88 6.554-9.084 12.932zm28.302 1.485H.949l-.742-.748c0-9.073 4.465-15.171 11.107-15.171l.704.506 3.366 10.095 3.513-10.1.699-.501c6.587 0 11.035 5.994 11.112 14.934l.033.237-.736.748z" fill="#282E29"/><path fill="#78BD4D" d="M15.455 75.24l-2.177-6.85 2.177-2.288 2.188 2.287-2.188 6.852"/><path d="M81.33 54.972c0 3.718-2.656 7.374-5.934 7.374-3.266 0-5.927-3.656-5.927-7.374 0-3.717 2.661-6.406 5.927-6.406 3.278 0 5.933 2.69 5.933 6.406" fill="#FFF"/><path d="M75.396 49.309c-2.952 0-5.185 2.43-5.185 5.663 0 3.47 2.474 6.626 5.185 6.626 2.722 0 5.191-3.156 5.191-6.626 0-3.233-2.227-5.663-5.19-5.663zm0 13.78c-3.552 0-6.664-3.795-6.664-8.117 0-4.008 2.93-7.148 6.664-7.148 3.745 0 6.67 3.14 6.67 7.148 0 4.322-3.112 8.116-6.67 8.116z" fill="#282E29"/><path d="M60.632 80.602c0-7.968 3.684-14.429 10.37-14.429l4.053 12.163 4.223-12.163c6.687 0 10.37 6.461 10.37 14.429H60.633" fill="#FFF"/><path d="M61.386 79.865H88.9c-.209-6.384-3.046-12.597-9.1-12.933l-4.047 11.652-.71.5-.698-.511-3.877-11.64c-6.043.34-8.88 6.554-9.083 12.932zm28.301 1.485H60.632l-.742-.748c0-9.073 4.465-15.171 11.113-15.171l.704.506 3.36 10.095 3.513-10.1.698-.501c6.593 0 11.036 5.994 11.113 14.934l.039.237-.743.748z" fill="#282E29"/><path fill="#78BD4D" d="M75.143 75.24l-2.188-6.85 2.188-2.288 2.178 2.287-2.178 6.852"/><path d="M81.357 30.75l-3.349 4.768-3.349-4.767h2.189v-4.773c0-1.529-.726-2.97-2.04-4.053-1.314-1.083-3.068-1.677-4.921-1.677h-1.749V18.34h1.749c2.474 0 4.811.792 6.56 2.238 1.754 1.44 2.721 3.354 2.721 5.4v4.773h2.189M9.236 30.75l3.36 4.768 3.343-4.767h-2.183v-4.773c0-1.529.72-2.97 2.04-4.053 1.309-1.083 3.057-1.677 4.921-1.677h1.743V18.34h-1.743c-2.48 0-4.811.792-6.565 2.238-1.76 1.44-2.717 3.354-2.717 5.4v4.773H9.236M55.013 79.134H40.925v1.407l-6.175-2.815 6.175-2.82v1.412h14.088v2.816" stroke="#9B569D" stroke-linejoin="round" fill="#9B569D"/></g></svg>